<?xml version="1.0" encoding="utf-8" standalone="no"?>
<!DOCTYPE svg PUBLIC "-//W3C//DTD SVG 1.1//EN"
  "http://www.w3.org/Graphics/SVG/1.1/DTD/svg11.dtd">
<svg xmlns:xlink="http://www.w3.org/1999/xlink" width="460.8pt" height="345.6pt" viewBox="0 0 460.8 345.6" xmlns="http://www.w3.org/2000/svg" version="1.1">
 <metadata>
  <rdf:RDF xmlns:dc="http://purl.org/dc/elements/1.1/" xmlns:cc="http://creativecommons.org/ns#" xmlns:rdf="http://www.w3.org/1999/02/22-rdf-syntax-ns#">
   <cc:Work>
    <dc:type rdf:resource="http://purl.org/dc/dcmitype/StillImage"/>
    <dc:date>2023-03-29T10:51:49.591655</dc:date>
    <dc:format>image/svg+xml</dc:format>
    <dc:creator>
     <cc:Agent>
      <dc:title>Matplotlib v3.6.2, https://matplotlib.org/</dc:title>
     </cc:Agent>
    </dc:creator>
   </cc:Work>
  </rdf:RDF>
 </metadata>
 <defs>
  <style type="text/css">*{stroke-linejoin: round; stroke-linecap: butt}</style>
 </defs>
 <g id="figure_1">
  <g id="patch_1">
   <path d="M 0 345.6 
L 460.8 345.6 
L 460.8 0 
L 0 0 
z
" style="fill: #ffffff"/>
  </g>
  <g id="axes_1">
   <g id="patch_2">
    <path d="M 57.6 307.584 
L 414.72 307.584 
L 414.72 41.472 
L 57.6 41.472 
z
" style="fill: #ffffff"/>
   </g>
   <g id="matplotlib.axis_1">
    <g id="xtick_1">
     <g id="line2d_1">
      <defs>
       <path id="m4f7c1e17e1" d="M 0 0 
L 0 3.5 
" style="stroke: #000000; stroke-width: 0.8"/>
      </defs>
      <g>
       <use xlink:href="#m4f7c1e17e1" x="73.832727" y="307.584" style="stroke: #000000; stroke-width: 0.8"/>
      </g>
     </g>
     <g id="text_1">
      <!-- 0 -->
      <g transform="translate(70.651477 322.182437) scale(0.1 -0.1)">
       <defs>
        <path id="DejaVuSans-30" d="M 2034 4250 
Q 1547 4250 1301 3770 
Q 1056 3291 1056 2328 
Q 1056 1369 1301 889 
Q 1547 409 2034 409 
Q 2525 409 2770 889 
Q 3016 1369 3016 2328 
Q 3016 3291 2770 3770 
Q 2525 4250 2034 4250 
z
M 2034 4750 
Q 2819 4750 3233 4129 
Q 3647 3509 3647 2328 
Q 3647 1150 3233 529 
Q 2819 -91 2034 -91 
Q 1250 -91 836 529 
Q 422 1150 422 2328 
Q 422 3509 836 4129 
Q 1250 4750 2034 4750 
z
" transform="scale(0.015625)"/>
       </defs>
       <use xlink:href="#DejaVuSans-30"/>
      </g>
     </g>
    </g>
    <g id="xtick_2">
     <g id="line2d_2">
      <g>
       <use xlink:href="#m4f7c1e17e1" x="138.893758" y="307.584" style="stroke: #000000; stroke-width: 0.8"/>
      </g>
     </g>
     <g id="text_2">
      <!-- 100 -->
      <g transform="translate(129.350008 322.182437) scale(0.1 -0.1)">
       <defs>
        <path id="DejaVuSans-31" d="M 794 531 
L 1825 531 
L 1825 4091 
L 703 3866 
L 703 4441 
L 1819 4666 
L 2450 4666 
L 2450 531 
L 3481 531 
L 3481 0 
L 794 0 
L 794 531 
z
" transform="scale(0.015625)"/>
       </defs>
       <use xlink:href="#DejaVuSans-31"/>
       <use xlink:href="#DejaVuSans-30" x="63.623047"/>
       <use xlink:href="#DejaVuSans-30" x="127.246094"/>
      </g>
     </g>
    </g>
    <g id="xtick_3">
     <g id="line2d_3">
      <g>
       <use xlink:href="#m4f7c1e17e1" x="203.95479" y="307.584" style="stroke: #000000; stroke-width: 0.8"/>
      </g>
     </g>
     <g id="text_3">
      <!-- 200 -->
      <g transform="translate(194.41104 322.182437) scale(0.1 -0.1)">
       <defs>
        <path id="DejaVuSans-32" d="M 1228 531 
L 3431 531 
L 3431 0 
L 469 0 
L 469 531 
Q 828 903 1448 1529 
Q 2069 2156 2228 2338 
Q 2531 2678 2651 2914 
Q 2772 3150 2772 3378 
Q 2772 3750 2511 3984 
Q 2250 4219 1831 4219 
Q 1534 4219 1204 4116 
Q 875 4013 500 3803 
L 500 4441 
Q 881 4594 1212 4672 
Q 1544 4750 1819 4750 
Q 2544 4750 2975 4387 
Q 3406 4025 3406 3419 
Q 3406 3131 3298 2873 
Q 3191 2616 2906 2266 
Q 2828 2175 2409 1742 
Q 1991 1309 1228 531 
z
" transform="scale(0.015625)"/>
       </defs>
       <use xlink:href="#DejaVuSans-32"/>
       <use xlink:href="#DejaVuSans-30" x="63.623047"/>
       <use xlink:href="#DejaVuSans-30" x="127.246094"/>
      </g>
     </g>
    </g>
    <g id="xtick_4">
     <g id="line2d_4">
      <g>
       <use xlink:href="#m4f7c1e17e1" x="269.015821" y="307.584" style="stroke: #000000; stroke-width: 0.8"/>
      </g>
     </g>
     <g id="text_4">
      <!-- 300 -->
      <g transform="translate(259.472071 322.182437) scale(0.1 -0.1)">
       <defs>
        <path id="DejaVuSans-33" d="M 2597 2516 
Q 3050 2419 3304 2112 
Q 3559 1806 3559 1356 
Q 3559 666 3084 287 
Q 2609 -91 1734 -91 
Q 1441 -91 1130 -33 
Q 819 25 488 141 
L 488 750 
Q 750 597 1062 519 
Q 1375 441 1716 441 
Q 2309 441 2620 675 
Q 2931 909 2931 1356 
Q 2931 1769 2642 2001 
Q 2353 2234 1838 2234 
L 1294 2234 
L 1294 2753 
L 1863 2753 
Q 2328 2753 2575 2939 
Q 2822 3125 2822 3475 
Q 2822 3834 2567 4026 
Q 2313 4219 1838 4219 
Q 1578 4219 1281 4162 
Q 984 4106 628 3988 
L 628 4550 
Q 988 4650 1302 4700 
Q 1616 4750 1894 4750 
Q 2613 4750 3031 4423 
Q 3450 4097 3450 3541 
Q 3450 3153 3228 2886 
Q 3006 2619 2597 2516 
z
" transform="scale(0.015625)"/>
       </defs>
       <use xlink:href="#DejaVuSans-33"/>
       <use xlink:href="#DejaVuSans-30" x="63.623047"/>
       <use xlink:href="#DejaVuSans-30" x="127.246094"/>
      </g>
     </g>
    </g>
    <g id="xtick_5">
     <g id="line2d_5">
      <g>
       <use xlink:href="#m4f7c1e17e1" x="334.076852" y="307.584" style="stroke: #000000; stroke-width: 0.8"/>
      </g>
     </g>
     <g id="text_5">
      <!-- 400 -->
      <g transform="translate(324.533102 322.182437) scale(0.1 -0.1)">
       <defs>
        <path id="DejaVuSans-34" d="M 2419 4116 
L 825 1625 
L 2419 1625 
L 2419 4116 
z
M 2253 4666 
L 3047 4666 
L 3047 1625 
L 3713 1625 
L 3713 1100 
L 3047 1100 
L 3047 0 
L 2419 0 
L 2419 1100 
L 313 1100 
L 313 1709 
L 2253 4666 
z
" transform="scale(0.015625)"/>
       </defs>
       <use xlink:href="#DejaVuSans-34"/>
       <use xlink:href="#DejaVuSans-30" x="63.623047"/>
       <use xlink:href="#DejaVuSans-30" x="127.246094"/>
      </g>
     </g>
    </g>
    <g id="xtick_6">
     <g id="line2d_6">
      <g>
       <use xlink:href="#m4f7c1e17e1" x="399.137883" y="307.584" style="stroke: #000000; stroke-width: 0.8"/>
      </g>
     </g>
     <g id="text_6">
      <!-- 500 -->
      <g transform="translate(389.594133 322.182437) scale(0.1 -0.1)">
       <defs>
        <path id="DejaVuSans-35" d="M 691 4666 
L 3169 4666 
L 3169 4134 
L 1269 4134 
L 1269 2991 
Q 1406 3038 1543 3061 
Q 1681 3084 1819 3084 
Q 2600 3084 3056 2656 
Q 3513 2228 3513 1497 
Q 3513 744 3044 326 
Q 2575 -91 1722 -91 
Q 1428 -91 1123 -41 
Q 819 9 494 109 
L 494 744 
Q 775 591 1075 516 
Q 1375 441 1709 441 
Q 2250 441 2565 725 
Q 2881 1009 2881 1497 
Q 2881 1984 2565 2268 
Q 2250 2553 1709 2553 
Q 1456 2553 1204 2497 
Q 953 2441 691 2322 
L 691 4666 
z
" transform="scale(0.015625)"/>
       </defs>
       <use xlink:href="#DejaVuSans-35"/>
       <use xlink:href="#DejaVuSans-30" x="63.623047"/>
       <use xlink:href="#DejaVuSans-30" x="127.246094"/>
      </g>
     </g>
    </g>
    <g id="text_7">
     <!-- EPISODE -->
     <g transform="translate(214.39125 335.860562) scale(0.1 -0.1)">
      <defs>
       <path id="DejaVuSans-45" d="M 628 4666 
L 3578 4666 
L 3578 4134 
L 1259 4134 
L 1259 2753 
L 3481 2753 
L 3481 2222 
L 1259 2222 
L 1259 531 
L 3634 531 
L 3634 0 
L 628 0 
L 628 4666 
z
" transform="scale(0.015625)"/>
       <path id="DejaVuSans-50" d="M 1259 4147 
L 1259 2394 
L 2053 2394 
Q 2494 2394 2734 2622 
Q 2975 2850 2975 3272 
Q 2975 3691 2734 3919 
Q 2494 4147 2053 4147 
L 1259 4147 
z
M 628 4666 
L 2053 4666 
Q 2838 4666 3239 4311 
Q 3641 3956 3641 3272 
Q 3641 2581 3239 2228 
Q 2838 1875 2053 1875 
L 1259 1875 
L 1259 0 
L 628 0 
L 628 4666 
z
" transform="scale(0.015625)"/>
       <path id="DejaVuSans-49" d="M 628 4666 
L 1259 4666 
L 1259 0 
L 628 0 
L 628 4666 
z
" transform="scale(0.015625)"/>
       <path id="DejaVuSans-53" d="M 3425 4513 
L 3425 3897 
Q 3066 4069 2747 4153 
Q 2428 4238 2131 4238 
Q 1616 4238 1336 4038 
Q 1056 3838 1056 3469 
Q 1056 3159 1242 3001 
Q 1428 2844 1947 2747 
L 2328 2669 
Q 3034 2534 3370 2195 
Q 3706 1856 3706 1288 
Q 3706 609 3251 259 
Q 2797 -91 1919 -91 
Q 1588 -91 1214 -16 
Q 841 59 441 206 
L 441 856 
Q 825 641 1194 531 
Q 1563 422 1919 422 
Q 2459 422 2753 634 
Q 3047 847 3047 1241 
Q 3047 1584 2836 1778 
Q 2625 1972 2144 2069 
L 1759 2144 
Q 1053 2284 737 2584 
Q 422 2884 422 3419 
Q 422 4038 858 4394 
Q 1294 4750 2059 4750 
Q 2388 4750 2728 4690 
Q 3069 4631 3425 4513 
z
" transform="scale(0.015625)"/>
       <path id="DejaVuSans-4f" d="M 2522 4238 
Q 1834 4238 1429 3725 
Q 1025 3213 1025 2328 
Q 1025 1447 1429 934 
Q 1834 422 2522 422 
Q 3209 422 3611 934 
Q 4013 1447 4013 2328 
Q 4013 3213 3611 3725 
Q 3209 4238 2522 4238 
z
M 2522 4750 
Q 3503 4750 4090 4092 
Q 4678 3434 4678 2328 
Q 4678 1225 4090 567 
Q 3503 -91 2522 -91 
Q 1538 -91 948 565 
Q 359 1222 359 2328 
Q 359 3434 948 4092 
Q 1538 4750 2522 4750 
z
" transform="scale(0.015625)"/>
       <path id="DejaVuSans-44" d="M 1259 4147 
L 1259 519 
L 2022 519 
Q 2988 519 3436 956 
Q 3884 1394 3884 2338 
Q 3884 3275 3436 3711 
Q 2988 4147 2022 4147 
L 1259 4147 
z
M 628 4666 
L 1925 4666 
Q 3281 4666 3915 4102 
Q 4550 3538 4550 2338 
Q 4550 1131 3912 565 
Q 3275 0 1925 0 
L 628 0 
L 628 4666 
z
" transform="scale(0.015625)"/>
      </defs>
      <use xlink:href="#DejaVuSans-45"/>
      <use xlink:href="#DejaVuSans-50" x="63.183594"/>
      <use xlink:href="#DejaVuSans-49" x="123.486328"/>
      <use xlink:href="#DejaVuSans-53" x="152.978516"/>
      <use xlink:href="#DejaVuSans-4f" x="216.455078"/>
      <use xlink:href="#DejaVuSans-44" x="295.166016"/>
      <use xlink:href="#DejaVuSans-45" x="372.167969"/>
     </g>
    </g>
   </g>
   <g id="matplotlib.axis_2">
    <g id="ytick_1">
     <g id="line2d_7">
      <defs>
       <path id="m1e64fc4981" d="M 0 0 
L -3.5 0 
" style="stroke: #000000; stroke-width: 0.8"/>
      </defs>
      <g>
       <use xlink:href="#m1e64fc4981" x="57.6" y="293.277135" style="stroke: #000000; stroke-width: 0.8"/>
      </g>
     </g>
     <g id="text_8">
      <!-- −1750 -->
      <g transform="translate(16.770313 297.076353) scale(0.1 -0.1)">
       <defs>
        <path id="DejaVuSans-2212" d="M 678 2272 
L 4684 2272 
L 4684 1741 
L 678 1741 
L 678 2272 
z
" transform="scale(0.015625)"/>
        <path id="DejaVuSans-37" d="M 525 4666 
L 3525 4666 
L 3525 4397 
L 1831 0 
L 1172 0 
L 2766 4134 
L 525 4134 
L 525 4666 
z
" transform="scale(0.015625)"/>
       </defs>
       <use xlink:href="#DejaVuSans-2212"/>
       <use xlink:href="#DejaVuSans-31" x="83.789062"/>
       <use xlink:href="#DejaVuSans-37" x="147.412109"/>
       <use xlink:href="#DejaVuSans-35" x="211.035156"/>
       <use xlink:href="#DejaVuSans-30" x="274.658203"/>
      </g>
     </g>
    </g>
    <g id="ytick_2">
     <g id="line2d_8">
      <g>
       <use xlink:href="#m1e64fc4981" x="57.6" y="259.025168" style="stroke: #000000; stroke-width: 0.8"/>
      </g>
     </g>
     <g id="text_9">
      <!-- −1500 -->
      <g transform="translate(16.770313 262.824386) scale(0.1 -0.1)">
       <use xlink:href="#DejaVuSans-2212"/>
       <use xlink:href="#DejaVuSans-31" x="83.789062"/>
       <use xlink:href="#DejaVuSans-35" x="147.412109"/>
       <use xlink:href="#DejaVuSans-30" x="211.035156"/>
       <use xlink:href="#DejaVuSans-30" x="274.658203"/>
      </g>
     </g>
    </g>
    <g id="ytick_3">
     <g id="line2d_9">
      <g>
       <use xlink:href="#m1e64fc4981" x="57.6" y="224.773201" style="stroke: #000000; stroke-width: 0.8"/>
      </g>
     </g>
     <g id="text_10">
      <!-- −1250 -->
      <g transform="translate(16.770313 228.572419) scale(0.1 -0.1)">
       <use xlink:href="#DejaVuSans-2212"/>
       <use xlink:href="#DejaVuSans-31" x="83.789062"/>
       <use xlink:href="#DejaVuSans-32" x="147.412109"/>
       <use xlink:href="#DejaVuSans-35" x="211.035156"/>
       <use xlink:href="#DejaVuSans-30" x="274.658203"/>
      </g>
     </g>
    </g>
    <g id="ytick_4">
     <g id="line2d_10">
      <g>
       <use xlink:href="#m1e64fc4981" x="57.6" y="190.521234" style="stroke: #000000; stroke-width: 0.8"/>
      </g>
     </g>
     <g id="text_11">
      <!-- −1000 -->
      <g transform="translate(16.770313 194.320453) scale(0.1 -0.1)">
       <use xlink:href="#DejaVuSans-2212"/>
       <use xlink:href="#DejaVuSans-31" x="83.789062"/>
       <use xlink:href="#DejaVuSans-30" x="147.412109"/>
       <use xlink:href="#DejaVuSans-30" x="211.035156"/>
       <use xlink:href="#DejaVuSans-30" x="274.658203"/>
      </g>
     </g>
    </g>
    <g id="ytick_5">
     <g id="line2d_11">
      <g>
       <use xlink:href="#m1e64fc4981" x="57.6" y="156.269267" style="stroke: #000000; stroke-width: 0.8"/>
      </g>
     </g>
     <g id="text_12">
      <!-- −750 -->
      <g transform="translate(23.132812 160.068486) scale(0.1 -0.1)">
       <use xlink:href="#DejaVuSans-2212"/>
       <use xlink:href="#DejaVuSans-37" x="83.789062"/>
       <use xlink:href="#DejaVuSans-35" x="147.412109"/>
       <use xlink:href="#DejaVuSans-30" x="211.035156"/>
      </g>
     </g>
    </g>
    <g id="ytick_6">
     <g id="line2d_12">
      <g>
       <use xlink:href="#m1e64fc4981" x="57.6" y="122.0173" style="stroke: #000000; stroke-width: 0.8"/>
      </g>
     </g>
     <g id="text_13">
      <!-- −500 -->
      <g transform="translate(23.132812 125.816519) scale(0.1 -0.1)">
       <use xlink:href="#DejaVuSans-2212"/>
       <use xlink:href="#DejaVuSans-35" x="83.789062"/>
       <use xlink:href="#DejaVuSans-30" x="147.412109"/>
       <use xlink:href="#DejaVuSans-30" x="211.035156"/>
      </g>
     </g>
    </g>
    <g id="ytick_7">
     <g id="line2d_13">
      <g>
       <use xlink:href="#m1e64fc4981" x="57.6" y="87.765333" style="stroke: #000000; stroke-width: 0.8"/>
      </g>
     </g>
     <g id="text_14">
      <!-- −250 -->
      <g transform="translate(23.132812 91.564552) scale(0.1 -0.1)">
       <use xlink:href="#DejaVuSans-2212"/>
       <use xlink:href="#DejaVuSans-32" x="83.789062"/>
       <use xlink:href="#DejaVuSans-35" x="147.412109"/>
       <use xlink:href="#DejaVuSans-30" x="211.035156"/>
      </g>
     </g>
    </g>
    <g id="ytick_8">
     <g id="line2d_14">
      <g>
       <use xlink:href="#m1e64fc4981" x="57.6" y="53.513366" style="stroke: #000000; stroke-width: 0.8"/>
      </g>
     </g>
     <g id="text_15">
      <!-- 0 -->
      <g transform="translate(44.2375 57.312585) scale(0.1 -0.1)">
       <use xlink:href="#DejaVuSans-30"/>
      </g>
     </g>
    </g>
    <g id="text_16">
     <!-- RETURN -->
     <g transform="translate(10.690625 195.089719) rotate(-90) scale(0.1 -0.1)">
      <defs>
       <path id="DejaVuSans-52" d="M 2841 2188 
Q 3044 2119 3236 1894 
Q 3428 1669 3622 1275 
L 4263 0 
L 3584 0 
L 2988 1197 
Q 2756 1666 2539 1819 
Q 2322 1972 1947 1972 
L 1259 1972 
L 1259 0 
L 628 0 
L 628 4666 
L 2053 4666 
Q 2853 4666 3247 4331 
Q 3641 3997 3641 3322 
Q 3641 2881 3436 2590 
Q 3231 2300 2841 2188 
z
M 1259 4147 
L 1259 2491 
L 2053 2491 
Q 2509 2491 2742 2702 
Q 2975 2913 2975 3322 
Q 2975 3731 2742 3939 
Q 2509 4147 2053 4147 
L 1259 4147 
z
" transform="scale(0.015625)"/>
       <path id="DejaVuSans-54" d="M -19 4666 
L 3928 4666 
L 3928 4134 
L 2272 4134 
L 2272 0 
L 1638 0 
L 1638 4134 
L -19 4134 
L -19 4666 
z
" transform="scale(0.015625)"/>
       <path id="DejaVuSans-55" d="M 556 4666 
L 1191 4666 
L 1191 1831 
Q 1191 1081 1462 751 
Q 1734 422 2344 422 
Q 2950 422 3222 751 
Q 3494 1081 3494 1831 
L 3494 4666 
L 4128 4666 
L 4128 1753 
Q 4128 841 3676 375 
Q 3225 -91 2344 -91 
Q 1459 -91 1007 375 
Q 556 841 556 1753 
L 556 4666 
z
" transform="scale(0.015625)"/>
       <path id="DejaVuSans-4e" d="M 628 4666 
L 1478 4666 
L 3547 763 
L 3547 4666 
L 4159 4666 
L 4159 0 
L 3309 0 
L 1241 3903 
L 1241 0 
L 628 0 
L 628 4666 
z
" transform="scale(0.015625)"/>
      </defs>
      <use xlink:href="#DejaVuSans-52"/>
      <use xlink:href="#DejaVuSans-45" x="69.482422"/>
      <use xlink:href="#DejaVuSans-54" x="132.666016"/>
      <use xlink:href="#DejaVuSans-55" x="193.75"/>
      <use xlink:href="#DejaVuSans-52" x="266.943359"/>
      <use xlink:href="#DejaVuSans-4e" x="336.425781"/>
     </g>
    </g>
   </g>
   <g id="line2d_15">
    <path d="M 73.832727 282.251571 
L 74.483338 233.376918 
L 75.133948 274.864375 
L 75.784558 256.125739 
L 76.435169 295.488 
L 77.085779 281.169616 
L 77.736389 292.201942 
L 78.386999 276.270032 
L 79.03761 255.821908 
L 79.68822 263.470209 
L 80.33883 268.313983 
L 80.989441 264.683049 
L 81.640051 259.992774 
L 82.290661 252.575427 
L 82.941272 190.258223 
L 83.591882 265.262811 
L 84.242492 248.387061 
L 84.893103 206.596565 
L 85.543713 279.607792 
L 86.194323 242.969292 
L 86.844934 221.656392 
L 87.495544 217.354833 
L 88.146154 232.78778 
L 88.796764 208.491323 
L 89.447375 207.969971 
L 90.097985 218.689572 
L 90.748595 167.625877 
L 91.399206 203.100333 
L 92.049816 199.897477 
L 92.700426 208.541518 
L 93.351037 182.582083 
L 94.001647 202.181741 
L 94.652257 201.034139 
L 95.302868 207.146488 
L 95.953478 160.670469 
L 96.604088 141.935811 
L 97.254698 189.832768 
L 97.905309 192.725038 
L 98.555919 178.499712 
L 99.206529 158.348764 
L 99.85714 182.524648 
L 100.50775 142.535581 
L 101.15836 196.946254 
L 101.808971 174.812226 
L 102.459581 146.511731 
L 103.110191 150.107803 
L 103.760802 176.115209 
L 104.411412 180.510136 
L 105.062022 142.789395 
L 105.712633 170.793301 
L 106.363243 149.468605 
L 107.013853 140.428084 
L 107.664463 152.648675 
L 108.315074 156.199687 
L 108.965684 134.852632 
L 109.616294 140.850964 
L 110.266905 178.899939 
L 110.917515 123.614865 
L 111.568125 156.389822 
L 112.218736 174.122546 
L 112.869346 162.305085 
L 113.519956 159.390119 
L 114.170567 150.781148 
L 114.821177 122.691366 
L 115.471787 141.813827 
L 116.773008 106.106536 
L 117.423618 106.571213 
L 118.074228 139.184507 
L 118.724839 122.221312 
L 120.026059 155.673392 
L 120.67667 156.475721 
L 121.32728 123.465235 
L 121.97789 123.643656 
L 122.628501 119.084775 
L 123.279111 154.931256 
L 123.929721 156.622263 
L 124.580332 141.319391 
L 125.230942 155.890898 
L 125.881552 112.556692 
L 126.532163 177.687309 
L 127.833383 135.508484 
L 128.483993 122.264968 
L 129.134604 121.482504 
L 129.785214 138.868387 
L 130.435824 139.929912 
L 131.086435 137.301659 
L 131.737045 105.877231 
L 132.387655 139.714411 
L 133.038266 139.792859 
L 133.688876 138.978723 
L 134.339486 88.359134 
L 134.990097 267.862542 
L 135.640707 143.810658 
L 136.291317 145.330739 
L 136.941927 157.249391 
L 137.592538 171.626936 
L 138.243148 132.784098 
L 138.893758 122.699565 
L 139.544369 105.455474 
L 140.194979 105.576606 
L 140.845589 111.29049 
L 141.4962 71.364588 
L 142.14681 87.887186 
L 142.79742 127.653387 
L 143.448031 121.115294 
L 144.098641 105.47443 
L 144.749251 117.650458 
L 145.399862 122.182848 
L 146.050472 138.404094 
L 146.701082 141.867924 
L 147.351692 121.980046 
L 148.652913 88.328386 
L 149.303523 103.768479 
L 149.954134 139.849389 
L 150.604744 105.942968 
L 151.255354 105.329262 
L 151.905965 120.813475 
L 152.556575 140.019085 
L 153.857796 107.049669 
L 154.508406 122.288775 
L 155.159016 122.131101 
L 155.809627 155.97542 
L 156.460237 138.732919 
L 157.110847 106.462589 
L 157.761457 149.964651 
L 159.713288 71.580502 
L 160.363899 54.455938 
L 161.014509 105.514675 
L 161.665119 70.76906 
L 162.31573 104.945577 
L 162.96634 88.585193 
L 163.61695 102.734738 
L 164.267561 105.369858 
L 164.918171 71.451827 
L 165.568781 54.434888 
L 166.219392 54.43077 
L 166.870002 104.585075 
L 167.520612 70.917018 
L 168.171222 86.893052 
L 168.821833 70.089817 
L 169.472443 70.678562 
L 170.123053 71.034739 
L 170.773664 91.647846 
L 171.424274 70.308704 
L 172.074884 53.917079 
L 172.725495 71.281848 
L 173.376105 71.253426 
L 174.026715 102.569315 
L 174.677326 70.055606 
L 175.327936 70.797303 
L 175.978546 102.803323 
L 176.629156 91.477655 
L 177.279767 88.071479 
L 177.930377 70.372361 
L 179.231598 105.656136 
L 179.882208 96.20247 
L 180.532818 71.341607 
L 181.183429 71.411981 
L 181.834039 72.256666 
L 182.484649 71.900345 
L 183.13526 86.771865 
L 183.78587 88.527854 
L 184.43648 103.705405 
L 185.087091 103.760255 
L 186.388311 72.843811 
L 187.038921 101.192206 
L 187.689532 88.440552 
L 188.340142 72.328223 
L 188.990752 140.021452 
L 189.641363 121.025964 
L 190.291973 122.539648 
L 190.942583 106.822383 
L 191.593194 53.71519 
L 192.243804 105.715464 
L 192.894414 106.227472 
L 193.545025 87.025988 
L 194.195635 104.801953 
L 194.846245 109.924914 
L 195.496856 89.365371 
L 196.147466 92.650888 
L 196.798076 54.281642 
L 197.448686 137.2158 
L 198.099297 54.184564 
L 198.749907 89.732514 
L 199.400517 71.212097 
L 200.051128 71.156556 
L 200.701738 73.517956 
L 202.002959 105.791649 
L 203.304179 71.27504 
L 203.95479 87.982043 
L 204.6054 71.028476 
L 205.25601 121.387611 
L 205.906621 129.892349 
L 206.557231 135.188481 
L 207.207841 120.05797 
L 207.858451 87.823184 
L 208.509062 105.174314 
L 209.159672 70.553407 
L 209.810282 155.544467 
L 210.460893 54.461541 
L 211.111503 71.343025 
L 211.762113 103.607564 
L 212.412724 71.272303 
L 213.063334 88.78053 
L 213.713944 169.843368 
L 214.364555 54.629368 
L 215.015165 156.492632 
L 215.665775 71.542289 
L 216.316385 155.589625 
L 216.966996 122.668843 
L 217.617606 139.274246 
L 218.268216 71.696928 
L 218.918827 201.671645 
L 219.569437 203.151676 
L 220.220047 182.032278 
L 220.870658 191.938095 
L 221.521268 158.270525 
L 222.171878 191.798275 
L 222.822489 147.974784 
L 223.473099 190.381172 
L 224.123709 87.676999 
L 224.77432 53.98523 
L 225.42493 177.327001 
L 226.07554 133.973277 
L 226.72615 105.052311 
L 227.376761 104.915827 
L 228.027371 104.517843 
L 229.328592 71.423736 
L 229.979202 70.039069 
L 230.629812 104.450131 
L 231.280423 54.541083 
L 231.931033 87.437225 
L 232.581643 88.257024 
L 233.232254 113.883166 
L 233.882864 70.77918 
L 234.533474 70.896784 
L 235.834695 104.041618 
L 236.485305 96.961424 
L 237.135915 54.854361 
L 237.786526 86.523598 
L 238.437136 54.408818 
L 239.087746 71.335744 
L 239.738357 71.552443 
L 240.388967 71.109557 
L 241.039577 87.220666 
L 241.690188 54.840917 
L 242.340798 86.260734 
L 242.991408 87.234238 
L 243.642019 71.029788 
L 244.292629 71.741469 
L 244.943239 71.981319 
L 245.59385 87.936462 
L 246.24446 96.667234 
L 246.89507 123.412562 
L 247.54568 55.154399 
L 248.196291 103.432242 
L 248.846901 92.440142 
L 249.497511 105.1758 
L 250.148122 55.09247 
L 250.798732 55.139197 
L 251.449342 71.61538 
L 252.099953 55.642129 
L 252.750563 55.708187 
L 253.401173 55.444569 
L 254.051784 106.404665 
L 254.702394 71.525845 
L 255.353004 71.030047 
L 256.003615 105.291738 
L 256.654225 55.146379 
L 257.304835 72.08469 
L 257.955445 55.160998 
L 258.606056 88.973318 
L 259.256666 72.617621 
L 259.907276 72.388068 
L 260.557887 72.295386 
L 261.208497 72.328297 
L 261.859107 70.919216 
L 262.509718 102.96302 
L 263.810938 71.510547 
L 264.461549 104.900765 
L 265.112159 87.353897 
L 265.762769 103.825724 
L 266.413379 71.110013 
L 267.06399 103.065363 
L 267.7146 87.42295 
L 268.36521 87.782392 
L 269.015821 86.550225 
L 269.666431 102.751783 
L 270.317041 128.739147 
L 270.967652 181.443301 
L 271.618262 104.693491 
L 272.268872 140.739762 
L 272.919483 129.326403 
L 273.570093 71.056644 
L 275.521924 120.11266 
L 276.172534 87.153872 
L 276.823144 105.705604 
L 277.473755 87.389931 
L 278.124365 54.227344 
L 278.774975 86.485551 
L 279.425586 139.259162 
L 280.076196 87.288596 
L 280.726806 123.529207 
L 281.377417 212.25368 
L 282.028027 102.797489 
L 282.678637 54.0905 
L 283.329248 106.229759 
L 283.979858 70.853908 
L 284.630468 71.674775 
L 285.281079 73.692767 
L 285.931689 83.6314 
L 286.582299 88.95306 
L 287.88352 121.697716 
L 288.53413 117.204963 
L 289.18474 108.167648 
L 289.835351 120.623757 
L 290.485961 119.593047 
L 291.136571 88.040825 
L 291.787182 88.48298 
L 292.437792 122.033571 
L 293.088402 123.198772 
L 293.739013 121.579557 
L 294.389623 170.750491 
L 295.040233 105.615925 
L 295.690844 104.581089 
L 296.341454 105.071846 
L 296.992064 121.081151 
L 297.642674 105.495193 
L 298.293285 121.36532 
L 298.943895 87.699865 
L 299.594505 102.552072 
L 300.245116 54.609222 
L 300.895726 88.087959 
L 301.546336 88.153441 
L 302.196947 87.319005 
L 302.847557 90.530375 
L 303.498167 70.776438 
L 304.148778 86.388432 
L 304.799388 87.329293 
L 305.449998 70.89737 
L 306.100608 88.217836 
L 306.751219 71.056074 
L 307.401829 71.667159 
L 308.052439 121.493345 
L 308.70305 85.155823 
L 309.35366 100.665082 
L 310.00427 88.73541 
L 310.654881 138.6756 
L 311.305491 116.952455 
L 311.956101 86.604299 
L 312.606712 70.674318 
L 313.257322 103.110099 
L 313.907932 119.306856 
L 314.558543 104.812256 
L 315.209153 124.496661 
L 315.859763 167.742322 
L 316.510373 122.141127 
L 317.160984 106.220378 
L 317.811594 122.732494 
L 319.112815 87.780744 
L 319.763425 125.846883 
L 320.414035 87.160492 
L 321.064646 88.446801 
L 321.715256 87.36369 
L 322.365866 105.142912 
L 323.016477 72.77875 
L 323.667087 124.516585 
L 324.317697 88.527079 
L 324.968308 92.019224 
L 325.618918 71.658956 
L 326.269528 54.785799 
L 326.920138 89.142182 
L 327.570749 106.01282 
L 328.221359 87.979374 
L 328.871969 86.806669 
L 329.52258 54.594731 
L 330.17319 192.575991 
L 330.8238 198.11693 
L 331.474411 88.328102 
L 332.125021 219.405704 
L 332.775631 105.305577 
L 333.426242 89.035323 
L 334.076852 88.668917 
L 334.727462 72.419213 
L 335.378073 87.911914 
L 336.028683 71.046523 
L 336.679293 103.226316 
L 337.329903 88.724588 
L 337.980514 121.548017 
L 338.631124 88.319865 
L 340.582955 138.309216 
L 341.233565 88.392352 
L 341.884176 86.77507 
L 342.534786 73.252272 
L 343.185396 77.017483 
L 343.836007 90.206294 
L 344.486617 120.506323 
L 345.137227 88.563756 
L 345.787837 73.397287 
L 346.438448 73.262945 
L 347.089058 121.601881 
L 347.739668 121.869648 
L 348.390279 70.392526 
L 349.040889 70.698457 
L 349.691499 87.832684 
L 350.34211 53.583882 
L 350.99272 89.447029 
L 351.64333 104.025032 
L 352.944551 71.971591 
L 353.595161 119.337018 
L 354.245772 140.382597 
L 354.896382 86.292781 
L 355.546992 105.102105 
L 356.197602 118.241519 
L 356.848213 88.173823 
L 357.498823 86.126126 
L 358.149433 103.132522 
L 358.800044 87.779558 
L 359.450654 89.307581 
L 360.101264 139.989261 
L 360.751875 104.652592 
L 361.402485 121.470527 
L 362.053095 105.313142 
L 362.703706 103.931576 
L 363.354316 87.349216 
L 364.004926 130.072176 
L 364.655537 139.004065 
L 365.306147 87.748358 
L 365.956757 53.568 
L 366.607367 122.78163 
L 367.257978 122.631696 
L 367.908588 122.744012 
L 368.559198 139.802539 
L 369.209809 103.250878 
L 369.860419 54.768973 
L 370.511029 151.285656 
L 371.16164 87.231312 
L 371.81225 123.313507 
L 372.46286 71.511756 
L 373.113471 123.691619 
L 373.764081 88.312222 
L 374.414691 70.581542 
L 375.065302 70.950428 
L 375.715912 126.422276 
L 376.366522 149.345789 
L 377.017132 101.123203 
L 377.667743 126.669881 
L 378.318353 56.328805 
L 378.968963 54.465881 
L 379.619574 86.932026 
L 380.270184 70.963689 
L 380.920794 123.248566 
L 381.571405 119.443342 
L 382.222015 148.972673 
L 382.872625 123.224142 
L 383.523236 71.310585 
L 384.173846 123.834309 
L 384.824456 123.039724 
L 385.475066 71.08283 
L 386.125677 72.442854 
L 386.776287 106.57626 
L 387.426897 57.030087 
L 388.077508 133.491902 
L 388.728118 90.2943 
L 389.378728 71.552921 
L 390.029339 88.115892 
L 390.679949 163.887946 
L 391.330559 55.266904 
L 391.98117 122.920926 
L 392.63178 71.030632 
L 393.28239 117.445587 
L 393.933001 106.587555 
L 394.583611 227.190981 
L 395.234221 135.959674 
L 395.884831 122.455964 
L 396.535442 122.822081 
L 397.186052 121.893975 
L 397.836662 88.516108 
L 398.487273 106.271233 
L 398.487273 106.271233 
" clip-path="url(#p9dbda0c0ee)" style="fill: none; stroke: #1f77b4; stroke-width: 1.5; stroke-linecap: square"/>
   </g>
   <g id="line2d_16">
    <path d="M 73.832727 178.952473 
L 74.483338 177.356947 
L 75.133948 176.07775 
L 77.085779 170.695282 
L 78.386999 167.116972 
L 80.989441 161.142445 
L 82.941272 157.39244 
L 83.591882 156.54534 
L 84.242492 154.775978 
L 84.893103 153.329794 
L 85.543713 152.662324 
L 86.194323 150.925667 
L 86.844934 149.549275 
L 87.495544 148.540849 
L 88.146154 147.767487 
L 89.447375 145.652604 
L 90.748595 143.830209 
L 91.399206 143.713697 
L 92.049816 143.070026 
L 92.700426 142.135673 
L 94.001647 140.956321 
L 95.302868 138.570023 
L 95.953478 137.043126 
L 96.604088 136.491557 
L 97.905309 134.931027 
L 98.555919 133.88962 
L 99.206529 133.131963 
L 99.85714 132.602195 
L 100.50775 131.491456 
L 101.15836 130.610454 
L 101.808971 129.185293 
L 103.760802 127.09492 
L 105.062022 124.936352 
L 107.013853 122.635763 
L 108.965684 120.107523 
L 109.616294 119.784692 
L 110.266905 119.076736 
L 110.917515 117.995708 
L 111.568125 117.787596 
L 112.218736 117.138473 
L 114.170567 114.633538 
L 114.821177 114.182292 
L 115.471787 113.917404 
L 116.122398 113.212684 
L 116.773008 112.699147 
L 118.074228 112.013936 
L 118.724839 111.489808 
L 120.026059 110.790277 
L 120.67667 110.27115 
L 121.32728 109.592462 
L 121.97789 109.086246 
L 123.279111 108.55529 
L 123.929721 107.729258 
L 125.230942 107.360318 
L 125.881552 107.026796 
L 126.532163 106.969464 
L 127.182773 105.729745 
L 127.833383 105.232122 
L 130.435824 104.130682 
L 132.387655 102.662572 
L 133.038266 102.63759 
L 133.688876 101.781504 
L 134.339486 101.289044 
L 134.990097 101.117575 
L 135.640707 99.150516 
L 136.941927 97.898935 
L 137.592538 97.384357 
L 138.243148 96.54551 
L 138.893758 95.930417 
L 140.194979 95.238973 
L 141.4962 95.583102 
L 142.14681 96.221342 
L 142.79742 96.543048 
L 143.448031 96.144743 
L 144.098641 95.985333 
L 144.749251 95.636127 
L 145.399862 96.015069 
L 146.701082 94.667242 
L 148.652913 93.609901 
L 149.303523 94.425049 
L 149.954134 93.933664 
L 150.604744 94.100095 
L 151.255354 93.756087 
L 151.905965 94.258694 
L 153.207185 94.269799 
L 153.857796 93.759356 
L 155.159016 95.514209 
L 155.809627 96.113221 
L 156.460237 96.472842 
L 157.110847 96.668219 
L 157.761457 97.521574 
L 158.412068 97.501676 
L 159.062678 98.173252 
L 159.713288 98.119964 
L 160.363899 97.944012 
L 161.014509 99.172727 
L 162.31573 99.800141 
L 162.96634 99.79984 
L 163.61695 99.959171 
L 164.267561 99.808763 
L 164.918171 99.469304 
L 165.568781 99.455176 
L 166.219392 99.955329 
L 166.870002 99.956428 
L 167.520612 99.784947 
L 169.472443 100.235148 
L 170.123053 100.23733 
L 173.376105 100.94185 
L 174.026715 100.7734 
L 174.677326 100.461064 
L 175.978546 100.479156 
L 176.629156 100.323328 
L 177.279767 99.956968 
L 177.930377 99.938855 
L 178.580987 100.107477 
L 179.231598 99.948961 
L 180.532818 99.367601 
L 181.834039 99.786105 
L 182.484649 100.29766 
L 183.13526 100.130201 
L 183.78587 100.296807 
L 185.087091 100.350635 
L 185.737701 99.863958 
L 186.388311 99.529278 
L 187.038921 99.516994 
L 188.340142 98.734174 
L 188.990752 98.565331 
L 189.641363 98.229163 
L 190.942583 97.219068 
L 192.243804 97.218069 
L 192.894414 96.881762 
L 193.545025 96.371098 
L 194.195635 96.390574 
L 196.147466 95.522659 
L 196.798076 95.319435 
L 197.448686 95.485811 
L 198.099297 95.143283 
L 198.749907 95.469768 
L 199.400517 95.287549 
L 200.051128 95.624437 
L 200.701738 95.78641 
L 201.352348 96.089485 
L 202.002959 95.895935 
L 203.304179 95.86548 
L 203.95479 96.030556 
L 204.6054 96.016235 
L 205.25601 96.333463 
L 205.906621 96.406985 
L 206.557231 96.922491 
L 207.207841 96.617543 
L 207.858451 96.824359 
L 208.509062 97.239393 
L 209.159672 96.898215 
L 209.810282 97.064529 
L 210.460893 96.526842 
L 211.111503 97.183357 
L 211.762113 97.341463 
L 212.412724 97.362444 
L 213.063334 97.523623 
L 213.713944 97.178089 
L 214.364555 96.34451 
L 215.015165 97.190812 
L 215.665775 96.498765 
L 216.966996 97.585274 
L 217.617606 97.386561 
L 218.268216 96.534723 
L 218.918827 96.880052 
L 220.870658 93.173711 
L 221.521268 92.090643 
L 222.171878 91.397467 
L 222.822489 90.541114 
L 223.473099 90.278341 
L 224.123709 89.546577 
L 224.77432 89.751491 
L 225.42493 90.41787 
L 226.72615 89.381209 
L 227.376761 89.215514 
L 228.677981 89.573504 
L 229.328592 89.912357 
L 229.979202 90.905626 
L 230.629812 91.261392 
L 231.280423 91.262701 
L 231.931033 91.768013 
L 232.581643 92.104453 
L 235.184085 92.837417 
L 235.834695 92.520896 
L 237.135915 92.273284 
L 237.786526 92.597925 
L 238.437136 92.637993 
L 240.388967 93.109965 
L 241.690188 93.117817 
L 242.340798 93.279962 
L 242.991408 93.134028 
L 243.642019 93.476623 
L 244.292629 93.617887 
L 244.943239 93.907122 
L 245.59385 94.074665 
L 246.24446 94.582056 
L 246.89507 94.784904 
L 247.54568 94.416821 
L 248.196291 94.572021 
L 248.846901 94.568797 
L 249.497511 94.837465 
L 250.148122 94.833832 
L 250.798732 95.527873 
L 251.449342 96.653907 
L 252.750563 97.664942 
L 253.401173 98.335188 
L 254.051784 98.822196 
L 254.702394 98.635955 
L 255.353004 99.179165 
L 256.003615 99.340474 
L 256.654225 99.17202 
L 257.955445 99.824777 
L 258.606056 100.000953 
L 259.256666 100.356389 
L 260.557887 100.71179 
L 261.208497 100.705427 
L 261.859107 100.530003 
L 262.509718 100.712229 
L 264.461549 100.907155 
L 265.112159 100.404096 
L 266.413379 102.399222 
L 267.06399 102.571402 
L 267.7146 103.734811 
L 268.36521 103.913639 
L 269.666431 103.947347 
L 270.967652 103.235757 
L 271.618262 102.131784 
L 272.268872 102.117116 
L 272.919483 101.59696 
L 273.570093 101.519179 
L 276.172534 102.251348 
L 276.823144 102.263737 
L 278.124365 101.93305 
L 278.774975 102.160951 
L 279.425586 102.198159 
L 280.076196 102.010631 
L 280.726806 102.023379 
L 281.377417 101.522064 
L 282.028027 100.132154 
L 282.678637 100.320201 
L 283.329248 100.997986 
L 283.979858 100.63962 
L 284.630468 100.638064 
L 285.281079 100.799645 
L 285.931689 100.598557 
L 287.232909 100.807426 
L 287.88352 100.61899 
L 288.53413 100.12173 
L 289.18474 100.143046 
L 289.835351 100.465199 
L 290.485961 100.121889 
L 291.136571 99.976983 
L 291.787182 100.278991 
L 292.437792 100.275897 
L 293.088402 99.916816 
L 293.739013 99.716155 
L 294.389623 99.378159 
L 295.040233 98.563726 
L 295.690844 98.907466 
L 296.341454 98.908177 
L 296.992064 99.072166 
L 297.642674 98.914486 
L 298.293285 98.898849 
L 298.943895 98.558691 
L 300.245116 99.34693 
L 300.895726 99.678324 
L 301.546336 99.33312 
L 303.498167 100.35467 
L 304.148778 101.044928 
L 304.799388 101.213553 
L 305.449998 100.887951 
L 306.100608 101.691831 
L 306.751219 101.681967 
L 307.401829 102.20454 
L 309.35366 102.256537 
L 310.00427 101.955699 
L 311.305491 101.655321 
L 311.956101 101.979251 
L 312.606712 102.124437 
L 313.257322 102.684394 
L 313.907932 102.216582 
L 314.558543 101.568169 
L 315.209153 101.389371 
L 316.510373 100.4091 
L 317.160984 100.382124 
L 317.811594 100.809642 
L 318.462204 100.814567 
L 319.112815 100.486213 
L 319.763425 100.846754 
L 320.414035 100.81869 
L 321.715256 100.49787 
L 322.365866 100.68999 
L 323.016477 100.208865 
L 323.667087 100.815997 
L 324.317697 100.47377 
L 324.968308 100.304032 
L 325.618918 100.264993 
L 326.269528 101.187287 
L 326.920138 101.192092 
L 327.570749 101.529882 
L 328.221359 101.180062 
L 329.52258 101.672535 
L 330.17319 103.398496 
L 330.8238 102.832335 
L 331.474411 102.075723 
L 332.125021 102.420663 
L 332.775631 101.445549 
L 333.426242 101.277655 
L 334.076852 101.45001 
L 334.727462 103.644026 
L 335.378073 103.235757 
L 336.028683 102.131784 
L 336.679293 102.117116 
L 337.329903 101.59696 
L 337.980514 101.519179 
L 340.582955 102.251348 
L 341.233565 102.263737 
L 342.534786 101.93305 
L 343.185396 102.160951 
L 343.836007 102.198159 
L 344.486617 102.010631 
L 345.137227 102.023379 
L 345.787837 101.522064 
L 346.438448 100.132154 
L 347.089058 100.320201 
L 347.739668 100.997986 
L 348.390279 100.63962 
L 349.040889 100.638064 
L 349.691499 100.799645 
L 350.34211 100.598557 
L 351.64333 100.807426 
L 352.293941 100.61899 
L 352.944551 100.12173 
L 353.595161 100.143046 
L 354.245772 100.465199 
L 354.896382 100.121889 
L 355.546992 99.976983 
L 356.197602 100.278991 
L 356.848213 100.275897 
L 357.498823 99.916816 
L 358.149433 99.716155 
L 358.800044 99.378159 
L 359.450654 98.563726 
L 360.101264 98.907466 
L 360.751875 98.908177 
L 361.402485 99.072166 
L 362.053095 98.914486 
L 362.703706 98.898849 
L 363.354316 98.558691 
L 364.655537 99.34693 
L 365.306147 99.678324 
L 365.956757 99.33312 
L 367.908588 100.35467 
L 368.559198 101.044928 
L 369.209809 101.213553 
L 369.860419 100.887951 
L 370.511029 101.691831 
L 371.16164 101.681967 
L 371.81225 102.20454 
L 373.764081 102.256537 
L 374.414691 101.955699 
L 375.715912 101.655321 
L 376.366522 101.979251 
L 377.017132 102.124437 
L 377.667743 102.684394 
L 378.318353 102.216582 
L 378.968963 101.568169 
L 379.619574 101.389371 
L 380.920794 100.4091 
L 381.571405 100.382124 
L 382.222015 100.809642 
L 382.872625 100.814567 
L 383.523236 100.486213 
L 384.173846 100.846754 
L 384.824456 100.81869 
L 386.125677 100.49787 
L 386.776287 100.68999 
L 387.426897 100.208865 
L 388.077508 100.815997 
L 388.728118 100.47377 
L 389.378728 100.304032 
L 390.029339 100.264993 
L 390.679949 101.187287 
L 391.330559 101.192092 
L 391.98117 101.529882 
L 392.63178 101.180062 
L 393.933001 101.672535 
L 394.583611 103.398496 
L 395.234221 102.832335 
L 395.884831 102.075723 
L 396.535442 102.420663 
L 397.186052 101.445549 
L 397.836662 101.277655 
L 398.487273 101.45001 
L 398.487273 101.45001 
" clip-path="url(#p9dbda0c0ee)" style="fill: none; stroke: #ff7f0e; stroke-width: 1.5; stroke-linecap: square"/>
   </g>
   <g id="patch_3">
    <path d="M 57.6 307.584 
L 57.6 41.472 
" style="fill: none; stroke: #000000; stroke-width: 0.8; stroke-linejoin: miter; stroke-linecap: square"/>
   </g>
   <g id="patch_4">
    <path d="M 414.72 307.584 
L 414.72 41.472 
" style="fill: none; stroke: #000000; stroke-width: 0.8; stroke-linejoin: miter; stroke-linecap: square"/>
   </g>
   <g id="patch_5">
    <path d="M 57.6 307.584 
L 414.72 307.584 
" style="fill: none; stroke: #000000; stroke-width: 0.8; stroke-linejoin: miter; stroke-linecap: square"/>
   </g>
   <g id="patch_6">
    <path d="M 57.6 41.472 
L 414.72 41.472 
" style="fill: none; stroke: #000000; stroke-width: 0.8; stroke-linejoin: miter; stroke-linecap: square"/>
   </g>
   <g id="text_17">
    <!-- RESULT -->
    <g transform="translate(213.816563 35.472) scale(0.12 -0.12)">
     <defs>
      <path id="DejaVuSans-4c" d="M 628 4666 
L 1259 4666 
L 1259 531 
L 3531 531 
L 3531 0 
L 628 0 
L 628 4666 
z
" transform="scale(0.015625)"/>
     </defs>
     <use xlink:href="#DejaVuSans-52"/>
     <use xlink:href="#DejaVuSans-45" x="69.482422"/>
     <use xlink:href="#DejaVuSans-53" x="132.666016"/>
     <use xlink:href="#DejaVuSans-55" x="196.142578"/>
     <use xlink:href="#DejaVuSans-4c" x="269.335938"/>
     <use xlink:href="#DejaVuSans-54" x="311.298828"/>
    </g>
   </g>
  </g>
 </g>
 <defs>
  <clipPath id="p9dbda0c0ee">
   <rect x="57.6" y="41.472" width="357.12" height="266.112"/>
  </clipPath>
 </defs>
</svg>
