<?xml version="1.0" encoding="utf-8" standalone="no"?>
<!DOCTYPE svg PUBLIC "-//W3C//DTD SVG 1.1//EN"
  "http://www.w3.org/Graphics/SVG/1.1/DTD/svg11.dtd">
<svg xmlns:xlink="http://www.w3.org/1999/xlink" width="460.8pt" height="345.6pt" viewBox="0 0 460.8 345.6" xmlns="http://www.w3.org/2000/svg" version="1.1">
 <metadata>
  <rdf:RDF xmlns:dc="http://purl.org/dc/elements/1.1/" xmlns:cc="http://creativecommons.org/ns#" xmlns:rdf="http://www.w3.org/1999/02/22-rdf-syntax-ns#">
   <cc:Work>
    <dc:type rdf:resource="http://purl.org/dc/dcmitype/StillImage"/>
    <dc:date>2023-04-03T14:09:09.849743</dc:date>
    <dc:format>image/svg+xml</dc:format>
    <dc:creator>
     <cc:Agent>
      <dc:title>Matplotlib v3.6.2, https://matplotlib.org/</dc:title>
     </cc:Agent>
    </dc:creator>
   </cc:Work>
  </rdf:RDF>
 </metadata>
 <defs>
  <style type="text/css">*{stroke-linejoin: round; stroke-linecap: butt}</style>
 </defs>
 <g id="figure_1">
  <g id="patch_1">
   <path d="M 0 345.6 
L 460.8 345.6 
L 460.8 0 
L 0 0 
z
" style="fill: #ffffff"/>
  </g>
  <g id="axes_1">
   <g id="patch_2">
    <path d="M 57.6 307.584 
L 414.72 307.584 
L 414.72 41.472 
L 57.6 41.472 
z
" style="fill: #ffffff"/>
   </g>
   <g id="matplotlib.axis_1">
    <g id="xtick_1">
     <g id="line2d_1">
      <defs>
       <path id="mee6c5eeb7c" d="M 0 0 
L 0 3.5 
" style="stroke: #000000; stroke-width: 0.8"/>
      </defs>
      <g>
       <use xlink:href="#mee6c5eeb7c" x="73.832727" y="307.584" style="stroke: #000000; stroke-width: 0.8"/>
      </g>
     </g>
     <g id="text_1">
      <!-- 0 -->
      <g transform="translate(70.651477 322.182437) scale(0.1 -0.1)">
       <defs>
        <path id="DejaVuSans-30" d="M 2034 4250 
Q 1547 4250 1301 3770 
Q 1056 3291 1056 2328 
Q 1056 1369 1301 889 
Q 1547 409 2034 409 
Q 2525 409 2770 889 
Q 3016 1369 3016 2328 
Q 3016 3291 2770 3770 
Q 2525 4250 2034 4250 
z
M 2034 4750 
Q 2819 4750 3233 4129 
Q 3647 3509 3647 2328 
Q 3647 1150 3233 529 
Q 2819 -91 2034 -91 
Q 1250 -91 836 529 
Q 422 1150 422 2328 
Q 422 3509 836 4129 
Q 1250 4750 2034 4750 
z
" transform="scale(0.015625)"/>
       </defs>
       <use xlink:href="#DejaVuSans-30"/>
      </g>
     </g>
    </g>
    <g id="xtick_2">
     <g id="line2d_2">
      <g>
       <use xlink:href="#mee6c5eeb7c" x="138.893758" y="307.584" style="stroke: #000000; stroke-width: 0.8"/>
      </g>
     </g>
     <g id="text_2">
      <!-- 100 -->
      <g transform="translate(129.350008 322.182437) scale(0.1 -0.1)">
       <defs>
        <path id="DejaVuSans-31" d="M 794 531 
L 1825 531 
L 1825 4091 
L 703 3866 
L 703 4441 
L 1819 4666 
L 2450 4666 
L 2450 531 
L 3481 531 
L 3481 0 
L 794 0 
L 794 531 
z
" transform="scale(0.015625)"/>
       </defs>
       <use xlink:href="#DejaVuSans-31"/>
       <use xlink:href="#DejaVuSans-30" x="63.623047"/>
       <use xlink:href="#DejaVuSans-30" x="127.246094"/>
      </g>
     </g>
    </g>
    <g id="xtick_3">
     <g id="line2d_3">
      <g>
       <use xlink:href="#mee6c5eeb7c" x="203.95479" y="307.584" style="stroke: #000000; stroke-width: 0.8"/>
      </g>
     </g>
     <g id="text_3">
      <!-- 200 -->
      <g transform="translate(194.41104 322.182437) scale(0.1 -0.1)">
       <defs>
        <path id="DejaVuSans-32" d="M 1228 531 
L 3431 531 
L 3431 0 
L 469 0 
L 469 531 
Q 828 903 1448 1529 
Q 2069 2156 2228 2338 
Q 2531 2678 2651 2914 
Q 2772 3150 2772 3378 
Q 2772 3750 2511 3984 
Q 2250 4219 1831 4219 
Q 1534 4219 1204 4116 
Q 875 4013 500 3803 
L 500 4441 
Q 881 4594 1212 4672 
Q 1544 4750 1819 4750 
Q 2544 4750 2975 4387 
Q 3406 4025 3406 3419 
Q 3406 3131 3298 2873 
Q 3191 2616 2906 2266 
Q 2828 2175 2409 1742 
Q 1991 1309 1228 531 
z
" transform="scale(0.015625)"/>
       </defs>
       <use xlink:href="#DejaVuSans-32"/>
       <use xlink:href="#DejaVuSans-30" x="63.623047"/>
       <use xlink:href="#DejaVuSans-30" x="127.246094"/>
      </g>
     </g>
    </g>
    <g id="xtick_4">
     <g id="line2d_4">
      <g>
       <use xlink:href="#mee6c5eeb7c" x="269.015821" y="307.584" style="stroke: #000000; stroke-width: 0.8"/>
      </g>
     </g>
     <g id="text_4">
      <!-- 300 -->
      <g transform="translate(259.472071 322.182437) scale(0.1 -0.1)">
       <defs>
        <path id="DejaVuSans-33" d="M 2597 2516 
Q 3050 2419 3304 2112 
Q 3559 1806 3559 1356 
Q 3559 666 3084 287 
Q 2609 -91 1734 -91 
Q 1441 -91 1130 -33 
Q 819 25 488 141 
L 488 750 
Q 750 597 1062 519 
Q 1375 441 1716 441 
Q 2309 441 2620 675 
Q 2931 909 2931 1356 
Q 2931 1769 2642 2001 
Q 2353 2234 1838 2234 
L 1294 2234 
L 1294 2753 
L 1863 2753 
Q 2328 2753 2575 2939 
Q 2822 3125 2822 3475 
Q 2822 3834 2567 4026 
Q 2313 4219 1838 4219 
Q 1578 4219 1281 4162 
Q 984 4106 628 3988 
L 628 4550 
Q 988 4650 1302 4700 
Q 1616 4750 1894 4750 
Q 2613 4750 3031 4423 
Q 3450 4097 3450 3541 
Q 3450 3153 3228 2886 
Q 3006 2619 2597 2516 
z
" transform="scale(0.015625)"/>
       </defs>
       <use xlink:href="#DejaVuSans-33"/>
       <use xlink:href="#DejaVuSans-30" x="63.623047"/>
       <use xlink:href="#DejaVuSans-30" x="127.246094"/>
      </g>
     </g>
    </g>
    <g id="xtick_5">
     <g id="line2d_5">
      <g>
       <use xlink:href="#mee6c5eeb7c" x="334.076852" y="307.584" style="stroke: #000000; stroke-width: 0.8"/>
      </g>
     </g>
     <g id="text_5">
      <!-- 400 -->
      <g transform="translate(324.533102 322.182437) scale(0.1 -0.1)">
       <defs>
        <path id="DejaVuSans-34" d="M 2419 4116 
L 825 1625 
L 2419 1625 
L 2419 4116 
z
M 2253 4666 
L 3047 4666 
L 3047 1625 
L 3713 1625 
L 3713 1100 
L 3047 1100 
L 3047 0 
L 2419 0 
L 2419 1100 
L 313 1100 
L 313 1709 
L 2253 4666 
z
" transform="scale(0.015625)"/>
       </defs>
       <use xlink:href="#DejaVuSans-34"/>
       <use xlink:href="#DejaVuSans-30" x="63.623047"/>
       <use xlink:href="#DejaVuSans-30" x="127.246094"/>
      </g>
     </g>
    </g>
    <g id="xtick_6">
     <g id="line2d_6">
      <g>
       <use xlink:href="#mee6c5eeb7c" x="399.137883" y="307.584" style="stroke: #000000; stroke-width: 0.8"/>
      </g>
     </g>
     <g id="text_6">
      <!-- 500 -->
      <g transform="translate(389.594133 322.182437) scale(0.1 -0.1)">
       <defs>
        <path id="DejaVuSans-35" d="M 691 4666 
L 3169 4666 
L 3169 4134 
L 1269 4134 
L 1269 2991 
Q 1406 3038 1543 3061 
Q 1681 3084 1819 3084 
Q 2600 3084 3056 2656 
Q 3513 2228 3513 1497 
Q 3513 744 3044 326 
Q 2575 -91 1722 -91 
Q 1428 -91 1123 -41 
Q 819 9 494 109 
L 494 744 
Q 775 591 1075 516 
Q 1375 441 1709 441 
Q 2250 441 2565 725 
Q 2881 1009 2881 1497 
Q 2881 1984 2565 2268 
Q 2250 2553 1709 2553 
Q 1456 2553 1204 2497 
Q 953 2441 691 2322 
L 691 4666 
z
" transform="scale(0.015625)"/>
       </defs>
       <use xlink:href="#DejaVuSans-35"/>
       <use xlink:href="#DejaVuSans-30" x="63.623047"/>
       <use xlink:href="#DejaVuSans-30" x="127.246094"/>
      </g>
     </g>
    </g>
    <g id="text_7">
     <!-- EPISODE -->
     <g transform="translate(214.39125 335.860562) scale(0.1 -0.1)">
      <defs>
       <path id="DejaVuSans-45" d="M 628 4666 
L 3578 4666 
L 3578 4134 
L 1259 4134 
L 1259 2753 
L 3481 2753 
L 3481 2222 
L 1259 2222 
L 1259 531 
L 3634 531 
L 3634 0 
L 628 0 
L 628 4666 
z
" transform="scale(0.015625)"/>
       <path id="DejaVuSans-50" d="M 1259 4147 
L 1259 2394 
L 2053 2394 
Q 2494 2394 2734 2622 
Q 2975 2850 2975 3272 
Q 2975 3691 2734 3919 
Q 2494 4147 2053 4147 
L 1259 4147 
z
M 628 4666 
L 2053 4666 
Q 2838 4666 3239 4311 
Q 3641 3956 3641 3272 
Q 3641 2581 3239 2228 
Q 2838 1875 2053 1875 
L 1259 1875 
L 1259 0 
L 628 0 
L 628 4666 
z
" transform="scale(0.015625)"/>
       <path id="DejaVuSans-49" d="M 628 4666 
L 1259 4666 
L 1259 0 
L 628 0 
L 628 4666 
z
" transform="scale(0.015625)"/>
       <path id="DejaVuSans-53" d="M 3425 4513 
L 3425 3897 
Q 3066 4069 2747 4153 
Q 2428 4238 2131 4238 
Q 1616 4238 1336 4038 
Q 1056 3838 1056 3469 
Q 1056 3159 1242 3001 
Q 1428 2844 1947 2747 
L 2328 2669 
Q 3034 2534 3370 2195 
Q 3706 1856 3706 1288 
Q 3706 609 3251 259 
Q 2797 -91 1919 -91 
Q 1588 -91 1214 -16 
Q 841 59 441 206 
L 441 856 
Q 825 641 1194 531 
Q 1563 422 1919 422 
Q 2459 422 2753 634 
Q 3047 847 3047 1241 
Q 3047 1584 2836 1778 
Q 2625 1972 2144 2069 
L 1759 2144 
Q 1053 2284 737 2584 
Q 422 2884 422 3419 
Q 422 4038 858 4394 
Q 1294 4750 2059 4750 
Q 2388 4750 2728 4690 
Q 3069 4631 3425 4513 
z
" transform="scale(0.015625)"/>
       <path id="DejaVuSans-4f" d="M 2522 4238 
Q 1834 4238 1429 3725 
Q 1025 3213 1025 2328 
Q 1025 1447 1429 934 
Q 1834 422 2522 422 
Q 3209 422 3611 934 
Q 4013 1447 4013 2328 
Q 4013 3213 3611 3725 
Q 3209 4238 2522 4238 
z
M 2522 4750 
Q 3503 4750 4090 4092 
Q 4678 3434 4678 2328 
Q 4678 1225 4090 567 
Q 3503 -91 2522 -91 
Q 1538 -91 948 565 
Q 359 1222 359 2328 
Q 359 3434 948 4092 
Q 1538 4750 2522 4750 
z
" transform="scale(0.015625)"/>
       <path id="DejaVuSans-44" d="M 1259 4147 
L 1259 519 
L 2022 519 
Q 2988 519 3436 956 
Q 3884 1394 3884 2338 
Q 3884 3275 3436 3711 
Q 2988 4147 2022 4147 
L 1259 4147 
z
M 628 4666 
L 1925 4666 
Q 3281 4666 3915 4102 
Q 4550 3538 4550 2338 
Q 4550 1131 3912 565 
Q 3275 0 1925 0 
L 628 0 
L 628 4666 
z
" transform="scale(0.015625)"/>
      </defs>
      <use xlink:href="#DejaVuSans-45"/>
      <use xlink:href="#DejaVuSans-50" x="63.183594"/>
      <use xlink:href="#DejaVuSans-49" x="123.486328"/>
      <use xlink:href="#DejaVuSans-53" x="152.978516"/>
      <use xlink:href="#DejaVuSans-4f" x="216.455078"/>
      <use xlink:href="#DejaVuSans-44" x="295.166016"/>
      <use xlink:href="#DejaVuSans-45" x="372.167969"/>
     </g>
    </g>
   </g>
   <g id="matplotlib.axis_2">
    <g id="ytick_1">
     <g id="line2d_7">
      <defs>
       <path id="me9fcb96530" d="M 0 0 
L -3.5 0 
" style="stroke: #000000; stroke-width: 0.8"/>
      </defs>
      <g>
       <use xlink:href="#me9fcb96530" x="57.6" y="293.004418" style="stroke: #000000; stroke-width: 0.8"/>
      </g>
     </g>
     <g id="text_8">
      <!-- −1750 -->
      <g transform="translate(16.770313 296.803637) scale(0.1 -0.1)">
       <defs>
        <path id="DejaVuSans-2212" d="M 678 2272 
L 4684 2272 
L 4684 1741 
L 678 1741 
L 678 2272 
z
" transform="scale(0.015625)"/>
        <path id="DejaVuSans-37" d="M 525 4666 
L 3525 4666 
L 3525 4397 
L 1831 0 
L 1172 0 
L 2766 4134 
L 525 4134 
L 525 4666 
z
" transform="scale(0.015625)"/>
       </defs>
       <use xlink:href="#DejaVuSans-2212"/>
       <use xlink:href="#DejaVuSans-31" x="83.789062"/>
       <use xlink:href="#DejaVuSans-37" x="147.412109"/>
       <use xlink:href="#DejaVuSans-35" x="211.035156"/>
       <use xlink:href="#DejaVuSans-30" x="274.658203"/>
      </g>
     </g>
    </g>
    <g id="ytick_2">
     <g id="line2d_8">
      <g>
       <use xlink:href="#me9fcb96530" x="57.6" y="258.793781" style="stroke: #000000; stroke-width: 0.8"/>
      </g>
     </g>
     <g id="text_9">
      <!-- −1500 -->
      <g transform="translate(16.770313 262.593) scale(0.1 -0.1)">
       <use xlink:href="#DejaVuSans-2212"/>
       <use xlink:href="#DejaVuSans-31" x="83.789062"/>
       <use xlink:href="#DejaVuSans-35" x="147.412109"/>
       <use xlink:href="#DejaVuSans-30" x="211.035156"/>
       <use xlink:href="#DejaVuSans-30" x="274.658203"/>
      </g>
     </g>
    </g>
    <g id="ytick_3">
     <g id="line2d_9">
      <g>
       <use xlink:href="#me9fcb96530" x="57.6" y="224.583143" style="stroke: #000000; stroke-width: 0.8"/>
      </g>
     </g>
     <g id="text_10">
      <!-- −1250 -->
      <g transform="translate(16.770313 228.382362) scale(0.1 -0.1)">
       <use xlink:href="#DejaVuSans-2212"/>
       <use xlink:href="#DejaVuSans-31" x="83.789062"/>
       <use xlink:href="#DejaVuSans-32" x="147.412109"/>
       <use xlink:href="#DejaVuSans-35" x="211.035156"/>
       <use xlink:href="#DejaVuSans-30" x="274.658203"/>
      </g>
     </g>
    </g>
    <g id="ytick_4">
     <g id="line2d_10">
      <g>
       <use xlink:href="#me9fcb96530" x="57.6" y="190.372506" style="stroke: #000000; stroke-width: 0.8"/>
      </g>
     </g>
     <g id="text_11">
      <!-- −1000 -->
      <g transform="translate(16.770313 194.171725) scale(0.1 -0.1)">
       <use xlink:href="#DejaVuSans-2212"/>
       <use xlink:href="#DejaVuSans-31" x="83.789062"/>
       <use xlink:href="#DejaVuSans-30" x="147.412109"/>
       <use xlink:href="#DejaVuSans-30" x="211.035156"/>
       <use xlink:href="#DejaVuSans-30" x="274.658203"/>
      </g>
     </g>
    </g>
    <g id="ytick_5">
     <g id="line2d_11">
      <g>
       <use xlink:href="#me9fcb96530" x="57.6" y="156.161869" style="stroke: #000000; stroke-width: 0.8"/>
      </g>
     </g>
     <g id="text_12">
      <!-- −750 -->
      <g transform="translate(23.132812 159.961087) scale(0.1 -0.1)">
       <use xlink:href="#DejaVuSans-2212"/>
       <use xlink:href="#DejaVuSans-37" x="83.789062"/>
       <use xlink:href="#DejaVuSans-35" x="147.412109"/>
       <use xlink:href="#DejaVuSans-30" x="211.035156"/>
      </g>
     </g>
    </g>
    <g id="ytick_6">
     <g id="line2d_12">
      <g>
       <use xlink:href="#me9fcb96530" x="57.6" y="121.951231" style="stroke: #000000; stroke-width: 0.8"/>
      </g>
     </g>
     <g id="text_13">
      <!-- −500 -->
      <g transform="translate(23.132812 125.75045) scale(0.1 -0.1)">
       <use xlink:href="#DejaVuSans-2212"/>
       <use xlink:href="#DejaVuSans-35" x="83.789062"/>
       <use xlink:href="#DejaVuSans-30" x="147.412109"/>
       <use xlink:href="#DejaVuSans-30" x="211.035156"/>
      </g>
     </g>
    </g>
    <g id="ytick_7">
     <g id="line2d_13">
      <g>
       <use xlink:href="#me9fcb96530" x="57.6" y="87.740594" style="stroke: #000000; stroke-width: 0.8"/>
      </g>
     </g>
     <g id="text_14">
      <!-- −250 -->
      <g transform="translate(23.132812 91.539813) scale(0.1 -0.1)">
       <use xlink:href="#DejaVuSans-2212"/>
       <use xlink:href="#DejaVuSans-32" x="83.789062"/>
       <use xlink:href="#DejaVuSans-35" x="147.412109"/>
       <use xlink:href="#DejaVuSans-30" x="211.035156"/>
      </g>
     </g>
    </g>
    <g id="ytick_8">
     <g id="line2d_14">
      <g>
       <use xlink:href="#me9fcb96530" x="57.6" y="53.529957" style="stroke: #000000; stroke-width: 0.8"/>
      </g>
     </g>
     <g id="text_15">
      <!-- 0 -->
      <g transform="translate(44.2375 57.329175) scale(0.1 -0.1)">
       <use xlink:href="#DejaVuSans-30"/>
      </g>
     </g>
    </g>
    <g id="text_16">
     <!-- RETURN -->
     <g transform="translate(10.690625 195.089719) rotate(-90) scale(0.1 -0.1)">
      <defs>
       <path id="DejaVuSans-52" d="M 2841 2188 
Q 3044 2119 3236 1894 
Q 3428 1669 3622 1275 
L 4263 0 
L 3584 0 
L 2988 1197 
Q 2756 1666 2539 1819 
Q 2322 1972 1947 1972 
L 1259 1972 
L 1259 0 
L 628 0 
L 628 4666 
L 2053 4666 
Q 2853 4666 3247 4331 
Q 3641 3997 3641 3322 
Q 3641 2881 3436 2590 
Q 3231 2300 2841 2188 
z
M 1259 4147 
L 1259 2491 
L 2053 2491 
Q 2509 2491 2742 2702 
Q 2975 2913 2975 3322 
Q 2975 3731 2742 3939 
Q 2509 4147 2053 4147 
L 1259 4147 
z
" transform="scale(0.015625)"/>
       <path id="DejaVuSans-54" d="M -19 4666 
L 3928 4666 
L 3928 4134 
L 2272 4134 
L 2272 0 
L 1638 0 
L 1638 4134 
L -19 4134 
L -19 4666 
z
" transform="scale(0.015625)"/>
       <path id="DejaVuSans-55" d="M 556 4666 
L 1191 4666 
L 1191 1831 
Q 1191 1081 1462 751 
Q 1734 422 2344 422 
Q 2950 422 3222 751 
Q 3494 1081 3494 1831 
L 3494 4666 
L 4128 4666 
L 4128 1753 
Q 4128 841 3676 375 
Q 3225 -91 2344 -91 
Q 1459 -91 1007 375 
Q 556 841 556 1753 
L 556 4666 
z
" transform="scale(0.015625)"/>
       <path id="DejaVuSans-4e" d="M 628 4666 
L 1478 4666 
L 3547 763 
L 3547 4666 
L 4159 4666 
L 4159 0 
L 3309 0 
L 1241 3903 
L 1241 0 
L 628 0 
L 628 4666 
z
" transform="scale(0.015625)"/>
      </defs>
      <use xlink:href="#DejaVuSans-52"/>
      <use xlink:href="#DejaVuSans-45" x="69.482422"/>
      <use xlink:href="#DejaVuSans-54" x="132.666016"/>
      <use xlink:href="#DejaVuSans-55" x="193.75"/>
      <use xlink:href="#DejaVuSans-52" x="266.943359"/>
      <use xlink:href="#DejaVuSans-4e" x="336.425781"/>
     </g>
    </g>
   </g>
   <g id="line2d_15">
    <path d="M 73.832727 184.786186 
L 74.483338 247.236944 
L 75.784558 282.012735 
L 76.435169 259.221763 
L 77.085779 295.488 
L 77.736389 222.518705 
L 78.386999 262.511544 
L 79.03761 265.958751 
L 79.68822 236.263543 
L 80.33883 234.626693 
L 80.989441 227.163931 
L 81.640051 211.538486 
L 82.290661 209.383288 
L 82.941272 200.485469 
L 83.591882 177.419464 
L 84.242492 185.789898 
L 84.893103 188.657249 
L 85.543713 188.047452 
L 86.194323 171.252611 
L 86.844934 188.461649 
L 87.495544 172.710283 
L 88.146154 173.29786 
L 88.796764 177.285878 
L 89.447375 175.098109 
L 90.097985 174.158723 
L 91.399206 156.323787 
L 92.049816 106.449924 
L 92.700426 140.473327 
L 93.351037 138.905041 
L 94.652257 169.068282 
L 95.302868 137.433845 
L 96.604088 139.454816 
L 97.905309 106.266333 
L 98.555919 105.845761 
L 99.206529 121.659636 
L 99.85714 128.757928 
L 100.50775 138.257733 
L 101.15836 139.909013 
L 101.808971 139.434803 
L 102.459581 137.773399 
L 103.110191 138.943174 
L 103.760802 104.817679 
L 104.411412 132.83584 
L 105.062022 136.709368 
L 105.712633 122.282291 
L 107.013853 87.858499 
L 107.664463 88.903183 
L 108.315074 132.978367 
L 108.965684 108.570606 
L 109.616294 106.420276 
L 110.266905 131.396714 
L 110.917515 167.659318 
L 111.568125 115.935998 
L 112.218736 157.764568 
L 112.869346 179.011441 
L 113.519956 137.608533 
L 114.170567 139.492015 
L 114.821177 156.145374 
L 115.471787 112.875647 
L 116.122398 121.753456 
L 116.773008 104.949974 
L 117.423618 134.934476 
L 118.074228 105.367143 
L 118.724839 88.822751 
L 119.375449 88.432575 
L 120.026059 88.363894 
L 121.32728 119.771485 
L 121.97789 105.32092 
L 122.628501 101.424279 
L 123.279111 88.010201 
L 123.929721 53.568 
L 124.580332 119.539641 
L 125.230942 117.861818 
L 125.881552 120.56952 
L 126.532163 88.302991 
L 127.182773 108.012268 
L 127.833383 105.405215 
L 128.483993 161.258712 
L 129.134604 105.355707 
L 129.785214 104.774792 
L 130.435824 105.20357 
L 131.086435 125.472928 
L 131.737045 136.640189 
L 132.387655 122.469338 
L 133.038266 137.464281 
L 133.688876 135.208554 
L 134.339486 88.82868 
L 134.990097 137.029722 
L 135.640707 105.81947 
L 136.291317 91.798586 
L 136.941927 101.639269 
L 137.592538 156.16392 
L 138.243148 136.388862 
L 138.893758 138.520398 
L 139.544369 158.541766 
L 140.194979 122.957799 
L 140.845589 135.532116 
L 141.4962 88.083912 
L 142.14681 87.310985 
L 142.79742 88.336432 
L 143.448031 121.847032 
L 144.098641 109.243335 
L 144.749251 71.888418 
L 146.050472 104.353959 
L 146.701082 104.509154 
L 147.351692 105.92656 
L 148.002303 89.28014 
L 148.652913 89.580296 
L 149.303523 120.135236 
L 149.954134 101.678811 
L 150.604744 106.537648 
L 151.255354 122.19733 
L 151.905965 111.616399 
L 153.207185 173.089352 
L 153.857796 105.37966 
L 154.508406 135.966757 
L 155.159016 107.633206 
L 155.809627 121.237836 
L 156.460237 122.032814 
L 157.110847 118.839026 
L 157.761457 122.268522 
L 158.412068 122.383839 
L 159.062678 139.775105 
L 159.713288 163.02789 
L 160.363899 123.154001 
L 161.014509 156.555336 
L 161.665119 123.636756 
L 162.31573 107.085802 
L 162.96634 138.824143 
L 163.61695 110.08207 
L 164.267561 140.987164 
L 164.918171 123.557651 
L 165.568781 122.884603 
L 166.870002 155.810657 
L 167.520612 138.756611 
L 168.171222 144.366848 
L 168.821833 106.831588 
L 169.472443 139.660539 
L 170.123053 120.464803 
L 170.773664 169.072693 
L 171.424274 141.468134 
L 172.074884 139.063042 
L 172.725495 107.030518 
L 173.376105 138.193013 
L 174.026715 106.618834 
L 174.677326 122.73255 
L 175.327936 105.401518 
L 175.978546 123.21584 
L 176.629156 132.463948 
L 177.279767 122.316701 
L 177.930377 120.829035 
L 178.580987 143.773219 
L 179.231598 72.376415 
L 180.532818 109.360801 
L 181.183429 105.153507 
L 181.834039 56.240717 
L 182.484649 178.241188 
L 183.13526 72.282543 
L 183.78587 72.22224 
L 184.43648 104.775965 
L 185.087091 72.416191 
L 185.737701 71.54672 
L 186.388311 87.444717 
L 187.038921 142.689018 
L 187.689532 87.136076 
L 188.340142 87.766211 
L 188.990752 71.694566 
L 189.641363 105.878348 
L 190.291973 71.982456 
L 190.942583 104.514277 
L 191.593194 72.436091 
L 192.243804 87.905598 
L 192.894414 170.224862 
L 193.545025 88.040114 
L 194.195635 71.862941 
L 194.846245 72.86238 
L 195.496856 88.272861 
L 196.147466 89.739578 
L 196.798076 72.958396 
L 197.448686 72.605862 
L 198.099297 88.409272 
L 198.749907 113.260369 
L 199.400517 119.257912 
L 200.051128 72.664374 
L 200.701738 108.459195 
L 201.352348 89.786544 
L 202.002959 122.411769 
L 202.653569 106.314534 
L 203.304179 120.465194 
L 203.95479 89.20726 
L 204.6054 72.016937 
L 205.25601 104.044499 
L 205.906621 72.48351 
L 206.557231 72.772974 
L 207.207841 72.215639 
L 207.858451 123.102429 
L 208.509062 72.501879 
L 209.159672 106.454095 
L 209.810282 56.424957 
L 210.460893 89.611684 
L 211.111503 89.12489 
L 211.762113 105.072922 
L 212.412724 101.370095 
L 213.063334 73.307983 
L 214.364555 74.337308 
L 215.015165 198.051449 
L 215.665775 107.976261 
L 216.316385 260.775187 
L 216.966996 100.957939 
L 217.617606 129.562928 
L 218.268216 123.938477 
L 218.918827 125.19416 
L 219.569437 139.926837 
L 220.220047 120.14099 
L 221.521268 139.85241 
L 222.171878 106.457146 
L 222.822489 137.07814 
L 223.473099 72.366367 
L 224.123709 104.971913 
L 224.77432 115.632116 
L 225.42493 105.516581 
L 226.07554 123.439161 
L 226.72615 105.22851 
L 227.376761 116.736696 
L 228.027371 89.220149 
L 228.677981 155.831294 
L 229.328592 139.703323 
L 229.979202 126.969941 
L 230.629812 138.687485 
L 231.280423 71.481111 
L 231.931033 88.016028 
L 232.581643 87.350018 
L 233.232254 105.44561 
L 233.882864 54.104678 
L 234.533474 119.949396 
L 235.184085 71.817123 
L 235.834695 71.331326 
L 236.485305 103.900216 
L 237.135915 88.935649 
L 237.786526 54.435338 
L 238.437136 54.386522 
L 239.087746 121.565813 
L 239.738357 71.637791 
L 240.388967 104.593885 
L 241.039577 89.017935 
L 241.690188 121.251315 
L 242.340798 89.0462 
L 242.991408 89.069405 
L 243.642019 105.132895 
L 244.292629 53.982286 
L 244.943239 146.179842 
L 245.59385 71.41539 
L 246.24446 88.271549 
L 246.89507 53.831285 
L 247.54568 103.142118 
L 248.196291 70.989087 
L 248.846901 72.602817 
L 249.497511 70.826697 
L 250.148122 102.767661 
L 250.798732 70.698566 
L 251.449342 103.946051 
L 252.099953 70.388449 
L 252.750563 103.474335 
L 253.401173 119.252633 
L 254.051784 105.886151 
L 256.003615 53.675637 
L 256.654225 87.050251 
L 257.304835 53.63449 
L 257.955445 56.540518 
L 258.606056 118.234712 
L 259.256666 53.691342 
L 259.907276 86.917651 
L 260.557887 103.78725 
L 261.208497 53.751221 
L 261.859107 101.252041 
L 262.509718 85.473227 
L 263.160328 119.127816 
L 263.810938 53.685691 
L 264.461549 53.78407 
L 265.112159 102.943877 
L 266.413379 70.495133 
L 267.06399 103.878683 
L 267.7146 87.189692 
L 268.36521 118.657211 
L 269.015821 88.189157 
L 269.666431 136.11227 
L 270.317041 151.227081 
L 270.967652 138.404089 
L 271.618262 149.917281 
L 272.268872 137.027128 
L 272.919483 53.819081 
L 273.570093 137.95404 
L 274.220703 134.627243 
L 274.871314 149.442484 
L 275.521924 105.457222 
L 276.172534 102.395186 
L 276.823144 88.563733 
L 277.473755 87.212115 
L 278.124365 104.04702 
L 278.774975 101.901363 
L 279.425586 53.804753 
L 281.377417 102.171962 
L 282.028027 101.823093 
L 282.678637 102.950447 
L 283.329248 70.717254 
L 283.979858 113.760928 
L 284.630468 102.671174 
L 285.281079 53.760972 
L 285.931689 85.520995 
L 286.582299 103.957614 
L 287.232909 86.228019 
L 287.88352 102.493444 
L 288.53413 70.310667 
L 289.18474 104.929348 
L 289.835351 71.074338 
L 290.485961 99.432398 
L 291.136571 101.336994 
L 291.787182 69.589833 
L 293.088402 70.068867 
L 293.739013 86.198844 
L 294.389623 70.637829 
L 295.040233 70.799104 
L 295.690844 101.280638 
L 296.341454 102.174245 
L 296.992064 70.881688 
L 297.642674 70.679353 
L 298.293285 101.939027 
L 298.943895 104.012119 
L 299.594505 85.646354 
L 300.245116 59.846235 
L 300.895726 70.141158 
L 301.546336 69.99598 
L 302.847557 100.954132 
L 303.498167 140.269581 
L 304.148778 72.081283 
L 304.799388 70.631997 
L 305.449998 53.853255 
L 306.100608 71.135443 
L 306.751219 71.496965 
L 308.052439 69.980777 
L 308.70305 102.635906 
L 309.35366 70.231664 
L 310.00427 103.344188 
L 311.305491 71.047621 
L 311.956101 70.409873 
L 312.606712 117.599488 
L 313.257322 70.338192 
L 313.907932 71.18644 
L 314.558543 85.20653 
L 315.209153 154.908147 
L 315.859763 71.059586 
L 316.510373 186.630755 
L 317.160984 86.383786 
L 317.811594 53.750453 
L 318.462204 70.91653 
L 319.112815 53.638255 
L 319.763425 70.910303 
L 320.414035 188.628602 
L 321.064646 102.873444 
L 321.715256 70.804329 
L 322.365866 101.125141 
L 323.667087 70.884251 
L 324.317697 118.233256 
L 324.968308 113.297941 
L 325.618918 86.17558 
L 326.269528 120.342374 
L 326.920138 86.493116 
L 327.570749 87.71934 
L 328.221359 104.230162 
L 328.871969 70.955036 
L 329.52258 53.746666 
L 330.17319 88.739293 
L 330.8238 103.434028 
L 331.474411 134.465724 
L 332.125021 70.967284 
L 332.775631 103.590018 
L 333.426242 70.634689 
L 334.076852 70.917338 
L 334.727462 120.493201 
L 335.378073 53.86569 
L 336.028683 53.909822 
L 336.679293 121.66633 
L 337.329903 137.168123 
L 337.980514 119.453017 
L 338.631124 70.974677 
L 339.281734 73.119833 
L 339.932345 70.526494 
L 340.582955 70.494717 
L 341.233565 89.200649 
L 341.884176 140.480009 
L 342.534786 131.715637 
L 343.185396 102.031645 
L 343.836007 54.034909 
L 344.486617 120.065323 
L 345.137227 71.835204 
L 345.787837 103.06149 
L 346.438448 54.319932 
L 347.089058 120.458315 
L 347.739668 87.013356 
L 348.390279 104.400497 
L 349.040889 160.924025 
L 349.691499 137.386327 
L 350.34211 154.760632 
L 350.99272 130.749315 
L 351.64333 122.376321 
L 352.293941 106.111631 
L 352.944551 168.04122 
L 353.595161 105.480268 
L 354.245772 122.558806 
L 354.896382 153.982061 
L 355.546992 105.824987 
L 356.197602 125.862955 
L 356.848213 71.350001 
L 357.498823 87.864473 
L 358.149433 71.014774 
L 358.800044 135.133687 
L 359.450654 70.870484 
L 360.101264 145.821454 
L 360.751875 88.521514 
L 361.402485 71.164337 
L 362.053095 70.427266 
L 362.703706 102.461475 
L 363.354316 71.036912 
L 364.004926 70.496015 
L 364.655537 104.027276 
L 365.306147 123.927605 
L 365.956757 147.950869 
L 366.607367 88.968688 
L 367.257978 102.783975 
L 367.908588 121.96032 
L 368.559198 89.894858 
L 369.209809 71.129546 
L 369.860419 89.406088 
L 370.511029 88.609231 
L 371.16164 72.329191 
L 371.81225 103.964648 
L 372.46286 88.69483 
L 373.113471 104.192159 
L 373.764081 135.76164 
L 374.414691 135.655086 
L 375.065302 118.719137 
L 375.715912 119.54171 
L 376.366522 73.100105 
L 377.017132 56.122233 
L 377.667743 55.903531 
L 378.318353 71.928508 
L 378.968963 72.432247 
L 379.619574 117.919137 
L 380.270184 55.419448 
L 380.920794 118.725183 
L 381.571405 122.411753 
L 382.222015 71.686572 
L 382.872625 117.30767 
L 383.523236 107.162861 
L 384.173846 106.753292 
L 384.824456 71.971637 
L 385.475066 72.167713 
L 386.125677 119.211869 
L 386.776287 72.168941 
L 387.426897 71.716534 
L 388.077508 71.964844 
L 390.029339 170.473133 
L 390.679949 135.03629 
L 391.330559 185.641003 
L 391.98117 189.928129 
L 392.63178 169.382657 
L 393.28239 157.123192 
L 393.933001 200.175783 
L 394.583611 119.650293 
L 395.234221 102.711299 
L 395.884831 136.621208 
L 397.186052 104.086357 
L 397.836662 123.553499 
L 398.487273 135.938875 
L 398.487273 135.938875 
" clip-path="url(#pde802c9ea2)" style="fill: none; stroke: #1f77b4; stroke-width: 1.5; stroke-linecap: square"/>
   </g>
   <g id="line2d_16">
    <path d="M 73.832727 146.429819 
L 74.483338 145.967166 
L 75.133948 145.080211 
L 76.435169 142.201381 
L 77.085779 140.490006 
L 77.736389 138.408235 
L 79.03761 135.659766 
L 80.989441 130.989897 
L 82.290661 128.691495 
L 84.242492 125.666477 
L 84.893103 125.009935 
L 86.194323 123.325057 
L 86.844934 122.834498 
L 87.495544 122.066049 
L 88.146154 121.742781 
L 88.796764 121.740693 
L 89.447375 121.021631 
L 90.097985 120.630317 
L 90.748595 119.96506 
L 92.049816 119.176812 
L 92.700426 119.300709 
L 94.652257 118.798165 
L 95.953478 118.594964 
L 96.604088 118.775973 
L 97.905309 118.460861 
L 98.555919 118.786438 
L 99.206529 118.828805 
L 99.85714 119.022079 
L 101.808971 118.808325 
L 102.459581 118.972083 
L 104.411412 119.056294 
L 105.062022 119.12454 
L 105.712633 118.962098 
L 107.664463 120.308411 
L 108.315074 120.489683 
L 110.266905 120.685438 
L 110.917515 120.425484 
L 111.568125 119.98105 
L 112.218736 120.146332 
L 112.869346 119.791852 
L 113.519956 119.210025 
L 114.170567 119.271672 
L 115.471787 117.937077 
L 116.122398 117.901931 
L 116.773008 117.735935 
L 117.423618 117.248835 
L 118.074228 117.681909 
L 118.724839 117.351053 
L 119.375449 117.185053 
L 120.026059 117.348489 
L 120.67667 117.189016 
L 121.97789 116.541624 
L 122.628501 116.915306 
L 123.279111 116.772429 
L 123.929721 116.769986 
L 124.580332 116.95125 
L 125.230942 116.814641 
L 125.881552 116.355846 
L 127.833383 115.835562 
L 128.483993 116.483756 
L 129.134604 115.751568 
L 130.435824 115.097515 
L 131.086435 114.928216 
L 131.737045 114.570875 
L 133.038266 113.435422 
L 133.688876 112.944876 
L 134.339486 112.725397 
L 134.990097 113.029684 
L 135.640707 112.386034 
L 136.941927 112.392311 
L 137.592538 112.600038 
L 138.243148 112.101545 
L 138.893758 111.942306 
L 139.544369 111.449171 
L 140.194979 110.583924 
L 140.845589 110.394793 
L 141.4962 109.764302 
L 142.79742 109.460244 
L 143.448031 109.807904 
L 144.098641 109.314448 
L 144.749251 109.286555 
L 145.399862 109.131927 
L 146.050472 109.140755 
L 146.701082 108.988457 
L 148.002303 108.948533 
L 149.303523 108.630623 
L 149.954134 108.172647 
L 150.604744 109.136374 
L 151.255354 109.150765 
L 151.905965 110.536542 
L 153.207185 110.321753 
L 153.857796 109.830255 
L 154.508406 110.028398 
L 155.809627 110.193075 
L 158.412068 110.475496 
L 159.062678 109.97532 
L 161.665119 108.645799 
L 162.31573 108.461716 
L 162.96634 108.558222 
L 163.61695 108.062185 
L 164.267561 108.519681 
L 165.568781 108.540954 
L 166.219392 108.698986 
L 167.520612 107.34478 
L 169.472443 105.914231 
L 170.123053 105.717119 
L 170.773664 105.230645 
L 171.424274 104.253228 
L 172.725495 103.376275 
L 173.376105 102.85032 
L 174.026715 102.012255 
L 174.677326 102.161727 
L 175.327936 101.650776 
L 175.978546 101.642708 
L 176.629156 101.300727 
L 177.279767 101.188598 
L 179.882208 99.967953 
L 180.532818 100.531731 
L 181.183429 100.152278 
L 181.834039 99.983459 
L 182.484649 99.959362 
L 183.13526 99.208374 
L 184.43648 99.199249 
L 185.087091 98.859757 
L 185.737701 99.163268 
L 186.388311 99.15479 
L 187.038921 99.319805 
L 187.689532 98.596796 
L 188.340142 98.760182 
L 189.641363 99.416962 
L 190.291973 99.234044 
L 190.942583 99.219353 
L 191.593194 98.710967 
L 192.243804 98.857109 
L 192.894414 98.514402 
L 193.545025 97.377558 
L 194.195635 97.679502 
L 194.846245 97.497788 
L 196.147466 97.793485 
L 196.798076 97.433597 
L 197.448686 97.716536 
L 198.099297 97.84521 
L 198.749907 98.152396 
L 200.051128 96.901908 
L 200.701738 97.2047 
L 203.304179 96.427202 
L 204.6054 96.398942 
L 205.25601 97.03989 
L 205.906621 97.511719 
L 207.858451 99.590487 
L 208.509062 98.897651 
L 209.159672 99.552167 
L 209.810282 99.8339 
L 210.460893 100.764081 
L 211.762113 101.055235 
L 213.063334 100.748562 
L 214.364555 101.337343 
L 215.015165 101.132021 
L 215.665775 99.856158 
L 216.316385 99.643069 
L 216.966996 98.057031 
L 217.617606 98.065683 
L 218.268216 97.799557 
L 218.918827 97.267346 
L 219.569437 97.153013 
L 220.220047 96.780458 
L 220.870658 96.116658 
L 222.171878 95.320589 
L 222.822489 95.118298 
L 223.473099 94.77245 
L 224.77432 94.751469 
L 225.42493 94.305892 
L 226.07554 94.245046 
L 226.72615 94.024026 
L 228.677981 93.0075 
L 230.629812 91.058813 
L 231.280423 90.684747 
L 231.931033 90.991678 
L 233.232254 90.653626 
L 233.882864 90.61856 
L 234.533474 91.117633 
L 235.184085 90.7746 
L 237.786526 90.270611 
L 238.437136 90.7358 
L 239.087746 91.594628 
L 239.738357 91.09978 
L 240.388967 91.089729 
L 241.039577 90.582319 
L 241.690188 90.403495 
L 242.340798 89.905949 
L 243.642019 89.531904 
L 244.292629 89.506935 
L 244.943239 89.669432 
L 245.59385 89.241076 
L 246.24446 89.395375 
L 246.89507 89.223136 
L 248.196291 89.533495 
L 249.497511 89.512824 
L 250.148122 89.656619 
L 250.798732 90.178027 
L 251.449342 90.181639 
L 252.099953 91.008487 
L 252.750563 91.168436 
L 254.702394 89.66536 
L 255.353004 89.498591 
L 256.003615 90.679744 
L 256.654225 91.171722 
L 257.304835 91.009263 
L 257.955445 91.48417 
L 258.606056 91.790182 
L 259.256666 91.316675 
L 259.907276 91.962096 
L 260.557887 92.225896 
L 261.208497 92.049781 
L 261.859107 92.71569 
L 262.509718 92.568107 
L 263.160328 92.590566 
L 263.810938 92.441592 
L 264.461549 92.614282 
L 265.112159 92.613906 
L 265.762769 92.47186 
L 266.413379 92.629616 
L 267.06399 93.269325 
L 267.7146 92.94021 
L 268.36521 93.104214 
L 269.015821 92.623991 
L 270.317041 92.295081 
L 271.618262 90.476522 
L 272.268872 90.194017 
L 272.919483 90.195424 
L 273.570093 90.851766 
L 275.521924 88.777738 
L 276.172534 88.428112 
L 276.823144 88.29617 
L 278.124365 89.260366 
L 278.774975 89.240208 
L 279.425586 88.761543 
L 280.076196 89.424148 
L 280.726806 89.43785 
L 281.377417 89.601796 
L 282.028027 89.123273 
L 282.678637 89.309627 
L 283.329248 89.150259 
L 283.979858 89.487086 
L 285.281079 90.30587 
L 285.931689 91.315869 
L 286.582299 91.768149 
L 287.88352 92.151173 
L 288.53413 92.80665 
L 289.18474 93.158345 
L 289.835351 93.334639 
L 290.485961 94.163716 
L 291.136571 94.227648 
L 291.787182 94.472907 
L 292.437792 94.490505 
L 293.088402 94.670411 
L 293.739013 94.67987 
L 294.389623 95.169222 
L 295.040233 95.171544 
L 295.690844 95.921768 
L 296.341454 95.79418 
L 296.992064 95.484079 
L 297.642674 95.479535 
L 298.293285 95.797358 
L 299.594505 95.153173 
L 300.245116 95.33698 
L 301.546336 96.75589 
L 303.498167 97.327507 
L 304.148778 96.82376 
L 304.799388 96.814239 
L 305.449998 97.001984 
L 306.100608 97.34954 
L 306.751219 97.36148 
L 307.401829 97.686155 
L 308.052439 97.865803 
L 309.35366 98.53917 
L 310.00427 99.193407 
L 310.654881 99.347158 
L 311.305491 99.674118 
L 311.956101 99.694648 
L 312.606712 99.551766 
L 313.257322 98.934806 
L 314.558543 98.96317 
L 315.209153 99.290296 
L 315.859763 98.295411 
L 316.510373 98.772067 
L 317.160984 98.129874 
L 317.811594 97.982901 
L 318.462204 98.618474 
L 319.112815 98.980943 
L 319.763425 99.512089 
L 320.414035 99.522701 
L 321.064646 98.35809 
L 321.715256 98.521476 
L 322.365866 98.535119 
L 323.016477 98.241038 
L 323.667087 98.089266 
L 324.317697 98.437052 
L 324.968308 98.638344 
L 326.920138 100.351695 
L 327.570749 101.386045 
L 328.221359 102.202682 
L 328.871969 102.731606 
L 329.52258 104.023809 
L 330.17319 104.682853 
L 330.8238 104.822577 
L 331.474411 105.154439 
L 332.125021 105.009666 
L 332.775631 105.340856 
L 333.426242 105.540491 
L 334.076852 106.193533 
L 334.727462 92.295081 
L 336.028683 90.476522 
L 336.679293 90.194017 
L 337.329903 90.195424 
L 337.980514 90.851766 
L 339.932345 88.777738 
L 340.582955 88.428112 
L 341.233565 88.29617 
L 342.534786 89.260366 
L 343.185396 89.240208 
L 343.836007 88.761543 
L 344.486617 89.424148 
L 345.137227 89.43785 
L 345.787837 89.601796 
L 346.438448 89.123273 
L 347.089058 89.309627 
L 347.739668 89.150259 
L 348.390279 89.487086 
L 349.691499 90.30587 
L 350.34211 91.315869 
L 350.99272 91.768149 
L 352.293941 92.151173 
L 352.944551 92.80665 
L 353.595161 93.158345 
L 354.245772 93.334639 
L 354.896382 94.163716 
L 355.546992 94.227648 
L 356.197602 94.472907 
L 356.848213 94.490505 
L 357.498823 94.670411 
L 358.149433 94.67987 
L 358.800044 95.169222 
L 359.450654 95.171544 
L 360.101264 95.921768 
L 360.751875 95.79418 
L 361.402485 95.484079 
L 362.053095 95.479535 
L 362.703706 95.797358 
L 364.004926 95.153173 
L 364.655537 95.33698 
L 365.956757 96.75589 
L 367.908588 97.327507 
L 368.559198 96.82376 
L 369.209809 96.814239 
L 369.860419 97.001984 
L 370.511029 97.34954 
L 371.16164 97.36148 
L 371.81225 97.686155 
L 372.46286 97.865803 
L 373.764081 98.53917 
L 374.414691 99.193407 
L 375.065302 99.347158 
L 375.715912 99.674118 
L 376.366522 99.694648 
L 377.017132 99.551766 
L 377.667743 98.934806 
L 378.968963 98.96317 
L 379.619574 99.290296 
L 380.270184 98.295411 
L 380.920794 98.772067 
L 381.571405 98.129874 
L 382.222015 97.982901 
L 382.872625 98.618474 
L 383.523236 98.980943 
L 384.173846 99.512089 
L 384.824456 99.522701 
L 385.475066 98.35809 
L 386.125677 98.521476 
L 386.776287 98.535119 
L 387.426897 98.241038 
L 388.077508 98.089266 
L 388.728118 98.437052 
L 389.378728 98.638344 
L 391.330559 100.351695 
L 391.98117 101.386045 
L 392.63178 102.202682 
L 393.28239 102.731606 
L 393.933001 104.023809 
L 394.583611 104.682853 
L 395.234221 104.822577 
L 395.884831 105.154439 
L 396.535442 105.009666 
L 397.186052 105.340856 
L 397.836662 105.540491 
L 398.487273 106.193533 
L 398.487273 106.193533 
" clip-path="url(#pde802c9ea2)" style="fill: none; stroke: #ff7f0e; stroke-width: 1.5; stroke-linecap: square"/>
   </g>
   <g id="patch_3">
    <path d="M 57.6 307.584 
L 57.6 41.472 
" style="fill: none; stroke: #000000; stroke-width: 0.8; stroke-linejoin: miter; stroke-linecap: square"/>
   </g>
   <g id="patch_4">
    <path d="M 414.72 307.584 
L 414.72 41.472 
" style="fill: none; stroke: #000000; stroke-width: 0.8; stroke-linejoin: miter; stroke-linecap: square"/>
   </g>
   <g id="patch_5">
    <path d="M 57.6 307.584 
L 414.72 307.584 
" style="fill: none; stroke: #000000; stroke-width: 0.8; stroke-linejoin: miter; stroke-linecap: square"/>
   </g>
   <g id="patch_6">
    <path d="M 57.6 41.472 
L 414.72 41.472 
" style="fill: none; stroke: #000000; stroke-width: 0.8; stroke-linejoin: miter; stroke-linecap: square"/>
   </g>
   <g id="text_17">
    <!-- RESULT -->
    <g transform="translate(213.816563 35.472) scale(0.12 -0.12)">
     <defs>
      <path id="DejaVuSans-4c" d="M 628 4666 
L 1259 4666 
L 1259 531 
L 3531 531 
L 3531 0 
L 628 0 
L 628 4666 
z
" transform="scale(0.015625)"/>
     </defs>
     <use xlink:href="#DejaVuSans-52"/>
     <use xlink:href="#DejaVuSans-45" x="69.482422"/>
     <use xlink:href="#DejaVuSans-53" x="132.666016"/>
     <use xlink:href="#DejaVuSans-55" x="196.142578"/>
     <use xlink:href="#DejaVuSans-4c" x="269.335938"/>
     <use xlink:href="#DejaVuSans-54" x="311.298828"/>
    </g>
   </g>
  </g>
 </g>
 <defs>
  <clipPath id="pde802c9ea2">
   <rect x="57.6" y="41.472" width="357.12" height="266.112"/>
  </clipPath>
 </defs>
</svg>
