<?xml version="1.0" encoding="utf-8" standalone="no"?>
<!DOCTYPE svg PUBLIC "-//W3C//DTD SVG 1.1//EN"
  "http://www.w3.org/Graphics/SVG/1.1/DTD/svg11.dtd">
<svg xmlns:xlink="http://www.w3.org/1999/xlink" width="460.8pt" height="345.6pt" viewBox="0 0 460.8 345.6" xmlns="http://www.w3.org/2000/svg" version="1.1">
 <metadata>
  <rdf:RDF xmlns:dc="http://purl.org/dc/elements/1.1/" xmlns:cc="http://creativecommons.org/ns#" xmlns:rdf="http://www.w3.org/1999/02/22-rdf-syntax-ns#">
   <cc:Work>
    <dc:type rdf:resource="http://purl.org/dc/dcmitype/StillImage"/>
    <dc:date>2023-03-29T14:06:03.774065</dc:date>
    <dc:format>image/svg+xml</dc:format>
    <dc:creator>
     <cc:Agent>
      <dc:title>Matplotlib v3.6.2, https://matplotlib.org/</dc:title>
     </cc:Agent>
    </dc:creator>
   </cc:Work>
  </rdf:RDF>
 </metadata>
 <defs>
  <style type="text/css">*{stroke-linejoin: round; stroke-linecap: butt}</style>
 </defs>
 <g id="figure_1">
  <g id="patch_1">
   <path d="M 0 345.6 
L 460.8 345.6 
L 460.8 0 
L 0 0 
z
" style="fill: #ffffff"/>
  </g>
  <g id="axes_1">
   <g id="patch_2">
    <path d="M 57.6 307.584 
L 414.72 307.584 
L 414.72 41.472 
L 57.6 41.472 
z
" style="fill: #ffffff"/>
   </g>
   <g id="matplotlib.axis_1">
    <g id="xtick_1">
     <g id="line2d_1">
      <defs>
       <path id="m24c22fad8e" d="M 0 0 
L 0 3.5 
" style="stroke: #000000; stroke-width: 0.8"/>
      </defs>
      <g>
       <use xlink:href="#m24c22fad8e" x="73.832727" y="307.584" style="stroke: #000000; stroke-width: 0.8"/>
      </g>
     </g>
     <g id="text_1">
      <!-- 0 -->
      <g transform="translate(70.651477 322.182437) scale(0.1 -0.1)">
       <defs>
        <path id="DejaVuSans-30" d="M 2034 4250 
Q 1547 4250 1301 3770 
Q 1056 3291 1056 2328 
Q 1056 1369 1301 889 
Q 1547 409 2034 409 
Q 2525 409 2770 889 
Q 3016 1369 3016 2328 
Q 3016 3291 2770 3770 
Q 2525 4250 2034 4250 
z
M 2034 4750 
Q 2819 4750 3233 4129 
Q 3647 3509 3647 2328 
Q 3647 1150 3233 529 
Q 2819 -91 2034 -91 
Q 1250 -91 836 529 
Q 422 1150 422 2328 
Q 422 3509 836 4129 
Q 1250 4750 2034 4750 
z
" transform="scale(0.015625)"/>
       </defs>
       <use xlink:href="#DejaVuSans-30"/>
      </g>
     </g>
    </g>
    <g id="xtick_2">
     <g id="line2d_2">
      <g>
       <use xlink:href="#m24c22fad8e" x="138.893758" y="307.584" style="stroke: #000000; stroke-width: 0.8"/>
      </g>
     </g>
     <g id="text_2">
      <!-- 100 -->
      <g transform="translate(129.350008 322.182437) scale(0.1 -0.1)">
       <defs>
        <path id="DejaVuSans-31" d="M 794 531 
L 1825 531 
L 1825 4091 
L 703 3866 
L 703 4441 
L 1819 4666 
L 2450 4666 
L 2450 531 
L 3481 531 
L 3481 0 
L 794 0 
L 794 531 
z
" transform="scale(0.015625)"/>
       </defs>
       <use xlink:href="#DejaVuSans-31"/>
       <use xlink:href="#DejaVuSans-30" x="63.623047"/>
       <use xlink:href="#DejaVuSans-30" x="127.246094"/>
      </g>
     </g>
    </g>
    <g id="xtick_3">
     <g id="line2d_3">
      <g>
       <use xlink:href="#m24c22fad8e" x="203.95479" y="307.584" style="stroke: #000000; stroke-width: 0.8"/>
      </g>
     </g>
     <g id="text_3">
      <!-- 200 -->
      <g transform="translate(194.41104 322.182437) scale(0.1 -0.1)">
       <defs>
        <path id="DejaVuSans-32" d="M 1228 531 
L 3431 531 
L 3431 0 
L 469 0 
L 469 531 
Q 828 903 1448 1529 
Q 2069 2156 2228 2338 
Q 2531 2678 2651 2914 
Q 2772 3150 2772 3378 
Q 2772 3750 2511 3984 
Q 2250 4219 1831 4219 
Q 1534 4219 1204 4116 
Q 875 4013 500 3803 
L 500 4441 
Q 881 4594 1212 4672 
Q 1544 4750 1819 4750 
Q 2544 4750 2975 4387 
Q 3406 4025 3406 3419 
Q 3406 3131 3298 2873 
Q 3191 2616 2906 2266 
Q 2828 2175 2409 1742 
Q 1991 1309 1228 531 
z
" transform="scale(0.015625)"/>
       </defs>
       <use xlink:href="#DejaVuSans-32"/>
       <use xlink:href="#DejaVuSans-30" x="63.623047"/>
       <use xlink:href="#DejaVuSans-30" x="127.246094"/>
      </g>
     </g>
    </g>
    <g id="xtick_4">
     <g id="line2d_4">
      <g>
       <use xlink:href="#m24c22fad8e" x="269.015821" y="307.584" style="stroke: #000000; stroke-width: 0.8"/>
      </g>
     </g>
     <g id="text_4">
      <!-- 300 -->
      <g transform="translate(259.472071 322.182437) scale(0.1 -0.1)">
       <defs>
        <path id="DejaVuSans-33" d="M 2597 2516 
Q 3050 2419 3304 2112 
Q 3559 1806 3559 1356 
Q 3559 666 3084 287 
Q 2609 -91 1734 -91 
Q 1441 -91 1130 -33 
Q 819 25 488 141 
L 488 750 
Q 750 597 1062 519 
Q 1375 441 1716 441 
Q 2309 441 2620 675 
Q 2931 909 2931 1356 
Q 2931 1769 2642 2001 
Q 2353 2234 1838 2234 
L 1294 2234 
L 1294 2753 
L 1863 2753 
Q 2328 2753 2575 2939 
Q 2822 3125 2822 3475 
Q 2822 3834 2567 4026 
Q 2313 4219 1838 4219 
Q 1578 4219 1281 4162 
Q 984 4106 628 3988 
L 628 4550 
Q 988 4650 1302 4700 
Q 1616 4750 1894 4750 
Q 2613 4750 3031 4423 
Q 3450 4097 3450 3541 
Q 3450 3153 3228 2886 
Q 3006 2619 2597 2516 
z
" transform="scale(0.015625)"/>
       </defs>
       <use xlink:href="#DejaVuSans-33"/>
       <use xlink:href="#DejaVuSans-30" x="63.623047"/>
       <use xlink:href="#DejaVuSans-30" x="127.246094"/>
      </g>
     </g>
    </g>
    <g id="xtick_5">
     <g id="line2d_5">
      <g>
       <use xlink:href="#m24c22fad8e" x="334.076852" y="307.584" style="stroke: #000000; stroke-width: 0.8"/>
      </g>
     </g>
     <g id="text_5">
      <!-- 400 -->
      <g transform="translate(324.533102 322.182437) scale(0.1 -0.1)">
       <defs>
        <path id="DejaVuSans-34" d="M 2419 4116 
L 825 1625 
L 2419 1625 
L 2419 4116 
z
M 2253 4666 
L 3047 4666 
L 3047 1625 
L 3713 1625 
L 3713 1100 
L 3047 1100 
L 3047 0 
L 2419 0 
L 2419 1100 
L 313 1100 
L 313 1709 
L 2253 4666 
z
" transform="scale(0.015625)"/>
       </defs>
       <use xlink:href="#DejaVuSans-34"/>
       <use xlink:href="#DejaVuSans-30" x="63.623047"/>
       <use xlink:href="#DejaVuSans-30" x="127.246094"/>
      </g>
     </g>
    </g>
    <g id="xtick_6">
     <g id="line2d_6">
      <g>
       <use xlink:href="#m24c22fad8e" x="399.137883" y="307.584" style="stroke: #000000; stroke-width: 0.8"/>
      </g>
     </g>
     <g id="text_6">
      <!-- 500 -->
      <g transform="translate(389.594133 322.182437) scale(0.1 -0.1)">
       <defs>
        <path id="DejaVuSans-35" d="M 691 4666 
L 3169 4666 
L 3169 4134 
L 1269 4134 
L 1269 2991 
Q 1406 3038 1543 3061 
Q 1681 3084 1819 3084 
Q 2600 3084 3056 2656 
Q 3513 2228 3513 1497 
Q 3513 744 3044 326 
Q 2575 -91 1722 -91 
Q 1428 -91 1123 -41 
Q 819 9 494 109 
L 494 744 
Q 775 591 1075 516 
Q 1375 441 1709 441 
Q 2250 441 2565 725 
Q 2881 1009 2881 1497 
Q 2881 1984 2565 2268 
Q 2250 2553 1709 2553 
Q 1456 2553 1204 2497 
Q 953 2441 691 2322 
L 691 4666 
z
" transform="scale(0.015625)"/>
       </defs>
       <use xlink:href="#DejaVuSans-35"/>
       <use xlink:href="#DejaVuSans-30" x="63.623047"/>
       <use xlink:href="#DejaVuSans-30" x="127.246094"/>
      </g>
     </g>
    </g>
    <g id="text_7">
     <!-- EPISODE -->
     <g transform="translate(214.39125 335.860562) scale(0.1 -0.1)">
      <defs>
       <path id="DejaVuSans-45" d="M 628 4666 
L 3578 4666 
L 3578 4134 
L 1259 4134 
L 1259 2753 
L 3481 2753 
L 3481 2222 
L 1259 2222 
L 1259 531 
L 3634 531 
L 3634 0 
L 628 0 
L 628 4666 
z
" transform="scale(0.015625)"/>
       <path id="DejaVuSans-50" d="M 1259 4147 
L 1259 2394 
L 2053 2394 
Q 2494 2394 2734 2622 
Q 2975 2850 2975 3272 
Q 2975 3691 2734 3919 
Q 2494 4147 2053 4147 
L 1259 4147 
z
M 628 4666 
L 2053 4666 
Q 2838 4666 3239 4311 
Q 3641 3956 3641 3272 
Q 3641 2581 3239 2228 
Q 2838 1875 2053 1875 
L 1259 1875 
L 1259 0 
L 628 0 
L 628 4666 
z
" transform="scale(0.015625)"/>
       <path id="DejaVuSans-49" d="M 628 4666 
L 1259 4666 
L 1259 0 
L 628 0 
L 628 4666 
z
" transform="scale(0.015625)"/>
       <path id="DejaVuSans-53" d="M 3425 4513 
L 3425 3897 
Q 3066 4069 2747 4153 
Q 2428 4238 2131 4238 
Q 1616 4238 1336 4038 
Q 1056 3838 1056 3469 
Q 1056 3159 1242 3001 
Q 1428 2844 1947 2747 
L 2328 2669 
Q 3034 2534 3370 2195 
Q 3706 1856 3706 1288 
Q 3706 609 3251 259 
Q 2797 -91 1919 -91 
Q 1588 -91 1214 -16 
Q 841 59 441 206 
L 441 856 
Q 825 641 1194 531 
Q 1563 422 1919 422 
Q 2459 422 2753 634 
Q 3047 847 3047 1241 
Q 3047 1584 2836 1778 
Q 2625 1972 2144 2069 
L 1759 2144 
Q 1053 2284 737 2584 
Q 422 2884 422 3419 
Q 422 4038 858 4394 
Q 1294 4750 2059 4750 
Q 2388 4750 2728 4690 
Q 3069 4631 3425 4513 
z
" transform="scale(0.015625)"/>
       <path id="DejaVuSans-4f" d="M 2522 4238 
Q 1834 4238 1429 3725 
Q 1025 3213 1025 2328 
Q 1025 1447 1429 934 
Q 1834 422 2522 422 
Q 3209 422 3611 934 
Q 4013 1447 4013 2328 
Q 4013 3213 3611 3725 
Q 3209 4238 2522 4238 
z
M 2522 4750 
Q 3503 4750 4090 4092 
Q 4678 3434 4678 2328 
Q 4678 1225 4090 567 
Q 3503 -91 2522 -91 
Q 1538 -91 948 565 
Q 359 1222 359 2328 
Q 359 3434 948 4092 
Q 1538 4750 2522 4750 
z
" transform="scale(0.015625)"/>
       <path id="DejaVuSans-44" d="M 1259 4147 
L 1259 519 
L 2022 519 
Q 2988 519 3436 956 
Q 3884 1394 3884 2338 
Q 3884 3275 3436 3711 
Q 2988 4147 2022 4147 
L 1259 4147 
z
M 628 4666 
L 1925 4666 
Q 3281 4666 3915 4102 
Q 4550 3538 4550 2338 
Q 4550 1131 3912 565 
Q 3275 0 1925 0 
L 628 0 
L 628 4666 
z
" transform="scale(0.015625)"/>
      </defs>
      <use xlink:href="#DejaVuSans-45"/>
      <use xlink:href="#DejaVuSans-50" x="63.183594"/>
      <use xlink:href="#DejaVuSans-49" x="123.486328"/>
      <use xlink:href="#DejaVuSans-53" x="152.978516"/>
      <use xlink:href="#DejaVuSans-4f" x="216.455078"/>
      <use xlink:href="#DejaVuSans-44" x="295.166016"/>
      <use xlink:href="#DejaVuSans-45" x="372.167969"/>
     </g>
    </g>
   </g>
   <g id="matplotlib.axis_2">
    <g id="ytick_1">
     <g id="line2d_7">
      <defs>
       <path id="mfb9c2ad65d" d="M 0 0 
L -3.5 0 
" style="stroke: #000000; stroke-width: 0.8"/>
      </defs>
      <g>
       <use xlink:href="#mfb9c2ad65d" x="57.6" y="286.550938" style="stroke: #000000; stroke-width: 0.8"/>
      </g>
     </g>
     <g id="text_8">
      <!-- −1750 -->
      <g transform="translate(16.770313 290.350157) scale(0.1 -0.1)">
       <defs>
        <path id="DejaVuSans-2212" d="M 678 2272 
L 4684 2272 
L 4684 1741 
L 678 1741 
L 678 2272 
z
" transform="scale(0.015625)"/>
        <path id="DejaVuSans-37" d="M 525 4666 
L 3525 4666 
L 3525 4397 
L 1831 0 
L 1172 0 
L 2766 4134 
L 525 4134 
L 525 4666 
z
" transform="scale(0.015625)"/>
       </defs>
       <use xlink:href="#DejaVuSans-2212"/>
       <use xlink:href="#DejaVuSans-31" x="83.789062"/>
       <use xlink:href="#DejaVuSans-37" x="147.412109"/>
       <use xlink:href="#DejaVuSans-35" x="211.035156"/>
       <use xlink:href="#DejaVuSans-30" x="274.658203"/>
      </g>
     </g>
    </g>
    <g id="ytick_2">
     <g id="line2d_8">
      <g>
       <use xlink:href="#mfb9c2ad65d" x="57.6" y="253.262636" style="stroke: #000000; stroke-width: 0.8"/>
      </g>
     </g>
     <g id="text_9">
      <!-- −1500 -->
      <g transform="translate(16.770313 257.061855) scale(0.1 -0.1)">
       <use xlink:href="#DejaVuSans-2212"/>
       <use xlink:href="#DejaVuSans-31" x="83.789062"/>
       <use xlink:href="#DejaVuSans-35" x="147.412109"/>
       <use xlink:href="#DejaVuSans-30" x="211.035156"/>
       <use xlink:href="#DejaVuSans-30" x="274.658203"/>
      </g>
     </g>
    </g>
    <g id="ytick_3">
     <g id="line2d_9">
      <g>
       <use xlink:href="#mfb9c2ad65d" x="57.6" y="219.974334" style="stroke: #000000; stroke-width: 0.8"/>
      </g>
     </g>
     <g id="text_10">
      <!-- −1250 -->
      <g transform="translate(16.770313 223.773553) scale(0.1 -0.1)">
       <use xlink:href="#DejaVuSans-2212"/>
       <use xlink:href="#DejaVuSans-31" x="83.789062"/>
       <use xlink:href="#DejaVuSans-32" x="147.412109"/>
       <use xlink:href="#DejaVuSans-35" x="211.035156"/>
       <use xlink:href="#DejaVuSans-30" x="274.658203"/>
      </g>
     </g>
    </g>
    <g id="ytick_4">
     <g id="line2d_10">
      <g>
       <use xlink:href="#mfb9c2ad65d" x="57.6" y="186.686032" style="stroke: #000000; stroke-width: 0.8"/>
      </g>
     </g>
     <g id="text_11">
      <!-- −1000 -->
      <g transform="translate(16.770313 190.485251) scale(0.1 -0.1)">
       <use xlink:href="#DejaVuSans-2212"/>
       <use xlink:href="#DejaVuSans-31" x="83.789062"/>
       <use xlink:href="#DejaVuSans-30" x="147.412109"/>
       <use xlink:href="#DejaVuSans-30" x="211.035156"/>
       <use xlink:href="#DejaVuSans-30" x="274.658203"/>
      </g>
     </g>
    </g>
    <g id="ytick_5">
     <g id="line2d_11">
      <g>
       <use xlink:href="#mfb9c2ad65d" x="57.6" y="153.39773" style="stroke: #000000; stroke-width: 0.8"/>
      </g>
     </g>
     <g id="text_12">
      <!-- −750 -->
      <g transform="translate(23.132812 157.196948) scale(0.1 -0.1)">
       <use xlink:href="#DejaVuSans-2212"/>
       <use xlink:href="#DejaVuSans-37" x="83.789062"/>
       <use xlink:href="#DejaVuSans-35" x="147.412109"/>
       <use xlink:href="#DejaVuSans-30" x="211.035156"/>
      </g>
     </g>
    </g>
    <g id="ytick_6">
     <g id="line2d_12">
      <g>
       <use xlink:href="#mfb9c2ad65d" x="57.6" y="120.109428" style="stroke: #000000; stroke-width: 0.8"/>
      </g>
     </g>
     <g id="text_13">
      <!-- −500 -->
      <g transform="translate(23.132812 123.908646) scale(0.1 -0.1)">
       <use xlink:href="#DejaVuSans-2212"/>
       <use xlink:href="#DejaVuSans-35" x="83.789062"/>
       <use xlink:href="#DejaVuSans-30" x="147.412109"/>
       <use xlink:href="#DejaVuSans-30" x="211.035156"/>
      </g>
     </g>
    </g>
    <g id="ytick_7">
     <g id="line2d_13">
      <g>
       <use xlink:href="#mfb9c2ad65d" x="57.6" y="86.821125" style="stroke: #000000; stroke-width: 0.8"/>
      </g>
     </g>
     <g id="text_14">
      <!-- −250 -->
      <g transform="translate(23.132812 90.620344) scale(0.1 -0.1)">
       <use xlink:href="#DejaVuSans-2212"/>
       <use xlink:href="#DejaVuSans-32" x="83.789062"/>
       <use xlink:href="#DejaVuSans-35" x="147.412109"/>
       <use xlink:href="#DejaVuSans-30" x="211.035156"/>
      </g>
     </g>
    </g>
    <g id="ytick_8">
     <g id="line2d_14">
      <g>
       <use xlink:href="#mfb9c2ad65d" x="57.6" y="53.532823" style="stroke: #000000; stroke-width: 0.8"/>
      </g>
     </g>
     <g id="text_15">
      <!-- 0 -->
      <g transform="translate(44.2375 57.332042) scale(0.1 -0.1)">
       <use xlink:href="#DejaVuSans-30"/>
      </g>
     </g>
    </g>
    <g id="text_16">
     <!-- RETURN -->
     <g transform="translate(10.690625 195.089719) rotate(-90) scale(0.1 -0.1)">
      <defs>
       <path id="DejaVuSans-52" d="M 2841 2188 
Q 3044 2119 3236 1894 
Q 3428 1669 3622 1275 
L 4263 0 
L 3584 0 
L 2988 1197 
Q 2756 1666 2539 1819 
Q 2322 1972 1947 1972 
L 1259 1972 
L 1259 0 
L 628 0 
L 628 4666 
L 2053 4666 
Q 2853 4666 3247 4331 
Q 3641 3997 3641 3322 
Q 3641 2881 3436 2590 
Q 3231 2300 2841 2188 
z
M 1259 4147 
L 1259 2491 
L 2053 2491 
Q 2509 2491 2742 2702 
Q 2975 2913 2975 3322 
Q 2975 3731 2742 3939 
Q 2509 4147 2053 4147 
L 1259 4147 
z
" transform="scale(0.015625)"/>
       <path id="DejaVuSans-54" d="M -19 4666 
L 3928 4666 
L 3928 4134 
L 2272 4134 
L 2272 0 
L 1638 0 
L 1638 4134 
L -19 4134 
L -19 4666 
z
" transform="scale(0.015625)"/>
       <path id="DejaVuSans-55" d="M 556 4666 
L 1191 4666 
L 1191 1831 
Q 1191 1081 1462 751 
Q 1734 422 2344 422 
Q 2950 422 3222 751 
Q 3494 1081 3494 1831 
L 3494 4666 
L 4128 4666 
L 4128 1753 
Q 4128 841 3676 375 
Q 3225 -91 2344 -91 
Q 1459 -91 1007 375 
Q 556 841 556 1753 
L 556 4666 
z
" transform="scale(0.015625)"/>
       <path id="DejaVuSans-4e" d="M 628 4666 
L 1478 4666 
L 3547 763 
L 3547 4666 
L 4159 4666 
L 4159 0 
L 3309 0 
L 1241 3903 
L 1241 0 
L 628 0 
L 628 4666 
z
" transform="scale(0.015625)"/>
      </defs>
      <use xlink:href="#DejaVuSans-52"/>
      <use xlink:href="#DejaVuSans-45" x="69.482422"/>
      <use xlink:href="#DejaVuSans-54" x="132.666016"/>
      <use xlink:href="#DejaVuSans-55" x="193.75"/>
      <use xlink:href="#DejaVuSans-52" x="266.943359"/>
      <use xlink:href="#DejaVuSans-4e" x="336.425781"/>
     </g>
    </g>
   </g>
   <g id="line2d_15">
    <path d="M 73.832727 223.35905 
L 74.483338 225.079452 
L 75.133948 295.488 
L 75.784558 239.504971 
L 76.435169 234.162632 
L 77.085779 232.100367 
L 77.736389 284.545319 
L 78.386999 232.729459 
L 79.03761 246.488417 
L 79.68822 248.417073 
L 80.33883 220.621757 
L 80.989441 227.756623 
L 81.640051 208.013163 
L 82.290661 204.963686 
L 82.941272 184.693615 
L 83.591882 181.580732 
L 84.242492 183.993262 
L 84.893103 168.210422 
L 85.543713 185.171645 
L 86.194323 174.272928 
L 86.844934 290.36159 
L 87.495544 180.571954 
L 88.146154 156.74679 
L 88.796764 183.044851 
L 89.447375 197.911732 
L 90.097985 190.418865 
L 90.748595 218.825769 
L 91.399206 156.836452 
L 92.049816 168.54666 
L 92.700426 168.397679 
L 93.351037 148.939466 
L 94.001647 119.216957 
L 94.652257 208.352205 
L 95.302868 264.397294 
L 95.953478 171.262183 
L 96.604088 159.046412 
L 97.254698 184.335348 
L 97.905309 154.68727 
L 98.555919 191.087899 
L 99.206529 172.550558 
L 99.85714 171.794313 
L 100.50775 171.983971 
L 101.15836 179.126609 
L 101.808971 191.80948 
L 102.459581 171.011813 
L 103.110191 185.712424 
L 103.760802 166.212353 
L 104.411412 155.733117 
L 105.062022 154.893199 
L 105.712633 155.222205 
L 106.363243 183.909323 
L 107.013853 158.086386 
L 107.664463 191.006929 
L 108.315074 136.818451 
L 108.965684 152.594757 
L 109.616294 156.90169 
L 110.266905 152.357415 
L 110.917515 104.930464 
L 111.568125 292.479436 
L 112.218736 178.460133 
L 112.869346 105.093855 
L 113.519956 105.015612 
L 114.170567 175.402584 
L 114.821177 121.333016 
L 115.471787 171.44978 
L 116.122398 121.139643 
L 116.773008 120.932086 
L 117.423618 105.23751 
L 118.074228 153.110524 
L 118.724839 291.816025 
L 119.375449 105.599037 
L 120.026059 171.403977 
L 120.67667 175.991961 
L 121.32728 212.304324 
L 121.97789 285.81442 
L 122.628501 217.512995 
L 123.279111 218.873154 
L 123.929721 197.662963 
L 125.230942 224.100162 
L 125.881552 216.183961 
L 126.532163 282.730459 
L 127.182773 234.238071 
L 127.833383 126.115285 
L 128.483993 88.057024 
L 129.134604 87.564342 
L 129.785214 102.869638 
L 130.435824 55.98168 
L 131.086435 179.634005 
L 131.737045 71.908786 
L 132.387655 87.547888 
L 133.038266 55.881942 
L 133.688876 71.09119 
L 134.339486 111.010308 
L 134.990097 101.552815 
L 135.640707 72.301682 
L 136.291317 72.291026 
L 136.941927 88.696324 
L 137.592538 88.787116 
L 138.893758 154.593435 
L 139.544369 137.179661 
L 140.194979 72.744052 
L 140.845589 72.369306 
L 141.4962 88.61149 
L 142.14681 118.396656 
L 142.79742 88.814056 
L 143.448031 72.514385 
L 144.098641 88.15756 
L 144.749251 151.659364 
L 145.399862 72.181715 
L 146.050472 87.827052 
L 146.701082 71.873696 
L 147.351692 120.888049 
L 148.002303 72.181472 
L 148.652913 72.299361 
L 149.303523 71.689229 
L 149.954134 119.714625 
L 150.604744 121.256137 
L 151.255354 72.224934 
L 151.905965 119.331742 
L 152.556575 152.578941 
L 153.207185 71.59168 
L 153.857796 136.211651 
L 154.508406 71.774287 
L 155.159016 71.897302 
L 155.809627 72.194491 
L 156.460237 72.097993 
L 157.110847 71.688597 
L 157.761457 120.799987 
L 158.412068 71.672198 
L 159.062678 102.886195 
L 159.713288 71.176936 
L 160.363899 87.487257 
L 161.014509 87.32442 
L 161.665119 87.726807 
L 162.31573 117.564384 
L 162.96634 71.66743 
L 163.61695 90.030629 
L 164.267561 55.623072 
L 164.918171 64.85151 
L 165.568781 71.321739 
L 166.219392 71.246456 
L 166.870002 104.424317 
L 167.520612 70.224264 
L 168.171222 108.029241 
L 168.821833 55.14673 
L 169.472443 70.87607 
L 170.123053 105.482274 
L 170.773664 70.813865 
L 172.074884 105.648883 
L 172.725495 86.625155 
L 173.376105 88.710131 
L 174.026715 70.510659 
L 174.677326 70.979262 
L 175.327936 70.810882 
L 175.978546 71.966459 
L 176.629156 86.462195 
L 177.279767 71.312308 
L 177.930377 89.292727 
L 178.580987 71.160136 
L 179.231598 87.812946 
L 179.882208 73.041102 
L 180.532818 72.049357 
L 181.183429 102.013585 
L 181.834039 72.832456 
L 183.13526 103.084295 
L 183.78587 90.157838 
L 184.43648 99.882336 
L 185.087091 71.688318 
L 185.737701 72.356262 
L 186.388311 72.11056 
L 187.038921 155.608177 
L 187.689532 160.047789 
L 188.340142 106.213109 
L 188.990752 124.153376 
L 189.641363 72.117502 
L 190.291973 88.203089 
L 190.942583 72.096333 
L 191.593194 88.90327 
L 192.243804 89.390463 
L 192.894414 87.154252 
L 193.545025 72.934986 
L 194.195635 104.814134 
L 194.846245 104.479805 
L 196.147466 72.195272 
L 196.798076 72.2089 
L 197.448686 72.860466 
L 198.099297 72.505727 
L 198.749907 71.730256 
L 199.400517 87.487092 
L 200.051128 72.047749 
L 200.701738 72.828736 
L 201.352348 71.336118 
L 202.002959 84.698397 
L 202.653569 116.512273 
L 203.304179 71.753141 
L 203.95479 84.99019 
L 204.6054 87.139914 
L 205.25601 87.244212 
L 205.906621 71.667107 
L 206.557231 85.370121 
L 207.207841 86.671085 
L 207.858451 86.255245 
L 208.509062 55.751978 
L 209.159672 101.427969 
L 209.810282 70.023858 
L 210.460893 53.951802 
L 211.111503 114.527963 
L 211.762113 101.460677 
L 212.412724 72.638462 
L 213.063334 71.503947 
L 213.713944 101.466543 
L 214.364555 55.864969 
L 215.015165 104.021648 
L 215.665775 104.372872 
L 216.316385 70.287927 
L 216.966996 54.028441 
L 217.617606 70.354411 
L 218.268216 102.257036 
L 218.918827 86.796764 
L 219.569437 87.371982 
L 220.220047 122.429267 
L 220.870658 85.71276 
L 221.521268 88.443336 
L 222.171878 99.139229 
L 222.822489 87.614727 
L 223.473099 130.494937 
L 224.123709 86.115177 
L 224.77432 84.457343 
L 225.42493 86.321625 
L 226.07554 69.955348 
L 226.72615 69.707173 
L 227.376761 71.33848 
L 228.027371 70.975449 
L 228.677981 69.720934 
L 229.328592 101.209667 
L 231.280423 53.589385 
L 231.931033 104.779053 
L 232.581643 84.542992 
L 233.232254 125.096883 
L 233.882864 117.73524 
L 234.533474 69.719597 
L 235.184085 100.825302 
L 235.834695 86.802637 
L 236.485305 115.610837 
L 237.135915 119.668262 
L 237.786526 70.438093 
L 238.437136 87.568452 
L 239.087746 117.930775 
L 239.738357 55.569289 
L 240.388967 70.009512 
L 241.039577 87.81087 
L 241.690188 70.151789 
L 242.340798 85.962684 
L 242.991408 53.846523 
L 243.642019 105.027403 
L 244.292629 85.161157 
L 244.943239 86.331572 
L 245.59385 87.936951 
L 246.24446 116.597363 
L 246.89507 100.246357 
L 247.54568 88.957534 
L 248.846901 53.90927 
L 249.497511 120.079719 
L 250.148122 53.95178 
L 250.798732 53.818367 
L 251.449342 118.809686 
L 252.099953 53.77408 
L 252.750563 87.149878 
L 253.401173 98.551922 
L 254.051784 102.505049 
L 254.702394 55.026324 
L 255.353004 69.653508 
L 256.003615 69.374479 
L 256.654225 87.537786 
L 257.304835 71.771973 
L 257.955445 101.715553 
L 258.606056 100.584409 
L 259.256666 87.746884 
L 259.907276 71.121943 
L 260.557887 101.125711 
L 261.208497 70.313438 
L 261.859107 87.051096 
L 262.509718 93.262751 
L 263.160328 70.217438 
L 263.810938 88.207538 
L 264.461549 86.186174 
L 265.762769 54.316866 
L 266.413379 84.668977 
L 267.06399 55.882648 
L 267.7146 69.966259 
L 268.36521 87.336074 
L 269.015821 101.329242 
L 269.666431 71.015426 
L 270.317041 54.664885 
L 270.967652 69.788317 
L 271.618262 101.079711 
L 272.268872 85.773307 
L 272.919483 101.249264 
L 274.220703 72.70484 
L 274.871314 70.387473 
L 275.521924 71.464597 
L 276.172534 102.124989 
L 276.823144 69.930927 
L 277.473755 96.628263 
L 278.124365 70.369744 
L 278.774975 86.627491 
L 279.425586 71.568997 
L 280.076196 102.178502 
L 280.726806 70.664133 
L 281.377417 87.555276 
L 282.028027 99.404719 
L 282.678637 71.047481 
L 283.329248 71.183656 
L 283.979858 70.637189 
L 285.281079 70.801081 
L 285.931689 72.099895 
L 286.582299 71.822279 
L 287.232909 72.027017 
L 287.88352 102.168974 
L 288.53413 69.97912 
L 289.18474 252.262791 
L 289.835351 102.397063 
L 290.485961 87.985551 
L 291.136571 86.990592 
L 291.787182 198.201845 
L 292.437792 106.056552 
L 293.739013 136.603214 
L 295.040233 71.18088 
L 295.690844 87.653759 
L 296.341454 70.611783 
L 296.992064 103.077077 
L 297.642674 54.720253 
L 298.293285 100.940746 
L 298.943895 70.184274 
L 299.594505 101.096927 
L 300.245116 71.609811 
L 300.895726 71.925371 
L 301.546336 70.305806 
L 302.196947 97.030183 
L 302.847557 72.195589 
L 303.498167 70.567678 
L 304.148778 70.813151 
L 304.799388 101.528945 
L 306.100608 71.123426 
L 306.751219 104.169512 
L 307.401829 70.507832 
L 308.052439 54.816661 
L 308.70305 72.146813 
L 309.35366 70.942075 
L 310.00427 53.754829 
L 310.654881 53.893661 
L 311.305491 53.782583 
L 311.956101 85.963437 
L 312.606712 102.428623 
L 313.257322 70.502898 
L 313.907932 53.660398 
L 314.558543 70.328641 
L 315.209153 69.884143 
L 315.859763 71.915506 
L 316.510373 101.230519 
L 317.160984 85.816649 
L 317.811594 84.678495 
L 318.462204 117.609763 
L 319.112815 111.773201 
L 319.763425 69.727752 
L 320.414035 56.34881 
L 321.064646 53.772979 
L 321.715256 105.612858 
L 322.365866 100.714993 
L 323.016477 86.333018 
L 323.667087 87.872153 
L 324.317697 71.298216 
L 324.968308 85.870084 
L 325.618918 86.384016 
L 326.269528 69.304929 
L 326.920138 83.405856 
L 327.570749 134.859023 
L 328.221359 71.520087 
L 328.871969 85.864935 
L 329.52258 87.339573 
L 330.17319 86.735357 
L 330.8238 86.979227 
L 331.474411 101.306758 
L 332.125021 105.507538 
L 332.775631 85.262026 
L 333.426242 71.244885 
L 334.076852 118.773251 
L 334.727462 72.025692 
L 335.378073 69.490317 
L 336.679293 108.0651 
L 337.329903 101.64327 
L 338.631124 72.028851 
L 339.281734 71.702498 
L 339.932345 69.698555 
L 340.582955 54.083334 
L 341.233565 118.432137 
L 341.884176 87.635521 
L 342.534786 121.595549 
L 343.185396 54.836119 
L 343.836007 54.250113 
L 344.486617 55.116773 
L 345.137227 141.551443 
L 345.787837 55.054646 
L 346.438448 100.329189 
L 347.089058 87.396194 
L 348.390279 88.041525 
L 349.691499 87.524392 
L 350.34211 100.837742 
L 350.99272 71.864809 
L 351.64333 87.059071 
L 352.293941 53.568 
L 352.944551 101.384683 
L 353.595161 100.365795 
L 354.245772 70.267547 
L 354.896382 87.666484 
L 355.546992 87.78647 
L 356.197602 100.652031 
L 356.848213 71.699249 
L 357.498823 71.13348 
L 358.149433 71.26766 
L 358.800044 53.584839 
L 359.450654 103.165262 
L 360.101264 55.336735 
L 360.751875 69.808226 
L 361.402485 101.185638 
L 362.053095 71.711689 
L 362.703706 101.693864 
L 363.354316 55.152022 
L 364.004926 71.040291 
L 364.655537 71.42107 
L 365.306147 87.494171 
L 365.956757 86.557497 
L 366.607367 69.689407 
L 367.257978 86.872791 
L 367.908588 71.15128 
L 368.559198 165.691352 
L 369.209809 70.333906 
L 369.860419 70.724583 
L 370.511029 71.278587 
L 371.16164 86.773459 
L 371.81225 71.640686 
L 372.46286 71.271541 
L 373.113471 71.543362 
L 373.764081 71.520664 
L 374.414691 70.306324 
L 375.065302 71.460385 
L 375.715912 86.39261 
L 376.366522 71.851146 
L 377.017132 103.062934 
L 377.667743 70.360602 
L 378.318353 102.252612 
L 378.968963 87.232586 
L 379.619574 87.615873 
L 380.270184 118.546545 
L 380.920794 71.60148 
L 381.571405 102.965933 
L 382.222015 71.62983 
L 382.872625 70.776162 
L 383.523236 71.744793 
L 384.173846 100.088195 
L 384.824456 54.140308 
L 385.475066 85.139497 
L 386.125677 95.044384 
L 386.776287 71.485767 
L 387.426897 71.164578 
L 388.077508 85.247077 
L 388.728118 71.311528 
L 389.378728 70.351168 
L 390.029339 100.910174 
L 390.679949 71.053014 
L 391.330559 108.54197 
L 391.98117 69.991146 
L 392.63178 70.941565 
L 393.28239 87.766016 
L 393.933001 84.31064 
L 394.583611 70.747976 
L 395.234221 101.367762 
L 395.884831 53.916611 
L 396.535442 85.727182 
L 397.186052 54.067921 
L 398.487273 87.101444 
L 398.487273 87.101444 
" clip-path="url(#p0618421fe5)" style="fill: none; stroke: #1f77b4; stroke-width: 1.5; stroke-linecap: square"/>
   </g>
   <g id="line2d_16">
    <path d="M 73.832727 173.02849 
L 74.483338 172.34083 
L 75.133948 171.461835 
L 75.784558 169.234388 
L 77.085779 166.107522 
L 77.736389 164.970494 
L 78.386999 163.013181 
L 79.68822 159.827711 
L 80.33883 158.86014 
L 82.290661 154.615045 
L 82.941272 153.774296 
L 84.893103 150.433315 
L 85.543713 149.948368 
L 86.194323 149.309209 
L 86.844934 148.288723 
L 87.495544 146.578423 
L 88.146154 146.298504 
L 88.796764 145.446954 
L 89.447375 144.978617 
L 91.399206 141.065714 
L 92.700426 139.249746 
L 93.351037 138.773771 
L 94.001647 138.001094 
L 94.652257 137.837781 
L 95.302868 136.466036 
L 95.953478 134.696929 
L 97.254698 133.144358 
L 97.905309 132.476649 
L 98.555919 131.646457 
L 99.85714 129.466602 
L 101.808971 126.311755 
L 103.760802 123.653193 
L 104.411412 122.542538 
L 105.062022 121.693962 
L 105.712633 121.199855 
L 107.013853 119.392782 
L 107.664463 118.86841 
L 108.315074 117.824587 
L 108.965684 117.343508 
L 110.917515 114.847978 
L 111.568125 114.518334 
L 112.218736 112.458157 
L 112.869346 111.386681 
L 113.519956 111.228676 
L 114.170567 110.890116 
L 114.821177 110.014218 
L 115.471787 109.531302 
L 116.122398 108.537301 
L 116.773008 108.34604 
L 117.423618 107.865042 
L 118.074228 107.690213 
L 118.724839 107.189958 
L 119.375449 105.17337 
L 120.026059 105.116205 
L 121.32728 103.082697 
L 122.628501 100.378693 
L 123.279111 99.804043 
L 123.929721 98.677442 
L 124.580332 97.94234 
L 126.532163 93.750363 
L 127.182773 91.812083 
L 127.833383 90.363611 
L 128.483993 89.973997 
L 129.134604 89.822778 
L 129.785214 89.995274 
L 130.435824 90.011374 
L 131.086435 90.338044 
L 131.737045 89.263655 
L 132.387655 89.266658 
L 133.038266 89.119778 
L 133.688876 89.286016 
L 134.339486 89.292408 
L 135.640707 88.762132 
L 137.592538 88.717872 
L 138.243148 88.995121 
L 138.893758 88.517199 
L 139.544369 87.821168 
L 140.194979 87.320773 
L 140.845589 87.465771 
L 142.14681 87.426335 
L 142.79742 87.109082 
L 143.448031 87.083494 
L 144.098641 86.915872 
L 144.749251 87.048579 
L 145.399862 86.232221 
L 146.050472 86.049919 
L 147.351692 86.612801 
L 148.002303 86.130302 
L 148.652913 86.123528 
L 149.303523 86.415201 
L 151.255354 85.931194 
L 151.905965 85.911825 
L 152.556575 85.258794 
L 153.207185 84.43655 
L 153.857796 84.743199 
L 154.508406 84.249049 
L 155.159016 84.405027 
L 155.809627 84.910346 
L 157.110847 85.208983 
L 157.761457 85.483492 
L 158.412068 85.151639 
L 159.062678 85.739867 
L 159.713288 85.572156 
L 160.363899 85.704962 
L 161.014509 85.693305 
L 162.31573 85.339416 
L 162.96634 84.877157 
L 163.61695 84.870239 
L 164.267561 84.667138 
L 164.918171 85.123006 
L 165.568781 85.323363 
L 166.219392 85.307093 
L 166.870002 85.130519 
L 167.520612 85.134066 
L 168.821833 85.44793 
L 169.472443 86.073817 
L 170.773664 86.01568 
L 171.424274 86.175569 
L 172.074884 86.45558 
L 172.725495 86.595773 
L 173.376105 86.433905 
L 174.026715 86.422487 
L 174.677326 86.896684 
L 175.327936 86.742586 
L 175.978546 86.734571 
L 176.629156 86.893017 
L 177.279767 86.729916 
L 177.930377 86.87642 
L 178.580987 86.521955 
L 179.231598 86.860627 
L 179.882208 86.834108 
L 181.834039 87.271724 
L 182.484649 87.545863 
L 183.13526 87.557891 
L 184.43648 86.864107 
L 185.087091 87.066078 
L 186.388311 86.703332 
L 187.038921 87.170328 
L 187.689532 86.151985 
L 188.340142 85.423007 
L 188.990752 85.346393 
L 190.942583 84.773503 
L 192.243804 84.73263 
L 192.894414 84.556444 
L 193.545025 84.702058 
L 194.195635 84.97855 
L 194.846245 84.807878 
L 195.496856 84.4743 
L 196.147466 84.599074 
L 196.798076 84.580256 
L 198.099297 84.932699 
L 198.749907 84.909815 
L 199.400517 85.074589 
L 200.701738 85.045758 
L 201.352348 84.860643 
L 202.002959 84.993973 
L 202.653569 84.705815 
L 203.304179 84.240354 
L 204.6054 84.559573 
L 205.25601 84.398327 
L 205.906621 84.072534 
L 206.557231 84.053747 
L 207.207841 84.210842 
L 207.858451 84.201862 
L 208.509062 84.351801 
L 209.159672 84.669296 
L 209.810282 84.382067 
L 210.460893 84.385701 
L 211.111503 84.560829 
L 211.762113 84.436798 
L 212.412724 84.121498 
L 213.063334 84.361402 
L 213.713944 84.35006 
L 214.364555 84.201669 
L 215.015165 84.358707 
L 215.665775 84.340277 
L 216.316385 84.003191 
L 216.966996 84.175859 
L 217.617606 84.629622 
L 218.268216 84.636556 
L 218.918827 84.325823 
L 220.220047 83.998195 
L 220.870658 83.481913 
L 222.171878 83.179575 
L 222.822489 82.908452 
L 223.473099 83.053995 
L 224.123709 82.448834 
L 224.77432 84.110311 
L 225.42493 84.289709 
L 226.07554 84.306347 
L 226.72615 84.476704 
L 227.376761 85.761648 
L 228.027371 86.108828 
L 228.677981 86.616975 
L 229.328592 87.285798 
L 229.979202 87.288897 
L 230.629812 87.151834 
L 231.931033 87.501652 
L 232.581643 87.484632 
L 234.533474 86.469333 
L 235.184085 86.783107 
L 235.834695 86.490949 
L 236.485305 86.342177 
L 237.135915 85.889126 
L 237.786526 85.662744 
L 238.437136 85.68032 
L 239.087746 85.510315 
L 239.738357 85.039141 
L 240.388967 85.498736 
L 241.039577 85.651606 
L 241.690188 85.484725 
L 242.340798 85.824906 
L 242.991408 85.670357 
L 243.642019 85.680056 
L 244.292629 85.351251 
L 244.943239 85.209061 
L 246.24446 84.542858 
L 246.89507 83.914712 
L 247.54568 83.771883 
L 248.196291 83.906595 
L 249.497511 83.909594 
L 250.148122 83.412081 
L 251.449342 83.752376 
L 252.099953 83.576583 
L 252.750563 83.897011 
L 253.401173 83.872295 
L 254.702394 84.155554 
L 255.353004 84.302568 
L 256.654225 84.013506 
L 257.955445 84.483689 
L 259.907276 84.038257 
L 260.557887 84.185734 
L 261.208497 84.038318 
L 262.509718 83.991784 
L 263.160328 84.407744 
L 265.112159 84.408876 
L 265.762769 84.571575 
L 266.413379 84.8982 
L 267.06399 85.06458 
L 267.7146 85.560825 
L 268.36521 85.713786 
L 269.015821 85.552872 
L 269.666431 85.727313 
L 270.317041 85.737415 
L 272.919483 86.294181 
L 274.220703 85.999377 
L 275.521924 85.982463 
L 276.172534 85.808648 
L 278.124365 86.398443 
L 278.774975 86.243107 
L 279.425586 85.919334 
L 280.076196 85.754813 
L 280.726806 86.148539 
L 281.377417 85.992441 
L 282.028027 86.12018 
L 282.678637 86.000095 
L 285.281079 86.674532 
L 285.931689 86.974897 
L 286.582299 86.97255 
L 287.232909 87.124918 
L 287.88352 86.940329 
L 288.53413 86.932486 
L 289.18474 87.236356 
L 289.835351 85.416401 
L 290.485961 85.269095 
L 291.136571 85.2671 
L 291.787182 85.403717 
L 292.437792 84.138693 
L 293.088402 83.78946 
L 293.739013 83.284235 
L 294.389623 82.454053 
L 295.040233 82.470506 
L 296.341454 82.133613 
L 296.992064 82.43935 
L 297.642674 82.125695 
L 298.293285 82.595433 
L 298.943895 82.137544 
L 299.594505 82.146104 
L 300.245116 81.849346 
L 301.546336 82.154513 
L 303.498167 82.03633 
L 304.148778 82.987566 
L 304.799388 82.982773 
L 305.449998 82.674733 
L 306.100608 82.534554 
L 306.751219 82.691056 
L 307.401829 82.365767 
L 308.052439 82.373403 
L 308.70305 82.540671 
L 310.00427 82.528056 
L 310.654881 82.705109 
L 311.305491 83.030097 
L 312.606712 83.381778 
L 313.257322 83.0611 
L 314.558543 83.714317 
L 315.209153 83.887192 
L 315.859763 84.373814 
L 317.160984 84.388026 
L 318.462204 84.107137 
L 319.112815 83.648489 
L 320.414035 83.375762 
L 321.064646 83.66367 
L 321.715256 84.076385 
L 323.016477 83.439608 
L 323.667087 83.42875 
L 324.317697 83.263144 
L 324.968308 83.253669 
L 325.618918 83.40407 
L 326.269528 83.250762 
L 326.920138 83.643133 
L 327.570749 83.508984 
L 328.221359 82.869812 
L 328.871969 83.032271 
L 329.52258 83.016726 
L 330.17319 82.850811 
L 330.8238 82.997138 
L 331.474411 82.666512 
L 332.125021 82.510715 
L 332.775631 81.996317 
L 333.426242 81.85216 
L 334.076852 82.010726 
L 334.727462 85.737415 
L 337.329903 86.294181 
L 338.631124 85.999377 
L 339.932345 85.982463 
L 340.582955 85.808648 
L 342.534786 86.398443 
L 343.185396 86.243107 
L 343.836007 85.919334 
L 344.486617 85.754813 
L 345.137227 86.148539 
L 345.787837 85.992441 
L 346.438448 86.12018 
L 347.089058 86.000095 
L 349.691499 86.674532 
L 350.34211 86.974897 
L 350.99272 86.97255 
L 351.64333 87.124918 
L 352.293941 86.940329 
L 352.944551 86.932486 
L 353.595161 87.236356 
L 354.245772 85.416401 
L 354.896382 85.269095 
L 355.546992 85.2671 
L 356.197602 85.403717 
L 356.848213 84.138693 
L 357.498823 83.78946 
L 358.149433 83.284235 
L 358.800044 82.454053 
L 359.450654 82.470506 
L 360.751875 82.133613 
L 361.402485 82.43935 
L 362.053095 82.125695 
L 362.703706 82.595433 
L 363.354316 82.137544 
L 364.004926 82.146104 
L 364.655537 81.849346 
L 365.956757 82.154513 
L 367.908588 82.03633 
L 368.559198 82.987566 
L 369.209809 82.982773 
L 369.860419 82.674733 
L 370.511029 82.534554 
L 371.16164 82.691056 
L 371.81225 82.365767 
L 372.46286 82.373403 
L 373.113471 82.540671 
L 374.414691 82.528056 
L 375.065302 82.705109 
L 375.715912 83.030097 
L 377.017132 83.381778 
L 377.667743 83.0611 
L 378.968963 83.714317 
L 379.619574 83.887192 
L 380.270184 84.373814 
L 381.571405 84.388026 
L 382.872625 84.107137 
L 383.523236 83.648489 
L 384.824456 83.375762 
L 385.475066 83.66367 
L 386.125677 84.076385 
L 387.426897 83.439608 
L 388.077508 83.42875 
L 388.728118 83.263144 
L 389.378728 83.253669 
L 390.029339 83.40407 
L 390.679949 83.250762 
L 391.330559 83.643133 
L 391.98117 83.508984 
L 392.63178 82.869812 
L 393.28239 83.032271 
L 393.933001 83.016726 
L 394.583611 82.850811 
L 395.234221 82.997138 
L 395.884831 82.666512 
L 396.535442 82.510715 
L 397.186052 81.996317 
L 397.836662 81.85216 
L 398.487273 82.010726 
L 398.487273 82.010726 
" clip-path="url(#p0618421fe5)" style="fill: none; stroke: #ff7f0e; stroke-width: 1.5; stroke-linecap: square"/>
   </g>
   <g id="patch_3">
    <path d="M 57.6 307.584 
L 57.6 41.472 
" style="fill: none; stroke: #000000; stroke-width: 0.8; stroke-linejoin: miter; stroke-linecap: square"/>
   </g>
   <g id="patch_4">
    <path d="M 414.72 307.584 
L 414.72 41.472 
" style="fill: none; stroke: #000000; stroke-width: 0.8; stroke-linejoin: miter; stroke-linecap: square"/>
   </g>
   <g id="patch_5">
    <path d="M 57.6 307.584 
L 414.72 307.584 
" style="fill: none; stroke: #000000; stroke-width: 0.8; stroke-linejoin: miter; stroke-linecap: square"/>
   </g>
   <g id="patch_6">
    <path d="M 57.6 41.472 
L 414.72 41.472 
" style="fill: none; stroke: #000000; stroke-width: 0.8; stroke-linejoin: miter; stroke-linecap: square"/>
   </g>
   <g id="text_17">
    <!-- RESULT -->
    <g transform="translate(213.816563 35.472) scale(0.12 -0.12)">
     <defs>
      <path id="DejaVuSans-4c" d="M 628 4666 
L 1259 4666 
L 1259 531 
L 3531 531 
L 3531 0 
L 628 0 
L 628 4666 
z
" transform="scale(0.015625)"/>
     </defs>
     <use xlink:href="#DejaVuSans-52"/>
     <use xlink:href="#DejaVuSans-45" x="69.482422"/>
     <use xlink:href="#DejaVuSans-53" x="132.666016"/>
     <use xlink:href="#DejaVuSans-55" x="196.142578"/>
     <use xlink:href="#DejaVuSans-4c" x="269.335938"/>
     <use xlink:href="#DejaVuSans-54" x="311.298828"/>
    </g>
   </g>
  </g>
 </g>
 <defs>
  <clipPath id="p0618421fe5">
   <rect x="57.6" y="41.472" width="357.12" height="266.112"/>
  </clipPath>
 </defs>
</svg>
