<?xml version="1.0" encoding="utf-8" standalone="no"?>
<!DOCTYPE svg PUBLIC "-//W3C//DTD SVG 1.1//EN"
  "http://www.w3.org/Graphics/SVG/1.1/DTD/svg11.dtd">
<svg xmlns:xlink="http://www.w3.org/1999/xlink" width="460.8pt" height="345.6pt" viewBox="0 0 460.8 345.6" xmlns="http://www.w3.org/2000/svg" version="1.1">
 <metadata>
  <rdf:RDF xmlns:dc="http://purl.org/dc/elements/1.1/" xmlns:cc="http://creativecommons.org/ns#" xmlns:rdf="http://www.w3.org/1999/02/22-rdf-syntax-ns#">
   <cc:Work>
    <dc:type rdf:resource="http://purl.org/dc/dcmitype/StillImage"/>
    <dc:date>2023-03-29T13:47:26.194550</dc:date>
    <dc:format>image/svg+xml</dc:format>
    <dc:creator>
     <cc:Agent>
      <dc:title>Matplotlib v3.6.2, https://matplotlib.org/</dc:title>
     </cc:Agent>
    </dc:creator>
   </cc:Work>
  </rdf:RDF>
 </metadata>
 <defs>
  <style type="text/css">*{stroke-linejoin: round; stroke-linecap: butt}</style>
 </defs>
 <g id="figure_1">
  <g id="patch_1">
   <path d="M 0 345.6 
L 460.8 345.6 
L 460.8 0 
L 0 0 
z
" style="fill: #ffffff"/>
  </g>
  <g id="axes_1">
   <g id="patch_2">
    <path d="M 57.6 307.584 
L 414.72 307.584 
L 414.72 41.472 
L 57.6 41.472 
z
" style="fill: #ffffff"/>
   </g>
   <g id="matplotlib.axis_1">
    <g id="xtick_1">
     <g id="line2d_1">
      <defs>
       <path id="m4b521d01d9" d="M 0 0 
L 0 3.5 
" style="stroke: #000000; stroke-width: 0.8"/>
      </defs>
      <g>
       <use xlink:href="#m4b521d01d9" x="73.832727" y="307.584" style="stroke: #000000; stroke-width: 0.8"/>
      </g>
     </g>
     <g id="text_1">
      <!-- 0 -->
      <g transform="translate(70.651477 322.182437) scale(0.1 -0.1)">
       <defs>
        <path id="DejaVuSans-30" d="M 2034 4250 
Q 1547 4250 1301 3770 
Q 1056 3291 1056 2328 
Q 1056 1369 1301 889 
Q 1547 409 2034 409 
Q 2525 409 2770 889 
Q 3016 1369 3016 2328 
Q 3016 3291 2770 3770 
Q 2525 4250 2034 4250 
z
M 2034 4750 
Q 2819 4750 3233 4129 
Q 3647 3509 3647 2328 
Q 3647 1150 3233 529 
Q 2819 -91 2034 -91 
Q 1250 -91 836 529 
Q 422 1150 422 2328 
Q 422 3509 836 4129 
Q 1250 4750 2034 4750 
z
" transform="scale(0.015625)"/>
       </defs>
       <use xlink:href="#DejaVuSans-30"/>
      </g>
     </g>
    </g>
    <g id="xtick_2">
     <g id="line2d_2">
      <g>
       <use xlink:href="#m4b521d01d9" x="138.893758" y="307.584" style="stroke: #000000; stroke-width: 0.8"/>
      </g>
     </g>
     <g id="text_2">
      <!-- 100 -->
      <g transform="translate(129.350008 322.182437) scale(0.1 -0.1)">
       <defs>
        <path id="DejaVuSans-31" d="M 794 531 
L 1825 531 
L 1825 4091 
L 703 3866 
L 703 4441 
L 1819 4666 
L 2450 4666 
L 2450 531 
L 3481 531 
L 3481 0 
L 794 0 
L 794 531 
z
" transform="scale(0.015625)"/>
       </defs>
       <use xlink:href="#DejaVuSans-31"/>
       <use xlink:href="#DejaVuSans-30" x="63.623047"/>
       <use xlink:href="#DejaVuSans-30" x="127.246094"/>
      </g>
     </g>
    </g>
    <g id="xtick_3">
     <g id="line2d_3">
      <g>
       <use xlink:href="#m4b521d01d9" x="203.95479" y="307.584" style="stroke: #000000; stroke-width: 0.8"/>
      </g>
     </g>
     <g id="text_3">
      <!-- 200 -->
      <g transform="translate(194.41104 322.182437) scale(0.1 -0.1)">
       <defs>
        <path id="DejaVuSans-32" d="M 1228 531 
L 3431 531 
L 3431 0 
L 469 0 
L 469 531 
Q 828 903 1448 1529 
Q 2069 2156 2228 2338 
Q 2531 2678 2651 2914 
Q 2772 3150 2772 3378 
Q 2772 3750 2511 3984 
Q 2250 4219 1831 4219 
Q 1534 4219 1204 4116 
Q 875 4013 500 3803 
L 500 4441 
Q 881 4594 1212 4672 
Q 1544 4750 1819 4750 
Q 2544 4750 2975 4387 
Q 3406 4025 3406 3419 
Q 3406 3131 3298 2873 
Q 3191 2616 2906 2266 
Q 2828 2175 2409 1742 
Q 1991 1309 1228 531 
z
" transform="scale(0.015625)"/>
       </defs>
       <use xlink:href="#DejaVuSans-32"/>
       <use xlink:href="#DejaVuSans-30" x="63.623047"/>
       <use xlink:href="#DejaVuSans-30" x="127.246094"/>
      </g>
     </g>
    </g>
    <g id="xtick_4">
     <g id="line2d_4">
      <g>
       <use xlink:href="#m4b521d01d9" x="269.015821" y="307.584" style="stroke: #000000; stroke-width: 0.8"/>
      </g>
     </g>
     <g id="text_4">
      <!-- 300 -->
      <g transform="translate(259.472071 322.182437) scale(0.1 -0.1)">
       <defs>
        <path id="DejaVuSans-33" d="M 2597 2516 
Q 3050 2419 3304 2112 
Q 3559 1806 3559 1356 
Q 3559 666 3084 287 
Q 2609 -91 1734 -91 
Q 1441 -91 1130 -33 
Q 819 25 488 141 
L 488 750 
Q 750 597 1062 519 
Q 1375 441 1716 441 
Q 2309 441 2620 675 
Q 2931 909 2931 1356 
Q 2931 1769 2642 2001 
Q 2353 2234 1838 2234 
L 1294 2234 
L 1294 2753 
L 1863 2753 
Q 2328 2753 2575 2939 
Q 2822 3125 2822 3475 
Q 2822 3834 2567 4026 
Q 2313 4219 1838 4219 
Q 1578 4219 1281 4162 
Q 984 4106 628 3988 
L 628 4550 
Q 988 4650 1302 4700 
Q 1616 4750 1894 4750 
Q 2613 4750 3031 4423 
Q 3450 4097 3450 3541 
Q 3450 3153 3228 2886 
Q 3006 2619 2597 2516 
z
" transform="scale(0.015625)"/>
       </defs>
       <use xlink:href="#DejaVuSans-33"/>
       <use xlink:href="#DejaVuSans-30" x="63.623047"/>
       <use xlink:href="#DejaVuSans-30" x="127.246094"/>
      </g>
     </g>
    </g>
    <g id="xtick_5">
     <g id="line2d_5">
      <g>
       <use xlink:href="#m4b521d01d9" x="334.076852" y="307.584" style="stroke: #000000; stroke-width: 0.8"/>
      </g>
     </g>
     <g id="text_5">
      <!-- 400 -->
      <g transform="translate(324.533102 322.182437) scale(0.1 -0.1)">
       <defs>
        <path id="DejaVuSans-34" d="M 2419 4116 
L 825 1625 
L 2419 1625 
L 2419 4116 
z
M 2253 4666 
L 3047 4666 
L 3047 1625 
L 3713 1625 
L 3713 1100 
L 3047 1100 
L 3047 0 
L 2419 0 
L 2419 1100 
L 313 1100 
L 313 1709 
L 2253 4666 
z
" transform="scale(0.015625)"/>
       </defs>
       <use xlink:href="#DejaVuSans-34"/>
       <use xlink:href="#DejaVuSans-30" x="63.623047"/>
       <use xlink:href="#DejaVuSans-30" x="127.246094"/>
      </g>
     </g>
    </g>
    <g id="xtick_6">
     <g id="line2d_6">
      <g>
       <use xlink:href="#m4b521d01d9" x="399.137883" y="307.584" style="stroke: #000000; stroke-width: 0.8"/>
      </g>
     </g>
     <g id="text_6">
      <!-- 500 -->
      <g transform="translate(389.594133 322.182437) scale(0.1 -0.1)">
       <defs>
        <path id="DejaVuSans-35" d="M 691 4666 
L 3169 4666 
L 3169 4134 
L 1269 4134 
L 1269 2991 
Q 1406 3038 1543 3061 
Q 1681 3084 1819 3084 
Q 2600 3084 3056 2656 
Q 3513 2228 3513 1497 
Q 3513 744 3044 326 
Q 2575 -91 1722 -91 
Q 1428 -91 1123 -41 
Q 819 9 494 109 
L 494 744 
Q 775 591 1075 516 
Q 1375 441 1709 441 
Q 2250 441 2565 725 
Q 2881 1009 2881 1497 
Q 2881 1984 2565 2268 
Q 2250 2553 1709 2553 
Q 1456 2553 1204 2497 
Q 953 2441 691 2322 
L 691 4666 
z
" transform="scale(0.015625)"/>
       </defs>
       <use xlink:href="#DejaVuSans-35"/>
       <use xlink:href="#DejaVuSans-30" x="63.623047"/>
       <use xlink:href="#DejaVuSans-30" x="127.246094"/>
      </g>
     </g>
    </g>
    <g id="text_7">
     <!-- EPISODE -->
     <g transform="translate(214.39125 335.860562) scale(0.1 -0.1)">
      <defs>
       <path id="DejaVuSans-45" d="M 628 4666 
L 3578 4666 
L 3578 4134 
L 1259 4134 
L 1259 2753 
L 3481 2753 
L 3481 2222 
L 1259 2222 
L 1259 531 
L 3634 531 
L 3634 0 
L 628 0 
L 628 4666 
z
" transform="scale(0.015625)"/>
       <path id="DejaVuSans-50" d="M 1259 4147 
L 1259 2394 
L 2053 2394 
Q 2494 2394 2734 2622 
Q 2975 2850 2975 3272 
Q 2975 3691 2734 3919 
Q 2494 4147 2053 4147 
L 1259 4147 
z
M 628 4666 
L 2053 4666 
Q 2838 4666 3239 4311 
Q 3641 3956 3641 3272 
Q 3641 2581 3239 2228 
Q 2838 1875 2053 1875 
L 1259 1875 
L 1259 0 
L 628 0 
L 628 4666 
z
" transform="scale(0.015625)"/>
       <path id="DejaVuSans-49" d="M 628 4666 
L 1259 4666 
L 1259 0 
L 628 0 
L 628 4666 
z
" transform="scale(0.015625)"/>
       <path id="DejaVuSans-53" d="M 3425 4513 
L 3425 3897 
Q 3066 4069 2747 4153 
Q 2428 4238 2131 4238 
Q 1616 4238 1336 4038 
Q 1056 3838 1056 3469 
Q 1056 3159 1242 3001 
Q 1428 2844 1947 2747 
L 2328 2669 
Q 3034 2534 3370 2195 
Q 3706 1856 3706 1288 
Q 3706 609 3251 259 
Q 2797 -91 1919 -91 
Q 1588 -91 1214 -16 
Q 841 59 441 206 
L 441 856 
Q 825 641 1194 531 
Q 1563 422 1919 422 
Q 2459 422 2753 634 
Q 3047 847 3047 1241 
Q 3047 1584 2836 1778 
Q 2625 1972 2144 2069 
L 1759 2144 
Q 1053 2284 737 2584 
Q 422 2884 422 3419 
Q 422 4038 858 4394 
Q 1294 4750 2059 4750 
Q 2388 4750 2728 4690 
Q 3069 4631 3425 4513 
z
" transform="scale(0.015625)"/>
       <path id="DejaVuSans-4f" d="M 2522 4238 
Q 1834 4238 1429 3725 
Q 1025 3213 1025 2328 
Q 1025 1447 1429 934 
Q 1834 422 2522 422 
Q 3209 422 3611 934 
Q 4013 1447 4013 2328 
Q 4013 3213 3611 3725 
Q 3209 4238 2522 4238 
z
M 2522 4750 
Q 3503 4750 4090 4092 
Q 4678 3434 4678 2328 
Q 4678 1225 4090 567 
Q 3503 -91 2522 -91 
Q 1538 -91 948 565 
Q 359 1222 359 2328 
Q 359 3434 948 4092 
Q 1538 4750 2522 4750 
z
" transform="scale(0.015625)"/>
       <path id="DejaVuSans-44" d="M 1259 4147 
L 1259 519 
L 2022 519 
Q 2988 519 3436 956 
Q 3884 1394 3884 2338 
Q 3884 3275 3436 3711 
Q 2988 4147 2022 4147 
L 1259 4147 
z
M 628 4666 
L 1925 4666 
Q 3281 4666 3915 4102 
Q 4550 3538 4550 2338 
Q 4550 1131 3912 565 
Q 3275 0 1925 0 
L 628 0 
L 628 4666 
z
" transform="scale(0.015625)"/>
      </defs>
      <use xlink:href="#DejaVuSans-45"/>
      <use xlink:href="#DejaVuSans-50" x="63.183594"/>
      <use xlink:href="#DejaVuSans-49" x="123.486328"/>
      <use xlink:href="#DejaVuSans-53" x="152.978516"/>
      <use xlink:href="#DejaVuSans-4f" x="216.455078"/>
      <use xlink:href="#DejaVuSans-44" x="295.166016"/>
      <use xlink:href="#DejaVuSans-45" x="372.167969"/>
     </g>
    </g>
   </g>
   <g id="matplotlib.axis_2">
    <g id="ytick_1">
     <g id="line2d_7">
      <defs>
       <path id="ma3484a8787" d="M 0 0 
L -3.5 0 
" style="stroke: #000000; stroke-width: 0.8"/>
      </defs>
      <g>
       <use xlink:href="#ma3484a8787" x="57.6" y="280.566257" style="stroke: #000000; stroke-width: 0.8"/>
      </g>
     </g>
     <g id="text_8">
      <!-- −1750 -->
      <g transform="translate(16.770313 284.365476) scale(0.1 -0.1)">
       <defs>
        <path id="DejaVuSans-2212" d="M 678 2272 
L 4684 2272 
L 4684 1741 
L 678 1741 
L 678 2272 
z
" transform="scale(0.015625)"/>
        <path id="DejaVuSans-37" d="M 525 4666 
L 3525 4666 
L 3525 4397 
L 1831 0 
L 1172 0 
L 2766 4134 
L 525 4134 
L 525 4666 
z
" transform="scale(0.015625)"/>
       </defs>
       <use xlink:href="#DejaVuSans-2212"/>
       <use xlink:href="#DejaVuSans-31" x="83.789062"/>
       <use xlink:href="#DejaVuSans-37" x="147.412109"/>
       <use xlink:href="#DejaVuSans-35" x="211.035156"/>
       <use xlink:href="#DejaVuSans-30" x="274.658203"/>
      </g>
     </g>
    </g>
    <g id="ytick_2">
     <g id="line2d_8">
      <g>
       <use xlink:href="#ma3484a8787" x="57.6" y="248.121775" style="stroke: #000000; stroke-width: 0.8"/>
      </g>
     </g>
     <g id="text_9">
      <!-- −1500 -->
      <g transform="translate(16.770313 251.920994) scale(0.1 -0.1)">
       <use xlink:href="#DejaVuSans-2212"/>
       <use xlink:href="#DejaVuSans-31" x="83.789062"/>
       <use xlink:href="#DejaVuSans-35" x="147.412109"/>
       <use xlink:href="#DejaVuSans-30" x="211.035156"/>
       <use xlink:href="#DejaVuSans-30" x="274.658203"/>
      </g>
     </g>
    </g>
    <g id="ytick_3">
     <g id="line2d_9">
      <g>
       <use xlink:href="#ma3484a8787" x="57.6" y="215.677292" style="stroke: #000000; stroke-width: 0.8"/>
      </g>
     </g>
     <g id="text_10">
      <!-- −1250 -->
      <g transform="translate(16.770313 219.476511) scale(0.1 -0.1)">
       <use xlink:href="#DejaVuSans-2212"/>
       <use xlink:href="#DejaVuSans-31" x="83.789062"/>
       <use xlink:href="#DejaVuSans-32" x="147.412109"/>
       <use xlink:href="#DejaVuSans-35" x="211.035156"/>
       <use xlink:href="#DejaVuSans-30" x="274.658203"/>
      </g>
     </g>
    </g>
    <g id="ytick_4">
     <g id="line2d_10">
      <g>
       <use xlink:href="#ma3484a8787" x="57.6" y="183.23281" style="stroke: #000000; stroke-width: 0.8"/>
      </g>
     </g>
     <g id="text_11">
      <!-- −1000 -->
      <g transform="translate(16.770313 187.032029) scale(0.1 -0.1)">
       <use xlink:href="#DejaVuSans-2212"/>
       <use xlink:href="#DejaVuSans-31" x="83.789062"/>
       <use xlink:href="#DejaVuSans-30" x="147.412109"/>
       <use xlink:href="#DejaVuSans-30" x="211.035156"/>
       <use xlink:href="#DejaVuSans-30" x="274.658203"/>
      </g>
     </g>
    </g>
    <g id="ytick_5">
     <g id="line2d_11">
      <g>
       <use xlink:href="#ma3484a8787" x="57.6" y="150.788328" style="stroke: #000000; stroke-width: 0.8"/>
      </g>
     </g>
     <g id="text_12">
      <!-- −750 -->
      <g transform="translate(23.132812 154.587547) scale(0.1 -0.1)">
       <use xlink:href="#DejaVuSans-2212"/>
       <use xlink:href="#DejaVuSans-37" x="83.789062"/>
       <use xlink:href="#DejaVuSans-35" x="147.412109"/>
       <use xlink:href="#DejaVuSans-30" x="211.035156"/>
      </g>
     </g>
    </g>
    <g id="ytick_6">
     <g id="line2d_12">
      <g>
       <use xlink:href="#ma3484a8787" x="57.6" y="118.343846" style="stroke: #000000; stroke-width: 0.8"/>
      </g>
     </g>
     <g id="text_13">
      <!-- −500 -->
      <g transform="translate(23.132812 122.143064) scale(0.1 -0.1)">
       <use xlink:href="#DejaVuSans-2212"/>
       <use xlink:href="#DejaVuSans-35" x="83.789062"/>
       <use xlink:href="#DejaVuSans-30" x="147.412109"/>
       <use xlink:href="#DejaVuSans-30" x="211.035156"/>
      </g>
     </g>
    </g>
    <g id="ytick_7">
     <g id="line2d_13">
      <g>
       <use xlink:href="#ma3484a8787" x="57.6" y="85.899363" style="stroke: #000000; stroke-width: 0.8"/>
      </g>
     </g>
     <g id="text_14">
      <!-- −250 -->
      <g transform="translate(23.132812 89.698582) scale(0.1 -0.1)">
       <use xlink:href="#DejaVuSans-2212"/>
       <use xlink:href="#DejaVuSans-32" x="83.789062"/>
       <use xlink:href="#DejaVuSans-35" x="147.412109"/>
       <use xlink:href="#DejaVuSans-30" x="211.035156"/>
      </g>
     </g>
    </g>
    <g id="ytick_8">
     <g id="line2d_14">
      <g>
       <use xlink:href="#ma3484a8787" x="57.6" y="53.454881" style="stroke: #000000; stroke-width: 0.8"/>
      </g>
     </g>
     <g id="text_15">
      <!-- 0 -->
      <g transform="translate(44.2375 57.2541) scale(0.1 -0.1)">
       <use xlink:href="#DejaVuSans-30"/>
      </g>
     </g>
    </g>
    <g id="text_16">
     <!-- RETURN -->
     <g transform="translate(10.690625 195.089719) rotate(-90) scale(0.1 -0.1)">
      <defs>
       <path id="DejaVuSans-52" d="M 2841 2188 
Q 3044 2119 3236 1894 
Q 3428 1669 3622 1275 
L 4263 0 
L 3584 0 
L 2988 1197 
Q 2756 1666 2539 1819 
Q 2322 1972 1947 1972 
L 1259 1972 
L 1259 0 
L 628 0 
L 628 4666 
L 2053 4666 
Q 2853 4666 3247 4331 
Q 3641 3997 3641 3322 
Q 3641 2881 3436 2590 
Q 3231 2300 2841 2188 
z
M 1259 4147 
L 1259 2491 
L 2053 2491 
Q 2509 2491 2742 2702 
Q 2975 2913 2975 3322 
Q 2975 3731 2742 3939 
Q 2509 4147 2053 4147 
L 1259 4147 
z
" transform="scale(0.015625)"/>
       <path id="DejaVuSans-54" d="M -19 4666 
L 3928 4666 
L 3928 4134 
L 2272 4134 
L 2272 0 
L 1638 0 
L 1638 4134 
L -19 4134 
L -19 4666 
z
" transform="scale(0.015625)"/>
       <path id="DejaVuSans-55" d="M 556 4666 
L 1191 4666 
L 1191 1831 
Q 1191 1081 1462 751 
Q 1734 422 2344 422 
Q 2950 422 3222 751 
Q 3494 1081 3494 1831 
L 3494 4666 
L 4128 4666 
L 4128 1753 
Q 4128 841 3676 375 
Q 3225 -91 2344 -91 
Q 1459 -91 1007 375 
Q 556 841 556 1753 
L 556 4666 
z
" transform="scale(0.015625)"/>
       <path id="DejaVuSans-4e" d="M 628 4666 
L 1478 4666 
L 3547 763 
L 3547 4666 
L 4159 4666 
L 4159 0 
L 3309 0 
L 1241 3903 
L 1241 0 
L 628 0 
L 628 4666 
z
" transform="scale(0.015625)"/>
      </defs>
      <use xlink:href="#DejaVuSans-52"/>
      <use xlink:href="#DejaVuSans-45" x="69.482422"/>
      <use xlink:href="#DejaVuSans-54" x="132.666016"/>
      <use xlink:href="#DejaVuSans-55" x="193.75"/>
      <use xlink:href="#DejaVuSans-52" x="266.943359"/>
      <use xlink:href="#DejaVuSans-4e" x="336.425781"/>
     </g>
    </g>
   </g>
   <g id="line2d_15">
    <path d="M 73.832727 200.963934 
L 74.483338 242.536736 
L 75.133948 234.992019 
L 75.784558 263.597163 
L 76.435169 203.679894 
L 77.085779 252.620677 
L 77.736389 280.541142 
L 78.386999 256.112134 
L 79.03761 224.978086 
L 79.68822 262.2247 
L 80.33883 259.449836 
L 80.989441 279.700386 
L 81.640051 253.728569 
L 82.290661 267.928993 
L 82.941272 261.435645 
L 83.591882 295.488 
L 84.242492 288.213427 
L 84.893103 287.331652 
L 85.543713 247.614165 
L 86.194323 276.26154 
L 86.844934 215.920151 
L 87.495544 172.245885 
L 88.146154 160.9288 
L 88.796764 287.206109 
L 89.447375 262.403389 
L 90.097985 264.436912 
L 90.748595 167.982489 
L 91.399206 256.434406 
L 92.049816 199.562488 
L 92.700426 250.190403 
L 93.351037 221.294403 
L 94.001647 241.677763 
L 94.652257 255.625214 
L 95.302868 201.869597 
L 95.953478 252.251103 
L 96.604088 245.562148 
L 97.254698 254.743155 
L 97.905309 258.224056 
L 98.555919 232.264258 
L 99.206529 199.996177 
L 99.85714 216.952844 
L 100.50775 170.998467 
L 101.15836 214.229906 
L 101.808971 247.676907 
L 102.459581 198.185103 
L 103.110191 228.124231 
L 103.760802 202.152682 
L 104.411412 215.953321 
L 105.062022 201.620233 
L 105.712633 181.976765 
L 106.363243 180.310602 
L 107.013853 169.535291 
L 107.664463 192.072973 
L 108.315074 198.637367 
L 108.965684 275.690206 
L 109.616294 204.437793 
L 110.266905 204.023982 
L 110.917515 159.908375 
L 111.568125 179.757409 
L 112.218736 193.287814 
L 112.869346 166.513723 
L 113.519956 165.159702 
L 114.170567 182.325139 
L 114.821177 182.684081 
L 115.471787 150.567295 
L 116.122398 201.138615 
L 116.773008 194.43468 
L 117.423618 182.307224 
L 118.074228 189.186073 
L 118.724839 190.430458 
L 119.375449 169.232305 
L 120.67667 136.469869 
L 121.32728 152.233515 
L 121.97789 135.772616 
L 122.628501 166.872946 
L 123.279111 135.353744 
L 123.929721 181.667431 
L 124.580332 182.860198 
L 125.230942 144.512857 
L 125.881552 206.228161 
L 126.532163 183.848241 
L 127.182773 167.428082 
L 127.833383 166.760564 
L 128.483993 150.79659 
L 129.134604 151.177435 
L 129.785214 163.74243 
L 130.435824 152.061595 
L 131.086435 167.644672 
L 131.737045 135.14769 
L 132.387655 135.38354 
L 133.038266 135.457307 
L 133.688876 119.826711 
L 134.339486 148.027667 
L 134.990097 165.327468 
L 135.640707 174.112829 
L 136.291317 187.547821 
L 136.941927 141.825575 
L 137.592538 207.690746 
L 138.243148 189.888472 
L 138.893758 209.581191 
L 139.544369 192.730471 
L 140.194979 169.947396 
L 140.845589 136.460416 
L 141.4962 135.410621 
L 142.14681 138.593978 
L 142.79742 146.361345 
L 143.448031 165.4698 
L 144.098641 135.087084 
L 144.749251 141.997127 
L 145.399862 153.201604 
L 146.050472 141.776396 
L 146.701082 136.075399 
L 147.351692 139.547231 
L 148.002303 134.18996 
L 148.652913 132.127633 
L 149.303523 119.375514 
L 149.954134 133.256737 
L 150.604744 122.36233 
L 151.255354 86.092406 
L 151.905965 71.827895 
L 152.556575 257.519378 
L 153.207185 69.526638 
L 153.857796 69.916922 
L 154.508406 86.425358 
L 155.159016 85.023927 
L 155.809627 69.90765 
L 156.460237 69.633644 
L 157.110847 86.079179 
L 157.761457 85.60014 
L 158.412068 69.450691 
L 159.062678 86.494274 
L 159.713288 120.029456 
L 160.363899 70.098325 
L 161.014509 116.526889 
L 161.665119 118.341292 
L 162.31573 118.567889 
L 162.96634 134.989041 
L 163.61695 134.795904 
L 164.267561 102.912132 
L 164.918171 103.150012 
L 165.568781 118.62356 
L 166.219392 108.482368 
L 166.870002 102.38304 
L 167.520612 119.436232 
L 168.171222 119.074169 
L 168.821833 116.839074 
L 169.472443 108.638237 
L 170.123053 102.517977 
L 170.773664 117.979968 
L 171.424274 119.692063 
L 172.074884 151.727108 
L 172.725495 93.91699 
L 173.376105 150.35429 
L 174.026715 69.912966 
L 174.677326 85.996708 
L 175.327936 132.520336 
L 175.978546 86.385492 
L 176.629156 135.597119 
L 177.279767 102.595297 
L 177.930377 84.010489 
L 178.580987 134.673414 
L 179.231598 133.103811 
L 179.882208 135.409779 
L 180.532818 100.230286 
L 181.183429 86.067568 
L 181.834039 102.938274 
L 182.484649 136.557443 
L 183.13526 132.435807 
L 183.78587 101.465808 
L 184.43648 85.363575 
L 185.087091 83.91306 
L 185.737701 117.241067 
L 186.388311 132.470071 
L 187.038921 135.814638 
L 187.689532 117.864985 
L 188.340142 103.636687 
L 188.990752 86.276488 
L 189.641363 101.145529 
L 190.291973 141.071417 
L 190.942583 160.81358 
L 191.593194 171.364536 
L 192.243804 180.063958 
L 192.894414 170.360874 
L 193.545025 102.419952 
L 194.195635 85.155685 
L 194.846245 100.599148 
L 195.496856 54.878226 
L 196.147466 53.568 
L 196.798076 70.231931 
L 197.448686 99.407607 
L 198.099297 86.040678 
L 198.749907 189.439198 
L 199.400517 69.144473 
L 200.051128 84.242729 
L 200.701738 84.497235 
L 201.352348 102.070799 
L 202.002959 108.484141 
L 202.653569 54.50035 
L 203.304179 85.643422 
L 203.95479 102.005825 
L 204.6054 54.892652 
L 205.906621 85.595824 
L 206.557231 68.977077 
L 207.207841 86.073649 
L 207.858451 69.564842 
L 208.509062 102.664649 
L 209.159672 85.744519 
L 209.810282 84.576576 
L 210.460893 69.407592 
L 211.111503 86.594986 
L 211.762113 86.653572 
L 212.412724 100.263682 
L 213.063334 86.317248 
L 213.713944 69.430315 
L 214.364555 68.404467 
L 215.015165 68.238828 
L 215.665775 105.23769 
L 216.316385 123.243268 
L 216.966996 86.32745 
L 217.617606 69.363726 
L 218.268216 88.165209 
L 218.918827 70.114123 
L 219.569437 70.633362 
L 220.220047 71.635562 
L 220.870658 69.936118 
L 221.521268 108.201468 
L 222.171878 70.518393 
L 222.822489 68.730005 
L 223.473099 85.930518 
L 224.123709 86.550111 
L 224.77432 85.907674 
L 225.42493 69.022985 
L 226.07554 86.31266 
L 226.72615 86.296627 
L 227.376761 85.759596 
L 228.677981 84.136821 
L 229.328592 86.400405 
L 229.979202 69.520856 
L 230.629812 99.890856 
L 231.280423 69.202019 
L 231.931033 69.727246 
L 232.581643 116.482896 
L 233.882864 90.704829 
L 234.533474 102.536257 
L 235.184085 86.091127 
L 235.834695 115.128993 
L 236.485305 86.658597 
L 237.135915 70.089922 
L 237.786526 86.032439 
L 238.437136 114.995594 
L 239.087746 117.611332 
L 239.738357 69.287401 
L 240.388967 86.255969 
L 241.039577 99.658946 
L 241.690188 69.753978 
L 242.340798 69.885919 
L 242.991408 54.23299 
L 243.642019 53.604493 
L 244.292629 69.145879 
L 244.943239 98.104679 
L 246.24446 68.508292 
L 246.89507 85.214206 
L 247.54568 86.276253 
L 248.196291 69.783539 
L 248.846901 69.837118 
L 249.497511 83.697138 
L 250.148122 54.084239 
L 250.798732 69.873083 
L 251.449342 68.914353 
L 252.099953 69.536517 
L 252.750563 54.394844 
L 253.401173 100.932144 
L 254.051784 70.333186 
L 254.702394 70.19907 
L 255.353004 85.614081 
L 256.003615 112.838585 
L 256.654225 71.050559 
L 257.304835 54.645608 
L 257.955445 86.937665 
L 258.606056 100.048103 
L 259.256666 101.804932 
L 259.907276 101.5084 
L 260.557887 56.597548 
L 261.208497 102.448231 
L 261.859107 72.273944 
L 262.509718 118.852132 
L 263.160328 116.99368 
L 263.810938 72.079288 
L 264.461549 56.581802 
L 265.112159 130.029681 
L 265.762769 71.257495 
L 266.413379 87.79761 
L 267.06399 86.993325 
L 267.7146 72.664368 
L 268.36521 73.229817 
L 269.015821 72.440578 
L 269.666431 73.373039 
L 270.317041 133.111339 
L 270.967652 122.452518 
L 271.618262 103.703578 
L 272.268872 103.958325 
L 272.919483 88.460691 
L 273.570093 119.554805 
L 274.220703 128.854441 
L 274.871314 103.539406 
L 275.521924 101.952755 
L 276.172534 116.394622 
L 276.823144 170.525188 
L 277.473755 167.762288 
L 278.124365 133.483422 
L 278.774975 151.104212 
L 279.425586 102.920852 
L 280.076196 87.339735 
L 280.726806 169.20836 
L 281.377417 71.423441 
L 282.028027 103.040625 
L 282.678637 96.756139 
L 283.329248 97.701227 
L 283.979858 88.192091 
L 284.630468 113.837138 
L 285.281079 115.901879 
L 285.931689 102.752393 
L 286.582299 108.870571 
L 287.232909 111.974938 
L 287.88352 70.589038 
L 288.53413 100.424024 
L 289.18474 83.136696 
L 289.835351 84.704826 
L 290.485961 54.094132 
L 291.136571 132.659238 
L 291.787182 103.202272 
L 292.437792 87.501646 
L 293.088402 128.830346 
L 293.739013 133.217006 
L 294.389623 103.269296 
L 295.040233 84.016753 
L 295.690844 70.210804 
L 296.341454 99.374466 
L 296.992064 86.389682 
L 297.642674 86.025399 
L 298.293285 86.180476 
L 298.943895 85.605896 
L 299.594505 70.731303 
L 300.245116 84.992631 
L 300.895726 69.965135 
L 301.546336 69.426137 
L 302.196947 83.499733 
L 302.847557 69.736907 
L 303.498167 69.435017 
L 304.148778 70.198193 
L 304.799388 69.295878 
L 305.449998 85.959979 
L 306.100608 86.45746 
L 306.751219 86.639489 
L 307.401829 101.014813 
L 308.052439 83.780884 
L 308.70305 83.565562 
L 309.35366 69.980016 
L 310.00427 84.125518 
L 310.654881 53.868747 
L 311.305491 86.280226 
L 311.956101 82.717141 
L 312.606712 85.922673 
L 313.257322 69.320895 
L 313.907932 102.650778 
L 314.558543 69.65779 
L 315.859763 139.584144 
L 316.510373 84.052841 
L 317.160984 54.859824 
L 318.462204 116.748485 
L 319.112815 116.350711 
L 319.763425 130.98887 
L 320.414035 100.797168 
L 321.715256 112.013752 
L 322.365866 211.207566 
L 323.016477 71.157212 
L 323.667087 71.130591 
L 324.317697 87.54344 
L 324.968308 71.38778 
L 325.618918 70.73275 
L 326.269528 55.297247 
L 326.920138 83.273218 
L 327.570749 87.051123 
L 328.221359 89.179339 
L 328.871969 86.442541 
L 329.52258 70.638937 
L 330.17319 209.838102 
L 331.474411 101.652421 
L 332.125021 86.766559 
L 332.775631 113.771426 
L 333.426242 104.306391 
L 334.076852 90.170018 
L 334.727462 101.540788 
L 335.378073 84.980293 
L 336.028683 86.649198 
L 336.679293 84.821028 
L 337.329903 102.151445 
L 337.980514 70.179476 
L 338.631124 68.457997 
L 339.281734 53.732636 
L 339.932345 70.444974 
L 340.582955 100.471341 
L 341.233565 69.210812 
L 341.884176 69.057898 
L 342.534786 110.369701 
L 343.185396 85.880333 
L 343.836007 69.415283 
L 344.486617 85.034532 
L 345.137227 53.778849 
L 345.787837 82.981807 
L 346.438448 70.101674 
L 347.089058 69.126389 
L 347.739668 100.665913 
L 348.390279 85.042861 
L 349.040889 136.767833 
L 349.691499 69.22587 
L 350.34211 69.936554 
L 350.99272 86.699935 
L 351.64333 69.896337 
L 352.293941 69.789276 
L 352.944551 70.115686 
L 353.595161 69.815192 
L 354.245772 69.992915 
L 354.896382 70.415755 
L 355.546992 54.21882 
L 356.197602 85.221394 
L 356.848213 54.258443 
L 357.498823 54.241392 
L 358.149433 71.189595 
L 358.800044 69.724326 
L 359.450654 99.78343 
L 360.101264 85.988946 
L 360.751875 87.035224 
L 361.402485 71.193624 
L 362.053095 71.1666 
L 362.703706 100.994243 
L 363.354316 71.543441 
L 364.004926 86.567539 
L 364.655537 70.976693 
L 365.306147 70.766938 
L 365.956757 71.360184 
L 366.607367 70.3921 
L 367.257978 86.35051 
L 367.908588 70.983007 
L 368.559198 85.584748 
L 369.209809 71.134318 
L 369.860419 70.110743 
L 370.511029 154.27193 
L 371.16164 87.207745 
L 371.81225 55.741593 
L 372.46286 103.966457 
L 373.113471 85.430943 
L 373.764081 55.918918 
L 374.414691 72.768798 
L 375.065302 56.045867 
L 375.715912 72.268749 
L 376.366522 84.318415 
L 377.017132 86.821939 
L 377.667743 69.40715 
L 378.318353 100.518591 
L 378.968963 71.104581 
L 379.619574 55.594016 
L 380.270184 69.850378 
L 380.920794 55.319373 
L 381.571405 83.720763 
L 382.222015 71.204073 
L 382.872625 89.302928 
L 383.523236 86.827498 
L 384.173846 70.010401 
L 384.824456 70.164824 
L 385.475066 86.813484 
L 386.125677 70.737681 
L 386.776287 88.636692 
L 387.426897 103.383979 
L 388.077508 69.178204 
L 388.728118 99.852077 
L 389.378728 121.95142 
L 390.029339 160.980855 
L 390.679949 137.022849 
L 391.330559 119.837227 
L 391.98117 119.676621 
L 392.63178 105.566338 
L 393.28239 117.912476 
L 393.933001 103.135127 
L 394.583611 102.675445 
L 395.884831 68.876022 
L 396.535442 84.743926 
L 397.836662 53.682244 
L 398.487273 101.382623 
L 398.487273 101.382623 
" clip-path="url(#p97b4b8bddb)" style="fill: none; stroke: #1f77b4; stroke-width: 1.5; stroke-linecap: square"/>
   </g>
   <g id="line2d_16">
    <path d="M 73.832727 203.876895 
L 74.483338 203.963076 
L 75.133948 203.465002 
L 75.784558 202.81456 
L 76.435169 201.54319 
L 77.085779 200.860493 
L 79.03761 197.472009 
L 79.68822 196.5731 
L 83.591882 189.196306 
L 85.543713 184.333562 
L 86.194323 183.081051 
L 86.844934 181.17935 
L 87.495544 179.73843 
L 88.146154 180.591159 
L 88.796764 179.677145 
L 89.447375 177.50426 
L 90.748595 173.950353 
L 91.399206 172.969597 
L 92.049816 171.101584 
L 92.700426 169.966756 
L 94.652257 165.250575 
L 98.555919 157.353361 
L 100.50775 154.269797 
L 101.15836 153.746051 
L 101.808971 152.68858 
L 102.459581 151.235644 
L 103.110191 150.448144 
L 103.760802 149.35765 
L 104.411412 148.504509 
L 105.712633 146.440332 
L 107.013853 145.194189 
L 107.664463 145.016109 
L 108.315074 144.034545 
L 108.965684 143.551711 
L 109.616294 141.493934 
L 110.266905 140.309528 
L 111.568125 138.859262 
L 112.218736 138.417665 
L 113.519956 136.685711 
L 114.170567 136.380847 
L 116.122398 134.912512 
L 116.773008 133.761803 
L 117.423618 132.84683 
L 118.724839 131.821843 
L 120.026059 130.093509 
L 120.67667 129.409703 
L 121.97789 129.019775 
L 122.628501 129.020203 
L 123.279111 128.530122 
L 123.929721 128.212949 
L 125.230942 126.441896 
L 125.881552 126.40748 
L 126.532163 125.953336 
L 127.182773 125.828501 
L 128.483993 125.990866 
L 129.134604 125.507098 
L 130.435824 124.215441 
L 132.387655 121.453676 
L 133.038266 121.093919 
L 133.688876 120.599759 
L 134.339486 121.295882 
L 136.291317 118.800049 
L 136.941927 117.945284 
L 137.592538 117.611868 
L 138.243148 116.07996 
L 139.544369 113.961757 
L 140.194979 112.583378 
L 140.845589 111.58487 
L 141.4962 111.076222 
L 144.098641 108.49066 
L 145.399862 107.423038 
L 146.050472 106.585097 
L 147.351692 105.539063 
L 148.652913 104.667502 
L 150.604744 102.88064 
L 151.255354 102.709391 
L 151.905965 103.080903 
L 152.556575 103.225893 
L 153.207185 101.344335 
L 153.857796 101.530724 
L 154.508406 101.532697 
L 155.809627 101.240894 
L 156.460237 101.24118 
L 157.110847 101.626858 
L 158.412068 101.302548 
L 159.062678 101.467344 
L 159.713288 101.467911 
L 160.363899 101.126685 
L 161.014509 101.115932 
L 162.96634 100.165264 
L 164.267561 99.157485 
L 164.918171 98.992371 
L 165.568781 98.656077 
L 166.219392 98.468753 
L 167.520612 97.749386 
L 168.171222 97.719852 
L 170.773664 97.06762 
L 171.424274 97.039116 
L 172.074884 96.708778 
L 172.725495 95.89241 
L 173.376105 95.813561 
L 174.026715 95.45997 
L 174.677326 95.936958 
L 175.327936 95.769868 
L 175.978546 95.307222 
L 176.629156 95.439954 
L 177.279767 94.781523 
L 178.580987 94.156654 
L 179.882208 92.706384 
L 180.532818 92.333335 
L 182.484649 91.8222 
L 184.43648 90.376579 
L 185.087091 90.359917 
L 185.737701 90.061628 
L 186.388311 89.587951 
L 188.340142 87.65491 
L 188.990752 87.627864 
L 189.641363 87.468429 
L 190.291973 87.158963 
L 191.593194 86.124643 
L 192.243804 85.121502 
L 192.894414 83.867318 
L 193.545025 83.033086 
L 194.195635 83.009369 
L 194.846245 83.175862 
L 196.147466 83.20215 
L 196.798076 83.690948 
L 197.448686 83.711369 
L 198.749907 84.215343 
L 199.400517 83.041744 
L 200.051128 82.916118 
L 200.701738 83.373989 
L 202.653569 82.883953 
L 203.304179 83.065594 
L 203.95479 82.941454 
L 204.6054 82.6458 
L 205.25601 82.830607 
L 205.906621 83.460756 
L 207.207841 84.176584 
L 209.159672 84.713294 
L 209.810282 85.144395 
L 210.460893 85.334021 
L 211.762113 85.957466 
L 213.063334 87.47117 
L 213.713944 87.942835 
L 214.364555 88.759571 
L 215.015165 89.104737 
L 215.665775 89.295745 
L 216.316385 89.935454 
L 216.966996 89.417253 
L 219.569437 90.134449 
L 221.521268 91.337311 
L 222.171878 91.344 
L 222.822489 91.758563 
L 223.473099 91.777153 
L 224.123709 91.922092 
L 226.07554 91.726641 
L 226.72615 92.190108 
L 227.376761 92.359166 
L 228.027371 92.376588 
L 229.328592 93.306983 
L 230.629812 93.620631 
L 231.280423 93.323831 
L 231.931033 93.625554 
L 232.581643 93.792181 
L 233.232254 93.487606 
L 235.834695 92.944248 
L 236.485305 92.492611 
L 237.135915 92.320282 
L 237.786526 92.454384 
L 238.437136 92.291429 
L 239.738357 91.361692 
L 241.039577 91.358813 
L 241.690188 91.226801 
L 242.340798 91.395657 
L 244.292629 92.302032 
L 244.943239 92.310372 
L 245.59385 92.170582 
L 246.24446 91.865267 
L 246.89507 92.042983 
L 248.846901 92.009857 
L 249.497511 92.337993 
L 250.148122 92.197597 
L 250.798732 92.676858 
L 251.449342 93.373975 
L 252.099953 93.525353 
L 252.750563 93.378589 
L 253.401173 93.68558 
L 254.051784 93.843743 
L 254.702394 94.303918 
L 255.353004 94.911812 
L 256.003615 95.063642 
L 256.654225 95.003803 
L 257.304835 95.413438 
L 257.955445 96.979051 
L 258.606056 96.821256 
L 259.256666 96.53208 
L 259.907276 96.389466 
L 260.557887 96.088257 
L 261.208497 96.229612 
L 261.859107 95.758098 
L 262.509718 95.868093 
L 263.810938 95.271937 
L 265.112159 95.556143 
L 266.413379 97.18371 
L 267.06399 97.322261 
L 267.7146 97.319995 
L 269.015821 98.041826 
L 270.317041 98.500797 
L 271.618262 97.661454 
L 272.268872 97.472629 
L 272.919483 97.454558 
L 273.570093 97.271748 
L 274.220703 96.760783 
L 274.871314 96.009562 
L 275.521924 95.678622 
L 276.172534 95.663806 
L 276.823144 95.191971 
L 277.473755 94.177293 
L 279.425586 92.310448 
L 280.076196 92.131587 
L 280.726806 91.795982 
L 281.377417 90.933712 
L 282.028027 90.920491 
L 282.678637 90.581349 
L 283.329248 90.620447 
L 283.979858 90.493866 
L 284.630468 90.979626 
L 285.931689 90.073854 
L 286.582299 89.91333 
L 287.88352 89.101735 
L 288.53413 89.097002 
L 289.18474 88.79091 
L 290.485961 88.516582 
L 291.136571 88.517829 
L 294.389623 86.010075 
L 295.690844 85.99494 
L 296.341454 86.163183 
L 296.992064 85.881375 
L 297.642674 85.729145 
L 298.293285 85.878832 
L 298.943895 85.73246 
L 300.245116 85.744529 
L 300.895726 85.602274 
L 303.498167 85.666854 
L 304.148778 85.828351 
L 305.449998 85.845857 
L 306.100608 86.528981 
L 306.751219 86.536484 
L 307.401829 86.227507 
L 308.70305 86.273524 
L 309.35366 85.997057 
L 310.00427 86.024943 
L 310.654881 85.744147 
L 311.305491 85.928144 
L 313.257322 85.784421 
L 313.907932 86.096399 
L 314.558543 85.780936 
L 315.209153 85.640299 
L 315.859763 85.318697 
L 316.510373 84.476046 
L 317.160984 84.472727 
L 317.811594 84.636171 
L 318.462204 84.678259 
L 319.112815 84.379053 
L 319.763425 83.91565 
L 320.414035 83.307407 
L 321.064646 83.167573 
L 321.715256 82.806403 
L 322.365866 82.57263 
L 323.016477 81.494397 
L 323.667087 81.474604 
L 324.968308 82.105902 
L 325.618918 83.001832 
L 326.920138 84.31013 
L 327.570749 84.674168 
L 329.52258 85.313576 
L 330.17319 85.633944 
L 330.8238 84.384748 
L 331.474411 83.531449 
L 332.775631 83.185663 
L 333.426242 82.584769 
L 334.076852 82.555536 
L 334.727462 98.500797 
L 336.028683 97.661454 
L 336.679293 97.472629 
L 337.329903 97.454558 
L 337.980514 97.271748 
L 338.631124 96.760783 
L 339.281734 96.009562 
L 339.932345 95.678622 
L 340.582955 95.663806 
L 341.233565 95.191971 
L 341.884176 94.177293 
L 343.836007 92.310448 
L 344.486617 92.131587 
L 345.137227 91.795982 
L 345.787837 90.933712 
L 346.438448 90.920491 
L 347.089058 90.581349 
L 347.739668 90.620447 
L 348.390279 90.493866 
L 349.040889 90.979626 
L 350.34211 90.073854 
L 350.99272 89.91333 
L 352.293941 89.101735 
L 352.944551 89.097002 
L 353.595161 88.79091 
L 354.896382 88.516582 
L 355.546992 88.517829 
L 358.800044 86.010075 
L 360.101264 85.99494 
L 360.751875 86.163183 
L 361.402485 85.881375 
L 362.053095 85.729145 
L 362.703706 85.878832 
L 363.354316 85.73246 
L 364.655537 85.744529 
L 365.306147 85.602274 
L 367.908588 85.666854 
L 368.559198 85.828351 
L 369.860419 85.845857 
L 370.511029 86.528981 
L 371.16164 86.536484 
L 371.81225 86.227507 
L 373.113471 86.273524 
L 373.764081 85.997057 
L 374.414691 86.024943 
L 375.065302 85.744147 
L 375.715912 85.928144 
L 377.667743 85.784421 
L 378.318353 86.096399 
L 378.968963 85.780936 
L 379.619574 85.640299 
L 380.270184 85.318697 
L 380.920794 84.476046 
L 381.571405 84.472727 
L 382.222015 84.636171 
L 382.872625 84.678259 
L 383.523236 84.379053 
L 384.173846 83.91565 
L 384.824456 83.307407 
L 385.475066 83.167573 
L 386.125677 82.806403 
L 386.776287 82.57263 
L 387.426897 81.494397 
L 388.077508 81.474604 
L 389.378728 82.105902 
L 390.029339 83.001832 
L 391.330559 84.31013 
L 391.98117 84.674168 
L 393.933001 85.313576 
L 394.583611 85.633944 
L 395.234221 84.384748 
L 395.884831 83.531449 
L 397.186052 83.185663 
L 397.836662 82.584769 
L 398.487273 82.555536 
L 398.487273 82.555536 
" clip-path="url(#p97b4b8bddb)" style="fill: none; stroke: #ff7f0e; stroke-width: 1.5; stroke-linecap: square"/>
   </g>
   <g id="patch_3">
    <path d="M 57.6 307.584 
L 57.6 41.472 
" style="fill: none; stroke: #000000; stroke-width: 0.8; stroke-linejoin: miter; stroke-linecap: square"/>
   </g>
   <g id="patch_4">
    <path d="M 414.72 307.584 
L 414.72 41.472 
" style="fill: none; stroke: #000000; stroke-width: 0.8; stroke-linejoin: miter; stroke-linecap: square"/>
   </g>
   <g id="patch_5">
    <path d="M 57.6 307.584 
L 414.72 307.584 
" style="fill: none; stroke: #000000; stroke-width: 0.8; stroke-linejoin: miter; stroke-linecap: square"/>
   </g>
   <g id="patch_6">
    <path d="M 57.6 41.472 
L 414.72 41.472 
" style="fill: none; stroke: #000000; stroke-width: 0.8; stroke-linejoin: miter; stroke-linecap: square"/>
   </g>
   <g id="text_17">
    <!-- RESULT -->
    <g transform="translate(213.816563 35.472) scale(0.12 -0.12)">
     <defs>
      <path id="DejaVuSans-4c" d="M 628 4666 
L 1259 4666 
L 1259 531 
L 3531 531 
L 3531 0 
L 628 0 
L 628 4666 
z
" transform="scale(0.015625)"/>
     </defs>
     <use xlink:href="#DejaVuSans-52"/>
     <use xlink:href="#DejaVuSans-45" x="69.482422"/>
     <use xlink:href="#DejaVuSans-53" x="132.666016"/>
     <use xlink:href="#DejaVuSans-55" x="196.142578"/>
     <use xlink:href="#DejaVuSans-4c" x="269.335938"/>
     <use xlink:href="#DejaVuSans-54" x="311.298828"/>
    </g>
   </g>
  </g>
 </g>
 <defs>
  <clipPath id="p97b4b8bddb">
   <rect x="57.6" y="41.472" width="357.12" height="266.112"/>
  </clipPath>
 </defs>
</svg>
