<?xml version="1.0" encoding="utf-8" standalone="no"?>
<!DOCTYPE svg PUBLIC "-//W3C//DTD SVG 1.1//EN"
  "http://www.w3.org/Graphics/SVG/1.1/DTD/svg11.dtd">
<svg xmlns:xlink="http://www.w3.org/1999/xlink" width="460.8pt" height="345.6pt" viewBox="0 0 460.8 345.6" xmlns="http://www.w3.org/2000/svg" version="1.1">
 <metadata>
  <rdf:RDF xmlns:dc="http://purl.org/dc/elements/1.1/" xmlns:cc="http://creativecommons.org/ns#" xmlns:rdf="http://www.w3.org/1999/02/22-rdf-syntax-ns#">
   <cc:Work>
    <dc:type rdf:resource="http://purl.org/dc/dcmitype/StillImage"/>
    <dc:date>2023-03-30T16:29:42.100164</dc:date>
    <dc:format>image/svg+xml</dc:format>
    <dc:creator>
     <cc:Agent>
      <dc:title>Matplotlib v3.6.2, https://matplotlib.org/</dc:title>
     </cc:Agent>
    </dc:creator>
   </cc:Work>
  </rdf:RDF>
 </metadata>
 <defs>
  <style type="text/css">*{stroke-linejoin: round; stroke-linecap: butt}</style>
 </defs>
 <g id="figure_1">
  <g id="patch_1">
   <path d="M 0 345.6 
L 460.8 345.6 
L 460.8 0 
L 0 0 
z
" style="fill: #ffffff"/>
  </g>
  <g id="axes_1">
   <g id="patch_2">
    <path d="M 57.6 307.584 
L 414.72 307.584 
L 414.72 41.472 
L 57.6 41.472 
z
" style="fill: #ffffff"/>
   </g>
   <g id="matplotlib.axis_1">
    <g id="xtick_1">
     <g id="line2d_1">
      <defs>
       <path id="maf2510b43d" d="M 0 0 
L 0 3.5 
" style="stroke: #000000; stroke-width: 0.8"/>
      </defs>
      <g>
       <use xlink:href="#maf2510b43d" x="73.832727" y="307.584" style="stroke: #000000; stroke-width: 0.8"/>
      </g>
     </g>
     <g id="text_1">
      <!-- 0 -->
      <g transform="translate(70.651477 322.182437) scale(0.1 -0.1)">
       <defs>
        <path id="DejaVuSans-30" d="M 2034 4250 
Q 1547 4250 1301 3770 
Q 1056 3291 1056 2328 
Q 1056 1369 1301 889 
Q 1547 409 2034 409 
Q 2525 409 2770 889 
Q 3016 1369 3016 2328 
Q 3016 3291 2770 3770 
Q 2525 4250 2034 4250 
z
M 2034 4750 
Q 2819 4750 3233 4129 
Q 3647 3509 3647 2328 
Q 3647 1150 3233 529 
Q 2819 -91 2034 -91 
Q 1250 -91 836 529 
Q 422 1150 422 2328 
Q 422 3509 836 4129 
Q 1250 4750 2034 4750 
z
" transform="scale(0.015625)"/>
       </defs>
       <use xlink:href="#DejaVuSans-30"/>
      </g>
     </g>
    </g>
    <g id="xtick_2">
     <g id="line2d_2">
      <g>
       <use xlink:href="#maf2510b43d" x="138.893758" y="307.584" style="stroke: #000000; stroke-width: 0.8"/>
      </g>
     </g>
     <g id="text_2">
      <!-- 100 -->
      <g transform="translate(129.350008 322.182437) scale(0.1 -0.1)">
       <defs>
        <path id="DejaVuSans-31" d="M 794 531 
L 1825 531 
L 1825 4091 
L 703 3866 
L 703 4441 
L 1819 4666 
L 2450 4666 
L 2450 531 
L 3481 531 
L 3481 0 
L 794 0 
L 794 531 
z
" transform="scale(0.015625)"/>
       </defs>
       <use xlink:href="#DejaVuSans-31"/>
       <use xlink:href="#DejaVuSans-30" x="63.623047"/>
       <use xlink:href="#DejaVuSans-30" x="127.246094"/>
      </g>
     </g>
    </g>
    <g id="xtick_3">
     <g id="line2d_3">
      <g>
       <use xlink:href="#maf2510b43d" x="203.95479" y="307.584" style="stroke: #000000; stroke-width: 0.8"/>
      </g>
     </g>
     <g id="text_3">
      <!-- 200 -->
      <g transform="translate(194.41104 322.182437) scale(0.1 -0.1)">
       <defs>
        <path id="DejaVuSans-32" d="M 1228 531 
L 3431 531 
L 3431 0 
L 469 0 
L 469 531 
Q 828 903 1448 1529 
Q 2069 2156 2228 2338 
Q 2531 2678 2651 2914 
Q 2772 3150 2772 3378 
Q 2772 3750 2511 3984 
Q 2250 4219 1831 4219 
Q 1534 4219 1204 4116 
Q 875 4013 500 3803 
L 500 4441 
Q 881 4594 1212 4672 
Q 1544 4750 1819 4750 
Q 2544 4750 2975 4387 
Q 3406 4025 3406 3419 
Q 3406 3131 3298 2873 
Q 3191 2616 2906 2266 
Q 2828 2175 2409 1742 
Q 1991 1309 1228 531 
z
" transform="scale(0.015625)"/>
       </defs>
       <use xlink:href="#DejaVuSans-32"/>
       <use xlink:href="#DejaVuSans-30" x="63.623047"/>
       <use xlink:href="#DejaVuSans-30" x="127.246094"/>
      </g>
     </g>
    </g>
    <g id="xtick_4">
     <g id="line2d_4">
      <g>
       <use xlink:href="#maf2510b43d" x="269.015821" y="307.584" style="stroke: #000000; stroke-width: 0.8"/>
      </g>
     </g>
     <g id="text_4">
      <!-- 300 -->
      <g transform="translate(259.472071 322.182437) scale(0.1 -0.1)">
       <defs>
        <path id="DejaVuSans-33" d="M 2597 2516 
Q 3050 2419 3304 2112 
Q 3559 1806 3559 1356 
Q 3559 666 3084 287 
Q 2609 -91 1734 -91 
Q 1441 -91 1130 -33 
Q 819 25 488 141 
L 488 750 
Q 750 597 1062 519 
Q 1375 441 1716 441 
Q 2309 441 2620 675 
Q 2931 909 2931 1356 
Q 2931 1769 2642 2001 
Q 2353 2234 1838 2234 
L 1294 2234 
L 1294 2753 
L 1863 2753 
Q 2328 2753 2575 2939 
Q 2822 3125 2822 3475 
Q 2822 3834 2567 4026 
Q 2313 4219 1838 4219 
Q 1578 4219 1281 4162 
Q 984 4106 628 3988 
L 628 4550 
Q 988 4650 1302 4700 
Q 1616 4750 1894 4750 
Q 2613 4750 3031 4423 
Q 3450 4097 3450 3541 
Q 3450 3153 3228 2886 
Q 3006 2619 2597 2516 
z
" transform="scale(0.015625)"/>
       </defs>
       <use xlink:href="#DejaVuSans-33"/>
       <use xlink:href="#DejaVuSans-30" x="63.623047"/>
       <use xlink:href="#DejaVuSans-30" x="127.246094"/>
      </g>
     </g>
    </g>
    <g id="xtick_5">
     <g id="line2d_5">
      <g>
       <use xlink:href="#maf2510b43d" x="334.076852" y="307.584" style="stroke: #000000; stroke-width: 0.8"/>
      </g>
     </g>
     <g id="text_5">
      <!-- 400 -->
      <g transform="translate(324.533102 322.182437) scale(0.1 -0.1)">
       <defs>
        <path id="DejaVuSans-34" d="M 2419 4116 
L 825 1625 
L 2419 1625 
L 2419 4116 
z
M 2253 4666 
L 3047 4666 
L 3047 1625 
L 3713 1625 
L 3713 1100 
L 3047 1100 
L 3047 0 
L 2419 0 
L 2419 1100 
L 313 1100 
L 313 1709 
L 2253 4666 
z
" transform="scale(0.015625)"/>
       </defs>
       <use xlink:href="#DejaVuSans-34"/>
       <use xlink:href="#DejaVuSans-30" x="63.623047"/>
       <use xlink:href="#DejaVuSans-30" x="127.246094"/>
      </g>
     </g>
    </g>
    <g id="xtick_6">
     <g id="line2d_6">
      <g>
       <use xlink:href="#maf2510b43d" x="399.137883" y="307.584" style="stroke: #000000; stroke-width: 0.8"/>
      </g>
     </g>
     <g id="text_6">
      <!-- 500 -->
      <g transform="translate(389.594133 322.182437) scale(0.1 -0.1)">
       <defs>
        <path id="DejaVuSans-35" d="M 691 4666 
L 3169 4666 
L 3169 4134 
L 1269 4134 
L 1269 2991 
Q 1406 3038 1543 3061 
Q 1681 3084 1819 3084 
Q 2600 3084 3056 2656 
Q 3513 2228 3513 1497 
Q 3513 744 3044 326 
Q 2575 -91 1722 -91 
Q 1428 -91 1123 -41 
Q 819 9 494 109 
L 494 744 
Q 775 591 1075 516 
Q 1375 441 1709 441 
Q 2250 441 2565 725 
Q 2881 1009 2881 1497 
Q 2881 1984 2565 2268 
Q 2250 2553 1709 2553 
Q 1456 2553 1204 2497 
Q 953 2441 691 2322 
L 691 4666 
z
" transform="scale(0.015625)"/>
       </defs>
       <use xlink:href="#DejaVuSans-35"/>
       <use xlink:href="#DejaVuSans-30" x="63.623047"/>
       <use xlink:href="#DejaVuSans-30" x="127.246094"/>
      </g>
     </g>
    </g>
    <g id="text_7">
     <!-- EPISODE -->
     <g transform="translate(214.39125 335.860562) scale(0.1 -0.1)">
      <defs>
       <path id="DejaVuSans-45" d="M 628 4666 
L 3578 4666 
L 3578 4134 
L 1259 4134 
L 1259 2753 
L 3481 2753 
L 3481 2222 
L 1259 2222 
L 1259 531 
L 3634 531 
L 3634 0 
L 628 0 
L 628 4666 
z
" transform="scale(0.015625)"/>
       <path id="DejaVuSans-50" d="M 1259 4147 
L 1259 2394 
L 2053 2394 
Q 2494 2394 2734 2622 
Q 2975 2850 2975 3272 
Q 2975 3691 2734 3919 
Q 2494 4147 2053 4147 
L 1259 4147 
z
M 628 4666 
L 2053 4666 
Q 2838 4666 3239 4311 
Q 3641 3956 3641 3272 
Q 3641 2581 3239 2228 
Q 2838 1875 2053 1875 
L 1259 1875 
L 1259 0 
L 628 0 
L 628 4666 
z
" transform="scale(0.015625)"/>
       <path id="DejaVuSans-49" d="M 628 4666 
L 1259 4666 
L 1259 0 
L 628 0 
L 628 4666 
z
" transform="scale(0.015625)"/>
       <path id="DejaVuSans-53" d="M 3425 4513 
L 3425 3897 
Q 3066 4069 2747 4153 
Q 2428 4238 2131 4238 
Q 1616 4238 1336 4038 
Q 1056 3838 1056 3469 
Q 1056 3159 1242 3001 
Q 1428 2844 1947 2747 
L 2328 2669 
Q 3034 2534 3370 2195 
Q 3706 1856 3706 1288 
Q 3706 609 3251 259 
Q 2797 -91 1919 -91 
Q 1588 -91 1214 -16 
Q 841 59 441 206 
L 441 856 
Q 825 641 1194 531 
Q 1563 422 1919 422 
Q 2459 422 2753 634 
Q 3047 847 3047 1241 
Q 3047 1584 2836 1778 
Q 2625 1972 2144 2069 
L 1759 2144 
Q 1053 2284 737 2584 
Q 422 2884 422 3419 
Q 422 4038 858 4394 
Q 1294 4750 2059 4750 
Q 2388 4750 2728 4690 
Q 3069 4631 3425 4513 
z
" transform="scale(0.015625)"/>
       <path id="DejaVuSans-4f" d="M 2522 4238 
Q 1834 4238 1429 3725 
Q 1025 3213 1025 2328 
Q 1025 1447 1429 934 
Q 1834 422 2522 422 
Q 3209 422 3611 934 
Q 4013 1447 4013 2328 
Q 4013 3213 3611 3725 
Q 3209 4238 2522 4238 
z
M 2522 4750 
Q 3503 4750 4090 4092 
Q 4678 3434 4678 2328 
Q 4678 1225 4090 567 
Q 3503 -91 2522 -91 
Q 1538 -91 948 565 
Q 359 1222 359 2328 
Q 359 3434 948 4092 
Q 1538 4750 2522 4750 
z
" transform="scale(0.015625)"/>
       <path id="DejaVuSans-44" d="M 1259 4147 
L 1259 519 
L 2022 519 
Q 2988 519 3436 956 
Q 3884 1394 3884 2338 
Q 3884 3275 3436 3711 
Q 2988 4147 2022 4147 
L 1259 4147 
z
M 628 4666 
L 1925 4666 
Q 3281 4666 3915 4102 
Q 4550 3538 4550 2338 
Q 4550 1131 3912 565 
Q 3275 0 1925 0 
L 628 0 
L 628 4666 
z
" transform="scale(0.015625)"/>
      </defs>
      <use xlink:href="#DejaVuSans-45"/>
      <use xlink:href="#DejaVuSans-50" x="63.183594"/>
      <use xlink:href="#DejaVuSans-49" x="123.486328"/>
      <use xlink:href="#DejaVuSans-53" x="152.978516"/>
      <use xlink:href="#DejaVuSans-4f" x="216.455078"/>
      <use xlink:href="#DejaVuSans-44" x="295.166016"/>
      <use xlink:href="#DejaVuSans-45" x="372.167969"/>
     </g>
    </g>
   </g>
   <g id="matplotlib.axis_2">
    <g id="ytick_1">
     <g id="line2d_7">
      <defs>
       <path id="mbbec5140c0" d="M 0 0 
L -3.5 0 
" style="stroke: #000000; stroke-width: 0.8"/>
      </defs>
      <g>
       <use xlink:href="#mbbec5140c0" x="57.6" y="271.570998" style="stroke: #000000; stroke-width: 0.8"/>
      </g>
     </g>
     <g id="text_8">
      <!-- −1500 -->
      <g transform="translate(16.770313 275.370216) scale(0.1 -0.1)">
       <defs>
        <path id="DejaVuSans-2212" d="M 678 2272 
L 4684 2272 
L 4684 1741 
L 678 1741 
L 678 2272 
z
" transform="scale(0.015625)"/>
       </defs>
       <use xlink:href="#DejaVuSans-2212"/>
       <use xlink:href="#DejaVuSans-31" x="83.789062"/>
       <use xlink:href="#DejaVuSans-35" x="147.412109"/>
       <use xlink:href="#DejaVuSans-30" x="211.035156"/>
       <use xlink:href="#DejaVuSans-30" x="274.658203"/>
      </g>
     </g>
    </g>
    <g id="ytick_2">
     <g id="line2d_8">
      <g>
       <use xlink:href="#mbbec5140c0" x="57.6" y="235.217437" style="stroke: #000000; stroke-width: 0.8"/>
      </g>
     </g>
     <g id="text_9">
      <!-- −1250 -->
      <g transform="translate(16.770313 239.016656) scale(0.1 -0.1)">
       <use xlink:href="#DejaVuSans-2212"/>
       <use xlink:href="#DejaVuSans-31" x="83.789062"/>
       <use xlink:href="#DejaVuSans-32" x="147.412109"/>
       <use xlink:href="#DejaVuSans-35" x="211.035156"/>
       <use xlink:href="#DejaVuSans-30" x="274.658203"/>
      </g>
     </g>
    </g>
    <g id="ytick_3">
     <g id="line2d_9">
      <g>
       <use xlink:href="#mbbec5140c0" x="57.6" y="198.863877" style="stroke: #000000; stroke-width: 0.8"/>
      </g>
     </g>
     <g id="text_10">
      <!-- −1000 -->
      <g transform="translate(16.770313 202.663096) scale(0.1 -0.1)">
       <use xlink:href="#DejaVuSans-2212"/>
       <use xlink:href="#DejaVuSans-31" x="83.789062"/>
       <use xlink:href="#DejaVuSans-30" x="147.412109"/>
       <use xlink:href="#DejaVuSans-30" x="211.035156"/>
       <use xlink:href="#DejaVuSans-30" x="274.658203"/>
      </g>
     </g>
    </g>
    <g id="ytick_4">
     <g id="line2d_10">
      <g>
       <use xlink:href="#mbbec5140c0" x="57.6" y="162.510317" style="stroke: #000000; stroke-width: 0.8"/>
      </g>
     </g>
     <g id="text_11">
      <!-- −750 -->
      <g transform="translate(23.132812 166.309536) scale(0.1 -0.1)">
       <defs>
        <path id="DejaVuSans-37" d="M 525 4666 
L 3525 4666 
L 3525 4397 
L 1831 0 
L 1172 0 
L 2766 4134 
L 525 4134 
L 525 4666 
z
" transform="scale(0.015625)"/>
       </defs>
       <use xlink:href="#DejaVuSans-2212"/>
       <use xlink:href="#DejaVuSans-37" x="83.789062"/>
       <use xlink:href="#DejaVuSans-35" x="147.412109"/>
       <use xlink:href="#DejaVuSans-30" x="211.035156"/>
      </g>
     </g>
    </g>
    <g id="ytick_5">
     <g id="line2d_11">
      <g>
       <use xlink:href="#mbbec5140c0" x="57.6" y="126.156757" style="stroke: #000000; stroke-width: 0.8"/>
      </g>
     </g>
     <g id="text_12">
      <!-- −500 -->
      <g transform="translate(23.132812 129.955976) scale(0.1 -0.1)">
       <use xlink:href="#DejaVuSans-2212"/>
       <use xlink:href="#DejaVuSans-35" x="83.789062"/>
       <use xlink:href="#DejaVuSans-30" x="147.412109"/>
       <use xlink:href="#DejaVuSans-30" x="211.035156"/>
      </g>
     </g>
    </g>
    <g id="ytick_6">
     <g id="line2d_12">
      <g>
       <use xlink:href="#mbbec5140c0" x="57.6" y="89.803197" style="stroke: #000000; stroke-width: 0.8"/>
      </g>
     </g>
     <g id="text_13">
      <!-- −250 -->
      <g transform="translate(23.132812 93.602415) scale(0.1 -0.1)">
       <use xlink:href="#DejaVuSans-2212"/>
       <use xlink:href="#DejaVuSans-32" x="83.789062"/>
       <use xlink:href="#DejaVuSans-35" x="147.412109"/>
       <use xlink:href="#DejaVuSans-30" x="211.035156"/>
      </g>
     </g>
    </g>
    <g id="ytick_7">
     <g id="line2d_13">
      <g>
       <use xlink:href="#mbbec5140c0" x="57.6" y="53.449636" style="stroke: #000000; stroke-width: 0.8"/>
      </g>
     </g>
     <g id="text_14">
      <!-- 0 -->
      <g transform="translate(44.2375 57.248855) scale(0.1 -0.1)">
       <use xlink:href="#DejaVuSans-30"/>
      </g>
     </g>
    </g>
    <g id="text_15">
     <!-- RETURN -->
     <g transform="translate(10.690625 195.089719) rotate(-90) scale(0.1 -0.1)">
      <defs>
       <path id="DejaVuSans-52" d="M 2841 2188 
Q 3044 2119 3236 1894 
Q 3428 1669 3622 1275 
L 4263 0 
L 3584 0 
L 2988 1197 
Q 2756 1666 2539 1819 
Q 2322 1972 1947 1972 
L 1259 1972 
L 1259 0 
L 628 0 
L 628 4666 
L 2053 4666 
Q 2853 4666 3247 4331 
Q 3641 3997 3641 3322 
Q 3641 2881 3436 2590 
Q 3231 2300 2841 2188 
z
M 1259 4147 
L 1259 2491 
L 2053 2491 
Q 2509 2491 2742 2702 
Q 2975 2913 2975 3322 
Q 2975 3731 2742 3939 
Q 2509 4147 2053 4147 
L 1259 4147 
z
" transform="scale(0.015625)"/>
       <path id="DejaVuSans-54" d="M -19 4666 
L 3928 4666 
L 3928 4134 
L 2272 4134 
L 2272 0 
L 1638 0 
L 1638 4134 
L -19 4134 
L -19 4666 
z
" transform="scale(0.015625)"/>
       <path id="DejaVuSans-55" d="M 556 4666 
L 1191 4666 
L 1191 1831 
Q 1191 1081 1462 751 
Q 1734 422 2344 422 
Q 2950 422 3222 751 
Q 3494 1081 3494 1831 
L 3494 4666 
L 4128 4666 
L 4128 1753 
Q 4128 841 3676 375 
Q 3225 -91 2344 -91 
Q 1459 -91 1007 375 
Q 556 841 556 1753 
L 556 4666 
z
" transform="scale(0.015625)"/>
       <path id="DejaVuSans-4e" d="M 628 4666 
L 1478 4666 
L 3547 763 
L 3547 4666 
L 4159 4666 
L 4159 0 
L 3309 0 
L 1241 3903 
L 1241 0 
L 628 0 
L 628 4666 
z
" transform="scale(0.015625)"/>
      </defs>
      <use xlink:href="#DejaVuSans-52"/>
      <use xlink:href="#DejaVuSans-45" x="69.482422"/>
      <use xlink:href="#DejaVuSans-54" x="132.666016"/>
      <use xlink:href="#DejaVuSans-55" x="193.75"/>
      <use xlink:href="#DejaVuSans-52" x="266.943359"/>
      <use xlink:href="#DejaVuSans-4e" x="336.425781"/>
     </g>
    </g>
   </g>
   <g id="line2d_14">
    <path d="M 73.832727 223.461639 
L 74.483338 226.833097 
L 75.133948 206.617214 
L 75.784558 268.49438 
L 76.435169 231.263863 
L 77.085779 237.864917 
L 77.736389 254.185447 
L 78.386999 262.862243 
L 79.68822 242.214852 
L 80.33883 250.849446 
L 80.989441 255.243517 
L 81.640051 248.110214 
L 82.290661 237.999392 
L 82.941272 255.517017 
L 83.591882 246.446609 
L 84.242492 253.122562 
L 84.893103 254.635667 
L 85.543713 253.992117 
L 86.194323 268.467381 
L 86.844934 244.066981 
L 88.146154 271.408434 
L 88.796764 246.858719 
L 89.447375 272.863367 
L 90.097985 264.559574 
L 90.748595 295.488 
L 91.399206 273.186844 
L 92.049816 267.450156 
L 92.700426 283.92201 
L 93.351037 245.602789 
L 94.001647 265.146417 
L 94.652257 266.042471 
L 95.302868 284.526123 
L 95.953478 256.985914 
L 96.604088 246.042737 
L 97.254698 287.51663 
L 97.905309 281.554108 
L 98.555919 248.820669 
L 99.206529 240.319341 
L 99.85714 251.493241 
L 100.50775 268.788229 
L 101.15836 250.817832 
L 101.808971 274.222571 
L 102.459581 239.440045 
L 103.110191 231.040043 
L 103.760802 235.107554 
L 104.411412 244.450559 
L 105.062022 246.1593 
L 105.712633 230.874256 
L 106.363243 231.724036 
L 107.013853 218.819206 
L 107.664463 210.383936 
L 108.315074 209.339462 
L 109.616294 216.906497 
L 110.266905 206.270541 
L 110.917515 221.693581 
L 111.568125 180.876209 
L 112.869346 216.385768 
L 113.519956 195.876992 
L 114.170567 195.277162 
L 114.821177 214.253912 
L 116.122398 180.285887 
L 116.773008 197.32749 
L 117.423618 185.508827 
L 118.074228 289.888312 
L 118.724839 290.436999 
L 119.375449 199.285469 
L 120.026059 190.300116 
L 120.67667 178.995239 
L 121.32728 195.211253 
L 121.97789 196.768162 
L 122.628501 207.861387 
L 123.279111 180.588248 
L 123.929721 214.084272 
L 124.580332 196.212563 
L 125.230942 194.362185 
L 125.881552 207.671408 
L 126.532163 196.483836 
L 127.182773 195.44027 
L 127.833383 184.123284 
L 128.483993 212.328339 
L 129.134604 196.763124 
L 130.435824 182.228821 
L 131.086435 180.8302 
L 131.737045 221.33228 
L 132.387655 206.834945 
L 133.038266 212.496464 
L 133.688876 170.230046 
L 134.339486 195.290851 
L 134.990097 182.465002 
L 135.640707 196.640512 
L 136.291317 186.94647 
L 136.941927 204.795007 
L 137.592538 188.896553 
L 138.243148 192.002909 
L 138.893758 181.203388 
L 139.544369 195.752227 
L 140.194979 185.25232 
L 140.845589 190.399981 
L 141.4962 181.440052 
L 142.14681 166.739928 
L 142.79742 175.831324 
L 143.448031 160.765224 
L 144.098641 194.746143 
L 144.749251 163.976735 
L 145.399862 148.500066 
L 146.050472 173.124489 
L 146.701082 161.996251 
L 147.351692 127.129623 
L 148.002303 192.682268 
L 148.652913 178.830489 
L 149.303523 193.275784 
L 149.954134 162.811355 
L 150.604744 142.580396 
L 151.255354 188.714537 
L 151.905965 160.716992 
L 152.556575 176.741493 
L 153.207185 146.478856 
L 153.857796 199.247507 
L 154.508406 168.574009 
L 155.159016 191.732301 
L 155.809627 162.489778 
L 156.460237 144.76051 
L 157.110847 175.199736 
L 157.761457 162.152875 
L 158.412068 165.814591 
L 159.062678 147.958283 
L 159.713288 145.200674 
L 160.363899 161.970753 
L 161.014509 158.167613 
L 161.665119 145.278 
L 162.31573 150.628224 
L 163.61695 175.073351 
L 164.267561 162.628625 
L 164.918171 162.305003 
L 165.568781 161.795693 
L 166.219392 162.680024 
L 166.870002 145.725082 
L 168.171222 179.07938 
L 168.821833 148.281635 
L 169.472443 161.521987 
L 170.123053 145.609791 
L 170.773664 161.249162 
L 171.424274 145.418364 
L 172.074884 162.976626 
L 172.725495 148.020326 
L 173.376105 180.907994 
L 174.026715 159.106977 
L 174.677326 144.945477 
L 175.327936 145.127368 
L 175.978546 158.521567 
L 176.629156 147.621023 
L 177.279767 161.83575 
L 177.930377 145.844548 
L 178.580987 159.905017 
L 179.231598 148.988718 
L 179.882208 144.801289 
L 180.532818 162.981607 
L 181.183429 165.448883 
L 181.834039 161.205799 
L 182.484649 144.776896 
L 183.13526 178.915094 
L 183.78587 144.999125 
L 184.43648 154.638473 
L 185.087091 193.861992 
L 185.737701 144.906381 
L 186.388311 161.253333 
L 187.038921 161.829759 
L 187.689532 145.162788 
L 188.340142 145.116566 
L 188.990752 144.150591 
L 189.641363 128.548135 
L 190.291973 145.242802 
L 190.942583 177.597776 
L 191.593194 145.073269 
L 192.243804 161.243713 
L 192.894414 148.106325 
L 194.195635 163.817736 
L 194.846245 143.955397 
L 195.496856 144.642132 
L 196.147466 152.366642 
L 196.798076 154.754437 
L 197.448686 145.442181 
L 198.099297 143.810357 
L 198.749907 89.455794 
L 199.400517 142.29493 
L 200.051128 90.157646 
L 200.701738 89.842947 
L 201.352348 140.014151 
L 202.002959 161.022601 
L 202.653569 90.339787 
L 203.304179 148.0227 
L 203.95479 147.319674 
L 204.6054 163.793491 
L 205.25601 90.456462 
L 205.906621 90.657369 
L 206.557231 108.038684 
L 207.207841 142.075855 
L 207.858451 71.959393 
L 208.509062 144.374749 
L 209.159672 127.646436 
L 209.810282 126.687102 
L 210.460893 162.017453 
L 211.111503 150.743795 
L 211.762113 126.99306 
L 212.412724 144.251135 
L 213.063334 53.615931 
L 213.713944 53.596896 
L 214.364555 143.393583 
L 215.015165 142.48892 
L 215.665775 107.449113 
L 216.316385 144.467069 
L 216.966996 143.610219 
L 217.617606 160.768748 
L 218.268216 126.790925 
L 218.918827 154.52858 
L 219.569437 163.258657 
L 220.220047 142.693792 
L 220.870658 126.773649 
L 221.521268 127.096462 
L 222.171878 151.377111 
L 222.822489 108.204859 
L 223.473099 108.642742 
L 224.123709 158.773751 
L 224.77432 161.963725 
L 225.42493 108.232713 
L 226.07554 143.946908 
L 226.72615 108.331867 
L 227.376761 126.782901 
L 228.027371 126.313581 
L 228.677981 125.292533 
L 229.328592 157.384468 
L 229.979202 90.361693 
L 230.629812 124.991474 
L 231.280423 170.988798 
L 231.931033 142.395327 
L 232.581643 159.815798 
L 233.232254 144.31733 
L 233.882864 143.050303 
L 234.533474 161.480525 
L 235.184085 130.246235 
L 235.834695 126.716848 
L 236.485305 129.975951 
L 237.135915 124.701696 
L 237.786526 89.143435 
L 238.437136 141.695795 
L 239.738357 71.616907 
L 240.388967 124.292075 
L 241.039577 88.38816 
L 241.690188 115.260844 
L 242.991408 183.027465 
L 244.943239 72.096711 
L 245.59385 126.321092 
L 246.24446 89.072672 
L 246.89507 71.3108 
L 247.54568 122.994667 
L 248.196291 88.29228 
L 248.846901 159.988033 
L 251.449342 90.458627 
L 252.099953 90.488776 
L 252.750563 89.363116 
L 253.401173 107.168702 
L 254.051784 90.114608 
L 254.702394 166.852877 
L 255.353004 175.177497 
L 256.003615 90.706026 
L 256.654225 124.585398 
L 257.304835 53.664735 
L 257.955445 124.869594 
L 258.606056 143.84963 
L 259.256666 126.768247 
L 259.907276 90.714723 
L 261.208497 53.568 
L 261.859107 143.350585 
L 262.509718 108.999535 
L 263.160328 90.909491 
L 263.810938 124.909479 
L 264.461549 132.167734 
L 265.112159 91.091549 
L 265.762769 127.19501 
L 266.413379 126.201776 
L 267.06399 75.216587 
L 267.7146 57.393027 
L 268.36521 128.310081 
L 269.015821 125.040227 
L 269.666431 125.141946 
L 270.317041 88.875942 
L 270.967652 88.984983 
L 271.618262 73.117333 
L 272.268872 72.544097 
L 272.919483 91.160348 
L 273.570093 146.954176 
L 274.220703 145.384916 
L 274.871314 106.579447 
L 275.521924 105.681136 
L 276.172534 53.587094 
L 277.473755 125.523567 
L 278.124365 53.78828 
L 278.774975 106.101723 
L 279.425586 71.750881 
L 280.076196 53.68132 
L 280.726806 124.014096 
L 281.377417 89.864285 
L 282.028027 89.835321 
L 282.678637 71.773123 
L 283.329248 89.256645 
L 283.979858 71.414556 
L 284.630468 72.164011 
L 285.281079 89.985638 
L 285.931689 89.041568 
L 286.582299 72.388527 
L 289.18474 142.621312 
L 289.835351 106.447884 
L 290.485961 106.834665 
L 291.136571 54.071481 
L 292.437792 90.462401 
L 293.088402 71.835435 
L 293.739013 107.841337 
L 294.389623 72.420534 
L 295.040233 71.390925 
L 295.690844 89.885654 
L 296.341454 138.514987 
L 296.992064 136.065235 
L 297.642674 107.255952 
L 298.293285 71.434332 
L 298.943895 72.826005 
L 299.594505 126.19865 
L 300.245116 141.807544 
L 300.895726 90.907441 
L 301.546336 73.187308 
L 302.196947 126.933215 
L 302.847557 54.262441 
L 303.498167 104.921871 
L 304.148778 89.631898 
L 304.799388 90.277661 
L 305.449998 109.734637 
L 306.100608 55.003404 
L 306.751219 71.993483 
L 307.401829 139.189774 
L 308.052439 72.729791 
L 308.70305 55.040083 
L 309.35366 107.462009 
L 310.00427 107.547787 
L 310.654881 109.432175 
L 311.305491 71.235976 
L 311.956101 89.964005 
L 312.606712 145.468633 
L 313.257322 142.767652 
L 313.907932 91.657857 
L 314.558543 73.446987 
L 315.209153 109.399536 
L 315.859763 73.630073 
L 316.510373 91.685217 
L 317.160984 91.639167 
L 317.811594 128.572365 
L 318.462204 91.460633 
L 319.112815 140.404642 
L 319.763425 73.79545 
L 320.414035 125.947007 
L 321.064646 127.475202 
L 321.715256 111.710091 
L 322.365866 55.846357 
L 323.016477 56.068096 
L 324.317697 91.98639 
L 324.968308 75.010406 
L 325.618918 109.478083 
L 326.269528 110.468732 
L 326.920138 74.801403 
L 328.221359 145.32141 
L 328.871969 57.216601 
L 329.52258 109.79675 
L 330.17319 73.593605 
L 330.8238 145.173743 
L 331.474411 176.123611 
L 332.125021 145.394628 
L 332.775631 177.006004 
L 333.426242 160.820846 
L 334.076852 91.454355 
L 334.727462 73.836851 
L 335.378073 91.14346 
L 336.028683 112.73565 
L 336.679293 108.519959 
L 337.329903 126.794487 
L 337.980514 108.488802 
L 338.631124 108.643207 
L 339.281734 73.686589 
L 339.932345 74.397385 
L 340.582955 145.140131 
L 341.233565 129.215204 
L 341.884176 91.483006 
L 342.534786 74.540662 
L 343.185396 74.721804 
L 343.836007 90.760932 
L 344.486617 90.735802 
L 345.137227 74.116852 
L 345.787837 91.823998 
L 346.438448 130.867141 
L 347.089058 126.897173 
L 347.739668 108.704341 
L 348.390279 109.006789 
L 349.040889 128.161358 
L 349.691499 139.485695 
L 350.34211 91.382674 
L 350.99272 73.666828 
L 352.293941 108.601721 
L 352.944551 55.392168 
L 353.595161 126.867756 
L 354.245772 129.356924 
L 354.896382 73.794542 
L 355.546992 107.613986 
L 356.197602 72.134734 
L 356.848213 107.097012 
L 357.498823 89.540376 
L 358.149433 125.017555 
L 358.800044 55.568532 
L 359.450654 72.632368 
L 360.101264 72.923492 
L 360.751875 54.32373 
L 361.402485 71.599419 
L 362.053095 109.526057 
L 362.703706 72.073888 
L 363.354316 71.427872 
L 364.004926 90.477333 
L 364.655537 89.849883 
L 365.306147 71.519294 
L 365.956757 109.269842 
L 366.607367 111.187305 
L 367.257978 119.919257 
L 367.908588 88.953059 
L 368.559198 107.739129 
L 369.209809 108.314425 
L 369.860419 71.762646 
L 370.511029 54.824175 
L 371.16164 123.779818 
L 371.81225 54.647246 
L 372.46286 125.210321 
L 373.113471 72.334319 
L 373.764081 72.546775 
L 374.414691 127.885673 
L 375.065302 72.721502 
L 375.715912 72.246091 
L 376.366522 106.817049 
L 377.017132 72.831815 
L 377.667743 54.455541 
L 378.318353 72.445486 
L 378.968963 71.656299 
L 379.619574 71.599755 
L 380.270184 72.24101 
L 380.920794 130.130411 
L 381.571405 117.057171 
L 382.222015 107.922797 
L 382.872625 89.645775 
L 383.523236 89.23025 
L 384.173846 126.99879 
L 385.475066 89.33634 
L 386.125677 90.534112 
L 386.776287 53.681648 
L 387.426897 109.919536 
L 388.077508 91.467677 
L 388.728118 109.173894 
L 389.378728 71.746076 
L 390.029339 53.699032 
L 390.679949 71.958389 
L 391.330559 73.680283 
L 391.98117 53.770063 
L 392.63178 74.22347 
L 393.28239 109.697335 
L 393.933001 160.793048 
L 394.583611 71.652832 
L 395.234221 53.571349 
L 395.884831 89.489486 
L 396.535442 105.576002 
L 397.186052 164.697143 
L 397.836662 109.724999 
L 398.487273 89.771714 
L 398.487273 89.771714 
" clip-path="url(#p9357c26771)" style="fill: none; stroke: #1f77b4; stroke-width: 1.5; stroke-linecap: square"/>
   </g>
   <g id="line2d_15">
    <path d="M 73.832727 228.275913 
L 75.133948 227.542523 
L 75.784558 227.328875 
L 76.435169 226.54793 
L 77.085779 226.049684 
L 78.386999 224.55491 
L 79.03761 223.533922 
L 79.68822 222.957111 
L 80.33883 222.174728 
L 81.640051 220.330051 
L 82.290661 219.468908 
L 82.941272 218.360213 
L 84.893103 216.457243 
L 85.543713 215.539014 
L 86.194323 214.424887 
L 88.146154 211.993494 
L 88.796764 210.744196 
L 89.447375 210.268085 
L 90.097985 209.225192 
L 90.748595 208.496914 
L 92.049816 205.882653 
L 92.700426 204.960163 
L 93.351037 203.742479 
L 94.001647 202.944582 
L 96.604088 198.350552 
L 97.254698 197.342903 
L 98.555919 194.782143 
L 99.85714 193.267754 
L 101.808971 190.424579 
L 102.459581 189.139611 
L 103.110191 188.363503 
L 103.760802 187.843894 
L 107.013853 183.581545 
L 108.315074 182.399487 
L 108.965684 182.115181 
L 109.616294 181.574688 
L 110.917515 180.243665 
L 111.568125 179.611942 
L 112.869346 178.917249 
L 113.519956 178.211842 
L 114.821177 177.389236 
L 115.471787 176.694711 
L 116.122398 176.360384 
L 116.773008 176.212032 
L 118.074228 175.443495 
L 118.724839 174.333753 
L 119.375449 172.879371 
L 120.026059 172.432922 
L 120.67667 172.468521 
L 122.628501 171.438675 
L 123.279111 170.811683 
L 123.929721 170.456978 
L 125.230942 169.080992 
L 125.881552 168.589802 
L 126.532163 168.28906 
L 127.182773 167.774962 
L 128.483993 167.072822 
L 129.134604 166.508916 
L 130.435824 165.727918 
L 131.737045 165.06743 
L 134.990097 161.763152 
L 136.291317 159.772111 
L 137.592538 158.865056 
L 138.243148 157.879489 
L 139.544369 157.100843 
L 140.194979 156.781259 
L 142.14681 154.101852 
L 142.79742 153.855214 
L 143.448031 152.816502 
L 144.098641 152.652591 
L 144.749251 151.981595 
L 145.399862 151.608704 
L 146.050472 151.743876 
L 146.701082 151.520066 
L 147.351692 151.170039 
L 148.002303 151.341254 
L 149.303523 148.698254 
L 149.954134 148.19944 
L 150.604744 147.996211 
L 152.556575 147.031351 
L 153.857796 146.674738 
L 154.508406 146.227552 
L 155.159016 146.174397 
L 156.460237 145.326861 
L 157.761457 144.91199 
L 159.062678 143.800783 
L 160.363899 144.076577 
L 161.014509 143.539199 
L 161.665119 143.396989 
L 162.31573 143.027525 
L 162.96634 142.78907 
L 163.61695 142.428552 
L 164.267561 141.930741 
L 164.918171 141.878305 
L 165.568781 141.158875 
L 166.219392 140.790822 
L 166.870002 140.873913 
L 168.171222 140.820475 
L 168.821833 140.472844 
L 170.773664 140.266491 
L 171.424274 139.921159 
L 172.074884 139.766736 
L 172.725495 139.383986 
L 173.376105 138.795211 
L 174.677326 137.890117 
L 175.327936 137.156833 
L 175.978546 136.948475 
L 176.629156 136.247142 
L 177.279767 135.923537 
L 177.930377 135.797355 
L 178.580987 136.169189 
L 179.231598 136.012033 
L 179.882208 135.604875 
L 180.532818 134.87783 
L 181.183429 134.511224 
L 182.484649 132.848519 
L 183.13526 132.630699 
L 183.78587 131.72447 
L 184.43648 131.874357 
L 185.087091 131.757672 
L 185.737701 131.072111 
L 186.388311 130.698582 
L 188.340142 128.71923 
L 188.990752 128.339754 
L 189.641363 127.799395 
L 190.942583 128.481787 
L 191.593194 127.612865 
L 192.243804 127.407995 
L 192.894414 126.33221 
L 194.846245 125.608458 
L 195.496856 125.076051 
L 196.147466 124.348762 
L 196.798076 123.360772 
L 197.448686 123.246732 
L 198.099297 122.882314 
L 198.749907 122.353306 
L 199.400517 122.707842 
L 200.701738 122.61591 
L 201.352348 122.989431 
L 202.002959 122.851303 
L 202.653569 121.993245 
L 203.304179 121.663773 
L 204.6054 121.243852 
L 205.25601 120.857333 
L 206.557231 120.82481 
L 207.207841 120.475599 
L 207.858451 119.780275 
L 208.509062 119.972289 
L 209.159672 119.998081 
L 209.810282 120.175465 
L 210.460893 119.974393 
L 211.111503 119.411024 
L 211.762113 118.439462 
L 212.412724 118.081926 
L 213.063334 117.894656 
L 213.713944 117.896378 
L 214.364555 118.421436 
L 215.015165 117.705007 
L 215.665775 116.816927 
L 216.316385 116.982577 
L 217.617606 115.898805 
L 218.268216 115.008848 
L 218.918827 114.633504 
L 220.220047 112.891417 
L 220.870658 112.364335 
L 221.521268 111.987016 
L 222.822489 110.824479 
L 223.473099 110.814343 
L 224.123709 110.995139 
L 224.77432 110.833625 
L 225.42493 110.278465 
L 226.07554 110.264482 
L 226.72615 109.36573 
L 228.027371 108.633231 
L 228.677981 108.088452 
L 229.328592 107.913939 
L 229.979202 107.064304 
L 230.629812 106.874597 
L 231.931033 106.198794 
L 232.581643 106.1355 
L 233.232254 105.609899 
L 234.533474 104.178824 
L 235.184085 103.826001 
L 235.834695 103.941621 
L 236.485305 103.583526 
L 237.135915 103.015643 
L 237.786526 103.037956 
L 239.087746 102.321402 
L 239.738357 102.139634 
L 240.388967 102.326244 
L 241.039577 102.18067 
L 242.340798 101.414147 
L 242.991408 101.313865 
L 244.292629 99.319393 
L 244.943239 99.311281 
L 245.59385 99.665791 
L 246.89507 99.318537 
L 248.196291 99.729813 
L 248.846901 100.274566 
L 250.148122 98.896042 
L 250.798732 98.736969 
L 251.449342 98.397729 
L 252.750563 98.421502 
L 253.401173 98.813594 
L 254.051784 98.656513 
L 254.702394 99.159415 
L 255.353004 98.22884 
L 256.003615 97.736536 
L 256.654225 98.104225 
L 257.304835 97.975474 
L 257.955445 97.99729 
L 259.256666 96.60863 
L 259.907276 96.260813 
L 260.557887 96.103767 
L 261.208497 96.479418 
L 261.859107 97.048427 
L 262.509718 96.362933 
L 263.160328 96.362148 
L 263.810938 96.906266 
L 264.461549 96.229341 
L 265.762769 95.83065 
L 266.413379 96.010438 
L 267.06399 96.509661 
L 267.7146 97.211437 
L 268.36521 98.407572 
L 269.015821 98.732677 
L 269.666431 98.396815 
L 270.317041 97.883765 
L 270.967652 97.906437 
L 272.268872 98.497968 
L 272.919483 99.040471 
L 273.570093 99.213754 
L 274.220703 98.830653 
L 274.871314 98.113668 
L 275.521924 97.791847 
L 276.172534 98.186438 
L 276.823144 98.942722 
L 277.473755 98.94515 
L 278.124365 98.435317 
L 278.774975 98.644651 
L 279.425586 98.491245 
L 280.726806 98.885449 
L 281.377417 98.563548 
L 283.329248 99.713509 
L 283.979858 99.911009 
L 285.281079 101.151698 
L 285.931689 101.165668 
L 286.582299 101.011915 
L 287.88352 101.384872 
L 288.53413 100.866878 
L 289.18474 100.868329 
L 289.835351 100.735691 
L 290.485961 100.409153 
L 291.136571 100.416945 
L 291.787182 100.597581 
L 292.437792 100.954518 
L 293.088402 100.945297 
L 293.739013 101.477118 
L 294.389623 100.954394 
L 295.690844 100.971838 
L 296.341454 100.616215 
L 296.992064 99.947065 
L 298.293285 99.329853 
L 298.943895 99.329786 
L 299.594505 99.5063 
L 300.245116 99.142813 
L 300.895726 98.439923 
L 301.546336 98.62355 
L 302.196947 99.00355 
L 302.847557 98.933416 
L 303.498167 99.28032 
L 304.148778 99.30849 
L 304.799388 99.495312 
L 305.449998 99.310163 
L 306.100608 98.761065 
L 306.751219 99.448827 
L 308.052439 99.135571 
L 308.70305 99.131613 
L 310.00427 99.51092 
L 311.305491 98.790793 
L 311.956101 99.146603 
L 312.606712 98.975282 
L 313.257322 98.065151 
L 313.907932 97.361928 
L 314.558543 97.161917 
L 315.209153 97.143447 
L 315.859763 96.771862 
L 316.510373 97.33686 
L 317.811594 97.753417 
L 318.462204 97.364151 
L 319.112815 97.341848 
L 319.763425 97.207789 
L 320.414035 97.558447 
L 321.715256 96.822931 
L 322.365866 96.242645 
L 323.016477 96.783378 
L 324.317697 97.49126 
L 325.618918 97.075737 
L 326.920138 96.332659 
L 327.570749 96.122344 
L 328.871969 95.419129 
L 329.52258 96.454891 
L 330.17319 96.073454 
L 330.8238 95.873234 
L 331.474411 95.316388 
L 332.125021 94.610911 
L 332.775631 94.803937 
L 334.076852 93.420633 
L 334.727462 97.883765 
L 335.378073 97.906437 
L 336.679293 98.497968 
L 337.329903 99.040471 
L 337.980514 99.213754 
L 338.631124 98.830653 
L 339.281734 98.113668 
L 339.932345 97.791847 
L 340.582955 98.186438 
L 341.233565 98.942722 
L 341.884176 98.94515 
L 342.534786 98.435317 
L 343.185396 98.644651 
L 343.836007 98.491245 
L 345.137227 98.885449 
L 345.787837 98.563548 
L 347.739668 99.713509 
L 348.390279 99.911009 
L 349.691499 101.151698 
L 350.34211 101.165668 
L 350.99272 101.011915 
L 352.293941 101.384872 
L 352.944551 100.866878 
L 353.595161 100.868329 
L 354.245772 100.735691 
L 354.896382 100.409153 
L 355.546992 100.416945 
L 356.197602 100.597581 
L 356.848213 100.954518 
L 357.498823 100.945297 
L 358.149433 101.477118 
L 358.800044 100.954394 
L 360.101264 100.971838 
L 360.751875 100.616215 
L 361.402485 99.947065 
L 362.703706 99.329853 
L 363.354316 99.329786 
L 364.004926 99.5063 
L 364.655537 99.142813 
L 365.306147 98.439923 
L 365.956757 98.62355 
L 366.607367 99.00355 
L 367.257978 98.933416 
L 367.908588 99.28032 
L 368.559198 99.30849 
L 369.209809 99.495312 
L 369.860419 99.310163 
L 370.511029 98.761065 
L 371.16164 99.448827 
L 372.46286 99.135571 
L 373.113471 99.131613 
L 374.414691 99.51092 
L 375.715912 98.790793 
L 376.366522 99.146603 
L 377.017132 98.975282 
L 377.667743 98.065151 
L 378.318353 97.361928 
L 378.968963 97.161917 
L 379.619574 97.143447 
L 380.270184 96.771862 
L 380.920794 97.33686 
L 382.222015 97.753417 
L 382.872625 97.364151 
L 383.523236 97.341848 
L 384.173846 97.207789 
L 384.824456 97.558447 
L 386.125677 96.822931 
L 386.776287 96.242645 
L 387.426897 96.783378 
L 388.728118 97.49126 
L 390.029339 97.075737 
L 391.330559 96.332659 
L 391.98117 96.122344 
L 393.28239 95.419129 
L 393.933001 96.454891 
L 394.583611 96.073454 
L 395.234221 95.873234 
L 395.884831 95.316388 
L 396.535442 94.610911 
L 397.186052 94.803937 
L 398.487273 93.420633 
L 398.487273 93.420633 
" clip-path="url(#p9357c26771)" style="fill: none; stroke: #ff7f0e; stroke-width: 1.5; stroke-linecap: square"/>
   </g>
   <g id="patch_3">
    <path d="M 57.6 307.584 
L 57.6 41.472 
" style="fill: none; stroke: #000000; stroke-width: 0.8; stroke-linejoin: miter; stroke-linecap: square"/>
   </g>
   <g id="patch_4">
    <path d="M 414.72 307.584 
L 414.72 41.472 
" style="fill: none; stroke: #000000; stroke-width: 0.8; stroke-linejoin: miter; stroke-linecap: square"/>
   </g>
   <g id="patch_5">
    <path d="M 57.6 307.584 
L 414.72 307.584 
" style="fill: none; stroke: #000000; stroke-width: 0.8; stroke-linejoin: miter; stroke-linecap: square"/>
   </g>
   <g id="patch_6">
    <path d="M 57.6 41.472 
L 414.72 41.472 
" style="fill: none; stroke: #000000; stroke-width: 0.8; stroke-linejoin: miter; stroke-linecap: square"/>
   </g>
   <g id="text_16">
    <!-- RESULT -->
    <g transform="translate(213.816563 35.472) scale(0.12 -0.12)">
     <defs>
      <path id="DejaVuSans-4c" d="M 628 4666 
L 1259 4666 
L 1259 531 
L 3531 531 
L 3531 0 
L 628 0 
L 628 4666 
z
" transform="scale(0.015625)"/>
     </defs>
     <use xlink:href="#DejaVuSans-52"/>
     <use xlink:href="#DejaVuSans-45" x="69.482422"/>
     <use xlink:href="#DejaVuSans-53" x="132.666016"/>
     <use xlink:href="#DejaVuSans-55" x="196.142578"/>
     <use xlink:href="#DejaVuSans-4c" x="269.335938"/>
     <use xlink:href="#DejaVuSans-54" x="311.298828"/>
    </g>
   </g>
  </g>
 </g>
 <defs>
  <clipPath id="p9357c26771">
   <rect x="57.6" y="41.472" width="357.12" height="266.112"/>
  </clipPath>
 </defs>
</svg>
