<?xml version="1.0" encoding="utf-8" standalone="no"?>
<!DOCTYPE svg PUBLIC "-//W3C//DTD SVG 1.1//EN"
  "http://www.w3.org/Graphics/SVG/1.1/DTD/svg11.dtd">
<svg xmlns:xlink="http://www.w3.org/1999/xlink" width="460.8pt" height="345.6pt" viewBox="0 0 460.8 345.6" xmlns="http://www.w3.org/2000/svg" version="1.1">
 <metadata>
  <rdf:RDF xmlns:dc="http://purl.org/dc/elements/1.1/" xmlns:cc="http://creativecommons.org/ns#" xmlns:rdf="http://www.w3.org/1999/02/22-rdf-syntax-ns#">
   <cc:Work>
    <dc:type rdf:resource="http://purl.org/dc/dcmitype/StillImage"/>
    <dc:date>2023-03-29T13:28:05.999081</dc:date>
    <dc:format>image/svg+xml</dc:format>
    <dc:creator>
     <cc:Agent>
      <dc:title>Matplotlib v3.6.2, https://matplotlib.org/</dc:title>
     </cc:Agent>
    </dc:creator>
   </cc:Work>
  </rdf:RDF>
 </metadata>
 <defs>
  <style type="text/css">*{stroke-linejoin: round; stroke-linecap: butt}</style>
 </defs>
 <g id="figure_1">
  <g id="patch_1">
   <path d="M 0 345.6 
L 460.8 345.6 
L 460.8 0 
L 0 0 
z
" style="fill: #ffffff"/>
  </g>
  <g id="axes_1">
   <g id="patch_2">
    <path d="M 57.6 307.584 
L 414.72 307.584 
L 414.72 41.472 
L 57.6 41.472 
z
" style="fill: #ffffff"/>
   </g>
   <g id="matplotlib.axis_1">
    <g id="xtick_1">
     <g id="line2d_1">
      <defs>
       <path id="ma57aecc143" d="M 0 0 
L 0 3.5 
" style="stroke: #000000; stroke-width: 0.8"/>
      </defs>
      <g>
       <use xlink:href="#ma57aecc143" x="73.832727" y="307.584" style="stroke: #000000; stroke-width: 0.8"/>
      </g>
     </g>
     <g id="text_1">
      <!-- 0 -->
      <g transform="translate(70.651477 322.182437) scale(0.1 -0.1)">
       <defs>
        <path id="DejaVuSans-30" d="M 2034 4250 
Q 1547 4250 1301 3770 
Q 1056 3291 1056 2328 
Q 1056 1369 1301 889 
Q 1547 409 2034 409 
Q 2525 409 2770 889 
Q 3016 1369 3016 2328 
Q 3016 3291 2770 3770 
Q 2525 4250 2034 4250 
z
M 2034 4750 
Q 2819 4750 3233 4129 
Q 3647 3509 3647 2328 
Q 3647 1150 3233 529 
Q 2819 -91 2034 -91 
Q 1250 -91 836 529 
Q 422 1150 422 2328 
Q 422 3509 836 4129 
Q 1250 4750 2034 4750 
z
" transform="scale(0.015625)"/>
       </defs>
       <use xlink:href="#DejaVuSans-30"/>
      </g>
     </g>
    </g>
    <g id="xtick_2">
     <g id="line2d_2">
      <g>
       <use xlink:href="#ma57aecc143" x="138.893758" y="307.584" style="stroke: #000000; stroke-width: 0.8"/>
      </g>
     </g>
     <g id="text_2">
      <!-- 100 -->
      <g transform="translate(129.350008 322.182437) scale(0.1 -0.1)">
       <defs>
        <path id="DejaVuSans-31" d="M 794 531 
L 1825 531 
L 1825 4091 
L 703 3866 
L 703 4441 
L 1819 4666 
L 2450 4666 
L 2450 531 
L 3481 531 
L 3481 0 
L 794 0 
L 794 531 
z
" transform="scale(0.015625)"/>
       </defs>
       <use xlink:href="#DejaVuSans-31"/>
       <use xlink:href="#DejaVuSans-30" x="63.623047"/>
       <use xlink:href="#DejaVuSans-30" x="127.246094"/>
      </g>
     </g>
    </g>
    <g id="xtick_3">
     <g id="line2d_3">
      <g>
       <use xlink:href="#ma57aecc143" x="203.95479" y="307.584" style="stroke: #000000; stroke-width: 0.8"/>
      </g>
     </g>
     <g id="text_3">
      <!-- 200 -->
      <g transform="translate(194.41104 322.182437) scale(0.1 -0.1)">
       <defs>
        <path id="DejaVuSans-32" d="M 1228 531 
L 3431 531 
L 3431 0 
L 469 0 
L 469 531 
Q 828 903 1448 1529 
Q 2069 2156 2228 2338 
Q 2531 2678 2651 2914 
Q 2772 3150 2772 3378 
Q 2772 3750 2511 3984 
Q 2250 4219 1831 4219 
Q 1534 4219 1204 4116 
Q 875 4013 500 3803 
L 500 4441 
Q 881 4594 1212 4672 
Q 1544 4750 1819 4750 
Q 2544 4750 2975 4387 
Q 3406 4025 3406 3419 
Q 3406 3131 3298 2873 
Q 3191 2616 2906 2266 
Q 2828 2175 2409 1742 
Q 1991 1309 1228 531 
z
" transform="scale(0.015625)"/>
       </defs>
       <use xlink:href="#DejaVuSans-32"/>
       <use xlink:href="#DejaVuSans-30" x="63.623047"/>
       <use xlink:href="#DejaVuSans-30" x="127.246094"/>
      </g>
     </g>
    </g>
    <g id="xtick_4">
     <g id="line2d_4">
      <g>
       <use xlink:href="#ma57aecc143" x="269.015821" y="307.584" style="stroke: #000000; stroke-width: 0.8"/>
      </g>
     </g>
     <g id="text_4">
      <!-- 300 -->
      <g transform="translate(259.472071 322.182437) scale(0.1 -0.1)">
       <defs>
        <path id="DejaVuSans-33" d="M 2597 2516 
Q 3050 2419 3304 2112 
Q 3559 1806 3559 1356 
Q 3559 666 3084 287 
Q 2609 -91 1734 -91 
Q 1441 -91 1130 -33 
Q 819 25 488 141 
L 488 750 
Q 750 597 1062 519 
Q 1375 441 1716 441 
Q 2309 441 2620 675 
Q 2931 909 2931 1356 
Q 2931 1769 2642 2001 
Q 2353 2234 1838 2234 
L 1294 2234 
L 1294 2753 
L 1863 2753 
Q 2328 2753 2575 2939 
Q 2822 3125 2822 3475 
Q 2822 3834 2567 4026 
Q 2313 4219 1838 4219 
Q 1578 4219 1281 4162 
Q 984 4106 628 3988 
L 628 4550 
Q 988 4650 1302 4700 
Q 1616 4750 1894 4750 
Q 2613 4750 3031 4423 
Q 3450 4097 3450 3541 
Q 3450 3153 3228 2886 
Q 3006 2619 2597 2516 
z
" transform="scale(0.015625)"/>
       </defs>
       <use xlink:href="#DejaVuSans-33"/>
       <use xlink:href="#DejaVuSans-30" x="63.623047"/>
       <use xlink:href="#DejaVuSans-30" x="127.246094"/>
      </g>
     </g>
    </g>
    <g id="xtick_5">
     <g id="line2d_5">
      <g>
       <use xlink:href="#ma57aecc143" x="334.076852" y="307.584" style="stroke: #000000; stroke-width: 0.8"/>
      </g>
     </g>
     <g id="text_5">
      <!-- 400 -->
      <g transform="translate(324.533102 322.182437) scale(0.1 -0.1)">
       <defs>
        <path id="DejaVuSans-34" d="M 2419 4116 
L 825 1625 
L 2419 1625 
L 2419 4116 
z
M 2253 4666 
L 3047 4666 
L 3047 1625 
L 3713 1625 
L 3713 1100 
L 3047 1100 
L 3047 0 
L 2419 0 
L 2419 1100 
L 313 1100 
L 313 1709 
L 2253 4666 
z
" transform="scale(0.015625)"/>
       </defs>
       <use xlink:href="#DejaVuSans-34"/>
       <use xlink:href="#DejaVuSans-30" x="63.623047"/>
       <use xlink:href="#DejaVuSans-30" x="127.246094"/>
      </g>
     </g>
    </g>
    <g id="xtick_6">
     <g id="line2d_6">
      <g>
       <use xlink:href="#ma57aecc143" x="399.137883" y="307.584" style="stroke: #000000; stroke-width: 0.8"/>
      </g>
     </g>
     <g id="text_6">
      <!-- 500 -->
      <g transform="translate(389.594133 322.182437) scale(0.1 -0.1)">
       <defs>
        <path id="DejaVuSans-35" d="M 691 4666 
L 3169 4666 
L 3169 4134 
L 1269 4134 
L 1269 2991 
Q 1406 3038 1543 3061 
Q 1681 3084 1819 3084 
Q 2600 3084 3056 2656 
Q 3513 2228 3513 1497 
Q 3513 744 3044 326 
Q 2575 -91 1722 -91 
Q 1428 -91 1123 -41 
Q 819 9 494 109 
L 494 744 
Q 775 591 1075 516 
Q 1375 441 1709 441 
Q 2250 441 2565 725 
Q 2881 1009 2881 1497 
Q 2881 1984 2565 2268 
Q 2250 2553 1709 2553 
Q 1456 2553 1204 2497 
Q 953 2441 691 2322 
L 691 4666 
z
" transform="scale(0.015625)"/>
       </defs>
       <use xlink:href="#DejaVuSans-35"/>
       <use xlink:href="#DejaVuSans-30" x="63.623047"/>
       <use xlink:href="#DejaVuSans-30" x="127.246094"/>
      </g>
     </g>
    </g>
    <g id="text_7">
     <!-- EPISODE -->
     <g transform="translate(214.39125 335.860562) scale(0.1 -0.1)">
      <defs>
       <path id="DejaVuSans-45" d="M 628 4666 
L 3578 4666 
L 3578 4134 
L 1259 4134 
L 1259 2753 
L 3481 2753 
L 3481 2222 
L 1259 2222 
L 1259 531 
L 3634 531 
L 3634 0 
L 628 0 
L 628 4666 
z
" transform="scale(0.015625)"/>
       <path id="DejaVuSans-50" d="M 1259 4147 
L 1259 2394 
L 2053 2394 
Q 2494 2394 2734 2622 
Q 2975 2850 2975 3272 
Q 2975 3691 2734 3919 
Q 2494 4147 2053 4147 
L 1259 4147 
z
M 628 4666 
L 2053 4666 
Q 2838 4666 3239 4311 
Q 3641 3956 3641 3272 
Q 3641 2581 3239 2228 
Q 2838 1875 2053 1875 
L 1259 1875 
L 1259 0 
L 628 0 
L 628 4666 
z
" transform="scale(0.015625)"/>
       <path id="DejaVuSans-49" d="M 628 4666 
L 1259 4666 
L 1259 0 
L 628 0 
L 628 4666 
z
" transform="scale(0.015625)"/>
       <path id="DejaVuSans-53" d="M 3425 4513 
L 3425 3897 
Q 3066 4069 2747 4153 
Q 2428 4238 2131 4238 
Q 1616 4238 1336 4038 
Q 1056 3838 1056 3469 
Q 1056 3159 1242 3001 
Q 1428 2844 1947 2747 
L 2328 2669 
Q 3034 2534 3370 2195 
Q 3706 1856 3706 1288 
Q 3706 609 3251 259 
Q 2797 -91 1919 -91 
Q 1588 -91 1214 -16 
Q 841 59 441 206 
L 441 856 
Q 825 641 1194 531 
Q 1563 422 1919 422 
Q 2459 422 2753 634 
Q 3047 847 3047 1241 
Q 3047 1584 2836 1778 
Q 2625 1972 2144 2069 
L 1759 2144 
Q 1053 2284 737 2584 
Q 422 2884 422 3419 
Q 422 4038 858 4394 
Q 1294 4750 2059 4750 
Q 2388 4750 2728 4690 
Q 3069 4631 3425 4513 
z
" transform="scale(0.015625)"/>
       <path id="DejaVuSans-4f" d="M 2522 4238 
Q 1834 4238 1429 3725 
Q 1025 3213 1025 2328 
Q 1025 1447 1429 934 
Q 1834 422 2522 422 
Q 3209 422 3611 934 
Q 4013 1447 4013 2328 
Q 4013 3213 3611 3725 
Q 3209 4238 2522 4238 
z
M 2522 4750 
Q 3503 4750 4090 4092 
Q 4678 3434 4678 2328 
Q 4678 1225 4090 567 
Q 3503 -91 2522 -91 
Q 1538 -91 948 565 
Q 359 1222 359 2328 
Q 359 3434 948 4092 
Q 1538 4750 2522 4750 
z
" transform="scale(0.015625)"/>
       <path id="DejaVuSans-44" d="M 1259 4147 
L 1259 519 
L 2022 519 
Q 2988 519 3436 956 
Q 3884 1394 3884 2338 
Q 3884 3275 3436 3711 
Q 2988 4147 2022 4147 
L 1259 4147 
z
M 628 4666 
L 1925 4666 
Q 3281 4666 3915 4102 
Q 4550 3538 4550 2338 
Q 4550 1131 3912 565 
Q 3275 0 1925 0 
L 628 0 
L 628 4666 
z
" transform="scale(0.015625)"/>
      </defs>
      <use xlink:href="#DejaVuSans-45"/>
      <use xlink:href="#DejaVuSans-50" x="63.183594"/>
      <use xlink:href="#DejaVuSans-49" x="123.486328"/>
      <use xlink:href="#DejaVuSans-53" x="152.978516"/>
      <use xlink:href="#DejaVuSans-4f" x="216.455078"/>
      <use xlink:href="#DejaVuSans-44" x="295.166016"/>
      <use xlink:href="#DejaVuSans-45" x="372.167969"/>
     </g>
    </g>
   </g>
   <g id="matplotlib.axis_2">
    <g id="ytick_1">
     <g id="line2d_7">
      <defs>
       <path id="m2df96d64a5" d="M 0 0 
L -3.5 0 
" style="stroke: #000000; stroke-width: 0.8"/>
      </defs>
      <g>
       <use xlink:href="#m2df96d64a5" x="57.6" y="295.597885" style="stroke: #000000; stroke-width: 0.8"/>
      </g>
     </g>
     <g id="text_8">
      <!-- −1750 -->
      <g transform="translate(16.770313 299.397104) scale(0.1 -0.1)">
       <defs>
        <path id="DejaVuSans-2212" d="M 678 2272 
L 4684 2272 
L 4684 1741 
L 678 1741 
L 678 2272 
z
" transform="scale(0.015625)"/>
        <path id="DejaVuSans-37" d="M 525 4666 
L 3525 4666 
L 3525 4397 
L 1831 0 
L 1172 0 
L 2766 4134 
L 525 4134 
L 525 4666 
z
" transform="scale(0.015625)"/>
       </defs>
       <use xlink:href="#DejaVuSans-2212"/>
       <use xlink:href="#DejaVuSans-31" x="83.789062"/>
       <use xlink:href="#DejaVuSans-37" x="147.412109"/>
       <use xlink:href="#DejaVuSans-35" x="211.035156"/>
       <use xlink:href="#DejaVuSans-30" x="274.658203"/>
      </g>
     </g>
    </g>
    <g id="ytick_2">
     <g id="line2d_8">
      <g>
       <use xlink:href="#m2df96d64a5" x="57.6" y="261.018865" style="stroke: #000000; stroke-width: 0.8"/>
      </g>
     </g>
     <g id="text_9">
      <!-- −1500 -->
      <g transform="translate(16.770313 264.818083) scale(0.1 -0.1)">
       <use xlink:href="#DejaVuSans-2212"/>
       <use xlink:href="#DejaVuSans-31" x="83.789062"/>
       <use xlink:href="#DejaVuSans-35" x="147.412109"/>
       <use xlink:href="#DejaVuSans-30" x="211.035156"/>
       <use xlink:href="#DejaVuSans-30" x="274.658203"/>
      </g>
     </g>
    </g>
    <g id="ytick_3">
     <g id="line2d_9">
      <g>
       <use xlink:href="#m2df96d64a5" x="57.6" y="226.439844" style="stroke: #000000; stroke-width: 0.8"/>
      </g>
     </g>
     <g id="text_10">
      <!-- −1250 -->
      <g transform="translate(16.770313 230.239063) scale(0.1 -0.1)">
       <use xlink:href="#DejaVuSans-2212"/>
       <use xlink:href="#DejaVuSans-31" x="83.789062"/>
       <use xlink:href="#DejaVuSans-32" x="147.412109"/>
       <use xlink:href="#DejaVuSans-35" x="211.035156"/>
       <use xlink:href="#DejaVuSans-30" x="274.658203"/>
      </g>
     </g>
    </g>
    <g id="ytick_4">
     <g id="line2d_10">
      <g>
       <use xlink:href="#m2df96d64a5" x="57.6" y="191.860824" style="stroke: #000000; stroke-width: 0.8"/>
      </g>
     </g>
     <g id="text_11">
      <!-- −1000 -->
      <g transform="translate(16.770313 195.660043) scale(0.1 -0.1)">
       <use xlink:href="#DejaVuSans-2212"/>
       <use xlink:href="#DejaVuSans-31" x="83.789062"/>
       <use xlink:href="#DejaVuSans-30" x="147.412109"/>
       <use xlink:href="#DejaVuSans-30" x="211.035156"/>
       <use xlink:href="#DejaVuSans-30" x="274.658203"/>
      </g>
     </g>
    </g>
    <g id="ytick_5">
     <g id="line2d_11">
      <g>
       <use xlink:href="#m2df96d64a5" x="57.6" y="157.281804" style="stroke: #000000; stroke-width: 0.8"/>
      </g>
     </g>
     <g id="text_12">
      <!-- −750 -->
      <g transform="translate(23.132812 161.081023) scale(0.1 -0.1)">
       <use xlink:href="#DejaVuSans-2212"/>
       <use xlink:href="#DejaVuSans-37" x="83.789062"/>
       <use xlink:href="#DejaVuSans-35" x="147.412109"/>
       <use xlink:href="#DejaVuSans-30" x="211.035156"/>
      </g>
     </g>
    </g>
    <g id="ytick_6">
     <g id="line2d_12">
      <g>
       <use xlink:href="#m2df96d64a5" x="57.6" y="122.702783" style="stroke: #000000; stroke-width: 0.8"/>
      </g>
     </g>
     <g id="text_13">
      <!-- −500 -->
      <g transform="translate(23.132812 126.502002) scale(0.1 -0.1)">
       <use xlink:href="#DejaVuSans-2212"/>
       <use xlink:href="#DejaVuSans-35" x="83.789062"/>
       <use xlink:href="#DejaVuSans-30" x="147.412109"/>
       <use xlink:href="#DejaVuSans-30" x="211.035156"/>
      </g>
     </g>
    </g>
    <g id="ytick_7">
     <g id="line2d_13">
      <g>
       <use xlink:href="#m2df96d64a5" x="57.6" y="88.123763" style="stroke: #000000; stroke-width: 0.8"/>
      </g>
     </g>
     <g id="text_14">
      <!-- −250 -->
      <g transform="translate(23.132812 91.922982) scale(0.1 -0.1)">
       <use xlink:href="#DejaVuSans-2212"/>
       <use xlink:href="#DejaVuSans-32" x="83.789062"/>
       <use xlink:href="#DejaVuSans-35" x="147.412109"/>
       <use xlink:href="#DejaVuSans-30" x="211.035156"/>
      </g>
     </g>
    </g>
    <g id="ytick_8">
     <g id="line2d_14">
      <g>
       <use xlink:href="#m2df96d64a5" x="57.6" y="53.544743" style="stroke: #000000; stroke-width: 0.8"/>
      </g>
     </g>
     <g id="text_15">
      <!-- 0 -->
      <g transform="translate(44.2375 57.343962) scale(0.1 -0.1)">
       <use xlink:href="#DejaVuSans-30"/>
      </g>
     </g>
    </g>
    <g id="text_16">
     <!-- RETURN -->
     <g transform="translate(10.690625 195.089719) rotate(-90) scale(0.1 -0.1)">
      <defs>
       <path id="DejaVuSans-52" d="M 2841 2188 
Q 3044 2119 3236 1894 
Q 3428 1669 3622 1275 
L 4263 0 
L 3584 0 
L 2988 1197 
Q 2756 1666 2539 1819 
Q 2322 1972 1947 1972 
L 1259 1972 
L 1259 0 
L 628 0 
L 628 4666 
L 2053 4666 
Q 2853 4666 3247 4331 
Q 3641 3997 3641 3322 
Q 3641 2881 3436 2590 
Q 3231 2300 2841 2188 
z
M 1259 4147 
L 1259 2491 
L 2053 2491 
Q 2509 2491 2742 2702 
Q 2975 2913 2975 3322 
Q 2975 3731 2742 3939 
Q 2509 4147 2053 4147 
L 1259 4147 
z
" transform="scale(0.015625)"/>
       <path id="DejaVuSans-54" d="M -19 4666 
L 3928 4666 
L 3928 4134 
L 2272 4134 
L 2272 0 
L 1638 0 
L 1638 4134 
L -19 4134 
L -19 4666 
z
" transform="scale(0.015625)"/>
       <path id="DejaVuSans-55" d="M 556 4666 
L 1191 4666 
L 1191 1831 
Q 1191 1081 1462 751 
Q 1734 422 2344 422 
Q 2950 422 3222 751 
Q 3494 1081 3494 1831 
L 3494 4666 
L 4128 4666 
L 4128 1753 
Q 4128 841 3676 375 
Q 3225 -91 2344 -91 
Q 1459 -91 1007 375 
Q 556 841 556 1753 
L 556 4666 
z
" transform="scale(0.015625)"/>
       <path id="DejaVuSans-4e" d="M 628 4666 
L 1478 4666 
L 3547 763 
L 3547 4666 
L 4159 4666 
L 4159 0 
L 3309 0 
L 1241 3903 
L 1241 0 
L 628 0 
L 628 4666 
z
" transform="scale(0.015625)"/>
      </defs>
      <use xlink:href="#DejaVuSans-52"/>
      <use xlink:href="#DejaVuSans-45" x="69.482422"/>
      <use xlink:href="#DejaVuSans-54" x="132.666016"/>
      <use xlink:href="#DejaVuSans-55" x="193.75"/>
      <use xlink:href="#DejaVuSans-52" x="266.943359"/>
      <use xlink:href="#DejaVuSans-4e" x="336.425781"/>
     </g>
    </g>
   </g>
   <g id="line2d_15">
    <path d="M 73.832727 224.657623 
L 75.133948 284.912495 
L 75.784558 278.209631 
L 76.435169 261.111133 
L 77.085779 283.458588 
L 77.736389 288.872426 
L 78.386999 295.488 
L 79.03761 292.905524 
L 79.68822 294.343472 
L 80.33883 251.495654 
L 80.989441 248.063975 
L 81.640051 176.523984 
L 82.290661 178.432819 
L 82.941272 141.856239 
L 83.591882 197.758879 
L 84.242492 142.406351 
L 84.893103 143.768243 
L 85.543713 145.390563 
L 86.194323 145.141887 
L 86.844934 279.389497 
L 87.495544 145.405867 
L 88.146154 119.848056 
L 88.796764 107.395741 
L 89.447375 128.557608 
L 90.097985 214.350615 
L 90.748595 142.780289 
L 91.399206 179.502809 
L 92.700426 106.516013 
L 93.351037 54.728254 
L 94.001647 126.775152 
L 94.652257 124.935905 
L 95.302868 125.626206 
L 95.953478 138.755624 
L 96.604088 141.14284 
L 97.254698 141.47778 
L 97.905309 128.552918 
L 98.555919 125.033771 
L 99.206529 138.217856 
L 99.85714 107.965275 
L 100.50775 107.754477 
L 101.15836 106.725717 
L 101.808971 89.671752 
L 103.110191 122.078877 
L 103.760802 123.530807 
L 104.411412 102.763046 
L 105.062022 90.482665 
L 105.712633 106.137783 
L 106.363243 107.022349 
L 107.013853 105.848828 
L 107.664463 89.078211 
L 108.315074 88.151054 
L 108.965684 53.889599 
L 109.616294 89.170982 
L 110.266905 70.609921 
L 110.917515 109.676566 
L 111.568125 87.059018 
L 112.218736 70.941147 
L 112.869346 88.114107 
L 113.519956 53.927693 
L 115.471787 54.102068 
L 116.122398 70.291972 
L 116.773008 71.323906 
L 117.423618 86.7456 
L 118.074228 54.318565 
L 118.724839 71.501401 
L 119.375449 71.632508 
L 120.026059 54.786162 
L 120.67667 54.615567 
L 121.32728 89.163469 
L 121.97789 71.738989 
L 122.628501 89.281033 
L 123.279111 89.268611 
L 123.929721 71.842885 
L 124.580332 120.523582 
L 125.230942 87.270766 
L 125.881552 89.068057 
L 126.532163 70.952164 
L 127.182773 100.582639 
L 127.833383 70.419848 
L 128.483993 122.393153 
L 129.134604 53.723875 
L 130.435824 88.604806 
L 131.086435 120.591087 
L 131.737045 70.08026 
L 132.387655 71.427393 
L 133.038266 70.157034 
L 133.688876 53.583792 
L 134.990097 86.509877 
L 135.640707 88.155561 
L 136.291317 86.803549 
L 136.941927 122.280312 
L 137.592538 86.106553 
L 138.243148 70.156571 
L 138.893758 101.885091 
L 139.544369 88.454667 
L 140.194979 87.584849 
L 140.845589 85.30297 
L 142.14681 53.912295 
L 142.79742 88.411407 
L 143.448031 86.536271 
L 144.098641 106.075557 
L 144.749251 118.255703 
L 145.399862 102.194939 
L 146.050472 103.28104 
L 146.701082 70.736373 
L 147.351692 103.609402 
L 148.002303 86.817007 
L 148.652913 85.354244 
L 149.303523 87.22062 
L 149.954134 87.095444 
L 150.604744 72.408452 
L 151.255354 125.421474 
L 151.905965 70.931117 
L 152.556575 53.671745 
L 153.207185 71.038804 
L 153.857796 71.2881 
L 154.508406 72.210995 
L 155.159016 85.566016 
L 155.809627 69.942161 
L 156.460237 71.473303 
L 157.110847 70.666798 
L 157.761457 70.328483 
L 158.412068 84.67194 
L 159.062678 71.696504 
L 159.713288 105.28322 
L 160.363899 70.57923 
L 161.014509 53.742134 
L 161.665119 70.379425 
L 162.31573 70.60508 
L 162.96634 70.975879 
L 164.918171 123.307904 
L 165.568781 103.805014 
L 166.219392 88.506935 
L 166.870002 124.197988 
L 167.520612 152.297433 
L 168.171222 124.092357 
L 168.821833 116.979848 
L 170.123053 56.96314 
L 170.773664 90.551236 
L 171.424274 57.346784 
L 172.074884 56.019097 
L 172.725495 118.378993 
L 173.376105 53.568 
L 174.026715 90.364892 
L 174.677326 118.913946 
L 175.327936 89.524055 
L 175.978546 91.115099 
L 176.629156 87.493635 
L 177.279767 106.492189 
L 178.580987 70.690345 
L 179.231598 87.505741 
L 179.882208 53.590895 
L 180.532818 72.187649 
L 181.183429 71.762992 
L 181.834039 71.115294 
L 182.484649 101.120506 
L 183.13526 70.58811 
L 183.78587 71.013436 
L 184.43648 54.222312 
L 185.087091 71.938149 
L 185.737701 117.942149 
L 186.388311 105.823125 
L 187.038921 88.439936 
L 187.689532 87.693364 
L 188.340142 71.684363 
L 188.990752 71.051812 
L 189.641363 71.604305 
L 190.291973 87.760722 
L 190.942583 88.771063 
L 191.593194 54.433276 
L 192.243804 146.934693 
L 192.894414 107.144142 
L 193.545025 89.476855 
L 194.195635 106.434928 
L 194.846245 136.303139 
L 195.496856 89.598689 
L 196.147466 123.124645 
L 196.798076 121.300437 
L 197.448686 126.233387 
L 198.099297 54.270818 
L 198.749907 71.427728 
L 199.400517 54.036409 
L 200.701738 86.477123 
L 201.352348 119.708691 
L 202.002959 53.720255 
L 202.653569 86.843028 
L 203.304179 53.723367 
L 203.95479 87.649846 
L 204.6054 102.732781 
L 205.25601 70.390174 
L 206.557231 106.562384 
L 207.207841 70.441461 
L 207.858451 101.966632 
L 208.509062 87.873312 
L 209.159672 103.93849 
L 210.460893 70.338115 
L 211.111503 106.331776 
L 211.762113 53.759844 
L 212.412724 71.017946 
L 213.063334 70.605969 
L 213.713944 87.469289 
L 214.364555 87.033356 
L 215.015165 71.314008 
L 215.665775 103.698522 
L 216.316385 70.890612 
L 216.966996 87.882476 
L 217.617606 89.562605 
L 218.268216 71.620672 
L 218.918827 87.867052 
L 219.569437 54.809803 
L 220.870658 128.168683 
L 221.521268 123.14807 
L 222.171878 86.990844 
L 223.473099 156.047868 
L 224.123709 106.364344 
L 224.77432 121.737811 
L 225.42493 54.215449 
L 226.07554 70.936736 
L 226.72615 151.184276 
L 227.376761 153.717561 
L 228.027371 126.290005 
L 228.677981 106.849612 
L 229.328592 70.787155 
L 230.629812 142.173671 
L 231.280423 70.313442 
L 231.931033 135.045382 
L 232.581643 87.525254 
L 233.232254 123.901947 
L 233.882864 133.578176 
L 234.533474 124.275238 
L 235.184085 146.0189 
L 235.834695 124.191432 
L 236.485305 123.793115 
L 237.135915 89.198044 
L 237.786526 85.391249 
L 238.437136 53.696866 
L 239.087746 70.959003 
L 239.738357 53.815583 
L 240.388967 102.722702 
L 241.690188 70.732441 
L 242.340798 120.762842 
L 242.991408 71.000776 
L 243.642019 70.886508 
L 244.292629 121.575777 
L 244.943239 71.200233 
L 245.59385 87.505804 
L 246.24446 117.116332 
L 246.89507 70.71484 
L 247.54568 70.869611 
L 248.196291 71.354884 
L 248.846901 103.090673 
L 249.497511 71.002678 
L 250.148122 70.906245 
L 250.798732 70.656288 
L 251.449342 89.067209 
L 252.099953 86.499259 
L 252.750563 177.2765 
L 253.401173 70.677759 
L 254.051784 88.247555 
L 254.702394 71.148397 
L 256.003615 70.692504 
L 256.654225 71.235214 
L 257.304835 89.330967 
L 257.955445 102.564319 
L 258.606056 118.58447 
L 259.907276 85.732292 
L 260.557887 136.727299 
L 261.208497 71.268704 
L 261.859107 71.852969 
L 263.160328 158.859887 
L 263.810938 53.742033 
L 264.461549 141.304085 
L 265.112159 125.471178 
L 265.762769 93.615198 
L 266.413379 107.650817 
L 267.06399 107.773185 
L 267.7146 124.726825 
L 269.015821 53.671101 
L 269.666431 138.308025 
L 270.317041 53.813634 
L 270.967652 70.523517 
L 271.618262 141.901849 
L 272.268872 70.328809 
L 272.919483 120.488193 
L 273.570093 53.761254 
L 274.220703 100.48017 
L 275.521924 73.369048 
L 276.172534 71.421395 
L 276.823144 88.598446 
L 277.473755 88.186831 
L 278.124365 103.298175 
L 278.774975 88.424205 
L 279.425586 108.436204 
L 280.076196 70.055357 
L 280.726806 70.706739 
L 281.377417 70.713008 
L 282.028027 53.782879 
L 282.678637 88.253523 
L 283.329248 105.311388 
L 283.979858 70.80591 
L 284.630468 88.162206 
L 285.281079 70.45831 
L 286.582299 73.197595 
L 287.232909 70.668459 
L 287.88352 53.719918 
L 288.53413 56.637903 
L 289.18474 124.769524 
L 289.835351 71.72882 
L 290.485961 136.877782 
L 291.136571 125.751604 
L 291.787182 153.143503 
L 292.437792 141.081931 
L 293.088402 112.421556 
L 293.739013 124.605052 
L 295.040233 92.834698 
L 295.690844 110.702161 
L 296.341454 140.729615 
L 296.992064 72.864206 
L 297.642674 111.298132 
L 298.293285 141.056047 
L 298.943895 138.139221 
L 299.594505 124.052287 
L 300.245116 124.274755 
L 300.895726 143.782771 
L 301.546336 123.533497 
L 302.196947 125.062734 
L 302.847557 110.167736 
L 303.498167 107.005178 
L 304.148778 121.937198 
L 304.799388 107.656709 
L 305.449998 109.175066 
L 306.100608 124.475164 
L 306.751219 107.228523 
L 307.401829 122.37359 
L 308.052439 106.90082 
L 309.35366 141.357702 
L 310.00427 87.333807 
L 310.654881 124.670677 
L 311.305491 120.965947 
L 311.956101 125.823345 
L 312.606712 70.684379 
L 313.257322 71.515631 
L 313.907932 70.657035 
L 314.558543 70.932028 
L 315.209153 71.549505 
L 315.859763 102.454264 
L 316.510373 73.88707 
L 317.160984 117.4462 
L 317.811594 91.378557 
L 318.462204 87.736776 
L 319.112815 103.017924 
L 319.763425 101.821761 
L 320.414035 71.142788 
L 321.064646 89.299721 
L 321.715256 54.902412 
L 322.365866 119.957987 
L 323.016477 71.899572 
L 323.667087 89.154806 
L 324.317697 109.472059 
L 324.968308 137.653456 
L 325.618918 139.761663 
L 326.269528 106.850617 
L 326.920138 105.036296 
L 327.570749 88.133747 
L 328.221359 54.049626 
L 328.871969 89.460225 
L 329.52258 88.630713 
L 330.8238 53.805248 
L 331.474411 53.92653 
L 332.125021 70.172891 
L 332.775631 260.015779 
L 333.426242 157.220434 
L 334.076852 86.084239 
L 334.727462 87.442438 
L 335.378073 86.883021 
L 336.028683 71.574014 
L 336.679293 71.572119 
L 337.980514 105.373239 
L 338.631124 102.545055 
L 339.281734 120.124823 
L 339.932345 123.403994 
L 340.582955 138.906744 
L 341.233565 91.611379 
L 341.884176 106.227402 
L 342.534786 56.066005 
L 343.185396 160.515885 
L 343.836007 123.211674 
L 344.486617 108.159004 
L 345.137227 101.850042 
L 345.787837 89.348027 
L 346.438448 103.592062 
L 347.089058 72.053179 
L 347.739668 71.397049 
L 348.390279 109.865432 
L 349.040889 53.919924 
L 349.691499 103.208249 
L 350.34211 72.023674 
L 350.99272 70.344271 
L 351.64333 105.736339 
L 352.293941 105.854965 
L 352.944551 106.916367 
L 353.595161 53.873273 
L 354.245772 87.351292 
L 354.896382 103.29197 
L 355.546992 104.137238 
L 356.197602 73.684018 
L 357.498823 105.258363 
L 358.149433 57.327404 
L 358.800044 90.839611 
L 359.450654 74.601877 
L 360.101264 74.03341 
L 360.751875 73.687838 
L 361.402485 73.166735 
L 362.053095 70.295207 
L 362.703706 86.7824 
L 363.354316 88.884171 
L 364.004926 70.773475 
L 364.655537 121.860159 
L 365.306147 70.491871 
L 365.956757 117.256951 
L 366.607367 88.718227 
L 367.257978 70.598707 
L 367.908588 104.977029 
L 368.559198 69.986264 
L 369.209809 89.165152 
L 369.860419 89.119066 
L 370.511029 120.512602 
L 371.16164 88.78003 
L 371.81225 121.559438 
L 372.46286 88.881069 
L 373.113471 88.416901 
L 373.764081 88.314485 
L 374.414691 53.649496 
L 375.065302 107.251061 
L 375.715912 121.801669 
L 376.366522 105.991217 
L 377.017132 107.21946 
L 377.667743 104.569677 
L 378.318353 89.08975 
L 378.968963 88.443532 
L 379.619574 124.6095 
L 380.270184 142.309843 
L 380.920794 89.264208 
L 381.571405 88.678242 
L 382.222015 106.608646 
L 382.872625 70.052901 
L 383.523236 107.523724 
L 384.173846 263.529905 
L 384.824456 69.938513 
L 385.475066 87.778355 
L 386.125677 116.439551 
L 386.776287 91.149578 
L 387.426897 160.439687 
L 388.077508 70.704268 
L 388.728118 140.625222 
L 389.378728 71.057618 
L 391.330559 70.797499 
L 391.98117 69.939579 
L 392.63178 71.143086 
L 393.28239 71.706992 
L 393.933001 102.488786 
L 394.583611 70.770436 
L 395.234221 85.412331 
L 395.884831 70.126141 
L 396.535442 71.502131 
L 397.186052 102.538141 
L 397.836662 53.80742 
L 398.487273 87.496086 
L 398.487273 87.496086 
" clip-path="url(#p19769fb02c)" style="fill: none; stroke: #1f77b4; stroke-width: 1.5; stroke-linecap: square"/>
   </g>
   <g id="line2d_16">
    <path d="M 73.832727 123.949583 
L 74.483338 122.721854 
L 75.133948 121.078114 
L 78.386999 110.969707 
L 79.68822 107.01189 
L 80.989441 103.75801 
L 81.640051 102.310174 
L 82.290661 101.252297 
L 82.941272 100.504061 
L 83.591882 99.953672 
L 84.242492 98.82963 
L 85.543713 97.711046 
L 86.194323 96.981222 
L 86.844934 96.784018 
L 87.495544 94.699433 
L 88.146154 93.782093 
L 90.097985 92.369457 
L 90.748595 91.081608 
L 91.399206 90.353228 
L 92.049816 89.272933 
L 92.700426 88.572892 
L 93.351037 88.211019 
L 94.001647 88.510453 
L 94.652257 87.959667 
L 95.302868 87.763142 
L 95.953478 87.21267 
L 97.254698 85.654903 
L 98.555919 84.370403 
L 99.85714 83.672305 
L 100.50775 83.825731 
L 101.15836 83.786236 
L 101.808971 83.604048 
L 103.110191 84.398444 
L 104.411412 84.353071 
L 105.062022 84.217195 
L 105.712633 83.882004 
L 106.363243 83.726137 
L 107.664463 82.731084 
L 108.315074 83.02409 
L 108.965684 82.678262 
L 110.266905 83.340443 
L 110.917515 83.529585 
L 111.568125 83.343969 
L 112.218736 83.348315 
L 112.869346 83.703824 
L 113.519956 83.70806 
L 114.170567 83.875687 
L 114.821177 84.211112 
L 115.471787 84.206176 
L 116.122398 84.387032 
L 117.423618 84.399655 
L 118.724839 84.706101 
L 119.375449 84.701219 
L 120.026059 84.527115 
L 120.67667 84.698636 
L 121.32728 85.331902 
L 122.628501 85.665508 
L 123.279111 85.649635 
L 123.929721 85.473789 
L 124.580332 85.465879 
L 125.230942 84.976686 
L 126.532163 84.978617 
L 127.182773 84.813428 
L 128.483993 85.644192 
L 129.134604 85.315028 
L 130.435824 86.492395 
L 131.737045 86.527668 
L 133.038266 87.58793 
L 133.688876 87.429068 
L 134.339486 87.607509 
L 135.640707 87.286689 
L 136.291317 87.269908 
L 136.941927 87.598957 
L 137.592538 86.913354 
L 138.243148 86.920722 
L 139.544369 86.614038 
L 140.194979 86.756818 
L 140.845589 86.584872 
L 141.4962 86.606347 
L 142.14681 86.966846 
L 143.448031 87.26769 
L 144.749251 87.259693 
L 146.050472 86.614907 
L 146.701082 86.645415 
L 147.351692 86.475652 
L 148.002303 86.149737 
L 148.652913 85.987622 
L 149.954134 86.0069 
L 150.604744 85.849087 
L 151.255354 86.161986 
L 151.905965 85.616679 
L 152.556575 85.786193 
L 153.207185 86.1451 
L 153.857796 86.150919 
L 154.508406 86.31671 
L 155.159016 86.142698 
L 155.809627 86.17458 
L 157.110847 87.273589 
L 157.761457 87.43683 
L 158.412068 87.964232 
L 159.062678 88.677998 
L 159.713288 89.024671 
L 160.363899 89.189217 
L 161.014509 89.025583 
L 161.665119 89.197528 
L 162.96634 90.836705 
L 163.61695 91.389843 
L 164.267561 91.568335 
L 164.918171 91.231793 
L 165.568781 91.053373 
L 166.219392 91.43706 
L 166.870002 91.255127 
L 167.520612 91.3636 
L 168.171222 90.715881 
L 168.821833 90.713973 
L 169.472443 90.879954 
L 170.123053 91.230949 
L 170.773664 92.121507 
L 171.424274 92.457909 
L 172.074884 93.122378 
L 172.725495 93.454166 
L 173.376105 93.124285 
L 174.026715 93.125577 
L 174.677326 92.931518 
L 175.327936 92.280535 
L 175.978546 92.41252 
L 176.629156 92.359288 
L 177.279767 92.191673 
L 177.930377 92.334379 
L 178.580987 92.159011 
L 179.231598 92.160974 
L 179.882208 92.501673 
L 181.183429 92.830951 
L 181.834039 93.284484 
L 182.484649 93.280478 
L 183.13526 92.97797 
L 183.78587 92.985636 
L 184.43648 93.306408 
L 185.087091 93.474208 
L 185.737701 93.463892 
L 186.388311 92.991035 
L 187.038921 92.823471 
L 187.689532 92.804071 
L 188.340142 93.6999 
L 188.990752 93.689833 
L 189.641363 93.861791 
L 190.291973 93.857237 
L 191.593194 93.507913 
L 192.243804 93.675933 
L 192.894414 93.0999 
L 193.545025 93.054097 
L 194.195635 93.345174 
L 194.846245 93.304707 
L 195.496856 92.799001 
L 196.147466 93.270288 
L 197.448686 92.257256 
L 198.099297 92.165916 
L 198.749907 93.211805 
L 199.400517 93.034946 
L 200.051128 93.907619 
L 200.701738 94.454873 
L 201.352348 94.526255 
L 202.002959 94.405676 
L 202.653569 94.946206 
L 203.95479 95.679473 
L 204.6054 95.33969 
L 205.25601 95.695437 
L 206.557231 95.360402 
L 207.207841 95.713799 
L 207.858451 95.712668 
L 208.509062 95.897884 
L 209.159672 95.556767 
L 211.111503 95.558586 
L 211.762113 95.209478 
L 212.412724 95.557864 
L 213.063334 95.729552 
L 213.713944 96.056478 
L 214.364555 96.066026 
L 215.015165 96.280052 
L 215.665775 96.267469 
L 216.316385 95.937545 
L 216.966996 95.935773 
L 217.617606 95.594777 
L 218.268216 95.581684 
L 218.918827 95.918593 
L 219.569437 95.747981 
L 220.220047 96.081505 
L 220.870658 95.898547 
L 222.171878 94.835077 
L 222.822489 94.671853 
L 223.473099 93.97836 
L 224.123709 92.98426 
L 224.77432 93.168311 
L 225.42493 92.668224 
L 226.07554 93.494845 
L 226.72615 94.042993 
L 227.376761 94.062588 
L 228.677981 93.797542 
L 229.328592 93.975102 
L 229.979202 94.34339 
L 230.629812 94.217075 
L 231.280423 93.90236 
L 231.931033 94.606523 
L 232.581643 93.984713 
L 233.882864 94.393975 
L 235.184085 94.43736 
L 235.834695 94.21992 
L 236.485305 94.415832 
L 237.135915 94.413236 
L 239.087746 95.552731 
L 240.388967 96.600925 
L 241.039577 96.665444 
L 242.340798 97.417238 
L 242.991408 97.43335 
L 243.642019 97.792348 
L 244.292629 98.324625 
L 245.59385 98.683775 
L 246.24446 99.055423 
L 246.89507 99.093919 
L 247.54568 99.645006 
L 248.846901 99.644765 
L 249.497511 99.320422 
L 250.798732 99.32615 
L 251.449342 99.644132 
L 252.099953 99.492329 
L 252.750563 99.801802 
L 253.401173 98.942822 
L 256.654225 99.756269 
L 257.304835 99.592939 
L 257.955445 99.899211 
L 259.256666 99.298266 
L 259.907276 99.369104 
L 260.557887 99.888312 
L 261.208497 99.918658 
L 262.509718 100.606313 
L 263.160328 100.316663 
L 263.810938 99.268558 
L 264.461549 99.625732 
L 267.06399 97.608824 
L 267.7146 97.232819 
L 268.36521 98.585711 
L 269.015821 99.266249 
L 269.666431 99.590381 
L 270.317041 99.081725 
L 270.967652 99.41242 
L 271.618262 99.422922 
L 272.268872 98.719624 
L 272.919483 98.912093 
L 273.570093 98.760944 
L 274.220703 99.248778 
L 274.871314 99.445227 
L 275.521924 99.816833 
L 276.172534 100.472213 
L 277.473755 100.8504 
L 278.124365 100.529194 
L 278.774975 101.101368 
L 279.425586 101.449244 
L 280.076196 101.44647 
L 280.726806 101.764414 
L 281.377417 101.950829 
L 282.028027 102.279621 
L 282.678637 102.462322 
L 283.329248 102.293758 
L 283.979858 102.339295 
L 284.630468 102.170435 
L 285.281079 102.320903 
L 286.582299 102.322284 
L 287.88352 102.999534 
L 288.53413 103.531498 
L 289.18474 103.50385 
L 289.835351 103.129669 
L 290.485961 103.4453 
L 291.136571 103.117897 
L 293.739013 101.064311 
L 295.040233 100.396517 
L 295.690844 100.208506 
L 296.341454 99.838356 
L 296.992064 99.162731 
L 297.642674 99.137042 
L 298.293285 98.891886 
L 298.943895 98.370162 
L 299.594505 97.696504 
L 300.245116 97.674584 
L 300.895726 97.136756 
L 302.196947 96.523342 
L 302.847557 95.978705 
L 303.498167 95.926794 
L 304.799388 95.228891 
L 305.449998 95.04351 
L 306.100608 95.156888 
L 306.751219 94.799937 
L 307.401829 94.943247 
L 308.052439 94.608321 
L 308.70305 94.423481 
L 309.35366 94.065492 
L 310.00427 93.188408 
L 310.654881 93.387583 
L 311.305491 93.358888 
L 312.606712 93.023106 
L 313.257322 93.361957 
L 314.558543 93.715565 
L 315.209153 94.252337 
L 315.859763 94.959941 
L 316.510373 94.828041 
L 317.160984 94.975951 
L 318.462204 94.654318 
L 319.112815 94.852185 
L 319.763425 96.457307 
L 320.414035 96.138477 
L 321.715256 96.576227 
L 323.016477 97.343521 
L 323.667087 97.331567 
L 324.317697 97.846272 
L 324.968308 97.462129 
L 326.269528 96.106029 
L 327.570749 95.39453 
L 328.221359 95.224623 
L 329.52258 95.531483 
L 330.17319 95.352881 
L 332.125021 95.8461 
L 332.775631 96.169751 
L 333.426242 94.107669 
L 334.076852 93.410423 
L 334.727462 99.081725 
L 335.378073 99.41242 
L 336.028683 99.422922 
L 336.679293 98.719624 
L 337.329903 98.912093 
L 337.980514 98.760944 
L 338.631124 99.248778 
L 339.281734 99.445227 
L 339.932345 99.816833 
L 340.582955 100.472213 
L 341.884176 100.8504 
L 342.534786 100.529194 
L 343.185396 101.101368 
L 343.836007 101.449244 
L 344.486617 101.44647 
L 345.137227 101.764414 
L 345.787837 101.950829 
L 346.438448 102.279621 
L 347.089058 102.462322 
L 347.739668 102.293758 
L 348.390279 102.339295 
L 349.040889 102.170435 
L 349.691499 102.320903 
L 350.99272 102.322284 
L 352.293941 102.999534 
L 352.944551 103.531498 
L 353.595161 103.50385 
L 354.245772 103.129669 
L 354.896382 103.4453 
L 355.546992 103.117897 
L 358.149433 101.064311 
L 359.450654 100.396517 
L 360.101264 100.208506 
L 360.751875 99.838356 
L 361.402485 99.162731 
L 362.053095 99.137042 
L 362.703706 98.891886 
L 363.354316 98.370162 
L 364.004926 97.696504 
L 364.655537 97.674584 
L 365.306147 97.136756 
L 366.607367 96.523342 
L 367.257978 95.978705 
L 367.908588 95.926794 
L 369.209809 95.228891 
L 369.860419 95.04351 
L 370.511029 95.156888 
L 371.16164 94.799937 
L 371.81225 94.943247 
L 372.46286 94.608321 
L 373.113471 94.423481 
L 373.764081 94.065492 
L 374.414691 93.188408 
L 375.065302 93.387583 
L 375.715912 93.358888 
L 377.017132 93.023106 
L 377.667743 93.361957 
L 378.968963 93.715565 
L 379.619574 94.252337 
L 380.270184 94.959941 
L 380.920794 94.828041 
L 381.571405 94.975951 
L 382.872625 94.654318 
L 383.523236 94.852185 
L 384.173846 96.457307 
L 384.824456 96.138477 
L 386.125677 96.576227 
L 387.426897 97.343521 
L 388.077508 97.331567 
L 388.728118 97.846272 
L 389.378728 97.462129 
L 390.679949 96.106029 
L 391.98117 95.39453 
L 392.63178 95.224623 
L 393.933001 95.531483 
L 394.583611 95.352881 
L 396.535442 95.8461 
L 397.186052 96.169751 
L 397.836662 94.107669 
L 398.487273 93.410423 
L 398.487273 93.410423 
" clip-path="url(#p19769fb02c)" style="fill: none; stroke: #ff7f0e; stroke-width: 1.5; stroke-linecap: square"/>
   </g>
   <g id="patch_3">
    <path d="M 57.6 307.584 
L 57.6 41.472 
" style="fill: none; stroke: #000000; stroke-width: 0.8; stroke-linejoin: miter; stroke-linecap: square"/>
   </g>
   <g id="patch_4">
    <path d="M 414.72 307.584 
L 414.72 41.472 
" style="fill: none; stroke: #000000; stroke-width: 0.8; stroke-linejoin: miter; stroke-linecap: square"/>
   </g>
   <g id="patch_5">
    <path d="M 57.6 307.584 
L 414.72 307.584 
" style="fill: none; stroke: #000000; stroke-width: 0.8; stroke-linejoin: miter; stroke-linecap: square"/>
   </g>
   <g id="patch_6">
    <path d="M 57.6 41.472 
L 414.72 41.472 
" style="fill: none; stroke: #000000; stroke-width: 0.8; stroke-linejoin: miter; stroke-linecap: square"/>
   </g>
   <g id="text_17">
    <!-- RESULT -->
    <g transform="translate(213.816563 35.472) scale(0.12 -0.12)">
     <defs>
      <path id="DejaVuSans-4c" d="M 628 4666 
L 1259 4666 
L 1259 531 
L 3531 531 
L 3531 0 
L 628 0 
L 628 4666 
z
" transform="scale(0.015625)"/>
     </defs>
     <use xlink:href="#DejaVuSans-52"/>
     <use xlink:href="#DejaVuSans-45" x="69.482422"/>
     <use xlink:href="#DejaVuSans-53" x="132.666016"/>
     <use xlink:href="#DejaVuSans-55" x="196.142578"/>
     <use xlink:href="#DejaVuSans-4c" x="269.335938"/>
     <use xlink:href="#DejaVuSans-54" x="311.298828"/>
    </g>
   </g>
  </g>
 </g>
 <defs>
  <clipPath id="p19769fb02c">
   <rect x="57.6" y="41.472" width="357.12" height="266.112"/>
  </clipPath>
 </defs>
</svg>
