<?xml version="1.0" encoding="utf-8" standalone="no"?>
<!DOCTYPE svg PUBLIC "-//W3C//DTD SVG 1.1//EN"
  "http://www.w3.org/Graphics/SVG/1.1/DTD/svg11.dtd">
<svg xmlns:xlink="http://www.w3.org/1999/xlink" width="460.8pt" height="345.6pt" viewBox="0 0 460.8 345.6" xmlns="http://www.w3.org/2000/svg" version="1.1">
 <metadata>
  <rdf:RDF xmlns:dc="http://purl.org/dc/elements/1.1/" xmlns:cc="http://creativecommons.org/ns#" xmlns:rdf="http://www.w3.org/1999/02/22-rdf-syntax-ns#">
   <cc:Work>
    <dc:type rdf:resource="http://purl.org/dc/dcmitype/StillImage"/>
    <dc:date>2023-03-28T15:36:08.235360</dc:date>
    <dc:format>image/svg+xml</dc:format>
    <dc:creator>
     <cc:Agent>
      <dc:title>Matplotlib v3.6.2, https://matplotlib.org/</dc:title>
     </cc:Agent>
    </dc:creator>
   </cc:Work>
  </rdf:RDF>
 </metadata>
 <defs>
  <style type="text/css">*{stroke-linejoin: round; stroke-linecap: butt}</style>
 </defs>
 <g id="figure_1">
  <g id="patch_1">
   <path d="M 0 345.6 
L 460.8 345.6 
L 460.8 0 
L 0 0 
z
" style="fill: #ffffff"/>
  </g>
  <g id="axes_1">
   <g id="patch_2">
    <path d="M 57.6 307.584 
L 414.72 307.584 
L 414.72 41.472 
L 57.6 41.472 
z
" style="fill: #ffffff"/>
   </g>
   <g id="matplotlib.axis_1">
    <g id="xtick_1">
     <g id="line2d_1">
      <defs>
       <path id="m871e712a73" d="M 0 0 
L 0 3.5 
" style="stroke: #000000; stroke-width: 0.8"/>
      </defs>
      <g>
       <use xlink:href="#m871e712a73" x="73.832727" y="307.584" style="stroke: #000000; stroke-width: 0.8"/>
      </g>
     </g>
     <g id="text_1">
      <!-- 0 -->
      <g transform="translate(70.651477 322.182437) scale(0.1 -0.1)">
       <defs>
        <path id="DejaVuSans-30" d="M 2034 4250 
Q 1547 4250 1301 3770 
Q 1056 3291 1056 2328 
Q 1056 1369 1301 889 
Q 1547 409 2034 409 
Q 2525 409 2770 889 
Q 3016 1369 3016 2328 
Q 3016 3291 2770 3770 
Q 2525 4250 2034 4250 
z
M 2034 4750 
Q 2819 4750 3233 4129 
Q 3647 3509 3647 2328 
Q 3647 1150 3233 529 
Q 2819 -91 2034 -91 
Q 1250 -91 836 529 
Q 422 1150 422 2328 
Q 422 3509 836 4129 
Q 1250 4750 2034 4750 
z
" transform="scale(0.015625)"/>
       </defs>
       <use xlink:href="#DejaVuSans-30"/>
      </g>
     </g>
    </g>
    <g id="xtick_2">
     <g id="line2d_2">
      <g>
       <use xlink:href="#m871e712a73" x="128.032151" y="307.584" style="stroke: #000000; stroke-width: 0.8"/>
      </g>
     </g>
     <g id="text_2">
      <!-- 100 -->
      <g transform="translate(118.488401 322.182437) scale(0.1 -0.1)">
       <defs>
        <path id="DejaVuSans-31" d="M 794 531 
L 1825 531 
L 1825 4091 
L 703 3866 
L 703 4441 
L 1819 4666 
L 2450 4666 
L 2450 531 
L 3481 531 
L 3481 0 
L 794 0 
L 794 531 
z
" transform="scale(0.015625)"/>
       </defs>
       <use xlink:href="#DejaVuSans-31"/>
       <use xlink:href="#DejaVuSans-30" x="63.623047"/>
       <use xlink:href="#DejaVuSans-30" x="127.246094"/>
      </g>
     </g>
    </g>
    <g id="xtick_3">
     <g id="line2d_3">
      <g>
       <use xlink:href="#m871e712a73" x="182.231574" y="307.584" style="stroke: #000000; stroke-width: 0.8"/>
      </g>
     </g>
     <g id="text_3">
      <!-- 200 -->
      <g transform="translate(172.687824 322.182437) scale(0.1 -0.1)">
       <defs>
        <path id="DejaVuSans-32" d="M 1228 531 
L 3431 531 
L 3431 0 
L 469 0 
L 469 531 
Q 828 903 1448 1529 
Q 2069 2156 2228 2338 
Q 2531 2678 2651 2914 
Q 2772 3150 2772 3378 
Q 2772 3750 2511 3984 
Q 2250 4219 1831 4219 
Q 1534 4219 1204 4116 
Q 875 4013 500 3803 
L 500 4441 
Q 881 4594 1212 4672 
Q 1544 4750 1819 4750 
Q 2544 4750 2975 4387 
Q 3406 4025 3406 3419 
Q 3406 3131 3298 2873 
Q 3191 2616 2906 2266 
Q 2828 2175 2409 1742 
Q 1991 1309 1228 531 
z
" transform="scale(0.015625)"/>
       </defs>
       <use xlink:href="#DejaVuSans-32"/>
       <use xlink:href="#DejaVuSans-30" x="63.623047"/>
       <use xlink:href="#DejaVuSans-30" x="127.246094"/>
      </g>
     </g>
    </g>
    <g id="xtick_4">
     <g id="line2d_4">
      <g>
       <use xlink:href="#m871e712a73" x="236.430997" y="307.584" style="stroke: #000000; stroke-width: 0.8"/>
      </g>
     </g>
     <g id="text_4">
      <!-- 300 -->
      <g transform="translate(226.887247 322.182437) scale(0.1 -0.1)">
       <defs>
        <path id="DejaVuSans-33" d="M 2597 2516 
Q 3050 2419 3304 2112 
Q 3559 1806 3559 1356 
Q 3559 666 3084 287 
Q 2609 -91 1734 -91 
Q 1441 -91 1130 -33 
Q 819 25 488 141 
L 488 750 
Q 750 597 1062 519 
Q 1375 441 1716 441 
Q 2309 441 2620 675 
Q 2931 909 2931 1356 
Q 2931 1769 2642 2001 
Q 2353 2234 1838 2234 
L 1294 2234 
L 1294 2753 
L 1863 2753 
Q 2328 2753 2575 2939 
Q 2822 3125 2822 3475 
Q 2822 3834 2567 4026 
Q 2313 4219 1838 4219 
Q 1578 4219 1281 4162 
Q 984 4106 628 3988 
L 628 4550 
Q 988 4650 1302 4700 
Q 1616 4750 1894 4750 
Q 2613 4750 3031 4423 
Q 3450 4097 3450 3541 
Q 3450 3153 3228 2886 
Q 3006 2619 2597 2516 
z
" transform="scale(0.015625)"/>
       </defs>
       <use xlink:href="#DejaVuSans-33"/>
       <use xlink:href="#DejaVuSans-30" x="63.623047"/>
       <use xlink:href="#DejaVuSans-30" x="127.246094"/>
      </g>
     </g>
    </g>
    <g id="xtick_5">
     <g id="line2d_5">
      <g>
       <use xlink:href="#m871e712a73" x="290.63042" y="307.584" style="stroke: #000000; stroke-width: 0.8"/>
      </g>
     </g>
     <g id="text_5">
      <!-- 400 -->
      <g transform="translate(281.08667 322.182437) scale(0.1 -0.1)">
       <defs>
        <path id="DejaVuSans-34" d="M 2419 4116 
L 825 1625 
L 2419 1625 
L 2419 4116 
z
M 2253 4666 
L 3047 4666 
L 3047 1625 
L 3713 1625 
L 3713 1100 
L 3047 1100 
L 3047 0 
L 2419 0 
L 2419 1100 
L 313 1100 
L 313 1709 
L 2253 4666 
z
" transform="scale(0.015625)"/>
       </defs>
       <use xlink:href="#DejaVuSans-34"/>
       <use xlink:href="#DejaVuSans-30" x="63.623047"/>
       <use xlink:href="#DejaVuSans-30" x="127.246094"/>
      </g>
     </g>
    </g>
    <g id="xtick_6">
     <g id="line2d_6">
      <g>
       <use xlink:href="#m871e712a73" x="344.829844" y="307.584" style="stroke: #000000; stroke-width: 0.8"/>
      </g>
     </g>
     <g id="text_6">
      <!-- 500 -->
      <g transform="translate(335.286094 322.182437) scale(0.1 -0.1)">
       <defs>
        <path id="DejaVuSans-35" d="M 691 4666 
L 3169 4666 
L 3169 4134 
L 1269 4134 
L 1269 2991 
Q 1406 3038 1543 3061 
Q 1681 3084 1819 3084 
Q 2600 3084 3056 2656 
Q 3513 2228 3513 1497 
Q 3513 744 3044 326 
Q 2575 -91 1722 -91 
Q 1428 -91 1123 -41 
Q 819 9 494 109 
L 494 744 
Q 775 591 1075 516 
Q 1375 441 1709 441 
Q 2250 441 2565 725 
Q 2881 1009 2881 1497 
Q 2881 1984 2565 2268 
Q 2250 2553 1709 2553 
Q 1456 2553 1204 2497 
Q 953 2441 691 2322 
L 691 4666 
z
" transform="scale(0.015625)"/>
       </defs>
       <use xlink:href="#DejaVuSans-35"/>
       <use xlink:href="#DejaVuSans-30" x="63.623047"/>
       <use xlink:href="#DejaVuSans-30" x="127.246094"/>
      </g>
     </g>
    </g>
    <g id="xtick_7">
     <g id="line2d_7">
      <g>
       <use xlink:href="#m871e712a73" x="399.029267" y="307.584" style="stroke: #000000; stroke-width: 0.8"/>
      </g>
     </g>
     <g id="text_7">
      <!-- 600 -->
      <g transform="translate(389.485517 322.182437) scale(0.1 -0.1)">
       <defs>
        <path id="DejaVuSans-36" d="M 2113 2584 
Q 1688 2584 1439 2293 
Q 1191 2003 1191 1497 
Q 1191 994 1439 701 
Q 1688 409 2113 409 
Q 2538 409 2786 701 
Q 3034 994 3034 1497 
Q 3034 2003 2786 2293 
Q 2538 2584 2113 2584 
z
M 3366 4563 
L 3366 3988 
Q 3128 4100 2886 4159 
Q 2644 4219 2406 4219 
Q 1781 4219 1451 3797 
Q 1122 3375 1075 2522 
Q 1259 2794 1537 2939 
Q 1816 3084 2150 3084 
Q 2853 3084 3261 2657 
Q 3669 2231 3669 1497 
Q 3669 778 3244 343 
Q 2819 -91 2113 -91 
Q 1303 -91 875 529 
Q 447 1150 447 2328 
Q 447 3434 972 4092 
Q 1497 4750 2381 4750 
Q 2619 4750 2861 4703 
Q 3103 4656 3366 4563 
z
" transform="scale(0.015625)"/>
       </defs>
       <use xlink:href="#DejaVuSans-36"/>
       <use xlink:href="#DejaVuSans-30" x="63.623047"/>
       <use xlink:href="#DejaVuSans-30" x="127.246094"/>
      </g>
     </g>
    </g>
    <g id="text_8">
     <!-- EPISODE -->
     <g transform="translate(214.39125 335.860562) scale(0.1 -0.1)">
      <defs>
       <path id="DejaVuSans-45" d="M 628 4666 
L 3578 4666 
L 3578 4134 
L 1259 4134 
L 1259 2753 
L 3481 2753 
L 3481 2222 
L 1259 2222 
L 1259 531 
L 3634 531 
L 3634 0 
L 628 0 
L 628 4666 
z
" transform="scale(0.015625)"/>
       <path id="DejaVuSans-50" d="M 1259 4147 
L 1259 2394 
L 2053 2394 
Q 2494 2394 2734 2622 
Q 2975 2850 2975 3272 
Q 2975 3691 2734 3919 
Q 2494 4147 2053 4147 
L 1259 4147 
z
M 628 4666 
L 2053 4666 
Q 2838 4666 3239 4311 
Q 3641 3956 3641 3272 
Q 3641 2581 3239 2228 
Q 2838 1875 2053 1875 
L 1259 1875 
L 1259 0 
L 628 0 
L 628 4666 
z
" transform="scale(0.015625)"/>
       <path id="DejaVuSans-49" d="M 628 4666 
L 1259 4666 
L 1259 0 
L 628 0 
L 628 4666 
z
" transform="scale(0.015625)"/>
       <path id="DejaVuSans-53" d="M 3425 4513 
L 3425 3897 
Q 3066 4069 2747 4153 
Q 2428 4238 2131 4238 
Q 1616 4238 1336 4038 
Q 1056 3838 1056 3469 
Q 1056 3159 1242 3001 
Q 1428 2844 1947 2747 
L 2328 2669 
Q 3034 2534 3370 2195 
Q 3706 1856 3706 1288 
Q 3706 609 3251 259 
Q 2797 -91 1919 -91 
Q 1588 -91 1214 -16 
Q 841 59 441 206 
L 441 856 
Q 825 641 1194 531 
Q 1563 422 1919 422 
Q 2459 422 2753 634 
Q 3047 847 3047 1241 
Q 3047 1584 2836 1778 
Q 2625 1972 2144 2069 
L 1759 2144 
Q 1053 2284 737 2584 
Q 422 2884 422 3419 
Q 422 4038 858 4394 
Q 1294 4750 2059 4750 
Q 2388 4750 2728 4690 
Q 3069 4631 3425 4513 
z
" transform="scale(0.015625)"/>
       <path id="DejaVuSans-4f" d="M 2522 4238 
Q 1834 4238 1429 3725 
Q 1025 3213 1025 2328 
Q 1025 1447 1429 934 
Q 1834 422 2522 422 
Q 3209 422 3611 934 
Q 4013 1447 4013 2328 
Q 4013 3213 3611 3725 
Q 3209 4238 2522 4238 
z
M 2522 4750 
Q 3503 4750 4090 4092 
Q 4678 3434 4678 2328 
Q 4678 1225 4090 567 
Q 3503 -91 2522 -91 
Q 1538 -91 948 565 
Q 359 1222 359 2328 
Q 359 3434 948 4092 
Q 1538 4750 2522 4750 
z
" transform="scale(0.015625)"/>
       <path id="DejaVuSans-44" d="M 1259 4147 
L 1259 519 
L 2022 519 
Q 2988 519 3436 956 
Q 3884 1394 3884 2338 
Q 3884 3275 3436 3711 
Q 2988 4147 2022 4147 
L 1259 4147 
z
M 628 4666 
L 1925 4666 
Q 3281 4666 3915 4102 
Q 4550 3538 4550 2338 
Q 4550 1131 3912 565 
Q 3275 0 1925 0 
L 628 0 
L 628 4666 
z
" transform="scale(0.015625)"/>
      </defs>
      <use xlink:href="#DejaVuSans-45"/>
      <use xlink:href="#DejaVuSans-50" x="63.183594"/>
      <use xlink:href="#DejaVuSans-49" x="123.486328"/>
      <use xlink:href="#DejaVuSans-53" x="152.978516"/>
      <use xlink:href="#DejaVuSans-4f" x="216.455078"/>
      <use xlink:href="#DejaVuSans-44" x="295.166016"/>
      <use xlink:href="#DejaVuSans-45" x="372.167969"/>
     </g>
    </g>
   </g>
   <g id="matplotlib.axis_2">
    <g id="ytick_1">
     <g id="line2d_8">
      <defs>
       <path id="md5b4341753" d="M 0 0 
L -3.5 0 
" style="stroke: #000000; stroke-width: 0.8"/>
      </defs>
      <g>
       <use xlink:href="#md5b4341753" x="57.6" y="299.421659" style="stroke: #000000; stroke-width: 0.8"/>
      </g>
     </g>
     <g id="text_9">
      <!-- 0 -->
      <g transform="translate(44.2375 303.220877) scale(0.1 -0.1)">
       <use xlink:href="#DejaVuSans-30"/>
      </g>
     </g>
    </g>
    <g id="ytick_2">
     <g id="line2d_9">
      <g>
       <use xlink:href="#md5b4341753" x="57.6" y="250.250927" style="stroke: #000000; stroke-width: 0.8"/>
      </g>
     </g>
     <g id="text_10">
      <!-- 100 -->
      <g transform="translate(31.5125 254.050146) scale(0.1 -0.1)">
       <use xlink:href="#DejaVuSans-31"/>
       <use xlink:href="#DejaVuSans-30" x="63.623047"/>
       <use xlink:href="#DejaVuSans-30" x="127.246094"/>
      </g>
     </g>
    </g>
    <g id="ytick_3">
     <g id="line2d_10">
      <g>
       <use xlink:href="#md5b4341753" x="57.6" y="201.080195" style="stroke: #000000; stroke-width: 0.8"/>
      </g>
     </g>
     <g id="text_11">
      <!-- 200 -->
      <g transform="translate(31.5125 204.879414) scale(0.1 -0.1)">
       <use xlink:href="#DejaVuSans-32"/>
       <use xlink:href="#DejaVuSans-30" x="63.623047"/>
       <use xlink:href="#DejaVuSans-30" x="127.246094"/>
      </g>
     </g>
    </g>
    <g id="ytick_4">
     <g id="line2d_11">
      <g>
       <use xlink:href="#md5b4341753" x="57.6" y="151.909463" style="stroke: #000000; stroke-width: 0.8"/>
      </g>
     </g>
     <g id="text_12">
      <!-- 300 -->
      <g transform="translate(31.5125 155.708682) scale(0.1 -0.1)">
       <use xlink:href="#DejaVuSans-33"/>
       <use xlink:href="#DejaVuSans-30" x="63.623047"/>
       <use xlink:href="#DejaVuSans-30" x="127.246094"/>
      </g>
     </g>
    </g>
    <g id="ytick_5">
     <g id="line2d_12">
      <g>
       <use xlink:href="#md5b4341753" x="57.6" y="102.738732" style="stroke: #000000; stroke-width: 0.8"/>
      </g>
     </g>
     <g id="text_13">
      <!-- 400 -->
      <g transform="translate(31.5125 106.53795) scale(0.1 -0.1)">
       <use xlink:href="#DejaVuSans-34"/>
       <use xlink:href="#DejaVuSans-30" x="63.623047"/>
       <use xlink:href="#DejaVuSans-30" x="127.246094"/>
      </g>
     </g>
    </g>
    <g id="ytick_6">
     <g id="line2d_13">
      <g>
       <use xlink:href="#md5b4341753" x="57.6" y="53.568" style="stroke: #000000; stroke-width: 0.8"/>
      </g>
     </g>
     <g id="text_14">
      <!-- 500 -->
      <g transform="translate(31.5125 57.367219) scale(0.1 -0.1)">
       <use xlink:href="#DejaVuSans-35"/>
       <use xlink:href="#DejaVuSans-30" x="63.623047"/>
       <use xlink:href="#DejaVuSans-30" x="127.246094"/>
      </g>
     </g>
    </g>
    <g id="text_15">
     <!-- RETURN -->
     <g transform="translate(25.432812 195.089719) rotate(-90) scale(0.1 -0.1)">
      <defs>
       <path id="DejaVuSans-52" d="M 2841 2188 
Q 3044 2119 3236 1894 
Q 3428 1669 3622 1275 
L 4263 0 
L 3584 0 
L 2988 1197 
Q 2756 1666 2539 1819 
Q 2322 1972 1947 1972 
L 1259 1972 
L 1259 0 
L 628 0 
L 628 4666 
L 2053 4666 
Q 2853 4666 3247 4331 
Q 3641 3997 3641 3322 
Q 3641 2881 3436 2590 
Q 3231 2300 2841 2188 
z
M 1259 4147 
L 1259 2491 
L 2053 2491 
Q 2509 2491 2742 2702 
Q 2975 2913 2975 3322 
Q 2975 3731 2742 3939 
Q 2509 4147 2053 4147 
L 1259 4147 
z
" transform="scale(0.015625)"/>
       <path id="DejaVuSans-54" d="M -19 4666 
L 3928 4666 
L 3928 4134 
L 2272 4134 
L 2272 0 
L 1638 0 
L 1638 4134 
L -19 4134 
L -19 4666 
z
" transform="scale(0.015625)"/>
       <path id="DejaVuSans-55" d="M 556 4666 
L 1191 4666 
L 1191 1831 
Q 1191 1081 1462 751 
Q 1734 422 2344 422 
Q 2950 422 3222 751 
Q 3494 1081 3494 1831 
L 3494 4666 
L 4128 4666 
L 4128 1753 
Q 4128 841 3676 375 
Q 3225 -91 2344 -91 
Q 1459 -91 1007 375 
Q 556 841 556 1753 
L 556 4666 
z
" transform="scale(0.015625)"/>
       <path id="DejaVuSans-4e" d="M 628 4666 
L 1478 4666 
L 3547 763 
L 3547 4666 
L 4159 4666 
L 4159 0 
L 3309 0 
L 1241 3903 
L 1241 0 
L 628 0 
L 628 4666 
z
" transform="scale(0.015625)"/>
      </defs>
      <use xlink:href="#DejaVuSans-52"/>
      <use xlink:href="#DejaVuSans-45" x="69.482422"/>
      <use xlink:href="#DejaVuSans-54" x="132.666016"/>
      <use xlink:href="#DejaVuSans-55" x="193.75"/>
      <use xlink:href="#DejaVuSans-52" x="266.943359"/>
      <use xlink:href="#DejaVuSans-4e" x="336.425781"/>
     </g>
    </g>
   </g>
   <g id="line2d_14">
    <path d="M 73.832727 293.029463 
L 74.374722 291.554341 
L 74.916716 289.095805 
L 75.45871 292.537756 
L 76.000704 291.062634 
L 76.542698 293.521171 
L 77.084693 283.687024 
L 77.626687 293.521171 
L 78.168681 282.70361 
L 78.710675 289.587512 
L 79.25267 292.046049 
L 79.794664 291.554341 
L 80.336658 292.046049 
L 80.878652 291.062634 
L 81.420647 294.504585 
L 81.962641 294.504585 
L 82.504635 294.012878 
L 83.046629 294.012878 
L 83.588623 293.521171 
L 84.130618 284.178732 
L 84.672612 292.046049 
L 85.214606 294.504585 
L 85.7566 294.504585 
L 86.298595 290.07922 
L 86.840589 293.521171 
L 87.382583 282.70361 
L 87.924577 290.07922 
L 88.466572 294.996293 
L 89.008566 291.554341 
L 89.55056 292.537756 
L 90.092554 283.687024 
L 90.634548 294.996293 
L 91.176543 290.570927 
L 91.718537 291.554341 
L 92.260531 294.996293 
L 92.802525 293.029463 
L 93.34452 292.046049 
L 93.886514 294.012878 
L 94.428508 292.046049 
L 94.970502 294.504585 
L 95.512497 294.504585 
L 96.054491 292.046049 
L 96.596485 294.012878 
L 97.138479 294.504585 
L 97.680474 292.537756 
L 98.222468 292.537756 
L 98.764462 294.012878 
L 99.306456 293.521171 
L 99.84845 294.504585 
L 100.932439 293.521171 
L 101.474433 294.504585 
L 102.016427 294.996293 
L 102.558422 294.504585 
L 103.100416 294.996293 
L 103.64241 294.504585 
L 104.184404 293.029463 
L 104.726399 292.537756 
L 105.268393 294.012878 
L 105.810387 294.012878 
L 106.352381 292.046049 
L 106.894375 291.062634 
L 107.43637 294.504585 
L 107.978364 294.012878 
L 108.520358 295.488 
L 109.062352 294.996293 
L 109.604347 293.521171 
L 110.146341 293.029463 
L 110.688335 294.012878 
L 111.230329 294.504585 
L 111.772324 293.029463 
L 112.314318 294.504585 
L 112.856312 289.095805 
L 113.398306 291.062634 
L 113.940301 292.537756 
L 114.482295 289.095805 
L 115.024289 294.996293 
L 115.566283 292.046049 
L 116.108277 292.537756 
L 116.650272 293.521171 
L 117.192266 292.046049 
L 117.73426 293.521171 
L 118.276254 292.537756 
L 118.818249 287.128976 
L 119.360243 267.460683 
L 119.902237 277.294829 
L 120.444231 279.753366 
L 120.986226 280.245073 
L 121.52822 264.510439 
L 122.070214 265.493854 
L 122.612208 262.54361 
L 123.154202 268.935805 
L 123.696197 244.842146 
L 124.238191 264.510439 
L 124.780185 264.510439 
L 125.322179 215.339707 
L 125.864174 249.267512 
L 126.406168 250.250927 
L 126.948162 244.842146 
L 127.490156 227.63239 
L 128.032151 242.38361 
L 128.574145 264.510439 
L 129.116139 254.676293 
L 129.658133 260.57678 
L 130.200127 233.041171 
L 130.742122 241.891902 
L 131.284116 215.339707 
L 131.82611 254.676293 
L 132.368104 190.262634 
L 132.910099 176.003122 
L 133.994087 220.748488 
L 135.078076 188.295805 
L 135.62007 190.262634 
L 136.162064 211.406049 
L 136.704058 191.737756 
L 137.246053 159.77678 
L 137.788047 192.229463 
L 138.330041 190.262634 
L 138.872035 212.881171 
L 139.414029 193.212878 
L 139.956024 193.212878 
L 140.498018 181.411902 
L 141.040012 183.378732 
L 141.582006 108.147512 
L 142.124001 200.09678 
L 142.665995 193.212878 
L 143.207989 145.025561 
L 143.749983 171.577756 
L 144.291978 191.737756 
L 145.375966 197.638244 
L 145.91796 189.770927 
L 146.459954 179.445073 
L 147.001949 120.931902 
L 147.543943 158.793366 
L 148.085937 169.610927 
L 148.627931 200.588488 
L 149.169926 201.080195 
L 149.71192 168.627512 
L 150.795908 200.588488 
L 151.337903 133.716293 
L 151.879897 183.378732 
L 152.421891 156.334829 
L 152.963885 192.229463 
L 153.505879 137.158244 
L 154.047874 136.174829 
L 154.589868 188.295805 
L 155.131862 191.246049 
L 155.673856 189.770927 
L 156.215851 192.721171 
L 156.757845 166.168976 
L 157.299839 209.930927 
L 157.841833 53.568 
L 158.383828 161.251902 
L 158.925822 191.737756 
L 159.467816 135.191415 
L 160.00981 177.969951 
L 160.551805 168.135805 
L 161.093799 106.67239 
L 161.635793 115.031415 
L 162.177787 172.069463 
L 162.719781 171.577756 
L 163.261776 182.887024 
L 163.80377 173.052878 
L 164.345764 185.345561 
L 164.887758 129.290927 
L 165.429753 157.809951 
L 165.971747 160.760195 
L 166.513741 174.036293 
L 167.055735 181.90361 
L 167.59773 195.671415 
L 168.139724 202.555317 
L 168.681718 154.368 
L 169.223712 215.339707 
L 169.765706 184.362146 
L 170.307701 192.721171 
L 170.849695 184.853854 
L 171.391689 167.644098 
L 171.933683 183.378732 
L 172.475678 178.461659 
L 173.017672 205.505561 
L 173.559666 178.953366 
L 174.10166 161.74361 
L 174.643655 169.11922 
L 175.185649 96.838244 
L 175.727643 197.638244 
L 176.811632 69.794341 
L 177.353626 204.522146 
L 177.89562 177.969951 
L 178.437614 200.588488 
L 178.979608 173.052878 
L 179.521603 181.90361 
L 180.063597 126.83239 
L 180.605591 183.378732 
L 181.147585 194.688 
L 181.68958 53.568 
L 182.231574 210.914341 
L 182.773568 156.334829 
L 183.315562 137.158244 
L 183.857557 53.568 
L 184.399551 82.087024 
L 184.941545 171.577756 
L 185.483539 155.843122 
L 186.025533 165.185561 
L 186.567528 159.285073 
L 187.109522 145.517268 
L 187.651516 53.568 
L 188.19351 165.677268 
L 188.735505 177.969951 
L 189.277499 120.931902 
L 189.819493 125.848976 
L 190.361487 170.102634 
L 190.903482 178.461659 
L 191.445476 127.815805 
L 191.98747 169.11922 
L 192.529464 182.395317 
L 193.071458 178.953366 
L 193.613453 163.710439 
L 194.155447 70.777756 
L 194.697441 201.571902 
L 195.239435 199.113366 
L 195.78143 164.693854 
L 196.323424 53.568 
L 196.865418 180.428488 
L 197.407412 94.379707 
L 197.949407 160.760195 
L 198.491401 130.274341 
L 199.033395 180.920195 
L 199.575389 143.550439 
L 200.117384 123.390439 
L 200.659378 144.042146 
L 201.201372 159.77678 
L 201.743366 154.368 
L 202.28536 163.218732 
L 202.827355 157.318244 
L 203.369349 182.887024 
L 203.911343 143.550439 
L 204.453337 186.328976 
L 204.995332 148.467512 
L 205.537326 171.086049 
L 206.07932 157.318244 
L 206.621314 171.577756 
L 207.163309 149.942634 
L 207.705303 191.737756 
L 208.247297 175.511415 
L 208.789291 181.411902 
L 209.87328 155.843122 
L 210.415274 65.860683 
L 210.957268 181.411902 
L 211.499262 156.334829 
L 212.041257 104.705561 
L 212.583251 154.859707 
L 213.125245 146.99239 
L 213.667239 164.693854 
L 214.209234 152.401171 
L 214.751228 130.766049 
L 215.293222 175.511415 
L 215.835216 180.920195 
L 216.377211 97.329951 
L 216.919205 126.83239 
L 217.461199 124.373854 
L 218.003193 53.568 
L 218.545187 149.942634 
L 219.087182 63.402146 
L 219.629176 142.567024 
L 220.17117 120.931902 
L 220.713164 140.600195 
L 221.255159 170.594341 
L 221.797153 126.340683 
L 222.881141 94.379707 
L 223.423136 177.478244 
L 223.96513 149.942634 
L 224.507124 158.793366 
L 225.049118 60.451902 
L 225.591112 88.970927 
L 226.133107 98.805073 
L 226.675101 167.644098 
L 227.217095 88.970927 
L 227.759089 62.418732 
L 228.301084 53.568 
L 228.843078 144.042146 
L 229.385072 152.892878 
L 229.927066 53.568 
L 230.469061 112.081171 
L 231.011055 134.699707 
L 231.553049 137.649951 
L 232.095043 87.495805 
L 232.637037 61.927024 
L 233.179032 122.407024 
L 233.721026 103.722146 
L 234.26302 102.738732 
L 234.805014 53.568 
L 235.347009 53.568 
L 235.889003 70.286049 
L 236.430997 95.363122 
L 236.972991 136.174829 
L 237.514986 134.208 
L 238.05698 53.568 
L 238.598974 81.595317 
L 239.140968 124.865561 
L 239.682963 53.568 
L 240.224957 53.568 
L 240.766951 93.888 
L 241.308945 55.534829 
L 241.850939 132.732878 
L 242.392934 53.568 
L 242.934928 87.004098 
L 243.476922 95.854829 
L 244.018916 53.568 
L 244.560911 53.568 
L 245.102905 76.186537 
L 245.644899 103.722146 
L 246.186893 53.568 
L 255.400795 53.568 
L 255.942789 70.286049 
L 256.484784 53.568 
L 257.026778 53.568 
L 257.568772 80.120195 
L 258.110766 88.47922 
L 258.652761 108.147512 
L 259.194755 53.568 
L 262.988715 53.568 
L 263.530709 85.528976 
L 264.072703 53.568 
L 264.614697 123.882146 
L 265.156691 81.595317 
L 265.698686 53.568 
L 266.24068 53.568 
L 267.324668 58.97678 
L 267.866663 53.568 
L 268.950651 53.568 
L 269.492645 59.468488 
L 270.03464 53.568 
L 271.118628 53.568 
L 272.202616 100.771902 
L 272.744611 53.568 
L 273.828599 53.568 
L 274.370593 83.070439 
L 274.912588 53.568 
L 327.486028 53.568 
L 328.028022 96.838244 
L 328.570017 90.446049 
L 329.112011 143.058732 
L 329.654005 131.749463 
L 330.195999 95.363122 
L 330.737994 78.153366 
L 331.279988 53.568 
L 331.821982 99.788488 
L 332.363976 157.318244 
L 332.905971 138.633366 
L 333.447965 149.942634 
L 333.989959 156.826537 
L 334.531953 106.180683 
L 335.073947 155.351415 
L 335.615942 132.732878 
L 336.157936 161.251902 
L 336.69993 118.965073 
L 337.241924 138.633366 
L 337.783919 143.058732 
L 338.325913 154.859707 
L 338.867907 147.975805 
L 339.409901 158.793366 
L 339.951896 129.290927 
L 340.49389 120.440195 
L 341.035884 126.340683 
L 341.577878 140.108488 
L 342.119873 125.848976 
L 342.661867 118.965073 
L 343.203861 103.722146 
L 343.745855 79.13678 
L 344.287849 64.877268 
L 344.829844 53.568 
L 356.753717 53.568 
L 357.295711 148.95922 
L 357.837705 53.568 
L 358.379699 53.568 
L 358.921694 77.661659 
L 359.463688 81.10361 
L 360.005682 53.568 
L 361.089671 53.568 
L 361.631665 92.412878 
L 362.173659 53.568 
L 398.487273 53.568 
L 398.487273 53.568 
" clip-path="url(#p8ae51b73fe)" style="fill: none; stroke: #1f77b4; stroke-width: 1.5; stroke-linecap: square"/>
   </g>
   <g id="line2d_15">
    <path d="M 73.832727 286.888039 
L 74.374722 286.38158 
L 76.000704 285.447337 
L 78.168681 283.278906 
L 79.25267 281.218653 
L 79.794664 280.284411 
L 80.878652 278.696194 
L 85.7566 269.673366 
L 87.382583 266.47235 
L 87.924577 264.726791 
L 89.008566 262.809132 
L 90.092554 260.134243 
L 92.260531 256.264509 
L 92.802525 255.108994 
L 93.34452 253.388018 
L 94.428508 250.811473 
L 95.512497 248.962652 
L 96.596485 246.636879 
L 97.138479 245.702634 
L 97.680474 244.094753 
L 98.222468 243.003162 
L 98.764462 241.641131 
L 99.306456 240.623297 
L 100.390445 237.476369 
L 103.64241 231.192354 
L 104.184404 228.782984 
L 104.726399 227.465212 
L 105.268393 226.45721 
L 105.810387 224.868998 
L 106.894375 222.469463 
L 107.978364 218.830832 
L 111.230329 211.322459 
L 112.856312 207.428138 
L 113.940301 205.402299 
L 114.482295 204.502481 
L 115.024289 203.155201 
L 115.566283 202.358637 
L 119.360243 194.894516 
L 119.902237 194.009442 
L 120.986226 191.747592 
L 121.52822 189.913519 
L 122.070214 189.244796 
L 122.612208 187.872936 
L 123.154202 185.945445 
L 124.780185 183.993366 
L 125.322179 183.07879 
L 125.864174 182.744433 
L 126.406168 181.520079 
L 127.490156 180.349813 
L 128.032151 178.609172 
L 128.574145 178.29448 
L 129.658133 176.037545 
L 130.200127 173.967454 
L 130.742122 172.457916 
L 132.368104 170.264891 
L 133.452093 169.650257 
L 133.994087 168.199729 
L 134.536081 167.649019 
L 135.078076 167.388415 
L 136.162064 166.070628 
L 136.704058 165.657596 
L 137.246053 165.52484 
L 138.330041 164.97413 
L 138.872035 164.895455 
L 139.956024 164.261149 
L 140.498018 163.036802 
L 141.582006 163.395739 
L 142.124001 163.961215 
L 142.665995 162.495921 
L 143.207989 162.368073 
L 143.749983 161.861615 
L 144.291978 161.753439 
L 144.833972 161.138804 
L 145.375966 161.001127 
L 147.001949 159.442423 
L 147.543943 159.830861 
L 148.627931 159.7227 
L 149.169926 159.289995 
L 150.253914 158.85729 
L 150.795908 158.867119 
L 151.337903 158.34591 
L 151.879897 158.719613 
L 152.421891 158.459008 
L 152.963885 158.611437 
L 153.505879 158.18856 
L 154.589868 159.127723 
L 155.131862 159.058892 
L 155.673856 158.84254 
L 156.215851 158.50326 
L 156.757845 157.234647 
L 157.299839 157.38709 
L 157.841833 156.851116 
L 158.383828 157.362496 
L 158.925822 157.298571 
L 159.467816 156.851116 
L 160.00981 157.146143 
L 161.093799 156.516759 
L 162.177787 157.864032 
L 162.719781 157.116642 
L 163.80377 156.084054 
L 164.345764 154.889209 
L 164.887758 154.535179 
L 165.429753 153.876293 
L 165.971747 153.723865 
L 167.055735 152.991226 
L 167.59773 152.878127 
L 168.139724 152.184818 
L 168.681718 151.275157 
L 169.223712 150.675273 
L 170.849695 149.613184 
L 171.391689 148.369165 
L 172.475678 146.736708 
L 173.017672 146.628532 
L 174.643655 143.216082 
L 175.185649 142.965306 
L 175.727643 143.52586 
L 176.269637 142.085146 
L 176.811632 141.922889 
L 177.353626 142.571946 
L 177.89562 141.903217 
L 178.437614 140.998477 
L 178.979608 139.611859 
L 179.521603 139.105401 
L 180.063597 138.323588 
L 180.605591 138.082656 
L 181.68958 135.373344 
L 182.231574 135.540523 
L 182.773568 134.385007 
L 183.315562 134.183421 
L 184.941545 134.148998 
L 185.483539 133.68187 
L 186.567528 131.54294 
L 187.109522 130.888976 
L 187.651516 129.989158 
L 188.19351 130.780799 
L 189.277499 128.750046 
L 189.819493 128.499285 
L 190.361487 127.776475 
L 191.445476 125.588371 
L 191.98747 125.34744 
L 194.155447 120.548371 
L 194.697441 120.376271 
L 195.78143 117.440777 
L 196.323424 116.329529 
L 196.865418 116.329529 
L 197.407412 115.060916 
L 197.949407 114.652805 
L 198.491401 113.580872 
L 199.033395 112.81381 
L 199.575389 111.54029 
L 202.827355 106.038084 
L 203.911343 103.972922 
L 204.453337 103.422212 
L 205.537326 101.691393 
L 207.163309 98.298615 
L 207.705303 97.334873 
L 209.331285 93.455295 
L 210.415274 91.59172 
L 210.957268 92.171946 
L 212.041257 90.146115 
L 212.583251 89.634735 
L 215.835216 83.734247 
L 216.377211 82.460727 
L 216.919205 82.0231 
L 217.461199 81.290461 
L 218.003193 80.828255 
L 218.545187 81.30029 
L 219.087182 80.336548 
L 219.629176 80.2382 
L 220.17117 79.348211 
L 220.713164 78.969602 
L 221.255159 78.099285 
L 221.797153 76.929019 
L 222.881141 75.621076 
L 223.423136 75.212951 
L 224.507124 73.010112 
L 225.049118 71.957851 
L 225.591112 71.889019 
L 226.675101 71.082612 
L 227.217095 69.941848 
L 227.759089 69.587818 
L 228.843078 69.499314 
L 229.927066 67.601331 
L 230.469061 67.601331 
L 231.011055 67.016198 
L 232.095043 65.364054 
L 232.637037 65.024774 
L 233.179032 64.941193 
L 233.721026 64.252805 
L 234.805014 63.259547 
L 235.889003 63.259547 
L 236.430997 63.092368 
L 236.972991 62.674414 
L 238.05698 61.041957 
L 238.598974 61.041957 
L 239.140968 60.76168 
L 239.682963 60.048699 
L 240.766951 60.048699 
L 241.308945 59.645495 
L 241.850939 59.625838 
L 242.392934 58.834181 
L 242.934928 58.834181 
L 244.018916 58.076963 
L 245.102905 58.076963 
L 245.644899 57.850767 
L 246.186893 57.34923 
L 255.942789 57.34923 
L 256.484784 57.182052 
L 257.568772 57.182052 
L 258.652761 56.567418 
L 259.194755 56.021615 
L 263.530709 56.021615 
L 264.072703 55.702008 
L 264.614697 55.702008 
L 265.156691 54.99887 
L 265.698686 54.718593 
L 269.492645 54.639918 
L 270.576634 54.580916 
L 271.660622 54.580916 
L 272.202616 54.335062 
L 272.744611 53.863027 
L 273.828599 53.863027 
L 274.370593 54.295732 
L 274.912588 54.369485 
L 275.996576 56.046209 
L 276.53857 56.464163 
L 277.080565 56.710017 
L 277.622559 56.710017 
L 278.164553 57.172208 
L 279.248542 59.060377 
L 280.33253 61.056708 
L 280.874524 61.582823 
L 282.500507 64.469158 
L 283.042501 65.123122 
L 284.668484 67.881593 
L 286.294467 70.635157 
L 287.378455 72.031604 
L 288.462443 73.619824 
L 289.546432 74.775339 
L 290.088426 75.031021 
L 291.172415 75.144119 
L 303.096288 75.144119 
L 303.638282 76.098033 
L 304.72227 76.098033 
L 305.806259 76.61432 
L 307.432242 76.61432 
L 307.974236 77.002773 
L 328.028022 77.002773 
L 329.112011 76.201287 
L 330.195999 74.524563 
L 330.737994 74.106609 
L 331.279988 73.860756 
L 331.821982 73.860756 
L 332.363976 73.398549 
L 333.447965 71.510395 
L 334.531953 69.514065 
L 335.073947 68.987934 
L 336.69993 66.101615 
L 337.241924 65.447651 
L 338.867907 62.689165 
L 340.49389 59.935616 
L 341.577878 58.539154 
L 342.661867 56.950949 
L 343.745855 55.795434 
L 344.287849 55.539751 
L 344.829844 55.426653 
L 345.371838 75.144119 
L 356.753717 75.144119 
L 357.295711 76.098033 
L 358.379699 76.098033 
L 359.463688 76.61432 
L 361.089671 76.61432 
L 361.631665 77.002773 
L 381.685452 77.002773 
L 382.76944 76.201287 
L 383.853428 74.524563 
L 384.395423 74.106609 
L 384.937417 73.860756 
L 385.479411 73.860756 
L 386.021405 73.398549 
L 387.105394 71.510395 
L 388.189382 69.514065 
L 388.731377 68.987934 
L 390.357359 66.101615 
L 390.899353 65.447651 
L 392.525336 62.689165 
L 394.151319 59.935616 
L 395.235307 58.539154 
L 396.319296 56.950949 
L 397.403284 55.795434 
L 397.945278 55.539751 
L 398.487273 55.426653 
L 398.487273 55.426653 
" clip-path="url(#p8ae51b73fe)" style="fill: none; stroke: #ff7f0e; stroke-width: 1.5; stroke-linecap: square"/>
   </g>
   <g id="patch_3">
    <path d="M 57.6 307.584 
L 57.6 41.472 
" style="fill: none; stroke: #000000; stroke-width: 0.8; stroke-linejoin: miter; stroke-linecap: square"/>
   </g>
   <g id="patch_4">
    <path d="M 414.72 307.584 
L 414.72 41.472 
" style="fill: none; stroke: #000000; stroke-width: 0.8; stroke-linejoin: miter; stroke-linecap: square"/>
   </g>
   <g id="patch_5">
    <path d="M 57.6 307.584 
L 414.72 307.584 
" style="fill: none; stroke: #000000; stroke-width: 0.8; stroke-linejoin: miter; stroke-linecap: square"/>
   </g>
   <g id="patch_6">
    <path d="M 57.6 41.472 
L 414.72 41.472 
" style="fill: none; stroke: #000000; stroke-width: 0.8; stroke-linejoin: miter; stroke-linecap: square"/>
   </g>
   <g id="text_16">
    <!-- RESULT -->
    <g transform="translate(213.816563 35.472) scale(0.12 -0.12)">
     <defs>
      <path id="DejaVuSans-4c" d="M 628 4666 
L 1259 4666 
L 1259 531 
L 3531 531 
L 3531 0 
L 628 0 
L 628 4666 
z
" transform="scale(0.015625)"/>
     </defs>
     <use xlink:href="#DejaVuSans-52"/>
     <use xlink:href="#DejaVuSans-45" x="69.482422"/>
     <use xlink:href="#DejaVuSans-53" x="132.666016"/>
     <use xlink:href="#DejaVuSans-55" x="196.142578"/>
     <use xlink:href="#DejaVuSans-4c" x="269.335938"/>
     <use xlink:href="#DejaVuSans-54" x="311.298828"/>
    </g>
   </g>
  </g>
 </g>
 <defs>
  <clipPath id="p8ae51b73fe">
   <rect x="57.6" y="41.472" width="357.12" height="266.112"/>
  </clipPath>
 </defs>
</svg>
