<?xml version="1.0" encoding="utf-8" standalone="no"?>
<!DOCTYPE svg PUBLIC "-//W3C//DTD SVG 1.1//EN"
  "http://www.w3.org/Graphics/SVG/1.1/DTD/svg11.dtd">
<svg xmlns:xlink="http://www.w3.org/1999/xlink" width="460.8pt" height="345.6pt" viewBox="0 0 460.8 345.6" xmlns="http://www.w3.org/2000/svg" version="1.1">
 <metadata>
  <rdf:RDF xmlns:dc="http://purl.org/dc/elements/1.1/" xmlns:cc="http://creativecommons.org/ns#" xmlns:rdf="http://www.w3.org/1999/02/22-rdf-syntax-ns#">
   <cc:Work>
    <dc:type rdf:resource="http://purl.org/dc/dcmitype/StillImage"/>
    <dc:date>2023-03-28T15:38:31.938550</dc:date>
    <dc:format>image/svg+xml</dc:format>
    <dc:creator>
     <cc:Agent>
      <dc:title>Matplotlib v3.6.2, https://matplotlib.org/</dc:title>
     </cc:Agent>
    </dc:creator>
   </cc:Work>
  </rdf:RDF>
 </metadata>
 <defs>
  <style type="text/css">*{stroke-linejoin: round; stroke-linecap: butt}</style>
 </defs>
 <g id="figure_1">
  <g id="patch_1">
   <path d="M 0 345.6 
L 460.8 345.6 
L 460.8 0 
L 0 0 
z
" style="fill: #ffffff"/>
  </g>
  <g id="axes_1">
   <g id="patch_2">
    <path d="M 57.6 307.584 
L 414.72 307.584 
L 414.72 41.472 
L 57.6 41.472 
z
" style="fill: #ffffff"/>
   </g>
   <g id="matplotlib.axis_1">
    <g id="xtick_1">
     <g id="line2d_1">
      <defs>
       <path id="mf377932fc9" d="M 0 0 
L 0 3.5 
" style="stroke: #000000; stroke-width: 0.8"/>
      </defs>
      <g>
       <use xlink:href="#mf377932fc9" x="73.832727" y="307.584" style="stroke: #000000; stroke-width: 0.8"/>
      </g>
     </g>
     <g id="text_1">
      <!-- 0 -->
      <g transform="translate(70.651477 322.182437) scale(0.1 -0.1)">
       <defs>
        <path id="DejaVuSans-30" d="M 2034 4250 
Q 1547 4250 1301 3770 
Q 1056 3291 1056 2328 
Q 1056 1369 1301 889 
Q 1547 409 2034 409 
Q 2525 409 2770 889 
Q 3016 1369 3016 2328 
Q 3016 3291 2770 3770 
Q 2525 4250 2034 4250 
z
M 2034 4750 
Q 2819 4750 3233 4129 
Q 3647 3509 3647 2328 
Q 3647 1150 3233 529 
Q 2819 -91 2034 -91 
Q 1250 -91 836 529 
Q 422 1150 422 2328 
Q 422 3509 836 4129 
Q 1250 4750 2034 4750 
z
" transform="scale(0.015625)"/>
       </defs>
       <use xlink:href="#DejaVuSans-30"/>
      </g>
     </g>
    </g>
    <g id="xtick_2">
     <g id="line2d_2">
      <g>
       <use xlink:href="#mf377932fc9" x="128.032151" y="307.584" style="stroke: #000000; stroke-width: 0.8"/>
      </g>
     </g>
     <g id="text_2">
      <!-- 100 -->
      <g transform="translate(118.488401 322.182437) scale(0.1 -0.1)">
       <defs>
        <path id="DejaVuSans-31" d="M 794 531 
L 1825 531 
L 1825 4091 
L 703 3866 
L 703 4441 
L 1819 4666 
L 2450 4666 
L 2450 531 
L 3481 531 
L 3481 0 
L 794 0 
L 794 531 
z
" transform="scale(0.015625)"/>
       </defs>
       <use xlink:href="#DejaVuSans-31"/>
       <use xlink:href="#DejaVuSans-30" x="63.623047"/>
       <use xlink:href="#DejaVuSans-30" x="127.246094"/>
      </g>
     </g>
    </g>
    <g id="xtick_3">
     <g id="line2d_3">
      <g>
       <use xlink:href="#mf377932fc9" x="182.231574" y="307.584" style="stroke: #000000; stroke-width: 0.8"/>
      </g>
     </g>
     <g id="text_3">
      <!-- 200 -->
      <g transform="translate(172.687824 322.182437) scale(0.1 -0.1)">
       <defs>
        <path id="DejaVuSans-32" d="M 1228 531 
L 3431 531 
L 3431 0 
L 469 0 
L 469 531 
Q 828 903 1448 1529 
Q 2069 2156 2228 2338 
Q 2531 2678 2651 2914 
Q 2772 3150 2772 3378 
Q 2772 3750 2511 3984 
Q 2250 4219 1831 4219 
Q 1534 4219 1204 4116 
Q 875 4013 500 3803 
L 500 4441 
Q 881 4594 1212 4672 
Q 1544 4750 1819 4750 
Q 2544 4750 2975 4387 
Q 3406 4025 3406 3419 
Q 3406 3131 3298 2873 
Q 3191 2616 2906 2266 
Q 2828 2175 2409 1742 
Q 1991 1309 1228 531 
z
" transform="scale(0.015625)"/>
       </defs>
       <use xlink:href="#DejaVuSans-32"/>
       <use xlink:href="#DejaVuSans-30" x="63.623047"/>
       <use xlink:href="#DejaVuSans-30" x="127.246094"/>
      </g>
     </g>
    </g>
    <g id="xtick_4">
     <g id="line2d_4">
      <g>
       <use xlink:href="#mf377932fc9" x="236.430997" y="307.584" style="stroke: #000000; stroke-width: 0.8"/>
      </g>
     </g>
     <g id="text_4">
      <!-- 300 -->
      <g transform="translate(226.887247 322.182437) scale(0.1 -0.1)">
       <defs>
        <path id="DejaVuSans-33" d="M 2597 2516 
Q 3050 2419 3304 2112 
Q 3559 1806 3559 1356 
Q 3559 666 3084 287 
Q 2609 -91 1734 -91 
Q 1441 -91 1130 -33 
Q 819 25 488 141 
L 488 750 
Q 750 597 1062 519 
Q 1375 441 1716 441 
Q 2309 441 2620 675 
Q 2931 909 2931 1356 
Q 2931 1769 2642 2001 
Q 2353 2234 1838 2234 
L 1294 2234 
L 1294 2753 
L 1863 2753 
Q 2328 2753 2575 2939 
Q 2822 3125 2822 3475 
Q 2822 3834 2567 4026 
Q 2313 4219 1838 4219 
Q 1578 4219 1281 4162 
Q 984 4106 628 3988 
L 628 4550 
Q 988 4650 1302 4700 
Q 1616 4750 1894 4750 
Q 2613 4750 3031 4423 
Q 3450 4097 3450 3541 
Q 3450 3153 3228 2886 
Q 3006 2619 2597 2516 
z
" transform="scale(0.015625)"/>
       </defs>
       <use xlink:href="#DejaVuSans-33"/>
       <use xlink:href="#DejaVuSans-30" x="63.623047"/>
       <use xlink:href="#DejaVuSans-30" x="127.246094"/>
      </g>
     </g>
    </g>
    <g id="xtick_5">
     <g id="line2d_5">
      <g>
       <use xlink:href="#mf377932fc9" x="290.63042" y="307.584" style="stroke: #000000; stroke-width: 0.8"/>
      </g>
     </g>
     <g id="text_5">
      <!-- 400 -->
      <g transform="translate(281.08667 322.182437) scale(0.1 -0.1)">
       <defs>
        <path id="DejaVuSans-34" d="M 2419 4116 
L 825 1625 
L 2419 1625 
L 2419 4116 
z
M 2253 4666 
L 3047 4666 
L 3047 1625 
L 3713 1625 
L 3713 1100 
L 3047 1100 
L 3047 0 
L 2419 0 
L 2419 1100 
L 313 1100 
L 313 1709 
L 2253 4666 
z
" transform="scale(0.015625)"/>
       </defs>
       <use xlink:href="#DejaVuSans-34"/>
       <use xlink:href="#DejaVuSans-30" x="63.623047"/>
       <use xlink:href="#DejaVuSans-30" x="127.246094"/>
      </g>
     </g>
    </g>
    <g id="xtick_6">
     <g id="line2d_6">
      <g>
       <use xlink:href="#mf377932fc9" x="344.829844" y="307.584" style="stroke: #000000; stroke-width: 0.8"/>
      </g>
     </g>
     <g id="text_6">
      <!-- 500 -->
      <g transform="translate(335.286094 322.182437) scale(0.1 -0.1)">
       <defs>
        <path id="DejaVuSans-35" d="M 691 4666 
L 3169 4666 
L 3169 4134 
L 1269 4134 
L 1269 2991 
Q 1406 3038 1543 3061 
Q 1681 3084 1819 3084 
Q 2600 3084 3056 2656 
Q 3513 2228 3513 1497 
Q 3513 744 3044 326 
Q 2575 -91 1722 -91 
Q 1428 -91 1123 -41 
Q 819 9 494 109 
L 494 744 
Q 775 591 1075 516 
Q 1375 441 1709 441 
Q 2250 441 2565 725 
Q 2881 1009 2881 1497 
Q 2881 1984 2565 2268 
Q 2250 2553 1709 2553 
Q 1456 2553 1204 2497 
Q 953 2441 691 2322 
L 691 4666 
z
" transform="scale(0.015625)"/>
       </defs>
       <use xlink:href="#DejaVuSans-35"/>
       <use xlink:href="#DejaVuSans-30" x="63.623047"/>
       <use xlink:href="#DejaVuSans-30" x="127.246094"/>
      </g>
     </g>
    </g>
    <g id="xtick_7">
     <g id="line2d_7">
      <g>
       <use xlink:href="#mf377932fc9" x="399.029267" y="307.584" style="stroke: #000000; stroke-width: 0.8"/>
      </g>
     </g>
     <g id="text_7">
      <!-- 600 -->
      <g transform="translate(389.485517 322.182437) scale(0.1 -0.1)">
       <defs>
        <path id="DejaVuSans-36" d="M 2113 2584 
Q 1688 2584 1439 2293 
Q 1191 2003 1191 1497 
Q 1191 994 1439 701 
Q 1688 409 2113 409 
Q 2538 409 2786 701 
Q 3034 994 3034 1497 
Q 3034 2003 2786 2293 
Q 2538 2584 2113 2584 
z
M 3366 4563 
L 3366 3988 
Q 3128 4100 2886 4159 
Q 2644 4219 2406 4219 
Q 1781 4219 1451 3797 
Q 1122 3375 1075 2522 
Q 1259 2794 1537 2939 
Q 1816 3084 2150 3084 
Q 2853 3084 3261 2657 
Q 3669 2231 3669 1497 
Q 3669 778 3244 343 
Q 2819 -91 2113 -91 
Q 1303 -91 875 529 
Q 447 1150 447 2328 
Q 447 3434 972 4092 
Q 1497 4750 2381 4750 
Q 2619 4750 2861 4703 
Q 3103 4656 3366 4563 
z
" transform="scale(0.015625)"/>
       </defs>
       <use xlink:href="#DejaVuSans-36"/>
       <use xlink:href="#DejaVuSans-30" x="63.623047"/>
       <use xlink:href="#DejaVuSans-30" x="127.246094"/>
      </g>
     </g>
    </g>
    <g id="text_8">
     <!-- EPISODE -->
     <g transform="translate(214.39125 335.860562) scale(0.1 -0.1)">
      <defs>
       <path id="DejaVuSans-45" d="M 628 4666 
L 3578 4666 
L 3578 4134 
L 1259 4134 
L 1259 2753 
L 3481 2753 
L 3481 2222 
L 1259 2222 
L 1259 531 
L 3634 531 
L 3634 0 
L 628 0 
L 628 4666 
z
" transform="scale(0.015625)"/>
       <path id="DejaVuSans-50" d="M 1259 4147 
L 1259 2394 
L 2053 2394 
Q 2494 2394 2734 2622 
Q 2975 2850 2975 3272 
Q 2975 3691 2734 3919 
Q 2494 4147 2053 4147 
L 1259 4147 
z
M 628 4666 
L 2053 4666 
Q 2838 4666 3239 4311 
Q 3641 3956 3641 3272 
Q 3641 2581 3239 2228 
Q 2838 1875 2053 1875 
L 1259 1875 
L 1259 0 
L 628 0 
L 628 4666 
z
" transform="scale(0.015625)"/>
       <path id="DejaVuSans-49" d="M 628 4666 
L 1259 4666 
L 1259 0 
L 628 0 
L 628 4666 
z
" transform="scale(0.015625)"/>
       <path id="DejaVuSans-53" d="M 3425 4513 
L 3425 3897 
Q 3066 4069 2747 4153 
Q 2428 4238 2131 4238 
Q 1616 4238 1336 4038 
Q 1056 3838 1056 3469 
Q 1056 3159 1242 3001 
Q 1428 2844 1947 2747 
L 2328 2669 
Q 3034 2534 3370 2195 
Q 3706 1856 3706 1288 
Q 3706 609 3251 259 
Q 2797 -91 1919 -91 
Q 1588 -91 1214 -16 
Q 841 59 441 206 
L 441 856 
Q 825 641 1194 531 
Q 1563 422 1919 422 
Q 2459 422 2753 634 
Q 3047 847 3047 1241 
Q 3047 1584 2836 1778 
Q 2625 1972 2144 2069 
L 1759 2144 
Q 1053 2284 737 2584 
Q 422 2884 422 3419 
Q 422 4038 858 4394 
Q 1294 4750 2059 4750 
Q 2388 4750 2728 4690 
Q 3069 4631 3425 4513 
z
" transform="scale(0.015625)"/>
       <path id="DejaVuSans-4f" d="M 2522 4238 
Q 1834 4238 1429 3725 
Q 1025 3213 1025 2328 
Q 1025 1447 1429 934 
Q 1834 422 2522 422 
Q 3209 422 3611 934 
Q 4013 1447 4013 2328 
Q 4013 3213 3611 3725 
Q 3209 4238 2522 4238 
z
M 2522 4750 
Q 3503 4750 4090 4092 
Q 4678 3434 4678 2328 
Q 4678 1225 4090 567 
Q 3503 -91 2522 -91 
Q 1538 -91 948 565 
Q 359 1222 359 2328 
Q 359 3434 948 4092 
Q 1538 4750 2522 4750 
z
" transform="scale(0.015625)"/>
       <path id="DejaVuSans-44" d="M 1259 4147 
L 1259 519 
L 2022 519 
Q 2988 519 3436 956 
Q 3884 1394 3884 2338 
Q 3884 3275 3436 3711 
Q 2988 4147 2022 4147 
L 1259 4147 
z
M 628 4666 
L 1925 4666 
Q 3281 4666 3915 4102 
Q 4550 3538 4550 2338 
Q 4550 1131 3912 565 
Q 3275 0 1925 0 
L 628 0 
L 628 4666 
z
" transform="scale(0.015625)"/>
      </defs>
      <use xlink:href="#DejaVuSans-45"/>
      <use xlink:href="#DejaVuSans-50" x="63.183594"/>
      <use xlink:href="#DejaVuSans-49" x="123.486328"/>
      <use xlink:href="#DejaVuSans-53" x="152.978516"/>
      <use xlink:href="#DejaVuSans-4f" x="216.455078"/>
      <use xlink:href="#DejaVuSans-44" x="295.166016"/>
      <use xlink:href="#DejaVuSans-45" x="372.167969"/>
     </g>
    </g>
   </g>
   <g id="matplotlib.axis_2">
    <g id="ytick_1">
     <g id="line2d_8">
      <defs>
       <path id="mf34b70e4c6" d="M 0 0 
L -3.5 0 
" style="stroke: #000000; stroke-width: 0.8"/>
      </defs>
      <g>
       <use xlink:href="#mf34b70e4c6" x="57.6" y="299.421659" style="stroke: #000000; stroke-width: 0.8"/>
      </g>
     </g>
     <g id="text_9">
      <!-- 0 -->
      <g transform="translate(44.2375 303.220877) scale(0.1 -0.1)">
       <use xlink:href="#DejaVuSans-30"/>
      </g>
     </g>
    </g>
    <g id="ytick_2">
     <g id="line2d_9">
      <g>
       <use xlink:href="#mf34b70e4c6" x="57.6" y="250.250927" style="stroke: #000000; stroke-width: 0.8"/>
      </g>
     </g>
     <g id="text_10">
      <!-- 100 -->
      <g transform="translate(31.5125 254.050146) scale(0.1 -0.1)">
       <use xlink:href="#DejaVuSans-31"/>
       <use xlink:href="#DejaVuSans-30" x="63.623047"/>
       <use xlink:href="#DejaVuSans-30" x="127.246094"/>
      </g>
     </g>
    </g>
    <g id="ytick_3">
     <g id="line2d_10">
      <g>
       <use xlink:href="#mf34b70e4c6" x="57.6" y="201.080195" style="stroke: #000000; stroke-width: 0.8"/>
      </g>
     </g>
     <g id="text_11">
      <!-- 200 -->
      <g transform="translate(31.5125 204.879414) scale(0.1 -0.1)">
       <use xlink:href="#DejaVuSans-32"/>
       <use xlink:href="#DejaVuSans-30" x="63.623047"/>
       <use xlink:href="#DejaVuSans-30" x="127.246094"/>
      </g>
     </g>
    </g>
    <g id="ytick_4">
     <g id="line2d_11">
      <g>
       <use xlink:href="#mf34b70e4c6" x="57.6" y="151.909463" style="stroke: #000000; stroke-width: 0.8"/>
      </g>
     </g>
     <g id="text_12">
      <!-- 300 -->
      <g transform="translate(31.5125 155.708682) scale(0.1 -0.1)">
       <use xlink:href="#DejaVuSans-33"/>
       <use xlink:href="#DejaVuSans-30" x="63.623047"/>
       <use xlink:href="#DejaVuSans-30" x="127.246094"/>
      </g>
     </g>
    </g>
    <g id="ytick_5">
     <g id="line2d_12">
      <g>
       <use xlink:href="#mf34b70e4c6" x="57.6" y="102.738732" style="stroke: #000000; stroke-width: 0.8"/>
      </g>
     </g>
     <g id="text_13">
      <!-- 400 -->
      <g transform="translate(31.5125 106.53795) scale(0.1 -0.1)">
       <use xlink:href="#DejaVuSans-34"/>
       <use xlink:href="#DejaVuSans-30" x="63.623047"/>
       <use xlink:href="#DejaVuSans-30" x="127.246094"/>
      </g>
     </g>
    </g>
    <g id="ytick_6">
     <g id="line2d_13">
      <g>
       <use xlink:href="#mf34b70e4c6" x="57.6" y="53.568" style="stroke: #000000; stroke-width: 0.8"/>
      </g>
     </g>
     <g id="text_14">
      <!-- 500 -->
      <g transform="translate(31.5125 57.367219) scale(0.1 -0.1)">
       <use xlink:href="#DejaVuSans-35"/>
       <use xlink:href="#DejaVuSans-30" x="63.623047"/>
       <use xlink:href="#DejaVuSans-30" x="127.246094"/>
      </g>
     </g>
    </g>
    <g id="text_15">
     <!-- RETURN -->
     <g transform="translate(25.432812 195.089719) rotate(-90) scale(0.1 -0.1)">
      <defs>
       <path id="DejaVuSans-52" d="M 2841 2188 
Q 3044 2119 3236 1894 
Q 3428 1669 3622 1275 
L 4263 0 
L 3584 0 
L 2988 1197 
Q 2756 1666 2539 1819 
Q 2322 1972 1947 1972 
L 1259 1972 
L 1259 0 
L 628 0 
L 628 4666 
L 2053 4666 
Q 2853 4666 3247 4331 
Q 3641 3997 3641 3322 
Q 3641 2881 3436 2590 
Q 3231 2300 2841 2188 
z
M 1259 4147 
L 1259 2491 
L 2053 2491 
Q 2509 2491 2742 2702 
Q 2975 2913 2975 3322 
Q 2975 3731 2742 3939 
Q 2509 4147 2053 4147 
L 1259 4147 
z
" transform="scale(0.015625)"/>
       <path id="DejaVuSans-54" d="M -19 4666 
L 3928 4666 
L 3928 4134 
L 2272 4134 
L 2272 0 
L 1638 0 
L 1638 4134 
L -19 4134 
L -19 4666 
z
" transform="scale(0.015625)"/>
       <path id="DejaVuSans-55" d="M 556 4666 
L 1191 4666 
L 1191 1831 
Q 1191 1081 1462 751 
Q 1734 422 2344 422 
Q 2950 422 3222 751 
Q 3494 1081 3494 1831 
L 3494 4666 
L 4128 4666 
L 4128 1753 
Q 4128 841 3676 375 
Q 3225 -91 2344 -91 
Q 1459 -91 1007 375 
Q 556 841 556 1753 
L 556 4666 
z
" transform="scale(0.015625)"/>
       <path id="DejaVuSans-4e" d="M 628 4666 
L 1478 4666 
L 3547 763 
L 3547 4666 
L 4159 4666 
L 4159 0 
L 3309 0 
L 1241 3903 
L 1241 0 
L 628 0 
L 628 4666 
z
" transform="scale(0.015625)"/>
      </defs>
      <use xlink:href="#DejaVuSans-52"/>
      <use xlink:href="#DejaVuSans-45" x="69.482422"/>
      <use xlink:href="#DejaVuSans-54" x="132.666016"/>
      <use xlink:href="#DejaVuSans-55" x="193.75"/>
      <use xlink:href="#DejaVuSans-52" x="266.943359"/>
      <use xlink:href="#DejaVuSans-4e" x="336.425781"/>
     </g>
    </g>
   </g>
   <g id="line2d_14">
    <path d="M 73.832727 292.537756 
L 74.374722 294.996293 
L 74.916716 287.620683 
L 76.000704 294.012878 
L 76.542698 286.145561 
L 77.084693 287.128976 
L 77.626687 294.504585 
L 78.168681 273.852878 
L 78.710675 289.095805 
L 79.25267 291.554341 
L 79.794664 288.11239 
L 80.336658 293.029463 
L 81.420647 274.344585 
L 81.962641 294.012878 
L 82.504635 291.062634 
L 83.046629 289.095805 
L 83.588623 281.228488 
L 84.130618 293.521171 
L 84.672612 294.504585 
L 85.214606 289.095805 
L 85.7566 294.504585 
L 86.298595 294.996293 
L 86.840589 292.537756 
L 87.382583 292.046049 
L 87.924577 293.029463 
L 88.466572 294.504585 
L 89.008566 291.554341 
L 89.55056 291.062634 
L 90.092554 294.996293 
L 90.634548 294.996293 
L 91.176543 293.521171 
L 91.718537 294.504585 
L 92.260531 294.504585 
L 92.802525 293.029463 
L 93.34452 292.537756 
L 93.886514 292.537756 
L 94.428508 294.504585 
L 94.970502 294.996293 
L 95.512497 292.537756 
L 96.054491 292.537756 
L 96.596485 294.996293 
L 97.138479 293.521171 
L 97.680474 290.570927 
L 98.222468 294.012878 
L 98.764462 288.604098 
L 99.306456 293.029463 
L 99.84845 291.062634 
L 100.390445 291.554341 
L 100.932439 293.521171 
L 101.474433 294.012878 
L 102.016427 293.029463 
L 102.558422 291.062634 
L 103.100416 292.537756 
L 104.184404 292.537756 
L 104.726399 294.996293 
L 105.268393 294.504585 
L 105.810387 292.537756 
L 106.352381 291.554341 
L 106.894375 294.504585 
L 107.43637 295.488 
L 107.978364 294.504585 
L 108.520358 292.537756 
L 109.062352 294.012878 
L 109.604347 294.504585 
L 110.146341 276.803122 
L 110.688335 293.029463 
L 111.230329 280.245073 
L 112.314318 284.670439 
L 112.856312 262.051902 
L 113.398306 285.653854 
L 113.940301 258.118244 
L 114.482295 252.709463 
L 115.024289 261.560195 
L 115.566283 255.659707 
L 116.108277 269.427512 
L 116.650272 247.79239 
L 117.192266 231.566049 
L 117.73426 263.035317 
L 118.276254 250.742634 
L 118.818249 269.91922 
L 119.360243 265.985561 
L 119.902237 248.775805 
L 120.444231 282.211902 
L 120.986226 250.250927 
L 121.52822 264.510439 
L 122.070214 264.510439 
L 122.612208 256.643122 
L 123.154202 261.068488 
L 123.696197 250.250927 
L 124.238191 248.284098 
L 124.780185 253.692878 
L 125.322179 246.808976 
L 125.864174 233.532878 
L 126.406168 245.333854 
L 126.948162 175.019707 
L 127.490156 212.881171 
L 128.032151 206.980683 
L 128.574145 162.235317 
L 129.116139 172.561171 
L 129.658133 148.467512 
L 130.200127 70.777756 
L 130.742122 214.356293 
L 131.284116 245.825561 
L 131.82611 209.930927 
L 132.368104 218.781659 
L 132.910099 235.991415 
L 133.452093 223.698732 
L 134.536081 194.688 
L 135.078076 190.262634 
L 135.62007 206.488976 
L 136.162064 208.947512 
L 136.704058 175.511415 
L 137.246053 53.568 
L 137.788047 136.174829 
L 138.330041 181.411902 
L 138.872035 194.688 
L 139.414029 107.164098 
L 139.956024 214.356293 
L 140.498018 187.31239 
L 141.040012 195.179707 
L 141.582006 125.848976 
L 142.124001 180.920195 
L 142.665995 182.395317 
L 143.207989 92.904585 
L 143.749983 178.953366 
L 144.291978 185.837268 
L 144.833972 157.318244 
L 145.375966 155.351415 
L 145.91796 170.102634 
L 146.459954 174.036293 
L 147.001949 183.870439 
L 147.543943 156.334829 
L 148.085937 169.610927 
L 148.627931 157.809951 
L 149.169926 199.113366 
L 149.71192 155.351415 
L 150.253914 84.545561 
L 150.795908 141.091902 
L 151.337903 117.981659 
L 151.879897 81.595317 
L 152.421891 132.241171 
L 152.963885 136.666537 
L 153.505879 166.168976 
L 154.047874 176.003122 
L 154.589868 143.550439 
L 155.131862 154.859707 
L 155.673856 193.212878 
L 156.757845 168.627512 
L 157.299839 162.727024 
L 157.841833 167.644098 
L 158.383828 187.31239 
L 158.925822 189.27922 
L 159.467816 194.196293 
L 160.00981 192.721171 
L 160.551805 106.67239 
L 161.093799 201.080195 
L 161.635793 185.345561 
L 162.177787 157.809951 
L 162.719781 143.550439 
L 163.261776 177.969951 
L 163.80377 144.533854 
L 164.345764 166.168976 
L 164.887758 133.224585 
L 165.429753 82.578732 
L 165.971747 81.10361 
L 166.513741 112.081171 
L 167.055735 103.230439 
L 167.59773 176.986537 
L 168.139724 119.45678 
L 168.681718 100.771902 
L 169.223712 126.83239 
L 169.765706 207.47239 
L 170.307701 100.771902 
L 170.849695 84.545561 
L 171.391689 85.528976 
L 171.933683 53.568 
L 173.017672 213.372878 
L 174.10166 122.407024 
L 174.643655 167.644098 
L 175.185649 120.931902 
L 175.727643 164.202146 
L 176.269637 153.876293 
L 176.811632 161.74361 
L 177.353626 99.29678 
L 177.89562 167.15239 
L 178.437614 137.649951 
L 178.979608 53.568 
L 179.521603 128.79922 
L 180.063597 111.589463 
L 180.605591 143.058732 
L 181.147585 124.373854 
L 181.68958 56.518244 
L 182.231574 147.975805 
L 182.773568 154.368 
L 183.315562 154.368 
L 183.857557 159.285073 
L 184.399551 160.268488 
L 184.941545 168.135805 
L 185.483539 162.235317 
L 186.025533 158.301659 
L 186.567528 84.053854 
L 187.109522 113.556293 
L 187.651516 152.401171 
L 188.19351 142.567024 
L 188.735505 142.567024 
L 189.277499 143.550439 
L 189.819493 142.075317 
L 190.361487 128.79922 
L 190.903482 122.898732 
L 191.445476 105.197268 
L 191.98747 116.014829 
L 192.529464 139.125073 
L 193.071458 97.329951 
L 193.613453 106.67239 
L 194.155447 62.418732 
L 194.697441 109.130927 
L 195.239435 82.578732 
L 195.78143 89.954341 
L 196.323424 85.528976 
L 196.865418 53.568 
L 197.949407 53.568 
L 198.491401 68.810927 
L 199.033395 53.568 
L 201.201372 53.568 
L 201.743366 65.860683 
L 202.28536 53.568 
L 208.789291 53.568 
L 209.331285 65.368976 
L 209.87328 53.568 
L 223.96513 53.568 
L 224.507124 291.062634 
L 225.049118 53.568 
L 264.072703 53.568 
L 264.614697 294.504585 
L 265.156691 53.568 
L 268.408657 53.568 
L 268.950651 96.838244 
L 269.492645 101.26361 
L 270.03464 53.568 
L 314.478167 53.568 
L 315.020161 168.627512 
L 315.562155 53.568 
L 319.898109 53.568 
L 320.440103 206.980683 
L 320.982097 53.568 
L 323.692069 53.568 
L 324.234063 205.505561 
L 324.776057 53.568 
L 348.081809 53.568 
L 348.623803 284.178732 
L 349.165798 281.720195 
L 349.707792 53.568 
L 398.487273 53.568 
L 398.487273 53.568 
" clip-path="url(#p414af9b817)" style="fill: none; stroke: #1f77b4; stroke-width: 1.5; stroke-linecap: square"/>
   </g>
   <g id="line2d_15">
    <path d="M 73.832727 280.348331 
L 74.374722 279.492762 
L 76.000704 275.593522 
L 76.542698 273.361171 
L 77.084693 272.643278 
L 77.626687 272.230244 
L 78.168681 271.384507 
L 79.794664 269.624196 
L 80.878652 267.844214 
L 81.420647 266.905055 
L 82.504635 265.375845 
L 83.046629 264.220334 
L 83.588623 261.865055 
L 84.130618 260.414516 
L 85.214606 258.295259 
L 85.7566 256.475943 
L 86.298595 255.674458 
L 87.382583 253.624039 
L 87.924577 251.96207 
L 89.008566 249.719882 
L 89.55056 247.733384 
L 91.176543 244.143923 
L 92.260531 241.518204 
L 96.054491 232.932995 
L 96.596485 230.853075 
L 97.680474 227.558637 
L 98.222468 225.468881 
L 99.306456 222.331786 
L 104.184404 211.155281 
L 106.352381 207.044607 
L 106.894375 205.195783 
L 107.978364 203.160115 
L 111.230329 194.938768 
L 112.856312 189.220217 
L 113.398306 187.631997 
L 113.940301 186.545328 
L 115.566283 182.292055 
L 116.108277 181.810184 
L 118.276254 174.936118 
L 118.818249 173.844527 
L 119.360243 173.279059 
L 119.902237 172.285816 
L 121.52822 168.58326 
L 123.154202 165.52484 
L 123.696197 163.907119 
L 124.238191 163.076132 
L 124.780185 161.969791 
L 125.322179 159.968554 
L 126.948162 156.54626 
L 127.490156 156.039802 
L 128.032151 154.476176 
L 128.574145 153.886121 
L 130.200127 153.733693 
L 130.742122 154.628604 
L 131.284116 154.166398 
L 131.82611 153.330505 
L 132.368104 152.814203 
L 133.452093 150.242568 
L 134.536081 148.870716 
L 136.162064 147.238244 
L 136.704058 146.436759 
L 137.246053 145.910628 
L 137.788047 146.42693 
L 138.330041 146.225328 
L 138.872035 145.802452 
L 139.414029 144.828881 
L 139.956024 144.823959 
L 140.498018 143.304585 
L 141.040012 142.522773 
L 141.582006 141.396759 
L 142.124001 141.037822 
L 142.665995 140.083908 
L 143.207989 138.795623 
L 143.749983 138.402263 
L 144.833972 135.978149 
L 146.459954 132.757457 
L 148.627931 128.184585 
L 149.169926 127.142168 
L 149.71192 125.686719 
L 150.253914 124.668881 
L 150.795908 124.359103 
L 151.337903 123.483865 
L 151.879897 122.839729 
L 152.421891 122.559452 
L 153.505879 120.941731 
L 155.131862 117.691553 
L 155.673856 116.796642 
L 156.757845 114.116846 
L 158.925822 109.396453 
L 160.551805 105.24152 
L 161.093799 104.710483 
L 162.177787 101.917574 
L 165.429753 95.899081 
L 166.513741 95.333621 
L 167.59773 94.251859 
L 168.139724 93.017683 
L 168.681718 92.358797 
L 169.223712 91.886748 
L 169.765706 91.154109 
L 170.307701 89.615062 
L 170.849695 91.517967 
L 171.933683 90.888582 
L 172.475678 90.888582 
L 173.017672 90.008422 
L 173.559666 88.410373 
L 174.10166 87.279452 
L 174.643655 86.591065 
L 175.185649 85.450301 
L 175.727643 84.776664 
L 177.353626 81.585488 
L 177.89562 81.128189 
L 178.437614 79.992346 
L 178.979608 79.151531 
L 179.521603 79.151531 
L 181.68958 76.216038 
L 182.231574 76.186537 
L 183.857557 73.226464 
L 186.567528 67.82259 
L 187.109522 67.517734 
L 187.651516 66.917851 
L 189.277499 64.149536 
L 190.903482 61.612325 
L 191.98747 60.402729 
L 192.529464 59.778266 
L 193.071458 58.9227 
L 194.155447 57.954036 
L 194.697441 57.865517 
L 195.239435 57.309885 
L 196.865418 56.336315 
L 198.491401 56.336315 
L 199.033395 56.183887 
L 201.743366 56.183887 
L 202.28536 56.06096 
L 209.331285 56.06096 
L 209.87328 55.94294 
L 210.415274 55.94294 
L 210.957268 58.352318 
L 214.751228 58.352318 
L 215.835216 59.261964 
L 224.507124 59.261964 
L 225.049118 56.887024 
L 260.820738 56.887024 
L 261.362732 58.037618 
L 264.614697 58.037618 
L 265.156691 55.628255 
L 266.24068 55.628255 
L 266.782674 57.162379 
L 268.950651 57.162379 
L 270.03464 56.252718 
L 270.576634 57.772092 
L 294.42438 57.772092 
L 295.508368 62.359729 
L 315.020161 62.359729 
L 315.562155 61.209136 
L 320.440103 61.209136 
L 320.982097 59.675011 
L 324.234063 59.675011 
L 324.776057 58.155623 
L 344.829844 58.155623 
L 345.371838 57.772092 
L 348.081809 57.772092 
L 349.165798 62.359729 
L 368.67759 62.359729 
L 369.219584 61.209136 
L 374.097532 61.209136 
L 374.639526 59.675011 
L 377.891492 59.675011 
L 378.433486 58.155623 
L 398.487273 58.155623 
L 398.487273 58.155623 
" clip-path="url(#p414af9b817)" style="fill: none; stroke: #ff7f0e; stroke-width: 1.5; stroke-linecap: square"/>
   </g>
   <g id="patch_3">
    <path d="M 57.6 307.584 
L 57.6 41.472 
" style="fill: none; stroke: #000000; stroke-width: 0.8; stroke-linejoin: miter; stroke-linecap: square"/>
   </g>
   <g id="patch_4">
    <path d="M 414.72 307.584 
L 414.72 41.472 
" style="fill: none; stroke: #000000; stroke-width: 0.8; stroke-linejoin: miter; stroke-linecap: square"/>
   </g>
   <g id="patch_5">
    <path d="M 57.6 307.584 
L 414.72 307.584 
" style="fill: none; stroke: #000000; stroke-width: 0.8; stroke-linejoin: miter; stroke-linecap: square"/>
   </g>
   <g id="patch_6">
    <path d="M 57.6 41.472 
L 414.72 41.472 
" style="fill: none; stroke: #000000; stroke-width: 0.8; stroke-linejoin: miter; stroke-linecap: square"/>
   </g>
   <g id="text_16">
    <!-- RESULT -->
    <g transform="translate(213.816563 35.472) scale(0.12 -0.12)">
     <defs>
      <path id="DejaVuSans-4c" d="M 628 4666 
L 1259 4666 
L 1259 531 
L 3531 531 
L 3531 0 
L 628 0 
L 628 4666 
z
" transform="scale(0.015625)"/>
     </defs>
     <use xlink:href="#DejaVuSans-52"/>
     <use xlink:href="#DejaVuSans-45" x="69.482422"/>
     <use xlink:href="#DejaVuSans-53" x="132.666016"/>
     <use xlink:href="#DejaVuSans-55" x="196.142578"/>
     <use xlink:href="#DejaVuSans-4c" x="269.335938"/>
     <use xlink:href="#DejaVuSans-54" x="311.298828"/>
    </g>
   </g>
  </g>
 </g>
 <defs>
  <clipPath id="p414af9b817">
   <rect x="57.6" y="41.472" width="357.12" height="266.112"/>
  </clipPath>
 </defs>
</svg>
