<?xml version="1.0" encoding="utf-8" standalone="no"?>
<!DOCTYPE svg PUBLIC "-//W3C//DTD SVG 1.1//EN"
  "http://www.w3.org/Graphics/SVG/1.1/DTD/svg11.dtd">
<svg xmlns:xlink="http://www.w3.org/1999/xlink" width="460.8pt" height="345.6pt" viewBox="0 0 460.8 345.6" xmlns="http://www.w3.org/2000/svg" version="1.1">
 <metadata>
  <rdf:RDF xmlns:dc="http://purl.org/dc/elements/1.1/" xmlns:cc="http://creativecommons.org/ns#" xmlns:rdf="http://www.w3.org/1999/02/22-rdf-syntax-ns#">
   <cc:Work>
    <dc:type rdf:resource="http://purl.org/dc/dcmitype/StillImage"/>
    <dc:date>2023-03-30T09:47:50.238148</dc:date>
    <dc:format>image/svg+xml</dc:format>
    <dc:creator>
     <cc:Agent>
      <dc:title>Matplotlib v3.6.2, https://matplotlib.org/</dc:title>
     </cc:Agent>
    </dc:creator>
   </cc:Work>
  </rdf:RDF>
 </metadata>
 <defs>
  <style type="text/css">*{stroke-linejoin: round; stroke-linecap: butt}</style>
 </defs>
 <g id="figure_1">
  <g id="patch_1">
   <path d="M 0 345.6 
L 460.8 345.6 
L 460.8 0 
L 0 0 
z
" style="fill: #ffffff"/>
  </g>
  <g id="axes_1">
   <g id="patch_2">
    <path d="M 57.6 307.584 
L 414.72 307.584 
L 414.72 41.472 
L 57.6 41.472 
z
" style="fill: #ffffff"/>
   </g>
   <g id="matplotlib.axis_1">
    <g id="xtick_1">
     <g id="line2d_1">
      <defs>
       <path id="m2c2ae8da52" d="M 0 0 
L 0 3.5 
" style="stroke: #000000; stroke-width: 0.8"/>
      </defs>
      <g>
       <use xlink:href="#m2c2ae8da52" x="73.832727" y="307.584" style="stroke: #000000; stroke-width: 0.8"/>
      </g>
     </g>
     <g id="text_1">
      <!-- 0 -->
      <g transform="translate(70.651477 322.182437) scale(0.1 -0.1)">
       <defs>
        <path id="DejaVuSans-30" d="M 2034 4250 
Q 1547 4250 1301 3770 
Q 1056 3291 1056 2328 
Q 1056 1369 1301 889 
Q 1547 409 2034 409 
Q 2525 409 2770 889 
Q 3016 1369 3016 2328 
Q 3016 3291 2770 3770 
Q 2525 4250 2034 4250 
z
M 2034 4750 
Q 2819 4750 3233 4129 
Q 3647 3509 3647 2328 
Q 3647 1150 3233 529 
Q 2819 -91 2034 -91 
Q 1250 -91 836 529 
Q 422 1150 422 2328 
Q 422 3509 836 4129 
Q 1250 4750 2034 4750 
z
" transform="scale(0.015625)"/>
       </defs>
       <use xlink:href="#DejaVuSans-30"/>
      </g>
     </g>
    </g>
    <g id="xtick_2">
     <g id="line2d_2">
      <g>
       <use xlink:href="#m2c2ae8da52" x="138.893758" y="307.584" style="stroke: #000000; stroke-width: 0.8"/>
      </g>
     </g>
     <g id="text_2">
      <!-- 100 -->
      <g transform="translate(129.350008 322.182437) scale(0.1 -0.1)">
       <defs>
        <path id="DejaVuSans-31" d="M 794 531 
L 1825 531 
L 1825 4091 
L 703 3866 
L 703 4441 
L 1819 4666 
L 2450 4666 
L 2450 531 
L 3481 531 
L 3481 0 
L 794 0 
L 794 531 
z
" transform="scale(0.015625)"/>
       </defs>
       <use xlink:href="#DejaVuSans-31"/>
       <use xlink:href="#DejaVuSans-30" x="63.623047"/>
       <use xlink:href="#DejaVuSans-30" x="127.246094"/>
      </g>
     </g>
    </g>
    <g id="xtick_3">
     <g id="line2d_3">
      <g>
       <use xlink:href="#m2c2ae8da52" x="203.95479" y="307.584" style="stroke: #000000; stroke-width: 0.8"/>
      </g>
     </g>
     <g id="text_3">
      <!-- 200 -->
      <g transform="translate(194.41104 322.182437) scale(0.1 -0.1)">
       <defs>
        <path id="DejaVuSans-32" d="M 1228 531 
L 3431 531 
L 3431 0 
L 469 0 
L 469 531 
Q 828 903 1448 1529 
Q 2069 2156 2228 2338 
Q 2531 2678 2651 2914 
Q 2772 3150 2772 3378 
Q 2772 3750 2511 3984 
Q 2250 4219 1831 4219 
Q 1534 4219 1204 4116 
Q 875 4013 500 3803 
L 500 4441 
Q 881 4594 1212 4672 
Q 1544 4750 1819 4750 
Q 2544 4750 2975 4387 
Q 3406 4025 3406 3419 
Q 3406 3131 3298 2873 
Q 3191 2616 2906 2266 
Q 2828 2175 2409 1742 
Q 1991 1309 1228 531 
z
" transform="scale(0.015625)"/>
       </defs>
       <use xlink:href="#DejaVuSans-32"/>
       <use xlink:href="#DejaVuSans-30" x="63.623047"/>
       <use xlink:href="#DejaVuSans-30" x="127.246094"/>
      </g>
     </g>
    </g>
    <g id="xtick_4">
     <g id="line2d_4">
      <g>
       <use xlink:href="#m2c2ae8da52" x="269.015821" y="307.584" style="stroke: #000000; stroke-width: 0.8"/>
      </g>
     </g>
     <g id="text_4">
      <!-- 300 -->
      <g transform="translate(259.472071 322.182437) scale(0.1 -0.1)">
       <defs>
        <path id="DejaVuSans-33" d="M 2597 2516 
Q 3050 2419 3304 2112 
Q 3559 1806 3559 1356 
Q 3559 666 3084 287 
Q 2609 -91 1734 -91 
Q 1441 -91 1130 -33 
Q 819 25 488 141 
L 488 750 
Q 750 597 1062 519 
Q 1375 441 1716 441 
Q 2309 441 2620 675 
Q 2931 909 2931 1356 
Q 2931 1769 2642 2001 
Q 2353 2234 1838 2234 
L 1294 2234 
L 1294 2753 
L 1863 2753 
Q 2328 2753 2575 2939 
Q 2822 3125 2822 3475 
Q 2822 3834 2567 4026 
Q 2313 4219 1838 4219 
Q 1578 4219 1281 4162 
Q 984 4106 628 3988 
L 628 4550 
Q 988 4650 1302 4700 
Q 1616 4750 1894 4750 
Q 2613 4750 3031 4423 
Q 3450 4097 3450 3541 
Q 3450 3153 3228 2886 
Q 3006 2619 2597 2516 
z
" transform="scale(0.015625)"/>
       </defs>
       <use xlink:href="#DejaVuSans-33"/>
       <use xlink:href="#DejaVuSans-30" x="63.623047"/>
       <use xlink:href="#DejaVuSans-30" x="127.246094"/>
      </g>
     </g>
    </g>
    <g id="xtick_5">
     <g id="line2d_5">
      <g>
       <use xlink:href="#m2c2ae8da52" x="334.076852" y="307.584" style="stroke: #000000; stroke-width: 0.8"/>
      </g>
     </g>
     <g id="text_5">
      <!-- 400 -->
      <g transform="translate(324.533102 322.182437) scale(0.1 -0.1)">
       <defs>
        <path id="DejaVuSans-34" d="M 2419 4116 
L 825 1625 
L 2419 1625 
L 2419 4116 
z
M 2253 4666 
L 3047 4666 
L 3047 1625 
L 3713 1625 
L 3713 1100 
L 3047 1100 
L 3047 0 
L 2419 0 
L 2419 1100 
L 313 1100 
L 313 1709 
L 2253 4666 
z
" transform="scale(0.015625)"/>
       </defs>
       <use xlink:href="#DejaVuSans-34"/>
       <use xlink:href="#DejaVuSans-30" x="63.623047"/>
       <use xlink:href="#DejaVuSans-30" x="127.246094"/>
      </g>
     </g>
    </g>
    <g id="xtick_6">
     <g id="line2d_6">
      <g>
       <use xlink:href="#m2c2ae8da52" x="399.137883" y="307.584" style="stroke: #000000; stroke-width: 0.8"/>
      </g>
     </g>
     <g id="text_6">
      <!-- 500 -->
      <g transform="translate(389.594133 322.182437) scale(0.1 -0.1)">
       <defs>
        <path id="DejaVuSans-35" d="M 691 4666 
L 3169 4666 
L 3169 4134 
L 1269 4134 
L 1269 2991 
Q 1406 3038 1543 3061 
Q 1681 3084 1819 3084 
Q 2600 3084 3056 2656 
Q 3513 2228 3513 1497 
Q 3513 744 3044 326 
Q 2575 -91 1722 -91 
Q 1428 -91 1123 -41 
Q 819 9 494 109 
L 494 744 
Q 775 591 1075 516 
Q 1375 441 1709 441 
Q 2250 441 2565 725 
Q 2881 1009 2881 1497 
Q 2881 1984 2565 2268 
Q 2250 2553 1709 2553 
Q 1456 2553 1204 2497 
Q 953 2441 691 2322 
L 691 4666 
z
" transform="scale(0.015625)"/>
       </defs>
       <use xlink:href="#DejaVuSans-35"/>
       <use xlink:href="#DejaVuSans-30" x="63.623047"/>
       <use xlink:href="#DejaVuSans-30" x="127.246094"/>
      </g>
     </g>
    </g>
    <g id="text_7">
     <!-- EPISODE -->
     <g transform="translate(214.39125 335.860562) scale(0.1 -0.1)">
      <defs>
       <path id="DejaVuSans-45" d="M 628 4666 
L 3578 4666 
L 3578 4134 
L 1259 4134 
L 1259 2753 
L 3481 2753 
L 3481 2222 
L 1259 2222 
L 1259 531 
L 3634 531 
L 3634 0 
L 628 0 
L 628 4666 
z
" transform="scale(0.015625)"/>
       <path id="DejaVuSans-50" d="M 1259 4147 
L 1259 2394 
L 2053 2394 
Q 2494 2394 2734 2622 
Q 2975 2850 2975 3272 
Q 2975 3691 2734 3919 
Q 2494 4147 2053 4147 
L 1259 4147 
z
M 628 4666 
L 2053 4666 
Q 2838 4666 3239 4311 
Q 3641 3956 3641 3272 
Q 3641 2581 3239 2228 
Q 2838 1875 2053 1875 
L 1259 1875 
L 1259 0 
L 628 0 
L 628 4666 
z
" transform="scale(0.015625)"/>
       <path id="DejaVuSans-49" d="M 628 4666 
L 1259 4666 
L 1259 0 
L 628 0 
L 628 4666 
z
" transform="scale(0.015625)"/>
       <path id="DejaVuSans-53" d="M 3425 4513 
L 3425 3897 
Q 3066 4069 2747 4153 
Q 2428 4238 2131 4238 
Q 1616 4238 1336 4038 
Q 1056 3838 1056 3469 
Q 1056 3159 1242 3001 
Q 1428 2844 1947 2747 
L 2328 2669 
Q 3034 2534 3370 2195 
Q 3706 1856 3706 1288 
Q 3706 609 3251 259 
Q 2797 -91 1919 -91 
Q 1588 -91 1214 -16 
Q 841 59 441 206 
L 441 856 
Q 825 641 1194 531 
Q 1563 422 1919 422 
Q 2459 422 2753 634 
Q 3047 847 3047 1241 
Q 3047 1584 2836 1778 
Q 2625 1972 2144 2069 
L 1759 2144 
Q 1053 2284 737 2584 
Q 422 2884 422 3419 
Q 422 4038 858 4394 
Q 1294 4750 2059 4750 
Q 2388 4750 2728 4690 
Q 3069 4631 3425 4513 
z
" transform="scale(0.015625)"/>
       <path id="DejaVuSans-4f" d="M 2522 4238 
Q 1834 4238 1429 3725 
Q 1025 3213 1025 2328 
Q 1025 1447 1429 934 
Q 1834 422 2522 422 
Q 3209 422 3611 934 
Q 4013 1447 4013 2328 
Q 4013 3213 3611 3725 
Q 3209 4238 2522 4238 
z
M 2522 4750 
Q 3503 4750 4090 4092 
Q 4678 3434 4678 2328 
Q 4678 1225 4090 567 
Q 3503 -91 2522 -91 
Q 1538 -91 948 565 
Q 359 1222 359 2328 
Q 359 3434 948 4092 
Q 1538 4750 2522 4750 
z
" transform="scale(0.015625)"/>
       <path id="DejaVuSans-44" d="M 1259 4147 
L 1259 519 
L 2022 519 
Q 2988 519 3436 956 
Q 3884 1394 3884 2338 
Q 3884 3275 3436 3711 
Q 2988 4147 2022 4147 
L 1259 4147 
z
M 628 4666 
L 1925 4666 
Q 3281 4666 3915 4102 
Q 4550 3538 4550 2338 
Q 4550 1131 3912 565 
Q 3275 0 1925 0 
L 628 0 
L 628 4666 
z
" transform="scale(0.015625)"/>
      </defs>
      <use xlink:href="#DejaVuSans-45"/>
      <use xlink:href="#DejaVuSans-50" x="63.183594"/>
      <use xlink:href="#DejaVuSans-49" x="123.486328"/>
      <use xlink:href="#DejaVuSans-53" x="152.978516"/>
      <use xlink:href="#DejaVuSans-4f" x="216.455078"/>
      <use xlink:href="#DejaVuSans-44" x="295.166016"/>
      <use xlink:href="#DejaVuSans-45" x="372.167969"/>
     </g>
    </g>
   </g>
   <g id="matplotlib.axis_2">
    <g id="ytick_1">
     <g id="line2d_7">
      <defs>
       <path id="mf6af21a048" d="M 0 0 
L -3.5 0 
" style="stroke: #000000; stroke-width: 0.8"/>
      </defs>
      <g>
       <use xlink:href="#mf6af21a048" x="57.6" y="294.159628" style="stroke: #000000; stroke-width: 0.8"/>
      </g>
     </g>
     <g id="text_8">
      <!-- −1750 -->
      <g transform="translate(16.770313 297.958847) scale(0.1 -0.1)">
       <defs>
        <path id="DejaVuSans-2212" d="M 678 2272 
L 4684 2272 
L 4684 1741 
L 678 1741 
L 678 2272 
z
" transform="scale(0.015625)"/>
        <path id="DejaVuSans-37" d="M 525 4666 
L 3525 4666 
L 3525 4397 
L 1831 0 
L 1172 0 
L 2766 4134 
L 525 4134 
L 525 4666 
z
" transform="scale(0.015625)"/>
       </defs>
       <use xlink:href="#DejaVuSans-2212"/>
       <use xlink:href="#DejaVuSans-31" x="83.789062"/>
       <use xlink:href="#DejaVuSans-37" x="147.412109"/>
       <use xlink:href="#DejaVuSans-35" x="211.035156"/>
       <use xlink:href="#DejaVuSans-30" x="274.658203"/>
      </g>
     </g>
    </g>
    <g id="ytick_2">
     <g id="line2d_8">
      <g>
       <use xlink:href="#mf6af21a048" x="57.6" y="259.782514" style="stroke: #000000; stroke-width: 0.8"/>
      </g>
     </g>
     <g id="text_9">
      <!-- −1500 -->
      <g transform="translate(16.770313 263.581733) scale(0.1 -0.1)">
       <use xlink:href="#DejaVuSans-2212"/>
       <use xlink:href="#DejaVuSans-31" x="83.789062"/>
       <use xlink:href="#DejaVuSans-35" x="147.412109"/>
       <use xlink:href="#DejaVuSans-30" x="211.035156"/>
       <use xlink:href="#DejaVuSans-30" x="274.658203"/>
      </g>
     </g>
    </g>
    <g id="ytick_3">
     <g id="line2d_9">
      <g>
       <use xlink:href="#mf6af21a048" x="57.6" y="225.405401" style="stroke: #000000; stroke-width: 0.8"/>
      </g>
     </g>
     <g id="text_10">
      <!-- −1250 -->
      <g transform="translate(16.770313 229.20462) scale(0.1 -0.1)">
       <use xlink:href="#DejaVuSans-2212"/>
       <use xlink:href="#DejaVuSans-31" x="83.789062"/>
       <use xlink:href="#DejaVuSans-32" x="147.412109"/>
       <use xlink:href="#DejaVuSans-35" x="211.035156"/>
       <use xlink:href="#DejaVuSans-30" x="274.658203"/>
      </g>
     </g>
    </g>
    <g id="ytick_4">
     <g id="line2d_10">
      <g>
       <use xlink:href="#mf6af21a048" x="57.6" y="191.028287" style="stroke: #000000; stroke-width: 0.8"/>
      </g>
     </g>
     <g id="text_11">
      <!-- −1000 -->
      <g transform="translate(16.770313 194.827506) scale(0.1 -0.1)">
       <use xlink:href="#DejaVuSans-2212"/>
       <use xlink:href="#DejaVuSans-31" x="83.789062"/>
       <use xlink:href="#DejaVuSans-30" x="147.412109"/>
       <use xlink:href="#DejaVuSans-30" x="211.035156"/>
       <use xlink:href="#DejaVuSans-30" x="274.658203"/>
      </g>
     </g>
    </g>
    <g id="ytick_5">
     <g id="line2d_11">
      <g>
       <use xlink:href="#mf6af21a048" x="57.6" y="156.651174" style="stroke: #000000; stroke-width: 0.8"/>
      </g>
     </g>
     <g id="text_12">
      <!-- −750 -->
      <g transform="translate(23.132812 160.450392) scale(0.1 -0.1)">
       <use xlink:href="#DejaVuSans-2212"/>
       <use xlink:href="#DejaVuSans-37" x="83.789062"/>
       <use xlink:href="#DejaVuSans-35" x="147.412109"/>
       <use xlink:href="#DejaVuSans-30" x="211.035156"/>
      </g>
     </g>
    </g>
    <g id="ytick_6">
     <g id="line2d_12">
      <g>
       <use xlink:href="#mf6af21a048" x="57.6" y="122.27406" style="stroke: #000000; stroke-width: 0.8"/>
      </g>
     </g>
     <g id="text_13">
      <!-- −500 -->
      <g transform="translate(23.132812 126.073279) scale(0.1 -0.1)">
       <use xlink:href="#DejaVuSans-2212"/>
       <use xlink:href="#DejaVuSans-35" x="83.789062"/>
       <use xlink:href="#DejaVuSans-30" x="147.412109"/>
       <use xlink:href="#DejaVuSans-30" x="211.035156"/>
      </g>
     </g>
    </g>
    <g id="ytick_7">
     <g id="line2d_13">
      <g>
       <use xlink:href="#mf6af21a048" x="57.6" y="87.896947" style="stroke: #000000; stroke-width: 0.8"/>
      </g>
     </g>
     <g id="text_14">
      <!-- −250 -->
      <g transform="translate(23.132812 91.696165) scale(0.1 -0.1)">
       <use xlink:href="#DejaVuSans-2212"/>
       <use xlink:href="#DejaVuSans-32" x="83.789062"/>
       <use xlink:href="#DejaVuSans-35" x="147.412109"/>
       <use xlink:href="#DejaVuSans-30" x="211.035156"/>
      </g>
     </g>
    </g>
    <g id="ytick_8">
     <g id="line2d_14">
      <g>
       <use xlink:href="#mf6af21a048" x="57.6" y="53.519833" style="stroke: #000000; stroke-width: 0.8"/>
      </g>
     </g>
     <g id="text_15">
      <!-- 0 -->
      <g transform="translate(44.2375 57.319052) scale(0.1 -0.1)">
       <use xlink:href="#DejaVuSans-30"/>
      </g>
     </g>
    </g>
    <g id="text_16">
     <!-- RETURN -->
     <g transform="translate(10.690625 195.089719) rotate(-90) scale(0.1 -0.1)">
      <defs>
       <path id="DejaVuSans-52" d="M 2841 2188 
Q 3044 2119 3236 1894 
Q 3428 1669 3622 1275 
L 4263 0 
L 3584 0 
L 2988 1197 
Q 2756 1666 2539 1819 
Q 2322 1972 1947 1972 
L 1259 1972 
L 1259 0 
L 628 0 
L 628 4666 
L 2053 4666 
Q 2853 4666 3247 4331 
Q 3641 3997 3641 3322 
Q 3641 2881 3436 2590 
Q 3231 2300 2841 2188 
z
M 1259 4147 
L 1259 2491 
L 2053 2491 
Q 2509 2491 2742 2702 
Q 2975 2913 2975 3322 
Q 2975 3731 2742 3939 
Q 2509 4147 2053 4147 
L 1259 4147 
z
" transform="scale(0.015625)"/>
       <path id="DejaVuSans-54" d="M -19 4666 
L 3928 4666 
L 3928 4134 
L 2272 4134 
L 2272 0 
L 1638 0 
L 1638 4134 
L -19 4134 
L -19 4666 
z
" transform="scale(0.015625)"/>
       <path id="DejaVuSans-55" d="M 556 4666 
L 1191 4666 
L 1191 1831 
Q 1191 1081 1462 751 
Q 1734 422 2344 422 
Q 2950 422 3222 751 
Q 3494 1081 3494 1831 
L 3494 4666 
L 4128 4666 
L 4128 1753 
Q 4128 841 3676 375 
Q 3225 -91 2344 -91 
Q 1459 -91 1007 375 
Q 556 841 556 1753 
L 556 4666 
z
" transform="scale(0.015625)"/>
       <path id="DejaVuSans-4e" d="M 628 4666 
L 1478 4666 
L 3547 763 
L 3547 4666 
L 4159 4666 
L 4159 0 
L 3309 0 
L 1241 3903 
L 1241 0 
L 628 0 
L 628 4666 
z
" transform="scale(0.015625)"/>
      </defs>
      <use xlink:href="#DejaVuSans-52"/>
      <use xlink:href="#DejaVuSans-45" x="69.482422"/>
      <use xlink:href="#DejaVuSans-54" x="132.666016"/>
      <use xlink:href="#DejaVuSans-55" x="193.75"/>
      <use xlink:href="#DejaVuSans-52" x="266.943359"/>
      <use xlink:href="#DejaVuSans-4e" x="336.425781"/>
     </g>
    </g>
   </g>
   <g id="line2d_15">
    <path d="M 73.832727 241.38972 
L 74.483338 228.887976 
L 75.133948 261.978722 
L 75.784558 282.376762 
L 76.435169 232.336754 
L 77.085779 248.582301 
L 77.736389 260.082631 
L 78.386999 295.488 
L 79.68822 217.081483 
L 80.33883 214.785472 
L 80.989441 173.552437 
L 81.640051 197.692935 
L 82.290661 201.459238 
L 82.941272 177.88273 
L 83.591882 204.643704 
L 84.242492 192.930429 
L 84.893103 176.863888 
L 85.543713 173.483794 
L 86.194323 176.032133 
L 86.844934 157.825279 
L 87.495544 158.371022 
L 88.146154 175.491603 
L 88.796764 140.341117 
L 89.447375 157.481136 
L 90.097985 165.929827 
L 90.748595 145.503588 
L 91.399206 155.080433 
L 92.049816 156.439613 
L 92.700426 140.698256 
L 93.351037 138.796586 
L 94.001647 106.576113 
L 94.652257 89.26497 
L 95.302868 106.824237 
L 95.953478 136.390885 
L 96.604088 136.882793 
L 97.254698 123.004575 
L 97.905309 138.953768 
L 98.555919 122.162345 
L 99.206529 122.667396 
L 99.85714 138.086645 
L 100.50775 122.645953 
L 101.15836 121.881929 
L 101.808971 122.188082 
L 102.459581 106.510239 
L 103.110191 136.697915 
L 103.760802 115.343472 
L 104.411412 121.610355 
L 105.062022 125.22183 
L 105.712633 154.349112 
L 106.363243 133.750456 
L 107.013853 132.904222 
L 107.664463 124.872744 
L 108.315074 107.049963 
L 108.965684 125.272384 
L 109.616294 88.00897 
L 110.917515 147.835499 
L 111.568125 88.735368 
L 112.869346 53.790083 
L 113.519956 88.054107 
L 114.170567 70.355136 
L 114.821177 70.495391 
L 115.471787 70.99795 
L 116.122398 104.057378 
L 116.773008 70.592066 
L 117.423618 71.552001 
L 118.074228 110.837622 
L 118.724839 102.594513 
L 119.375449 88.127333 
L 120.026059 54.159332 
L 120.67667 110.976054 
L 121.32728 105.30899 
L 121.97789 71.423382 
L 122.628501 104.638531 
L 123.279111 71.331633 
L 123.929721 88.109643 
L 124.580332 53.718485 
L 125.230942 70.778796 
L 125.881552 71.919114 
L 126.532163 71.679474 
L 127.182773 70.904107 
L 127.833383 70.961081 
L 128.483993 70.19193 
L 129.134604 88.19558 
L 129.785214 53.69324 
L 131.086435 88.078031 
L 131.737045 53.568 
L 132.387655 55.348691 
L 133.038266 127.059751 
L 133.688876 103.970804 
L 134.339486 71.603856 
L 134.990097 89.522625 
L 135.640707 72.614908 
L 136.291317 72.798593 
L 136.941927 132.114071 
L 137.592538 122.831238 
L 138.243148 137.583717 
L 138.893758 91.680487 
L 139.544369 89.066769 
L 140.194979 121.663623 
L 140.845589 103.642352 
L 141.4962 70.818471 
L 142.79742 70.734925 
L 143.448031 54.026395 
L 144.098641 102.346231 
L 144.749251 71.412567 
L 145.399862 104.636866 
L 146.050472 71.332327 
L 146.701082 71.474904 
L 147.351692 71.059959 
L 148.002303 71.822453 
L 148.652913 108.103972 
L 149.303523 55.652596 
L 149.954134 55.353717 
L 150.604744 195.993377 
L 151.255354 55.002645 
L 151.905965 89.684666 
L 152.556575 72.762882 
L 153.207185 73.082854 
L 153.857796 71.717801 
L 154.508406 55.901544 
L 155.159016 87.609052 
L 155.809627 102.898042 
L 156.460237 56.103806 
L 157.110847 88.518852 
L 157.761457 88.686748 
L 158.412068 89.679984 
L 159.062678 87.712208 
L 159.713288 89.464771 
L 160.363899 72.687354 
L 161.014509 87.460709 
L 161.665119 56.319256 
L 162.31573 72.572734 
L 162.96634 109.085793 
L 163.61695 72.983666 
L 164.267561 88.385773 
L 164.918171 72.158537 
L 165.568781 72.92659 
L 166.219392 91.441436 
L 166.870002 87.373578 
L 167.520612 56.548435 
L 168.171222 55.936824 
L 168.821833 71.732046 
L 169.472443 56.242306 
L 170.123053 72.366054 
L 170.773664 72.687987 
L 171.424274 89.92259 
L 172.074884 56.146641 
L 172.725495 55.978367 
L 173.376105 88.991191 
L 174.026715 107.763345 
L 174.677326 54.749265 
L 175.327936 71.924168 
L 175.978546 54.809475 
L 176.629156 87.524592 
L 177.930377 55.831832 
L 179.231598 87.524516 
L 179.882208 72.341118 
L 180.532818 71.559407 
L 181.183429 105.121846 
L 181.834039 73.451918 
L 182.484649 91.152467 
L 183.13526 54.168485 
L 183.78587 70.498783 
L 184.43648 115.519016 
L 185.087091 89.411921 
L 185.737701 54.368687 
L 186.388311 71.267364 
L 187.038921 53.764831 
L 187.689532 87.291214 
L 188.340142 71.90315 
L 188.990752 105.641787 
L 190.291973 71.051092 
L 190.942583 71.125784 
L 191.593194 106.822149 
L 192.243804 107.084117 
L 192.894414 71.893834 
L 193.545025 71.575283 
L 194.195635 55.118234 
L 194.846245 71.495704 
L 195.496856 71.532364 
L 196.147466 88.548201 
L 196.798076 89.170682 
L 197.448686 88.80489 
L 198.749907 121.039295 
L 199.400517 54.975912 
L 200.051128 122.402695 
L 200.701738 123.713431 
L 201.352348 87.898944 
L 202.653569 117.817017 
L 203.304179 71.382346 
L 203.95479 54.184996 
L 204.6054 71.208478 
L 205.25601 54.431992 
L 205.906621 54.35562 
L 206.557231 88.627799 
L 207.207841 86.12656 
L 207.858451 70.884135 
L 208.509062 71.500853 
L 209.159672 104.894234 
L 210.460893 73.456429 
L 211.111503 86.895094 
L 211.762113 54.379669 
L 212.412724 70.820939 
L 213.063334 108.111644 
L 213.713944 54.358209 
L 214.364555 96.466825 
L 215.015165 54.483901 
L 215.665775 54.062965 
L 216.316385 70.96006 
L 216.966996 72.099377 
L 217.617606 88.34912 
L 218.268216 87.292002 
L 218.918827 105.428923 
L 219.569437 71.97011 
L 220.220047 86.87455 
L 220.870658 71.799159 
L 221.521268 88.566158 
L 222.171878 71.424679 
L 222.822489 90.113982 
L 223.473099 70.596737 
L 224.123709 69.801187 
L 224.77432 86.382662 
L 225.42493 69.92189 
L 226.07554 70.194561 
L 226.72615 102.428065 
L 227.376761 70.363945 
L 228.027371 70.592389 
L 228.677981 69.7968 
L 229.328592 70.856074 
L 229.979202 70.866928 
L 230.629812 70.473679 
L 231.280423 70.83898 
L 231.931033 104.098074 
L 233.232254 71.381173 
L 233.882864 69.694561 
L 234.533474 70.614129 
L 235.184085 70.896755 
L 235.834695 70.107008 
L 236.485305 88.058299 
L 237.135915 89.467699 
L 237.786526 72.369373 
L 238.437136 116.242938 
L 239.087746 70.513659 
L 239.738357 107.887067 
L 240.388967 70.959769 
L 241.039577 69.808034 
L 241.690188 127.368518 
L 242.340798 72.394107 
L 242.991408 70.959466 
L 243.642019 72.519764 
L 244.292629 103.602516 
L 244.943239 70.543395 
L 245.59385 70.624893 
L 246.24446 87.32092 
L 246.89507 70.399595 
L 248.196291 106.814529 
L 248.846901 71.399943 
L 249.497511 70.711325 
L 250.148122 55.316348 
L 250.798732 70.43055 
L 251.449342 88.32093 
L 252.099953 89.032364 
L 252.750563 71.486145 
L 253.401173 107.14964 
L 254.702394 72.198022 
L 255.353004 241.704705 
L 256.003615 89.517996 
L 256.654225 108.842102 
L 257.304835 94.618464 
L 257.955445 108.290825 
L 258.606056 72.41047 
L 259.256666 71.229543 
L 259.907276 88.444131 
L 260.557887 70.290763 
L 261.208497 72.358442 
L 261.859107 71.984938 
L 262.509718 88.591962 
L 263.160328 55.49396 
L 263.810938 70.591906 
L 264.461549 70.636619 
L 265.112159 71.850243 
L 265.762769 71.09952 
L 266.413379 106.046374 
L 267.7146 70.682423 
L 268.36521 71.803021 
L 269.015821 72.465341 
L 269.666431 71.826737 
L 270.317041 103.19128 
L 270.967652 88.700205 
L 271.618262 89.294683 
L 272.268872 72.343024 
L 272.919483 125.108381 
L 273.570093 87.521247 
L 274.220703 71.75823 
L 274.871314 107.42132 
L 275.521924 71.991634 
L 276.172534 87.254912 
L 276.823144 105.474808 
L 277.473755 71.682601 
L 278.774975 105.784364 
L 279.425586 89.034493 
L 280.076196 55.412356 
L 280.726806 89.39852 
L 281.377417 71.721777 
L 282.678637 106.449871 
L 283.329248 102.772207 
L 283.979858 71.855692 
L 284.630468 88.965278 
L 285.281079 71.460357 
L 285.931689 88.976871 
L 286.582299 55.435219 
L 287.232909 107.684408 
L 287.88352 74.107782 
L 288.53413 108.888906 
L 289.18474 89.589287 
L 289.835351 125.877871 
L 291.136571 91.629193 
L 291.787182 90.327468 
L 292.437792 89.656025 
L 293.088402 74.034034 
L 293.739013 87.152497 
L 294.389623 106.035557 
L 295.040233 106.86049 
L 295.690844 107.901508 
L 296.341454 109.213167 
L 296.992064 106.89833 
L 297.642674 90.172414 
L 298.293285 105.970828 
L 298.943895 73.525903 
L 300.245116 73.977689 
L 300.895726 89.849851 
L 301.546336 57.406255 
L 302.196947 73.200242 
L 302.847557 74.086578 
L 303.498167 106.072659 
L 304.799388 73.395755 
L 305.449998 73.112571 
L 306.100608 73.018169 
L 306.751219 72.415255 
L 307.401829 73.345318 
L 308.052439 71.530504 
L 308.70305 88.888316 
L 309.35366 72.698262 
L 310.00427 72.06591 
L 310.654881 73.641983 
L 311.305491 89.657444 
L 311.956101 73.162625 
L 312.606712 89.808795 
L 313.257322 90.499098 
L 313.907932 106.511021 
L 314.558543 89.551695 
L 315.209153 103.746277 
L 315.859763 89.754934 
L 316.510373 90.044626 
L 317.160984 72.449486 
L 317.811594 89.551696 
L 318.462204 73.685919 
L 319.112815 129.868042 
L 319.763425 73.769691 
L 320.414035 73.531772 
L 321.064646 92.924742 
L 321.715256 90.244916 
L 322.365866 73.851464 
L 323.016477 106.902998 
L 323.667087 73.914567 
L 324.317697 106.03079 
L 324.968308 72.00728 
L 325.618918 107.132927 
L 326.269528 53.973297 
L 326.920138 54.890702 
L 327.570749 73.262742 
L 328.221359 55.709539 
L 329.52258 119.346488 
L 330.17319 103.878864 
L 330.8238 57.091593 
L 331.474411 122.057225 
L 332.125021 88.831886 
L 332.775631 72.563351 
L 333.426242 104.443027 
L 334.076852 72.182623 
L 334.727462 89.136524 
L 335.378073 88.241857 
L 336.028683 88.122532 
L 336.679293 105.361549 
L 337.329903 86.816484 
L 337.980514 105.118355 
L 338.631124 106.311409 
L 339.281734 111.57507 
L 339.932345 103.699612 
L 340.582955 158.143218 
L 341.233565 70.440784 
L 342.534786 104.541026 
L 343.185396 53.795938 
L 343.836007 87.700599 
L 344.486617 72.202225 
L 345.137227 72.155646 
L 345.787837 71.02218 
L 346.438448 70.266552 
L 347.089058 71.87955 
L 347.739668 71.838231 
L 348.390279 55.434706 
L 349.040889 72.519869 
L 349.691499 105.524005 
L 350.34211 72.0152 
L 350.99272 55.200576 
L 351.64333 71.342081 
L 352.293941 71.939033 
L 352.944551 71.71252 
L 353.595161 103.718772 
L 354.245772 105.617389 
L 354.896382 72.217212 
L 355.546992 70.126927 
L 356.197602 72.727872 
L 357.498823 104.180155 
L 358.149433 71.354302 
L 358.800044 72.192176 
L 359.450654 131.979906 
L 360.101264 71.477788 
L 360.751875 71.845352 
L 361.402485 88.225871 
L 362.053095 87.936478 
L 362.703706 70.319135 
L 363.354316 89.035676 
L 364.004926 71.90081 
L 364.655537 105.555752 
L 365.306147 71.0486 
L 365.956757 54.676778 
L 366.607367 70.667537 
L 367.257978 54.423694 
L 367.908588 70.850796 
L 368.559198 71.038266 
L 369.860419 102.965804 
L 370.511029 71.12375 
L 371.16164 87.566412 
L 371.81225 87.922837 
L 372.46286 88.553558 
L 373.113471 71.438581 
L 373.764081 71.925889 
L 374.414691 71.451882 
L 375.065302 87.321989 
L 375.715912 71.603327 
L 376.366522 105.717133 
L 377.017132 70.85076 
L 377.667743 71.451568 
L 378.318353 88.359628 
L 378.968963 71.441103 
L 379.619574 70.889107 
L 380.270184 71.187979 
L 380.920794 103.305962 
L 381.571405 71.369954 
L 382.222015 71.671682 
L 382.872625 71.356182 
L 383.523236 71.2218 
L 384.173846 88.820788 
L 384.824456 70.377813 
L 385.475066 71.169049 
L 386.125677 105.794866 
L 386.776287 71.242309 
L 387.426897 71.132079 
L 388.077508 103.660446 
L 388.728118 54.495608 
L 389.378728 70.638341 
L 390.029339 71.89756 
L 390.679949 98.80584 
L 391.330559 70.74714 
L 391.98117 70.83657 
L 392.63178 104.164169 
L 393.28239 70.552434 
L 393.933001 108.74686 
L 394.583611 88.286753 
L 395.234221 71.429364 
L 395.884831 71.591269 
L 396.535442 71.098059 
L 397.186052 70.414193 
L 397.836662 54.199097 
L 398.487273 88.066524 
L 398.487273 88.066524 
" clip-path="url(#p391345bee0)" style="fill: none; stroke: #1f77b4; stroke-width: 1.5; stroke-linecap: square"/>
   </g>
   <g id="line2d_16">
    <path d="M 73.832727 129.187779 
L 77.085779 121.486794 
L 78.386999 117.815111 
L 79.03761 115.400496 
L 80.33883 112.413695 
L 82.290661 109.027826 
L 83.591882 106.663225 
L 84.242492 105.697829 
L 85.543713 103.109952 
L 86.194323 103.335053 
L 86.844934 102.124753 
L 87.495544 101.443351 
L 90.748595 97.077944 
L 91.399206 96.651885 
L 92.049816 95.662121 
L 93.351037 94.462799 
L 94.001647 93.971628 
L 94.652257 93.782995 
L 95.302868 93.784992 
L 95.953478 93.443626 
L 96.604088 92.954319 
L 97.254698 92.148685 
L 97.905309 91.644371 
L 98.555919 91.345686 
L 99.206529 90.853899 
L 99.85714 90.51108 
L 100.50775 89.851801 
L 101.15836 89.354604 
L 102.459581 88.702058 
L 103.110191 88.20244 
L 103.760802 87.394832 
L 104.411412 86.958712 
L 106.363243 84.959865 
L 107.013853 84.521586 
L 108.315074 83.065065 
L 109.616294 82.709391 
L 110.266905 82.376793 
L 110.917515 81.889202 
L 111.568125 80.958945 
L 114.821177 81.000433 
L 117.423618 81.063748 
L 118.074228 81.259753 
L 118.724839 80.693061 
L 119.375449 80.372106 
L 120.67667 80.998548 
L 121.32728 80.432474 
L 121.97789 80.092058 
L 123.279111 79.742 
L 123.929721 79.747712 
L 124.580332 79.923032 
L 125.230942 80.279403 
L 126.532163 80.274193 
L 127.833383 80.987417 
L 129.134604 81.01058 
L 129.785214 80.679809 
L 130.435824 80.85783 
L 131.737045 80.87402 
L 133.038266 81.564606 
L 133.688876 81.347796 
L 134.339486 81.518479 
L 134.990097 81.3522 
L 135.640707 81.681003 
L 136.291317 82.191987 
L 136.941927 82.342991 
L 137.592538 82.058064 
L 138.243148 82.007921 
L 138.893758 81.34591 
L 139.544369 80.970955 
L 140.194979 80.792368 
L 140.845589 80.120054 
L 141.4962 79.627188 
L 142.79742 79.958928 
L 143.448031 79.96042 
L 144.098641 80.135165 
L 144.749251 80.160644 
L 145.399862 80.330612 
L 146.050472 80.018805 
L 146.701082 80.174434 
L 147.351692 80.003484 
L 148.002303 80.00109 
L 148.652913 80.363984 
L 149.303523 79.826527 
L 149.954134 80.234671 
L 150.604744 80.225974 
L 151.255354 78.806665 
L 151.905965 78.966243 
L 152.556575 78.790388 
L 153.857796 79.088342 
L 154.508406 79.425453 
L 155.159016 79.586139 
L 155.809627 79.578791 
L 156.460237 79.267804 
L 157.110847 79.592427 
L 157.761457 79.421486 
L 158.412068 79.435762 
L 159.713288 79.065816 
L 161.014509 79.007343 
L 161.665119 78.834677 
L 162.31573 79.295765 
L 162.96634 79.273681 
L 163.61695 78.888745 
L 164.267561 78.856876 
L 164.918171 78.681578 
L 166.219392 78.644132 
L 166.870002 78.438108 
L 167.520612 78.605355 
L 168.171222 78.920491 
L 168.821833 79.074937 
L 169.472443 79.054563 
L 170.123053 79.19828 
L 172.074884 79.139136 
L 172.725495 79.472344 
L 174.026715 79.908775 
L 174.677326 79.536277 
L 175.327936 80.067653 
L 175.978546 80.058008 
L 176.629156 80.207994 
L 177.279767 80.606437 
L 177.930377 80.602515 
L 178.580987 80.753788 
L 179.231598 80.758477 
L 179.882208 80.919257 
L 181.183429 80.891936 
L 181.834039 80.713924 
L 183.13526 80.661762 
L 183.78587 81.188223 
L 184.43648 81.197234 
L 185.737701 80.408204 
L 187.038921 80.739358 
L 187.689532 81.092034 
L 188.340142 80.933982 
L 188.990752 81.286448 
L 190.291973 80.953342 
L 190.942583 82.659877 
L 191.593194 82.8438 
L 192.243804 82.864 
L 192.894414 82.739343 
L 193.545025 83.103314 
L 194.195635 83.111669 
L 195.496856 83.442263 
L 196.147466 83.429848 
L 197.448686 83.096094 
L 198.099297 83.093962 
L 199.400517 82.090645 
L 200.051128 82.247251 
L 201.352348 81.215585 
L 202.002959 81.397062 
L 202.653569 81.237061 
L 203.304179 80.765716 
L 203.95479 80.769921 
L 204.6054 80.952723 
L 205.25601 80.958909 
L 205.906621 81.446502 
L 206.557231 81.789946 
L 207.207841 81.796614 
L 207.858451 81.658778 
L 208.509062 82.201021 
L 209.159672 82.36123 
L 209.810282 82.029868 
L 210.460893 82.219985 
L 211.762113 82.208936 
L 212.412724 82.719888 
L 213.063334 82.728506 
L 213.713944 82.524746 
L 214.364555 83.03901 
L 215.665775 82.973971 
L 216.316385 83.327325 
L 216.966996 83.33494 
L 218.918827 83.836696 
L 219.569437 83.500963 
L 220.220047 83.670914 
L 220.870658 83.516773 
L 221.521268 83.688551 
L 222.171878 83.357239 
L 222.822489 83.719838 
L 223.473099 83.559774 
L 224.123709 83.942697 
L 224.77432 84.140578 
L 226.07554 84.91528 
L 226.72615 85.129625 
L 227.376761 85.008619 
L 228.027371 85.201541 
L 228.677981 85.23596 
L 229.328592 85.409516 
L 231.931033 86.879263 
L 233.232254 86.928372 
L 233.882864 87.274264 
L 235.834695 87.374313 
L 236.485305 87.571738 
L 237.135915 87.265219 
L 237.786526 87.102542 
L 238.437136 87.119714 
L 239.087746 87.018012 
L 239.738357 87.208926 
L 240.388967 86.864013 
L 241.690188 86.917644 
L 242.340798 86.368113 
L 243.642019 86.383338 
L 244.292629 86.54702 
L 244.943239 86.237976 
L 248.196291 86.342572 
L 248.846901 86.179417 
L 249.497511 86.530526 
L 250.148122 86.718928 
L 250.798732 87.203227 
L 251.449342 87.396473 
L 252.099953 87.413711 
L 252.750563 87.247886 
L 253.401173 87.42854 
L 254.051784 87.093902 
L 254.702394 87.497697 
L 255.353004 87.513414 
L 256.003615 85.831684 
L 256.654225 85.865753 
L 257.955445 85.47211 
L 259.256666 85.473272 
L 259.907276 85.821284 
L 260.557887 85.656916 
L 261.208497 86.025335 
L 263.160328 85.51725 
L 263.810938 85.51941 
L 264.461549 85.692751 
L 265.112159 86.179847 
L 265.762769 86.500135 
L 266.413379 86.360058 
L 267.06399 86.520165 
L 268.36521 86.551082 
L 269.015821 86.87748 
L 269.666431 86.874651 
L 270.317041 87.047752 
L 270.967652 86.898256 
L 271.618262 86.89248 
L 272.919483 87.197887 
L 273.570093 86.997984 
L 274.220703 87.185885 
L 274.871314 87.584053 
L 275.521924 87.546837 
L 276.172534 88.408354 
L 277.473755 88.067577 
L 278.124365 88.39616 
L 278.774975 88.056759 
L 280.076196 87.707598 
L 280.726806 87.875031 
L 281.377417 87.691269 
L 282.028027 87.676718 
L 282.678637 87.508576 
L 283.329248 87.162459 
L 283.979858 86.689083 
L 284.630468 86.695724 
L 285.281079 86.861311 
L 285.931689 86.866863 
L 286.582299 86.529097 
L 287.232909 86.688168 
L 287.88352 86.330713 
L 289.18474 86.255058 
L 289.835351 86.415342 
L 290.485961 85.878733 
L 291.136571 85.501033 
L 291.787182 85.312022 
L 292.437792 85.299297 
L 293.088402 85.444535 
L 293.739013 85.417736 
L 294.389623 85.268132 
L 295.040233 85.527576 
L 296.341454 84.813191 
L 298.943895 84.045816 
L 299.594505 84.029563 
L 300.245116 84.348059 
L 300.895726 84.318766 
L 301.546336 83.967037 
L 302.196947 84.09965 
L 302.847557 83.911887 
L 303.498167 83.879526 
L 304.148778 83.529184 
L 304.799388 83.512797 
L 305.449998 83.808496 
L 306.100608 83.788607 
L 308.052439 84.241248 
L 308.70305 84.240329 
L 309.35366 84.070709 
L 310.00427 84.058242 
L 310.654881 84.210801 
L 311.305491 84.190414 
L 311.956101 84.351012 
L 312.606712 84.327893 
L 313.257322 84.144325 
L 313.907932 84.122927 
L 314.558543 83.77223 
L 315.209153 83.585602 
L 315.859763 83.260023 
L 316.510373 83.395532 
L 317.160984 83.208785 
L 317.811594 83.201009 
L 318.462204 83.019049 
L 319.112815 82.994408 
L 319.763425 82.583935 
L 321.064646 82.526389 
L 321.715256 82.655091 
L 322.365866 82.465065 
L 323.667087 82.405446 
L 324.317697 82.211257 
L 324.968308 81.857334 
L 326.920138 81.940698 
L 327.570749 82.10016 
L 328.221359 82.409175 
L 329.52258 82.765808 
L 330.8238 82.130712 
L 331.474411 82.275712 
L 332.125021 81.766121 
L 334.076852 81.234539 
L 334.727462 87.047752 
L 335.378073 86.898256 
L 336.028683 86.89248 
L 337.329903 87.197887 
L 337.980514 86.997984 
L 338.631124 87.185885 
L 339.281734 87.584053 
L 339.932345 87.546837 
L 340.582955 88.408354 
L 341.884176 88.067577 
L 342.534786 88.39616 
L 343.185396 88.056759 
L 344.486617 87.707598 
L 345.137227 87.875031 
L 345.787837 87.691269 
L 346.438448 87.676718 
L 347.089058 87.508576 
L 347.739668 87.162459 
L 348.390279 86.689083 
L 349.040889 86.695724 
L 349.691499 86.861311 
L 350.34211 86.866863 
L 350.99272 86.529097 
L 351.64333 86.688168 
L 352.293941 86.330713 
L 353.595161 86.255058 
L 354.245772 86.415342 
L 354.896382 85.878733 
L 355.546992 85.501033 
L 356.197602 85.312022 
L 356.848213 85.299297 
L 357.498823 85.444535 
L 358.149433 85.417736 
L 358.800044 85.268132 
L 359.450654 85.527576 
L 360.751875 84.813191 
L 363.354316 84.045816 
L 364.004926 84.029563 
L 364.655537 84.348059 
L 365.306147 84.318766 
L 365.956757 83.967037 
L 366.607367 84.09965 
L 367.257978 83.911887 
L 367.908588 83.879526 
L 368.559198 83.529184 
L 369.209809 83.512797 
L 369.860419 83.808496 
L 370.511029 83.788607 
L 372.46286 84.241248 
L 373.113471 84.240329 
L 373.764081 84.070709 
L 374.414691 84.058242 
L 375.065302 84.210801 
L 375.715912 84.190414 
L 376.366522 84.351012 
L 377.017132 84.327893 
L 377.667743 84.144325 
L 378.318353 84.122927 
L 378.968963 83.77223 
L 379.619574 83.585602 
L 380.270184 83.260023 
L 380.920794 83.395532 
L 381.571405 83.208785 
L 382.222015 83.201009 
L 382.872625 83.019049 
L 383.523236 82.994408 
L 384.173846 82.583935 
L 385.475066 82.526389 
L 386.125677 82.655091 
L 386.776287 82.465065 
L 388.077508 82.405446 
L 388.728118 82.211257 
L 389.378728 81.857334 
L 391.330559 81.940698 
L 391.98117 82.10016 
L 392.63178 82.409175 
L 393.933001 82.765808 
L 395.234221 82.130712 
L 395.884831 82.275712 
L 396.535442 81.766121 
L 398.487273 81.234539 
L 398.487273 81.234539 
" clip-path="url(#p391345bee0)" style="fill: none; stroke: #ff7f0e; stroke-width: 1.5; stroke-linecap: square"/>
   </g>
   <g id="patch_3">
    <path d="M 57.6 307.584 
L 57.6 41.472 
" style="fill: none; stroke: #000000; stroke-width: 0.8; stroke-linejoin: miter; stroke-linecap: square"/>
   </g>
   <g id="patch_4">
    <path d="M 414.72 307.584 
L 414.72 41.472 
" style="fill: none; stroke: #000000; stroke-width: 0.8; stroke-linejoin: miter; stroke-linecap: square"/>
   </g>
   <g id="patch_5">
    <path d="M 57.6 307.584 
L 414.72 307.584 
" style="fill: none; stroke: #000000; stroke-width: 0.8; stroke-linejoin: miter; stroke-linecap: square"/>
   </g>
   <g id="patch_6">
    <path d="M 57.6 41.472 
L 414.72 41.472 
" style="fill: none; stroke: #000000; stroke-width: 0.8; stroke-linejoin: miter; stroke-linecap: square"/>
   </g>
   <g id="text_17">
    <!-- RESULT -->
    <g transform="translate(213.816563 35.472) scale(0.12 -0.12)">
     <defs>
      <path id="DejaVuSans-4c" d="M 628 4666 
L 1259 4666 
L 1259 531 
L 3531 531 
L 3531 0 
L 628 0 
L 628 4666 
z
" transform="scale(0.015625)"/>
     </defs>
     <use xlink:href="#DejaVuSans-52"/>
     <use xlink:href="#DejaVuSans-45" x="69.482422"/>
     <use xlink:href="#DejaVuSans-53" x="132.666016"/>
     <use xlink:href="#DejaVuSans-55" x="196.142578"/>
     <use xlink:href="#DejaVuSans-4c" x="269.335938"/>
     <use xlink:href="#DejaVuSans-54" x="311.298828"/>
    </g>
   </g>
  </g>
 </g>
 <defs>
  <clipPath id="p391345bee0">
   <rect x="57.6" y="41.472" width="357.12" height="266.112"/>
  </clipPath>
 </defs>
</svg>
